<svg xmlns="http://www.w3.org/2000/svg" viewBox="0 0 1024 1024"><path d="M388.19328 796.09856a15.18592 15.18592 0 0 1 20.29056-7.51104 234.624 234.624 0 0 0 201.57952 0.29184 15.03232 15.03232 0 0 1 16.81408 2.24768c1.50016 1.33632 2.7136 2.96448 3.57888 4.77696a163.46624 163.46624 0 0 0 13.99296 22.71744 3.9424 3.9424 0 0 1 1.29536 1.63328c3.07712 3.85024 4.28032 9.00096 3.2256 13.86496a15.872 15.872 0 0 1-2.8672 6.33856 15.872 15.872 0 0 1-5.30944 4.49024 294.5792 294.5792 0 0 1-261.35552 0 16.72704 16.72704 0 0 1-8.55552-11.21792c-1.05984-4.66432 0-9.6256 2.88256-13.37856a165.96992 165.96992 0 0 0 14.42816-24.25344zM351.6416 329.07264a15.96416 15.96416 0 0 1 10.2912 9.28768 142.55616 142.55616 0 0 0 12.78976 25.55392 16.2816 16.2816 0 0 1-3.84512 21.7088 237.2352 237.2352 0 0 0-94.1568 159.39584 15.85664 15.85664 0 0 1-16.82944 14.0032 149.5808 149.5808 0 0 0-27.79648 0.48128h-1.68448a15.30368 15.30368 0 0 1-11.4432-5.43744 16.34304 16.34304 0 0 1-3.84512-12.31872C225.1264 456.50944 270.1312 379.84768 338.70848 331.33568a14.8992 14.8992 0 0 1 12.93824-2.26304z m313.1904-1.87904a15.22688 15.22688 0 0 1 12.98432 1.73568c69.24288 47.93344 115.16928 124.50304 125.89056 209.97632a16.77824 16.77824 0 0 1-4.46976 13.6192 15.05792 15.05792 0 0 1-10.82368 4.62336h-1.73056a147.36384 147.36384 0 0 0-28.032-0.48128 15.98464 15.98464 0 0 1-16.59392-13.95712 237.60896 237.60896 0 0 0-95.93344-158.34112 14.94528 14.94528 0 0 1-6.39488-10.10688 16.7424 16.7424 0 0 1 2.11968-11.83744 142.3104 142.3104 0 0 0 12.83584-25.98912 16.5376 16.5376 0 0 1 10.14784-9.2416zM507.73504 153.6c32.8448 0 64.29184 13.47584 87.424 37.53984 23.12704 24.064 35.968 56.69376 35.72736 90.5728a142.8736 142.8736 0 0 1-2.25792 23.58272c-11.35104 60.06272-62.1312 103.37792-121.27744 103.5264a122.34752 122.34752 0 0 1-97.47456-49.57696 136.98048 136.98048 0 0 1-23.3216-52.8384 146.61632 146.61632 0 0 1-2.25792-25.12384c0.0512-70.41024 55.296-127.5904 123.4432-127.68256z m0 65.50016c-33.41824 0-60.8256 27.57632-61.7472 62.1312 0 1.83296 0.19456 3.6608 0.58368 5.39136v0.57856c2.06336 21.94432 14.90432 41.24672 34.048 51.01568 19.08736 9.76896 41.73312 8.66304 59.91424-2.88768 16.44544-10.58816 27.12064-28.59008 28.75392-48.512v-0.62464c0.24576-1.6384 0.34304-3.3024 0.28672-4.96128-0.96256-34.55488-28.32384-62.08-61.78816-62.08l-0.0512-0.0512zM772.85376 593.92c10.2656 0 20.48 1.35168 30.3616 4.1472 50.08384 13.11744 86.89152 57.48224 92.14464 111.05792 5.25312 53.52448-22.20032 104.78592-68.75136 128.17408a118.65088 118.65088 0 0 1-73.30816 10.91072 119.296 119.296 0 0 1-65.61792-34.78016 134.45632 134.45632 0 0 1-30.32064-49.28512 120.1664 120.1664 0 0 1-7.11168-42.33728 130.22208 130.22208 0 0 1 35.80928-90.56256 120.23808 120.23808 0 0 1 39.63904-27.63264 119.30624 119.30624 0 0 1 47.20128-9.69216h-0.04608z m-0.09728 64.32768c-15.13472 0-29.696 5.79072-40.96 16.25088a63.36 63.36 0 0 0-19.0976 35.78368 56.68352 56.68352 0 0 0-1.19296 11.5712c0.14336 18.23232 7.7312 35.58912 20.864 47.744 11.02848 10.51136 25.49248 16.29696 40.48384 16.19968 30.21824 0.09728 55.95136-22.90176 60.53888-54.05696 4.5824-31.15008-13.36832-61.14816-42.20416-70.5024a56.56576 56.56576 0 0 0-18.432-2.99008zM250.84928 593.93024a121.87136 121.87136 0 0 1 62.30016 17.61792 123.22304 123.22304 0 0 1 44.73856 47.13984 132.05504 132.05504 0 0 1 14.50496 81.73056 131.5328 131.5328 0 0 1-37.08928 74.13248A119.04512 119.04512 0 0 1 250.84928 849.92c-61.4912-0.04608-113.4592-47.4368-121.73312-110.84288-8.23296-63.45216 29.80864-123.48416 89.09824-140.51328a108.18048 108.18048 0 0 1 32.63488-4.6336z m37.2224 77.20448a60.76416 60.76416 0 0 0-27.66848-12.416 60.544 60.544 0 0 0-30.17728 2.52416c-28.32896 10.28096-45.3632 40.39168-40.2432 71.17824 5.12 30.78656 30.81216 53.2224 60.76928 53.07904 14.2592 0.09728 27.99104-5.0176 38.94784-14.47424a65.45408 65.45408 0 0 0 16.5632-22.7072 65.94048 65.94048 0 0 0-0.896-55.04 65.4336 65.4336 0 0 0-17.29024-22.144z"  ></path></svg>