<svg xmlns="http://www.w3.org/2000/svg" viewBox="0 0 1024 1024"><path d="M815.78541259 180.59820247h-745.65404445c-46.9490195 0-82.85044939 35.90142989-82.85044939 82.85044938v635.18721011c0 46.94772496 35.90142989 82.85044939 82.85044939 82.85044939h745.65404445c46.94772496 0 82.85044939-35.90272443 82.85044937-82.85044939V263.44865185c0-46.9490195-35.90272443-82.85044939-82.85044937-82.85044938z m-745.65404445 55.23406443h745.65404445c16.57008987 0 27.61638495 11.04629507 27.61638494 27.61638495v138.08451382H42.51368865V263.44865185c0-16.57008987 11.0475896-27.61638495 27.61767949-27.61638495z m745.65404445 690.41998001h-745.65404445c-16.57008987 0-27.61767949-11.04629507-27.61767949-27.61638495V456.76593556H843.40179753v441.8699264c0 16.57008987-11.04629507 27.61638495-27.61638494 27.61638495z"  ></path><path d="M953.86863186 42.51368865H263.44865185c-16.57008987 0-27.61638495 11.0475896-27.61638495 27.61767949S246.87856197 97.74775309 263.44865185 97.74775309h690.41998001c16.57008987 0 27.61767949 11.04629507 27.61767949 27.61638495v690.42127455c0 16.57008987 11.04629507 27.61638495 27.61638495 27.61638494s27.61638495-11.04629507 27.61638495-27.61638494V125.36413804c0-46.94772496-35.90142989-82.85044939-82.85044939-82.85044939z"  ></path><path d="M152.98181751 346.29910124H594.85044939c16.57008987 0 27.61638495-11.04629507 27.61638494-27.61638495S611.42053925 291.0650368 594.85044939 291.0650368H152.98181751c-16.57008987 0-27.61767949 11.0475896-27.61767947 27.61767949S136.41172765 346.29910124 152.98181751 346.29910124z m552.3354662-27.61638495a27.61638495 27.61638495 0 1 0 55.23406444 0 27.61638495 27.61638495 0 1 0-55.23406444 0z"  ></path></svg>