<svg xmlns="http://www.w3.org/2000/svg" viewBox="0 0 1024 1024"><path d="M512 981.33504A469.32992 469.32992 0 0 1 42.66496 512a470.61504 470.61504 0 0 1 106.66496-297.17504 80.86016 80.86016 0 0 1 57.81504-29.64992 83.6352 83.6352 0 0 1 62.50496 24.10496l272.43008 272.64a42.67008 42.67008 0 0 1-60.16 60.16L212.04992 272.42496A384 384 0 0 0 128 512a383.98464 383.98464 0 0 0 405.32992 384A386.99008 386.99008 0 0 0 896 533.33504a383.96416 383.96416 0 0 0-104.64256-285.42976A384.0256 384.0256 0 0 0 512 128a394.23488 394.23488 0 0 0-99.63008 13.01504 42.66496 42.66496 0 0 1-21.32992-82.35008 469.32992 469.32992 0 0 1 590.28992 478.51008 473.37472 473.37472 0 0 1-444.16 444.16H512z"  ></path></svg>