<svg xmlns="http://www.w3.org/2000/svg" viewBox="0 0 1024 1024"><path d="M853.796472 1023.634364a44.46133 44.46133 0 0 1-24.863243-7.239591l-7.02021-5.703921L485.381704 674.232664 148.704135 1010.617725a10.164679 10.164679 0 0 1-1.462544 1.462544l-0.731272 0.731271-0.877526 0.731272-1.023781 0.804399-0.731272 0.511891c-0.438763 0.292509-0.731272 0.658145-1.170035 0.877526l-0.658144 0.365636-1.170035 0.804399-0.658145 0.438763-1.243162 0.658145-0.585018 0.438763-1.170035 0.51189c-0.219382 0.219382-0.585017 0.365636-0.731271 0.438763l-1.096908 0.438763-0.950654 0.438763-1.02378 0.292509-1.023781 0.438763-0.877526 0.365636a3.948868 3.948868 0 0 1-1.243162 0.438763c-0.219382 0.073127-0.51189 0.073127-0.731272 0.219382l-1.31629 0.219382-0.731271 0.219381-1.462544 0.365636-0.731272 0.073127c-0.365636 0.146254-0.950653 0.146254-1.389417 0.219382l-0.804399 0.146254-1.316289 0.073127a3.583232 3.583232 0 0 1-1.096908 0.146255c-0.365636 0.146254-0.731272 0.073127-1.02378 0.073127a14.113547 14.113547 0 0 1-2.193816 0.146254l-3.217596-0.219381-1.096908-0.146255H111.848033c-0.292509 0-0.51189-0.219382-0.804399-0.219381a6.873956 6.873956 0 0 1-1.462544-0.219382h-0.731272l-1.462544-0.438763c-0.292509-0.073127-0.51189-0.073127-0.731272-0.219381l-1.316289-0.219382c-0.146254-0.146254-0.438763-0.146254-0.731272-0.219382l-1.170035-0.438763-0.877526-0.365636-1.023781-0.438763-1.02378-0.292509-0.950654-0.438763-1.096908-0.438763-0.731272-0.438763-1.243162-0.51189-0.585017-0.438763-1.170035-0.658145a2.34007 2.34007 0 0 0-0.658145-0.438763l-1.170035-0.731272-0.731272-0.438763c-0.365636-0.365636-0.731272-0.585017-1.170035-0.877526l-0.658144-0.511891a6.362065 6.362065 0 0 1-0.877527-0.731272L88.593587 1012.81154l-0.731272-0.731271c-0.585017-0.438763-1.170035-0.877526-1.681925-1.462544l-1.462544-1.535671-0.731272-0.731272-0.731272-0.950653-0.731271-0.950654-0.585018-0.731272-0.877526-1.096908-0.365636-0.658144-0.731272-1.170035-0.438763-0.658145-0.658145-1.243162-0.438763-0.585018c-0.073127-0.438763-0.365636-0.731272-0.585017-1.170035l-0.365636-0.731271-0.438763-1.096908-0.438764-1.023781-0.365636-0.950653-0.438763-1.023781-0.292508-0.877526c-0.219382-0.292509-0.292509-0.731272-0.438764-1.243162l-0.219381-0.731272-0.292509-1.31629-0.073127-0.658144-0.365636-1.462544-0.073127-0.731272c-0.146254-0.365636-0.146254-0.950653-0.219382-1.389416l-0.146254-0.8044-0.073127-1.316289-0.146255-1.02378L73.236878 979.611797V70.128972C74.845676 32.395344 105.047204 1.974434 142.707705 0h686.59116c37.733629 2.193816 67.788902 32.907234 69.178318 70.933371v908.532172a44.168821 44.168821 0 0 1-44.168821 44.168821h-0.51189zM146.364065 909.702207l339.017639-338.944512 340.04142 340.041419V73.273441L825.130615 73.127187H146.364065v836.57502z"  ></path></svg>