<svg xmlns="http://www.w3.org/2000/svg" viewBox="0 0 1024 1024"><path d="M936.71936 192.69632v353.408a475.74016 475.74016 0 0 1-11.28448 129.98656c-41.90208 140.23168-148.11136 221.42976-268.65664 282.92096a1021.43488 1021.43488 0 0 1-94.63808 40.5504 241.02912 241.02912 0 0 1-44.78976 14.19776 148.5312 148.5312 0 0 1-55.38816-14.62272 890.34752 890.34752 0 0 1-129.34656-58.51136c-112.0512-65.98656-203.66336-141.43488-239.1296-284.57472a475.7504 475.7504 0 0 1-6.29248-106.4704V144.50176a88.3712 88.3712 0 0 1 2.36544-29.9264A38.3744 38.3744 0 0 1 104.48896 97.28a105.40544 105.40544 0 0 1 30.16704-7.31136l63.0272-11.64288L510.84288 20.48c13.48608 0.6144 26.84416 2.8416 39.79776 6.65088l71.63904 13.29664 205.98272 38.23104 61.02016 11.31008 25.19552 4.992a37.36064 37.36064 0 0 1 17.24928 14.62272c8.63232 14.2848 4.992 59.71456 4.992 83.11296zM865.7408 480.94208V157.70624l-351.25248-65.15712-356.1984 65.15712v323.16928c0 64.77824-3.82976 136.79616 11.5968 185.82016 30.14144 95.74912 104.09984 154.90048 182.41536 202.81344a759.12704 759.12704 0 0 0 118.74816 56.7808 240.78848 240.78848 0 0 0 42.77248 14.62272l40.22272-14.62272a597.0432 597.0432 0 0 0 79.9488-35.9168c15.09376-8.84736 30.5408-15.82592 45.09184-24.9344 79.23712-49.47456 148.37248-110.25408 178.10944-209.43872 13.65504-45.68576 8.54528-116.6848 8.54528-175.0528z m-142.59712 202.0096a32.82944 32.82944 0 0 1-22.92736 22.85568 33.664 33.664 0 0 1-32.128-8.99072L475.59168 504.2944a133.4784 133.4784 0 0 1-172.22144-35.2768 130.52928 130.52928 0 0 1 183.98208-183.29088 133.81632 133.81632 0 0 1 34.99008 171.9808l26.59328 26.5728 69.25312-68.992a33.33632 33.33632 0 0 1 46.89408 47.31904l-69.25312 68.92032 48.45568 48.45568 22.71232-22.64064a33.16736 33.16736 0 0 1 46.89408 46.91456l-23.13728 23.07072 23.44448 23.44448a32.79872 32.79872 0 0 1 8.8832 14.86336 32.7936 32.7936 0 0 1 0.06144 17.31584zM453.9648 344.38144a65.39776 65.39776 0 1 0 1.01888 93.48096 66.2528 66.2528 0 0 0-1.01888-93.48096z"  ></path></svg>