<svg xmlns="http://www.w3.org/2000/svg" viewBox="0 0 1024 1024"><path d="M762.9824 374.25664l58.00448 15.73376 77.71648 21.14048a96.37888 96.37888 0 0 1 34.69824 17.64864 102.66624 102.66624 0 0 1 25.67168 30.38208 108.6208 108.6208 0 0 1 12.75392 38.4768 110.6432 110.6432 0 0 1-2.1248 40.71936l-85.9648 355.75808c-11.48416 47.32416-51.50208 78.6688-95.58016 78.6688a94.75072 94.75072 0 0 1-24.47872-3.31264l-327.2448-88.7552 61.48096-15.11936 61.3632-15.12448 218.78784 59.49952a38.27712 38.27712 0 0 0 15.85152 0.95232 38.92224 38.92224 0 0 0 14.97088-5.58592 41.3696 41.3696 0 0 0 11.79648-11.264 44.05248 44.05248 0 0 0 6.79424-15.2064l86.07744-355.74784c2.66752-11.1872 1.15712-22.74304-4.41344-32.70144-5.56544-9.8304-14.38208-16.83968-24.93952-19.7888l-63.21664-17.20832-58.00448-15.73888-124.70272-33.80224-13.568-67.1232 138.27072 37.49888zM465.20832 244.11648a93.44 93.44 0 0 1 59.9552 5.19168c18.99008 8.30976 35.05664 22.70208 45.95712 41.15456 1.27488 1.96096 2.31936 4.05504 3.4816 6.144 0 0.12288 0.11264 0.36864 0.11264 0.36864 1.27488 2.58048 2.54976 5.28384 3.59424 8.11008 1.16224 2.70336 2.08896 5.5296 3.01568 8.48384 0.92672 2.82624 1.62304 5.78048 2.31936 8.85248l0.70144 3.44064 7.41888 33.80224 7.424 33.6896 37.82144 172.83072 13.45536 61.4656 11.48416 52.49024c2.92864 13.38368 3.33312 27.24352 1.2032 40.79616a108.44672 108.44672 0 0 1-13.6192 38.17984 102.36416 102.36416 0 0 1-26.368 29.74208 96.08192 96.08192 0 0 1-35.11296 16.78848l-101.9648 25.07776-59.97056 14.62272-39.44448 9.71776-39.08608 9.58464-97.21344 23.84896c-7.424 1.8432-14.96576 2.70336-22.272 2.70336-44.89216 0-85.49376-32.57344-96.0512-80.88064L53.74976 452.47488a110.70464 110.70464 0 0 1-1.20832-40.79616 108.4672 108.4672 0 0 1 13.6192-38.17984 102.4 102.4 0 0 1 26.37312-29.7472 96.12288 96.12288 0 0 1 35.10784-16.78848l149.41184-36.62848 57.99936-14.2592 130.15552-31.95904z m35.47648 61.11744a38.47168 38.47168 0 0 0-22.3744-1.2544l-21.33504 5.28384-121.92256 29.87008-57.99936 14.2592-136.30464 33.5616c-21.92384 5.28896-35.49696 28.5184-30.51008 51.63008l78.30528 357.84192c4.17792 19.29728 20.87936 33.31584 39.55712 33.31584 3.01568 0 6.144-0.36864 9.27744-1.10592l84.80256-20.77696 33.8688-8.36096 28.30336-6.88128 28.19072-7.00928 162.40128-39.82848c10.55744-2.58048 19.60448-9.46176 25.40544-19.1744a45.568 45.568 0 0 0 5.10464-32.57344l-14.49984-66.3808-13.45536-61.4656-41.18016-187.83232-6.61504-30.24384-2.54976-11.92448a42.8544 42.8544 0 0 0-8.12032-17.3312 40.7552 40.7552 0 0 0-18.35008-13.6192zM722.3808 51.2c54.40512 0 98.60096 46.83264 98.60608 104.61184V352l-58.00448-15.86176V155.81184c-0.00512-23.84896-18.21184-43.14624-40.6016-43.14624H375.76704c-22.50752 0-40.71424 19.3024-40.71936 43.14624v82.36544l-57.99936 14.25408V155.81184c0-27.7504 10.40384-54.35392 28.91776-73.97376C324.47488 62.22336 349.58848 51.2 375.76704 51.2h346.61376z"  ></path></svg>