<svg xmlns="http://www.w3.org/2000/svg" viewBox="0 0 1170 1024"><path d="M538.46857155 74.17142845C538.46857155 50.85714313 557.25714313 32 580.57142843 32h506.33142846a42.17142843 42.17142843 0 1 1-2e-8 84.34285687H580.57142843a42.17142843 42.17142843 0 0 1-42.17142843-42.17142842z m0 281.27999998c0-23.31428532 18.85714313-42.17142843 42.17142845-42.17142843h506.33142843a42.17142843 42.17142843 0 1 1 0 84.34285687H580.57142843a42.17142843 42.17142843 0 0 1-42.17142843-42.17142842zM32.13714311 636.8c0-23.31428532 18.92571468-42.17142843 42.24000002-42.17142843h1012.5942853a42.17142843 42.17142843 0 1 1 0 84.34285686H74.37714313a42.17142843 42.17142843 0 0 1-42.24-42.17142843z m2e-8 281.28c0-23.31428532 18.92571468-42.17142843 42.24-42.17142843h1012.5942853a42.17142843 42.17142843 0 1 1 0 84.34285686H74.37714313a42.17142843 42.17142843 0 0 1-42.24-42.17142843zM215.0857147 32c15.97714313 0 30.58285687 9.05142845 37.7142853 23.31428532L393.37142843 336.59428532a42.17142843 42.17142843 0 1 1-75.42857154 37.71428623l-16.45714219-32.91428625H128.61714311l-16.45714311 32.91428625a42.17142843 42.17142843 0 1 1-75.5657147-37.71428625L177.2342853 55.3142853a42.17142843 42.17142843 0 0 1 37.71428627-23.3142853z m-44.22857157 225.05142843h88.45714219l-44.22857062-88.45714313-44.22857157 88.45714313z"  ></path></svg>