<svg xmlns="http://www.w3.org/2000/svg" viewBox="0 0 1024 1024"><path d="M965.696 537.6a26.432 26.432 0 0 1 19.008 8.128c5.12 5.312 7.872 12.416 7.872 19.776v383.104a28.352 28.352 0 0 1-7.872 19.712 26.24 26.24 0 0 1-19.008 8.192H800a26.432 26.432 0 0 1-19.008-8.192 28.416 28.416 0 0 1 0-39.36 26.56 26.56 0 0 1 19.008-8.192h138.688V593.28h-138.688a26.432 26.432 0 0 1-19.008-8.128 28.416 28.416 0 0 1 0-39.424 26.496 26.496 0 0 1 19.008-8.192h165.632zM829.12 64c12.992 0 25.92 2.368 37.888 7.04 11.968 4.608 22.848 11.456 32 20.032 9.216 8.576 16.448 18.752 21.44 29.952 4.928 11.2 7.552 23.232 7.552 35.328v228.672a32.256 32.256 0 0 1-10.88 22.4 36.8 36.8 0 0 1-24.512 9.152 36.864 36.864 0 0 1-24.448-9.152 32.192 32.192 0 0 1-10.88-22.4V156.352a26.24 26.24 0 0 0-17.28-24.32 30.08 30.08 0 0 0-10.88-1.92H130.88a29.248 29.248 0 0 0-19.968 7.68 25.536 25.536 0 0 0-8.256 18.56V867.84a26.24 26.24 0 0 0 17.344 24.192c3.456 1.28 7.168 1.92 10.88 1.92H375.68c9.408 0 18.432 3.52 25.088 9.728a32 32 0 0 1 10.24 23.36 31.936 31.936 0 0 1-10.24 23.36 36.8 36.8 0 0 1-25.088 9.664H130.88c-26.24 0-51.392-9.728-69.952-27.008a89.344 89.344 0 0 1-28.928-65.28V156.416c0-12.16 2.56-24.128 7.488-35.328 4.992-11.2 12.288-21.44 21.44-30.08 9.216-8.512 20.096-15.36 32.064-19.968 12.032-4.608 24.896-7.04 37.888-6.976h698.24z m-81.344 583.232a31.36 31.36 0 0 1 21.696 8.768l81.856 80.448a28.608 28.608 0 0 1 0 41.6l-81.92 80.512a31.232 31.232 0 0 1-49.472-9.728 28.8 28.8 0 0 1 6.208-31.808l29.696-30.336H590.464a31.296 31.296 0 0 1-21.76-8.704 28.864 28.864 0 0 1 0-41.6 31.296 31.296 0 0 1 21.76-8.448h165.376l-29.76-30.4a29.056 29.056 0 0 1-8.96-20.8 28.8 28.8 0 0 1 8.96-20.736 31.36 31.36 0 0 1 21.696-8.768zM513.28 453.504a40.256 40.256 0 1 1 0 80.448H224a40.32 40.32 0 1 1 0-80.448H513.28z m204.8-204.8a40.32 40.32 0 0 1 0 80.448H224a40.256 40.256 0 1 1 0-80.448h494.016z"  ></path></svg>