<svg xmlns="http://www.w3.org/2000/svg" viewBox="0 0 1024 1024"><path d="M870.4 0a153.6 153.6 0 0 1 153.6 153.6v716.8a153.6 153.6 0 0 1-153.6 153.6H153.6l-7.8848-0.2048A153.6 153.6 0 0 1 0 870.4V153.6a153.6 153.6 0 0 1 153.6-153.6h716.8zM153.6 76.8A76.8 76.8 0 0 0 76.8 153.6v716.8A76.8 76.8 0 0 0 153.6 947.2h716.8a76.8 76.8 0 0 0 76.8-76.8V153.6A76.8 76.8 0 0 0 870.4 76.8H153.6z"  ></path><path d="M712.2944 279.552l-47.9744-41.472-443.9552 514.048 48.128 41.472 443.8016-514.048zM780.288 537.8048V478.208h-206.336v302.4384h62.1056v-118.784h144.1792v-57.3952h-144.1792v-66.56h144.1792zM452.608 287.488V230.4H204.8v57.1904h90.6752v260.096h64.512V287.488h92.5696z"  ></path></svg>