<svg xmlns="http://www.w3.org/2000/svg" viewBox="0 0 1024 1024"><path d="M892.58496 82.28864a34.73408 34.73408 0 0 1 57.14944 10.9824 34.74944 34.74944 0 0 1-8.02304 38.144L538.04032 523.776a34.74432 34.74432 0 1 1-49.14176-49.14176l403.6864-392.33024v-0.01024z m-10.18368 360.43264a34.7392 34.7392 0 0 1 59.3152-24.56576 34.7392 34.7392 0 0 1 10.17856 24.56576v382.19776c0 70.35904-57.04192 127.40096-127.40096 127.40096H199.08096C128.7168 952.32 71.68 895.27808 71.68 824.91904V199.51104c0-70.36416 57.0368-127.40608 127.40096-127.40608h370.61632a34.7392 34.7392 0 0 1 0 69.49376H199.08096a57.9072 57.9072 0 0 0-57.9072 57.9072v625.41312a57.9072 57.9072 0 0 0 57.9072 57.91232h625.41312a57.92256 57.92256 0 0 0 57.9072-57.91232V442.72128z"  ></path></svg>