<svg xmlns="http://www.w3.org/2000/svg" viewBox="0 0 1024 1024"><path d="M896 64H736V32a32 32 0 1 0-64 0V64h-320V32a32 32 0 1 0-64 0V64H128A128 128 0 0 0 0 192v672a128 128 0 0 0 128 128h768a128 128 0 0 0 128-128V192a128 128 0 0 0-128-128zM64 192a64 64 0 0 1 64-64h160v32a32 32 0 1 0 64 0V128h320v32a32 32 0 1 0 64 0V128H896a64 64 0 0 1 64 64v96H64V192z m896 672a64 64 0 0 1-64 64h-768a64 64 0 0 1-64-64v-512h896v512z"  ></path><path d="M224 544h192a32 32 0 0 0 0-64h-192a32 32 0 0 0 0 64z m0 192h192a32 32 0 0 0 0-64h-192a32 32 0 0 0 0 64z m384-192h192a32 32 0 0 0 0-64h-192a32 32 0 0 0 0 64z m0 192h192a32 32 0 0 0 0-64h-192a32 32 0 0 0 0 64z"  ></path></svg>