<svg xmlns="http://www.w3.org/2000/svg" viewBox="0 0 1024 1024"><path d="M561.34144 972.8a30.80704 30.80704 0 0 1-30.32064-31.13472V408.64768c0-7.41376 2.61632-14.592 7.38304-20.2752l230.30784-274.83136H144.09216l211.456 275.95264a31.83616 31.83616 0 0 1 6.528 19.22048v318.15168L453.504 820.736a31.18592 31.18592 0 0 1 8.704 22.05184c0 8.23296-3.24608 16.128-9.0368 21.9904a29.84448 29.84448 0 0 1-42.6496 0l-100.32128-102.95808a31.3856 31.3856 0 0 1-8.89856-22.05184v-320.256l-243.69152-317.952a31.76448 31.76448 0 0 1 5.1456-43.64288A30.01856 30.01856 0 0 1 81.47456 51.2h753.41824c8.0384 0 15.75424 3.29216 21.42208 9.14944a31.58528 31.58528 0 0 1 1.58208 42.32704L591.66208 420.3008V941.6704a30.78656 30.78656 0 0 1-30.32064 31.13472z"  ></path><path d="M706.30912 890.88a29.94688 29.94688 0 0 1-21.59104-9.22624 31.3344 31.3344 0 0 1-8.87296-22.01088c0-17.19808 13.63968-31.104 30.464-31.17056h236.02688c16.8192 0 30.464 13.97248 30.464 31.23712 0 17.13664-13.71136 31.104-30.464 31.17056h-236.02688z m0-195.26144a31.00672 31.00672 0 0 1-21.71392-9.3184 30.68928 30.68928 0 0 1-8.75008-21.85216c0-17.2032 13.63968-31.17056 30.464-31.17056h236.02688c16.8192 0 30.464 13.96736 30.464 31.23712-0.06656 17.13152-13.71136 31.104-30.464 31.104h-236.02688z m0-192.95744a31.0784 31.0784 0 0 1-21.5808-9.61024 30.7712 30.7712 0 0 1-8.48896-21.95456 30.49984 30.49984 0 0 1 8.71936-21.54496A30.80192 30.80192 0 0 1 706.37056 440.32h235.96544c16.75264 0 30.464 13.97248 30.464 31.17056a30.7712 30.7712 0 0 1-8.77568 21.8368 31.06816 31.06816 0 0 1-21.68832 9.33376h-236.02688z"  ></path></svg>