<svg xmlns="http://www.w3.org/2000/svg" viewBox="0 0 1024 1024"><path d="M73.29258 365.746614v585.091366h877.63705V146.311752h-146.272842v36.606609a35.633846 35.633846 0 0 1-10.239611 26.3158 35.582648 35.582648 0 0 1-26.3158 10.239611 35.633846 35.633846 0 0 1-26.3158-10.239611 35.582648 35.582648 0 0 1-10.239611-26.3158v-36.606609H292.676243v36.606609a35.582648 35.582648 0 0 1-10.239611 26.3158 35.582648 35.582648 0 0 1-26.3158 10.239611 35.582648 35.582648 0 0 1-26.3158-10.239611 35.582648 35.582648 0 0 1-10.239611-26.3158v-36.606609H73.29258v146.272842h877.63705v73.16202H73.29258z m219.383663-292.545684h438.869723V36.645519a35.633846 35.633846 0 0 1 10.239611-26.366998A35.582648 35.582648 0 0 1 768.101377 0.038911a35.582648 35.582648 0 0 1 26.3158 10.23961 35.838638 35.838638 0 0 1 10.239611 26.366998v36.555411h182.828253a35.633846 35.633846 0 0 1 26.3158 10.239611c6.860539 6.860539 10.239611 15.666605 10.23961 26.3158v877.63705a35.633846 35.633846 0 0 1-10.23961 26.3158 35.582648 35.582648 0 0 1-26.3158 10.239611H36.737169a35.633846 35.633846 0 0 1-26.366998-10.239611 35.582648 35.582648 0 0 1-10.239611-26.3158V109.756341a35.582648 35.582648 0 0 1 10.239611-26.3158 35.582648 35.582648 0 0 1 26.366998-10.239611h182.828252V36.645519a35.582648 35.582648 0 0 1 10.239611-26.366998A35.582648 35.582648 0 0 1 256.120832 0.038911a35.582648 35.582648 0 0 1 26.3158 10.23961 35.838638 35.838638 0 0 1 10.239611 26.366998v36.555411zM256.120832 512.019455H329.33405a35.582648 35.582648 0 0 1 26.3158 10.239611 35.838638 35.838638 0 0 1 10.239611 26.3158 35.582648 35.582648 0 0 1-10.239611 26.3158 35.582648 35.582648 0 0 1-26.3158 10.239611H256.120832a35.633846 35.633846 0 0 1-26.3158-10.239611 35.582648 35.582648 0 0 1-10.239611-26.3158 35.582648 35.582648 0 0 1 10.239611-26.3158A35.582648 35.582648 0 0 1 256.120832 512.019455z m0 219.434862H329.33405a35.633846 35.633846 0 0 1 26.3158 10.239611 35.838638 35.838638 0 0 1 10.239611 26.3158 35.582648 35.582648 0 0 1-10.239611 26.3158 35.582648 35.582648 0 0 1-26.3158 10.239611H256.120832a35.633846 35.633846 0 0 1-26.3158-10.239611 35.582648 35.582648 0 0 1-10.239611-26.3158 35.582648 35.582648 0 0 1 10.239611-26.3158 35.582648 35.582648 0 0 1 26.3158-10.239611zM475.555694 512.019455h73.110822a35.582648 35.582648 0 0 1 26.3158 10.239611 35.838638 35.838638 0 0 1 10.239611 26.3158 35.633846 35.633846 0 0 1-10.239611 26.3158 35.582648 35.582648 0 0 1-26.3158 10.239611H475.555694a35.633846 35.633846 0 0 1-26.366998-10.239611 35.582648 35.582648 0 0 1-10.239611-26.3158 35.582648 35.582648 0 0 1 10.239611-26.3158 35.582648 35.582648 0 0 1 26.366998-10.239611z m0 219.434862h73.110822a35.633846 35.633846 0 0 1 26.3158 10.239611 35.838638 35.838638 0 0 1 10.239611 26.3158 35.633846 35.633846 0 0 1-10.239611 26.3158 35.582648 35.582648 0 0 1-26.3158 10.239611H475.555694a35.633846 35.633846 0 0 1-26.366998-10.239611 35.582648 35.582648 0 0 1-10.239611-26.3158 35.582648 35.582648 0 0 1 10.239611-26.3158 35.582648 35.582648 0 0 1 26.366998-10.239611zM694.888159 512.019455H768.101377a35.582648 35.582648 0 0 1 26.3158 10.239611 35.838638 35.838638 0 0 1 10.239611 26.3158 35.633846 35.633846 0 0 1-10.239611 26.3158 35.582648 35.582648 0 0 1-26.3158 10.239611H694.888159a35.633846 35.633846 0 0 1-26.3158-10.239611 35.582648 35.582648 0 0 1-10.239611-26.3158 35.633846 35.633846 0 0 1 10.239611-26.3158 35.582648 35.582648 0 0 1 26.3158-10.239611z m0 219.434862H768.101377a35.633846 35.633846 0 0 1 26.3158 10.239611 35.838638 35.838638 0 0 1 10.239611 26.3158 35.633846 35.633846 0 0 1-10.239611 26.3158 35.582648 35.582648 0 0 1-26.3158 10.239611H694.888159a35.633846 35.633846 0 0 1-26.3158-10.239611 35.582648 35.582648 0 0 1-10.239611-26.3158 35.633846 35.633846 0 0 1 10.239611-26.3158 35.582648 35.582648 0 0 1 26.3158-10.239611z"  ></path></svg>