<svg xmlns="http://www.w3.org/2000/svg" viewBox="0 0 1024 1024"><path d="M964.46464 474.65472A33.94048 33.94048 0 0 1 998.4 508.5952v362.01472a33.95584 33.95584 0 0 1-33.93536 33.94048H59.53536A33.93536 33.93536 0 0 1 25.6 870.60992V508.5952a33.9456 33.9456 0 0 1 33.93536-33.94048h904.92928zM93.47072 836.66944h837.05856v-294.13888h-123.86304v83.71712a33.95072 33.95072 0 0 1-32.3072 33.88416 33.93024 33.93024 0 0 1-35.4048-30.62784l-0.15872-3.25632v-83.71712h-113.11616v154.98752a33.94048 33.94048 0 0 1-56.13056 25.65632 33.94048 33.94048 0 0 1-11.57632-22.39488l-0.16384-3.26144v-154.98752H444.69248v83.71712a33.94048 33.94048 0 0 1-67.70688 3.25632l-0.15872-3.25632v-83.71712H263.71072v132.36224a33.9456 33.9456 0 0 1-32.3072 33.88416 33.9456 33.9456 0 0 1-35.4048-30.62784l-0.15872-3.25632v-132.36224H93.47072v294.13888zM964.46464 112.64c8.43776 0 16.56832 3.1488 22.8096 8.82176a33.93024 33.93024 0 0 1 10.96704 21.8624l0.15872 3.25632v158.38208a33.95584 33.95584 0 0 1-32.3072 33.88416 33.93536 33.93536 0 0 1-35.40992-30.62784l-0.1536-3.25632v-45.25056H93.47072v45.25056a33.9456 33.9456 0 0 1-56.13568 25.6512 33.94048 33.94048 0 0 1-11.5712-22.39488L25.6 304.96256V146.5856a33.9456 33.9456 0 0 1 32.3072-33.87904 33.93536 33.93536 0 0 1 35.4048 30.62272l0.1536 3.25632v45.25568h837.06368v-45.2608A33.93024 33.93024 0 0 1 964.46464 112.64z"  ></path></svg>