<svg xmlns="http://www.w3.org/2000/svg" viewBox="0 0 1024 1024"><path d="M870.4 0a153.6 153.6 0 0 1 153.6 153.6v716.8a153.6 153.6 0 0 1-153.6 153.6H153.6l-7.8848-0.2048A153.6 153.6 0 0 1 0 870.4V153.6a153.6 153.6 0 0 1 153.6-153.6h716.8zM153.6 76.8A76.8 76.8 0 0 0 76.8 153.6v716.8A76.8 76.8 0 0 0 153.6 947.2h716.8a76.8 76.8 0 0 0 76.8-76.8V153.6A76.8 76.8 0 0 0 870.4 76.8H153.6z"  ></path><path d="M506.2656 768a36.9664 36.9664 0 0 1-37.0176-36.864c0-20.3776 16.5888-36.864 37.0176-36.864 20.48 0 37.0688 16.4864 37.0688 36.864 0 20.3264-16.5888 36.864-37.0688 36.864z m159.1296-359.0656c-2.1504 39.424-14.2848 70.5024-75.008 131.0208-30.7712 30.6688-50.176 53.6576-52.1728 73.8816a30.72 30.72 0 0 1-61.2864-6.0928c4.1984-42.496 35.4816-76.8 69.9392-111.1552 55.1936-54.9376 56.1152-72.3968 57.0368-90.88a78.7456 78.7456 0 0 0-22.528-58.88 96.256 96.256 0 0 0-69.4784-29.4912h-0.1536a91.904 91.904 0 0 0-91.7504 91.5968 30.72 30.72 0 0 1-30.8224 30.6688 30.72 30.72 0 0 1-30.7712-30.72c0-40.7552 15.872-79.104 44.8-108.032A152.7296 152.7296 0 0 1 511.5392 256a158.3104 158.3104 0 0 1 114.432 48.5376c27.5456 28.7232 41.472 65.792 39.424 104.3968z"  ></path></svg>