<svg xmlns="http://www.w3.org/2000/svg" viewBox="0 0 1024 1024"><path d="M546.50529965 53.4930935l336.37246549 194.19510299c24.80227471 14.27806596 40.55506943 41.56056702 40.55506941 70.1167005v388.39020602c0 28.6231656-15.75279629 55.83863298-40.55506941 70.1167005l-336.37246549 194.19510299c-24.80227471 14.27806596-55.83863298 14.27806596-81.11013886 0l-336.37246549-194.19510299A81.7804711 81.7804711 0 0 1 88.46762587 706.19510301V317.80489699c0-29.09239676 15.75279629-55.83863298 40.55506943-70.1167005l336.37246549-194.19510299c24.80227471-14.27806596 55.83863298-14.27806596 81.11013886 0zM150.47331185 341.33354089v364.39233095c0 6.70331787 3.82089087 12.87036929 9.58574329 16.69126019l324.84275914 187.49178515v-375.31873719L150.47331185 341.33354089z m710.88680461 11.79783799l-314.45261778 181.79396643v363.45386708l304.93390664-175.96208036a19.23852026 19.23852026 0 0 0 9.51871114-16.75829389V353.13137888z m-364.99562951-246.68207782L182.18000238 287.77403475l333.95926967 193.05553959 323.70319574-187.15661979L515.46894138 106.44930106a19.43961979 19.43961979 0 0 0-19.10445443 0z"  ></path></svg>