<svg xmlns="http://www.w3.org/2000/svg" viewBox="0 0 1024 1024"><path d="M870.4 0a153.6 153.6 0 0 1 153.6 153.6v716.8a153.6 153.6 0 0 1-153.6 153.6H153.6l-7.8848-0.2048A153.6 153.6 0 0 1 0 870.4V153.6a153.6 153.6 0 0 1 153.6-153.6h716.8zM153.6 76.8A76.8 76.8 0 0 0 76.8 153.6v716.8A76.8 76.8 0 0 0 153.6 947.2h716.8a76.8 76.8 0 0 0 76.8-76.8V153.6A76.8 76.8 0 0 0 870.4 76.8H153.6z"  ></path><path d="M412.3648 204.8C350.4128 204.8 307.2 263.168 307.2 346.624c0 83.456 43.264 141.7728 105.1648 141.7728 61.952 0 105.1648-58.3168 105.1648-141.824C517.5296 263.168 474.2656 204.8 412.3648 204.8z m0 236.3392c-48.0768 0-60.928-59.392-60.928-94.5152 0-35.1744 12.8512-94.5152 60.928-94.5152s60.928 59.392 60.928 94.5152c0 35.1232-12.8512 94.5152-60.928 94.5152z m199.2704 94.5152c-61.952 0-105.1648 58.2656-105.1648 141.7728 0 83.456 43.264 141.7728 105.1648 141.7728C673.5872 819.2 716.8 760.9344 716.8 677.376c0-83.456-43.264-141.7216-105.1648-141.7216z m0 236.288c-48.0768 0-60.928-59.392-60.928-94.5152 0-35.1232 12.8512-94.5152 60.928-94.5152s60.928 59.392 60.928 94.5152c0 35.1232-12.8512 94.5152-60.928 94.5152zM553.472 279.296a24.7808 24.7808 0 0 1 8.6528-32.1024l66.4064-39.424a21.0432 21.0432 0 0 1 22.016 0.3072 23.04 23.04 0 0 1 7.9872 8.6528c1.8944 3.584 2.9184 7.6288 2.9184 11.7248v236.288c0 6.2976-2.3552 12.288-6.5024 16.7424a21.504 21.504 0 0 1-15.6672 6.912 21.504 21.504 0 0 1-15.616-6.912 24.4736 24.4736 0 0 1-6.5024-16.7424v-196.096l-33.536 19.8144a20.8896 20.8896 0 0 1-16.8448 2.0992 22.4256 22.4256 0 0 1-13.2608-11.264z m-113.408 279.9616v236.3392c0 6.2464-2.3552 12.288-6.5024 16.6912a21.4528 21.4528 0 0 1-15.6672 6.912 21.4528 21.4528 0 0 1-15.6672-6.912 24.4736 24.4736 0 0 1-6.4512-16.6912v-196.1472l-33.536 19.8144a21.0944 21.0944 0 0 1-24.576-2.1504 23.296 23.296 0 0 1-8.192-15.8208 25.1392 25.1392 0 0 1 4.6592-17.408 22.6304 22.6304 0 0 1 6.6048-5.9392l66.4064-39.3728a21.0944 21.0944 0 0 1 22.016 0.3072c3.328 2.048 6.0928 5.12 7.9872 8.6528 1.8944 3.584 2.9184 7.6288 2.9184 11.776z"  ></path></svg>