<svg xmlns="http://www.w3.org/2000/svg" viewBox="0 0 1024 1024"><path d="M289.792 78.72a39.36 39.36 0 0 1 2.944 78.72h-140.8v787.84H860.8V157.44h-128a39.36 39.36 0 0 1-2.88-78.592l2.88-0.064h128c41.984 0 76.608 32.896 78.72 74.816l0.064 3.968V945.28c0 41.92-32.896 76.544-74.816 78.656l-3.84 0.064H151.872a78.912 78.912 0 0 1-78.784-74.88V157.44c0-41.856 32.896-76.48 74.816-78.592l3.968-0.064h137.856z"  ></path><path d="M644.224 0H368.512a118.4 118.4 0 0 0-118.144 118.144 118.4 118.4 0 0 0 118.144 118.208h275.712a118.4 118.4 0 0 0 118.144-118.208A118.336 118.336 0 0 0 644.224 0zM368.512 78.72h275.712c21.568 0 39.36 17.92 39.36 39.424a39.68 39.68 0 0 1-39.36 39.424H368.512a39.68 39.68 0 0 1-39.36-39.424 39.68 39.68 0 0 1 39.36-39.36z m326.656 326.656l55.68 55.68-256 256a39.36 39.36 0 0 1-55.68 0L281.6 559.616l55.68-55.68 129.728 129.536 228.16-228.096z"  ></path></svg>