<svg xmlns="http://www.w3.org/2000/svg" viewBox="0 0 1024 1024"><path d="M990.19434667 961.14005333H766.13404445a29.12711111 29.12711111 0 0 1-29.12711112-29.12711111V303.37706667a29.12711111 29.12711111 0 0 1 3.34961778-13.61692445l112.13937778-211.89973333a29.12711111 29.12711111 0 0 1 51.48216889 0l112.06656 211.89973333a29.12711111 29.12711111 0 0 1 3.34961777 13.61692445v628.63587555a29.12711111 29.12711111 0 0 1-29.1271111 29.12711111z m-195.00600889-58.25422222h165.87889777V310.51320889l-82.93944888-156.77667556-82.93944889 156.77667556v592.22698666z"  ></path><path d="M878.12778667 367.45671111a29.12711111 29.12711111 0 0 1-8.66531556-1.31072l-112.06656-34.95253333a29.12711111 29.12711111 0 1 1 17.33063111-55.63278223l103.40124445 32.18545778 103.40124444-32.18545778a29.12711111 29.12711111 0 0 1 17.33063111 55.63278223l-112.06656 34.95253333a29.12711111 29.12711111 0 0 1-8.66531555 1.31072zM990.19434667 835.38375111H766.13404445a29.12711111 29.12711111 0 1 1 0-58.25422222h224.13312a29.12711111 29.12711111 0 1 1 0 58.25422222zM651.66449778 961.14005333H35.26200889a29.12711111 29.12711111 0 0 1-29.12711111-29.12711111V91.47733333a29.12711111 29.12711111 0 0 1 29.12711111-29.12711111h616.40248889a29.12711111 29.12711111 0 0 1 29.12711111 29.12711111v840.53560889a29.12711111 29.12711111 0 0 1-29.12711111 29.12711111z m-587.20256-58.25422222h558.07544889V120.53162667H64.46193778v782.20856888z"  ></path><path d="M539.67075555 467.72679111H151.26072889a29.12711111 29.12711111 0 1 1 0-58.25422222h388.26439111a29.12711111 29.12711111 0 1 1 0 58.25422222zM539.67075555 323.76604445H151.26072889a29.12711111 29.12711111 0 1 1 0-58.25422223h388.26439111a29.12711111 29.12711111 0 1 1 0 58.25422223zM539.67075555 611.76035555H151.26072889a29.12711111 29.12711111 0 1 1 0-58.32704h388.26439111a29.12711111 29.12711111 0 1 1 0 58.25422223zM539.67075555 755.72110222H151.26072889a29.12711111 29.12711111 0 1 1 0-58.25422222h388.26439111a29.12711111 29.12711111 0 1 1 0 58.25422222z"  ></path></svg>