<svg xmlns="http://www.w3.org/2000/svg" viewBox="0 0 1024 1024"><path d="M468.33664 15.36c211.77856 0 441.43104 66.90816 441.43104 193.97632v344.448l-12.12416-17.82784c-18.1504-24.20736-42.48576-48.88064-72.73984-67.03616L819.2 463.21664l5.70368-6.42048c6.04672-12.10368 12.12416-18.19648 12.12416-24.24832V317.73696c-78.65856 48.40448-217.4208 79.1552-368.6912 79.1552-151.27552 0-290.74944-30.75072-369.408-79.1552v114.81088c0 36.30592 79.09376 91.30496 242.46784 103.40864h12.12416l-6.42048 12.12416c-12.10368 18.1504-23.90528 36.03968-29.952 54.1952v6.42048H310.7328c-60.51328-6.05184-151.296-24.6784-211.80928-67.03616v67.03616c0 36.30592 60.48768 78.12096 187.55584 96.27136h6.42048v79.16032h-12.12416c-72.61184-12.09856-139.4944-36.41344-181.85216-60.61568v102.69184c0 36.30592 91.20256 84.90496 242.47296 109.11232h5.70368c12.10368 24.20224 24.63744 36.04992 42.78784 54.20032l12.12416 6.41536-6.41536 5.70368C383.488 1007.68256 377.74336 1013.76 365.6448 1013.76H359.2192C153.4976 995.6096 20.48512 923.01824 20.48 826.20416V209.33632C20.48 82.26816 250.50112 15.36 468.33664 15.36z m296.0384 496.16896c37.68832 0 67.74272 30.63808 67.74272 68.45952 0 12.68224-3.37408 24.55552-9.28768 34.73408l101.09952 170.752c27.29984 0.30208 52.50048 14.7456 66.17088 38.50752a78.04416 78.04416 0 0 1 0 77.72672c-13.81888 24.01792-39.40864 39.22432-67.04128 39.22432-42.70592 0-77.01504-34.87232-77.01504-77.72672 0-26.56768 13.17376-50.05824 33.36192-64.08704l-91.33568-154.9312a67.31776 67.31776 0 0 1-23.69536 4.26496c-2.00192 0-3.9936-0.08704-5.95456-0.256l-76.66176 200.66304a91.33056 91.33056 0 0 1 36.78208 73.5232c0 50.42688-40.32 91.28448-90.5728 91.28448-50.25792 0-91.27936-40.84736-91.27936-91.28448 0-22.30272 8.02304-42.73664 21.31968-58.58816l-90.7264-127.42656c-6.79424 2.24256-13.9776 3.42528-21.32992 3.42528-37.69344 0-68.46464-30.6432-68.46464-68.46464s30.7712-68.45952 68.46464-68.45952c24.37632 0 47.0016 13.04064 59.1872 34.23232a68.64896 68.64896 0 0 1-2.08384 71.85408l91.17696 128.60928a90.74176 90.74176 0 0 1 33.73568-6.46144c4.12672 0 8.18176 0.27648 12.15488 0.80384l77.14816-202.27072a68.25472 68.25472 0 0 1-21.36064-49.64864c0-37.82144 30.77632-68.4544 68.46464-68.4544z m-301.8752-417.5104c-242.04288 0-369.41312 72.46336-369.41312 114.82112 0 42.35776 121.32352 114.816 369.408 114.816 248.07936 0 368.6912-72.45824 368.69632-114.816 0-42.35776-126.65856-114.82112-368.6912-114.82112z"  ></path></svg>