<svg xmlns="http://www.w3.org/2000/svg" viewBox="0 0 1024 1024"><path d="M162.889143 86.528l341.650286 205.750857 352.402285 212.041143c1.243429 0.731429 4.461714 2.779429 4.461715 7.68a8.338286 8.338286 0 0 1-4.388572 7.68l-352.329143 212.114286-341.796571 205.824a18.651429 18.651429 0 0 1-0.438857-4.022857V90.550857c0-1.462857 0.292571-2.925714 0.438857-4.022857zM159.963429 0C114.688 0 73.142857 37.741714 73.142857 90.550857v842.898286C73.142857 986.258286 114.688 1024 159.963429 1024c14.409143 0 29.257143-3.803429 43.154285-12.288l350.208-210.797714 352.402286-212.041143c60.196571-36.278857 60.196571-117.613714 0-153.892572L553.325714 222.939429 203.337143 12.288A83.894857 83.894857 0 0 0 159.963429 0z"  ></path></svg>