<svg xmlns="http://www.w3.org/2000/svg" viewBox="0 0 1024 1024"><path d="M56.32 409.2416l5.18656-222.6176 68.8128 69.0944a454.17472 454.17472 0 0 1 163.55328-150.12864A452.0192 452.0192 0 0 1 508.74368 51.2C759.36256 51.2 962.56 255.20128 962.56 506.88s-203.19744 455.68-453.81632 455.68a452.5312 452.5312 0 0 1-253.51168-77.66016 455.35744 455.35744 0 0 1-167.08096-206.59712 39.19872 39.19872 0 0 1 0.2048-29.88544 38.9632 38.9632 0 0 1 21.18656-20.98688 38.72256 38.72256 0 0 1 29.76256 0.2048 38.97856 38.97856 0 0 1 20.89984 21.27872c28.17024 69.61664 75.18208 133.6576 137.2672 175.616 62.09024 41.9584 137.79456 67.70688 212.6336 67.69664 207.67232 0 383.7696-176.82432 383.7696-385.34656 0-208.52224-178.69312-385.34656-386.36544-385.34656-134.15936 0-257.19808 75.83232-324.13184 187.46368l72.60672 78.11584L56.32 409.2416z"  ></path></svg>