<svg xmlns="http://www.w3.org/2000/svg" viewBox="0 0 1024 1024"><path d="M48.90395332 187.69814891H975.35168899a46.33516891 46.33516891 0 0 0 0-92.67033781H48.90395332a46.33516891 46.33516891 0 1 0 0 92.67033781z m926.44773567 276.73280184H405.71670913a46.33516891 46.33516891 0 0 0 0 92.67033779h569.63497986a46.33516891 46.33516891 0 0 0 0-92.67033779z m0 371.44827813H48.90395332a46.33516891 46.33516891 0 0 0 0 92.60642721H975.35168899a46.33516891 46.33516891 0 1 0 0-92.67033779z m-742.64091394-556.02202679L1.1627517 511.34131485l231.54802335 231.61193392V279.79329151z"  ></path></svg>