<svg xmlns="http://www.w3.org/2000/svg" viewBox="0 0 1024 1024"><path d="M870.4 0a153.6 153.6 0 0 1 153.6 153.6v716.8a153.6 153.6 0 0 1-153.6 153.6H153.6l-7.8848-0.2048A153.6 153.6 0 0 1 0 870.4V153.6a153.6 153.6 0 0 1 153.6-153.6h716.8zM153.6 76.8A76.8 76.8 0 0 0 76.8 153.6v716.8A76.8 76.8 0 0 0 153.6 947.2h716.8a76.8 76.8 0 0 0 76.8-76.8V153.6A76.8 76.8 0 0 0 870.4 76.8H153.6z"  ></path><path d="M296.7552 344.9344h-38.6048a195.6864 195.6864 0 0 1-39.4752 30.72c-15.8208 8.8064-30.72 14.9504-44.8 18.432v50.8928a177.3568 177.3568 0 0 0 71.5776-38.144v251.4432h51.3024v-313.344zM549.888 365.1072c-19.712-17.5104-44.7488-26.3168-75.008-26.3168-33.792 0-60.9792 11.4176-81.6128 34.2528-20.224 21.504-30.3104 49.5616-30.72 84.6848h51.3536c0.8704-24.576 6.144-43.4688 15.7696-55.7568 9.6768-13.1584 24.1664-19.712 43.4688-19.712 17.9712 0 31.5904 3.9424 40.8064 12.288 8.7552 8.3456 13.6192 21.0432 13.6192 38.144 0 17.5616-7.0656 34.2528-20.6336 49.6128a288.768 288.768 0 0 1-43.008 35.1232c-36.4544 24.9856-60.5696 44.3392-71.9872 57.4976a120.832 120.832 0 0 0-31.1808 83.3536h218.624v-45.2096H424.8064c7.0144-15.7696 26.3168-34.2016 58.368-55.296 30.72-20.5824 52.6336-37.2736 64.9216-50.432 20.224-22.4256 30.72-47.0016 30.72-74.1888 0-28.1088-9.6256-50.4832-28.928-68.0448zM815.36 361.6256c-19.3024-15.36-45.2096-22.8352-76.8-22.8352-30.72 0-56.1664 8.3456-75.9296 25.9072-21.0432 17.5616-32.4608 42.1376-35.072 73.728h50.432c1.7408-18.8928 7.8848-32.9216 18.432-42.1376 10.0864-9.216 24.1664-13.6192 42.5984-13.6192 17.9712 0 31.5904 3.9424 40.8064 11.8784 8.3456 7.8848 12.6976 19.3024 12.6976 34.6624 0 15.36-4.8128 27.1872-14.0288 35.1232-9.6256 7.8848-23.7056 11.8272-42.1376 11.8272h-21.9136v38.6048h21.9136c20.224 0 35.5328 3.9936 46.08 12.7488 10.5472 8.3456 16.2304 21.504 16.2304 39.4752a50.5344 50.5344 0 0 1-15.36 37.3248c-11.4176 10.9568-27.1872 16.6912-46.9504 16.6912-17.9712 0-32.4608-5.2736-43.4176-15.36-12.288-11.008-18.432-26.7776-19.3536-47.0016h-52.224c2.6624 35.1232 14.9504 62.3616 36.864 80.7936 19.7632 16.64 46.08 24.9856 78.592 24.9856 34.2016 0 61.8496-9.6256 82.944-28.5184 20.1728-18.432 30.2592-42.1376 30.2592-71.1168a66.4064 66.4064 0 0 0-15.7696-45.6192c-9.6768-11.4176-24.1664-19.7632-42.5984-25.4464 34.6624-11.4176 52.224-34.2528 52.224-68.4544 0-27.2384-9.6256-48.2816-28.5184-63.6416z"  ></path></svg>