<svg xmlns="http://www.w3.org/2000/svg" viewBox="0 0 1024 1024"><path d="M705.66912 92.16c51.16928 0 92.34432 42.3168 92.34432 94.12608v170.1632a29.83936 29.83936 0 1 1-59.6736 0V186.28608c0-19.22048-14.82752-34.44224-32.67072-34.44224H174.26432c-17.8432 0-32.6656 15.22176-32.6656 34.44224v647.3472c0 19.22048 14.8224 34.44224 32.6656 34.44224h265.7024a29.83936 29.83936 0 0 1 0 59.68384H174.26432c-51.16928 0-92.34432-42.3168-92.34432-94.12608V186.28608C81.92 134.4768 123.09504 92.16 174.26432 92.16h531.4048z m2.83136 358.11328a238.67392 238.67392 0 0 1 168.78592 69.92896 238.76096 238.76096 0 0 1 0 337.63328 238.67392 238.67392 0 0 1-337.57184 0 238.77632 238.77632 0 0 1 0-337.63328 238.66368 238.66368 0 0 1 168.78592-69.92896z m0 59.68896a178.944 178.944 0 0 0-126.592 52.44416 179.11808 179.11808 0 0 0-52.43392 126.61248 179.09248 179.09248 0 0 0 110.5152 165.4272 179.03616 179.03616 0 0 0 247.53664-165.4272 179.07712 179.07712 0 0 0-52.43392-126.61248 179.01568 179.01568 0 0 0-126.592-52.44416z m-14.91968 74.60352a29.8496 29.8496 0 0 1 29.83936 29.84448v59.68384h74.0864a29.8496 29.8496 0 0 1 0 59.68384h-103.92576a29.824 29.824 0 0 1-29.83424-29.83936v-89.52832a29.83424 29.83424 0 0 1 29.83424-29.84448z m-327.936-44.75904a29.83936 29.83936 0 0 1 0 59.68384H290.77504a29.83936 29.83936 0 1 1 0-59.68384h74.85952z m223.50336-238.7456a29.824 29.824 0 0 1 29.83936 29.84448 29.83936 29.83936 0 0 1-29.83936 29.83936H290.78016a29.83936 29.83936 0 1 1 0-59.68384h298.368z"  ></path></svg>