<svg xmlns="http://www.w3.org/2000/svg" viewBox="0 0 1024 1024"><path d="M954.733714 0c5.705143 0 10.532571 3.949714 11.410286 8.704 0.438857 1.755429 0.438857 3.437714 0.438857 5.193143v28.233143c0 6.582857-6.144 11.702857-13.165714 11.337143H141.019429c-45.348571 0-82.432 33.499429-82.432 75.190857 0 41.691429 37.010286 75.629714 82.432 75.190857h811.885714c7.094857-0.438857 13.238857 4.827429 13.238857 11.337143v797.476571c0 5.705143-5.266286 10.459429-11.410286 10.898286-2.706286 0.438857-5.339429 0.438857-8.411428 0.438857H140.141714c-71.826286 0-131.364571-50.029714-139.702857-113.883429L0 904.923429V129.097143c0-2.633143 0.438857-4.754286 0.438857-7.314286C4.388571 53.833143 66.121143 0 141.019429 0h813.714285zM58.514286 253.44v632.758857l-0.365715 4.315429v8.265143l0.365715 3.949714c4.388571 37.814857 39.716571 67.291429 81.993143 67.291428h755.565714c6.582857 0 12.288-5.12 12.288-11.264v-689.737142c0-5.997714-5.705143-11.264-12.361143-11.264H417.28v352.548571c0 12.214857-6.144 23.552-16.749714 29.988571a39.862857 39.862857 0 0 1-19.382857 5.705143 36.132571 36.132571 0 0 1-14.994286-3.510857l-92.891429-37.302857-90.404571 36.059429a35.84 35.84 0 0 1-34.377143-2.194286 34.962286 34.962286 0 0 1-16.749714-29.988572V257.462857a142.262857 142.262857 0 0 1-55.003429-14.116571C68.315429 239.542857 58.514286 245.174857 58.514286 253.44z m303.177143 6.070857H186.368v319.926857l71.387429-27.355428a35.84 35.84 0 0 1 14.994285-3.437715 35.84 35.84 0 0 1 14.994286 3.437715l74.020571 29.110857V259.510857z m577.974857-157.769143c11.849143 0 22.016 6.509714 26.843428 16.091429 0 1.682286 0.512 2.998857 0.512 4.388571v12.946286a15.213714 15.213714 0 0 1-0.950857 4.388571 27.062857 27.062857 0 0 1-6.144 8.265143 31.232 31.232 0 0 1-20.699428 7.826286h-789.942858c-15.798857 0-29.037714-12.214857-29.037714-26.989714 0-7.387429 3.510857-13.897143 8.777143-19.090286a31.305143 31.305143 0 0 1 20.772571-7.826286h789.869715z"  ></path></svg>