<svg xmlns="http://www.w3.org/2000/svg" viewBox="0 0 1024 1024"><path d="M827.712 631.488C938.688 631.488 1024 716.8 1024 827.712 1024 938.688 938.688 1024 827.712 1024c-85.312 0-153.6-51.2-187.712-128l-315.712-59.712c-102.4-17.088-179.2-110.976-170.688-213.376C170.688 512 264.512 435.2 375.488 452.288l290.112 51.2c34.112 0 59.712-8.576 85.312-25.6 25.6-17.088 42.688-51.2 42.688-85.376 0-34.112 0-68.224-17.088-93.824-17.024-25.6-42.624-42.688-68.224-42.688L384 221.888c-8.512 93.824-93.888 170.624-196.288 170.624S0 298.688 0 196.288C0 93.888 85.312 0 196.288 0 290.112 0 366.912 59.712 384 145.088l332.8 42.624c42.688 8.576 85.312 34.176 119.488 76.8 25.6 42.688 34.112 93.888 34.112 136.576-8.512 51.2-34.112 93.824-68.288 128a157.44 157.44 0 0 1-136.512 42.624l-298.688-51.2C298.688 512 238.912 563.2 230.4 631.488c-8.512 68.224 42.688 128 110.912 136.512l298.688 51.2c0-102.4 85.312-187.712 187.712-187.712z m-512-435.2C315.712 128 264.512 76.8 196.288 76.8 128 76.8 76.8 128 76.8 196.288c0 68.224 51.2 119.424 119.488 119.424 68.224 0 119.424-51.2 119.424-119.424z m512 759.424c68.288 0 119.488-51.2 119.488-119.424C947.2 768 896 716.8 827.712 716.8c-68.224 0-119.424 51.2-119.424 119.488 0 59.712 51.2 119.424 119.424 119.424z"  ></path></svg>