<svg xmlns="http://www.w3.org/2000/svg" viewBox="0 0 1024 1024"><path d="M870.4 0a153.6 153.6 0 0 1 153.6 153.6v716.8a153.6 153.6 0 0 1-153.6 153.6H153.6l-7.8848-0.2048A153.6 153.6 0 0 1 0 870.4V153.6a153.6 153.6 0 0 1 153.6-153.6h716.8zM153.6 76.8A76.8 76.8 0 0 0 76.8 153.6v716.8A76.8 76.8 0 0 0 153.6 947.2h716.8a76.8 76.8 0 0 0 76.8-76.8V153.6A76.8 76.8 0 0 0 870.4 76.8H153.6z"  ></path><path d="M836.9664 489.984a3.584 3.584 0 0 0 4.608-2.2016c0.2048-0.3584 0.2048-0.8192 0.2048-1.28V433.408a3.5328 3.5328 0 0 0-2.5088-3.4816 97.6896 97.6896 0 0 0-24.2688-2.7136c-29.44 0-55.1424 15.2064-65.6896 37.5296v-26.0608a7.2192 7.2192 0 0 0-7.168-7.2704h-46.8992a7.2192 7.2192 0 0 0-7.168 7.2704v245.3504c0 3.9936 3.2256 7.2704 7.168 7.2704h48.9472c3.9424 0 7.168-3.2768 7.168-7.2704v-142.336c0-32.9728 23.296-54.8352 58.1632-54.8352 9.3184 0.1024 23.808 1.6384 27.4432 3.072z m-479.9488-36.9152l-48.896-11.4688c-54.6816-12.9536-78.336-31.744-78.336-64.4096 0-40.6016 34.9184-66.9184 86.528-66.9184 47.2576 0 81.7152 24.1152 89.344 62.7712h62.5664C461.824 303.9232 400.7936 256 316.6208 256c-92.3136 0-152.832 50.5344-152.832 126.5664 0 62.464 34.5088 99.7376 109.2096 117.0432l55.04 13.0048c56.832 13.568 81.92 33.792 81.92 68.4032 0 40.1408-38.912 68.5056-91.648 68.5056-54.1696 0-93.3888-24.7808-100.8128-64.2048H153.6c6.4512 72.704 67.584 118.7328 160.0512 118.7328 100.3008 0 161.6896-50.7904 161.6896-132.6592 0-64-34.5088-98.816-118.272-118.3232z m449.024 230.912c0 8.704 3.3792 17.0496 9.4208 23.2448a31.8976 31.8976 0 0 0 45.5168 0 33.0752 33.0752 0 0 0 0-46.3872 31.8464 31.8464 0 0 0-45.5168 0 33.1264 33.1264 0 0 0-9.4208 23.1936z m-168.0384-246.9376h-45.9264v-56.32a7.2192 7.2192 0 0 0-7.168-7.2704h-48.8448a7.2192 7.2192 0 0 0-7.168 7.3216v56.2688h-32.1024a7.2192 7.2192 0 0 0-7.168 7.2704v38.5536c0 3.9936 3.2256 7.2704 7.168 7.2704h32.1024v134.2976c0 51.2 24.4736 72.3456 83.2 72.3456 10.4448 0 21.0944-1.1264 30.208-2.816a3.5328 3.5328 0 0 0 2.8672-3.584v-44.9024a3.584 3.584 0 0 0-3.584-3.584h-0.3584l-7.424 0.6656a142.6944 142.6944 0 0 1-11.264 0.512c-21.504 0-30.464-9.4208-30.464-32.4608V490.1376h45.9264c3.9424 0 7.168-3.2768 7.168-7.2704v-38.5536a7.2192 7.2192 0 0 0-7.168-7.2704z"  ></path></svg>