<svg xmlns="http://www.w3.org/2000/svg" viewBox="0 0 1024 1024"><path d="M924.41112627 281.63892784l-21.20971504 21.20971503v514.92474898A135.50651232 135.50651232 0 0 1 770.64069222 924.41112627h-2.94579467A157.30538656 157.30538656 0 0 1 629.83174977 818.95170889V304.61611913l-28.27962005-22.97719129 20.031398-10.60485753h283.9745176l18.85308095 10.60485753z m-252.15994641 48.31101805v487.82344596a123.72333775 123.72333775 0 0 0 98.97867019 68.34241469 110.76184476 110.76184476 0 0 0 88.37381267-68.34241469V329.94994589h-187.35248286z m24.15550972 343.4795524h137.27398855v124.31249557a67.75325684 67.75325684 0 0 1-71.87736718 54.79176386 81.89306688 81.89306688 0 0 1-67.75325684-54.20260465v-123.72333775l2.35663547-1.17831703zM301.08116662 99.58887373h264.5322802v58.91587557h-11.19401674v243.32256379l49.4893351 83.6605431v98.38951099l-96.62203473-169.67772033V158.5047493H358.81872516v254.5165805L152.61316132 806.57937513a46.54354179 46.54354179 0 0 0 0 39.47363678 58.91587557 58.91587557 0 0 0 41.83027227 26.5121438H629.83174977l58.91587557 51.84597056H193.26511516C113.72868374 903.20141123 99.58887373 859.0145049 99.58887373 831.91320188c0-58.91587557 72.4665264-183.22837116 215.63210292-430.08588879V158.5047493h-13.55065082V99.58887373h-0.58915921z m274.5479785 575.01894159l30.63625552 40.65195383v108.40521068l-329.92890157 1.17831704c-31.81457257-6.65749344-45.36522338-24.33225596-40.65195383-53.02428761A341.12291692 341.12291692 0 0 1 276.33649907 674.60781532h299.29264605z"  ></path></svg>