<svg xmlns="http://www.w3.org/2000/svg" viewBox="0 0 1024 1024"><path d="M985.71776 473.22624l-125.20448-125.19424c-6.08256-6.08256-15.71328-6.08256-21.28896 0l-21.28896 21.28896c-6.08256 6.08256-6.08256 15.71328 0 21.28896l94.78656 92.75392h-357.3504V111.84128l92.25216 94.78144c6.08256 6.08256 15.71328 6.08256 21.28896 0l21.28896-21.28896c6.08256-6.08256 6.08256-15.71328 0-21.28896L565.50912 38.3488a60.88704 60.88704 0 0 0-86.1696 0L354.13504 163.5328c-6.08256 6.08256-6.08256 15.7184 0 21.28896l21.28896 21.28896c6.08256 6.08256 15.7184 6.08256 21.28896 0l92.76416-94.27456 2.5344 371.52256H111.8464L206.63296 391.1168c6.08256-6.08256 6.08256-15.71328 0-21.28896L185.344 348.53888c-6.08256-6.08256-15.71328-6.08256-21.28896 0L38.3488 473.22624a60.8768 60.8768 0 0 0 0 86.16448l125.19936 125.19424c6.08256 6.08256 15.71328 6.08256 21.28896 0l21.28896-21.28896c6.08256-6.08256 6.08256-15.71328 0-21.28896l-94.27968-92.75392H489.472v363.74528l-92.25728-95.11424c-6.08256-6.08256-15.71328-6.08256-21.28896 0l-21.28896 21.28896c-6.08256 6.08256-6.08256 15.71328 0 21.28896L479.8464 985.6512a60.88192 60.88192 0 0 0 86.1696 0l125.19936-125.18912c6.08256-6.08256 6.08256-15.71328 0-21.28896l-21.28896-21.28896c-6.08256-6.08256-15.71328-6.08256-21.28896 0l-93.26592 96.30208v-364.93312h357.3504l-95.29344 92.24704c-6.08256 6.08256-6.08256 15.71328 0 21.28896l21.28896 21.28896c6.08256 6.08256 15.71328 6.08256 21.28896 0l125.19936-125.19424c24.33536-23.31648 24.33536-61.83424 0.512-85.6576z"  ></path></svg>