<svg xmlns="http://www.w3.org/2000/svg" viewBox="0 0 1024 1024"><path d="M394.971429 460.726857H160.914286c-48.493714 0-87.771429 38.253714-87.771429 85.504v319.122286C73.142857 912.603429 112.420571 950.857143 160.914286 950.857143h234.057143c48.493714 0 87.771429-38.253714 87.771428-85.504V546.230857c0-47.250286-39.277714-85.577143-87.771428-85.577143z m-234.057143 79.725714h234.057143c3.218286 0 5.851429 2.56 5.851428 5.778286v319.122286a5.778286 5.778286 0 0 1-5.851428 5.705143H160.914286a5.778286 5.778286 0 0 1-5.851429-5.705143V546.230857c0-3.145143 2.633143-5.705143 5.851429-5.705143zM394.971429 73.142857H160.914286C112.420571 73.142857 73.142857 111.396571 73.142857 158.646857V318.171429c0 47.177143 39.277714 85.504 87.771429 85.504h234.057143c48.493714 0 87.771429-38.326857 87.771428-85.577143V158.72C482.742857 111.396571 443.465143 73.142857 394.971429 73.142857zM160.914286 152.868571h234.057143c3.218286 0 5.851429 2.633143 5.851428 5.778286V318.171429a5.778286 5.778286 0 0 1-5.851428 5.705142H160.914286a5.778286 5.778286 0 0 1-5.851429-5.705142V158.646857c0-3.145143 2.633143-5.705143 5.851429-5.705143zM863.085714 73.142857H629.028571c-48.493714 0-87.771429 38.253714-87.771428 85.504v319.122286c0 47.250286 39.277714 85.577143 87.771428 85.577143h234.057143c48.493714 0 87.771429-38.326857 87.771429-85.577143V158.72C950.857143 111.396571 911.579429 73.142857 863.085714 73.142857zM629.028571 152.868571h234.057143c3.218286 0 5.851429 2.633143 5.851429 5.778286v319.122286a5.778286 5.778286 0 0 1-5.851429 5.705143H629.028571a5.778286 5.778286 0 0 1-5.851428-5.705143V158.72c0-3.145143 2.633143-5.705143 5.851428-5.705143z m234.057143 467.382858H629.028571c-48.493714 0-87.771429 38.326857-87.771428 85.577142v159.524572c0 47.250286 39.277714 85.504 87.771428 85.504h234.057143c48.493714 0 87.771429-38.253714 87.771429-85.504V705.828571c0-47.177143-39.277714-85.504-87.771429-85.504zM629.028571 700.050286h234.057143c3.218286 0 5.851429 2.56 5.851429 5.705143v159.597714a5.778286 5.778286 0 0 1-5.851429 5.705143H629.028571a5.778286 5.778286 0 0 1-5.851428-5.705143V705.828571a5.851429 5.851429 0 0 1 5.851428-5.705142z"  ></path></svg>