<svg xmlns="http://www.w3.org/2000/svg" viewBox="0 0 1024 1024"><path d="M915.83297439 9.2511995A67.55687062 67.55687062 0 0 1 983.32700093 76.74522604v870.50954792A67.49402654 67.49402654 0 0 1 915.83297439 1014.7488005H108.16702561A67.49402654 67.49402654 0 0 1 40.67299907 947.25477396V76.74522604A67.55687062 67.55687062 0 0 1 108.16702561 9.2511995h807.66594878zM108.16702561 72.09479865a4.71327001 4.71327001 0 0 0-3.33071031 1.31971558 4.71327001 4.71327001 0 0 0-1.31971563 3.33071181v870.50954792c0 1.25687152 0.50274831 2.45090041 1.31971563 3.33071181a4.71327001 4.71327001 0 0 0 3.33071031 1.31971558h807.66594878c1.25687152 0 2.45090041-0.50274831 3.33071031-1.31971558a4.71327001 4.71327001 0 0 0 1.31971563-3.33071181V76.74522604a4.71327001 4.71327001 0 0 0-1.31971563-3.33071181 4.71327001 4.71327001 0 0 0-3.33071031-1.31971558H108.16702561z m472.20681083 695.86718417a30.16492806 30.16492806 0 0 1 0 60.2041694h-289.70899608a30.16492806 30.16492806 0 0 1 0-60.2041694h289.70899608z m152.9613232-166.91260095a30.16492806 30.16492806 0 0 1 0 60.20416792H290.72768445a30.03924135 30.03924135 0 0 1 0-60.20416792h442.60747519z m31.42179957-405.4040649a31.42179956 31.42179956 0 0 1 21.68104206 53.91980891l-189.9762027 185.76568246a31.42179956 31.42179956 0 0 1-43.99052059 0L437.21611635 321.39536082l-124.87023394 120.53402553a31.48464367 31.48464367 0 0 1-52.41156251-23.44066333 31.42179956 31.42179956 0 0 1 8.79810353-21.80672876l147.05402428-141.83800597a31.48464367 31.48464367 0 0 1 43.99052059 0.3142175L574.84360061 368.90512251l167.91809905-164.14748302-0.31421752-0.12568818a31.54748775 31.54748775 0 0 1 22.37232117-8.98663434z"  ></path></svg>