<svg xmlns="http://www.w3.org/2000/svg" viewBox="0 0 1316 1024"><path d="M558.64076233 0c246.710857 0 454.509714 153.6 517.705142 362.715429 65.974857 24.502857 122.88 68.242286 162.889143 125.44 40.155429 57.124571 61.586286 125.074286 61.44 194.56 0 188.416-154.624 341.284571-345.453714 341.284571a346.770286 346.770286 0 0 1-188.196571-55.076571l-14.555429-9.947429-21.942857 7.533714a577.462857 577.462857 0 0 1-171.885714 25.892572 568.905143 568.905143 0 0 1-272.822858-68.754286c-86.820571 50.029714-164.278857 56.027429-232.448 18.139429C41.08190433 929.718857 40.35047633 921.6 44.00761933 911.433143l0.804571-2.048 0.877714-2.048 1.024-2.194286 5.339429-11.117714 1.316571-2.706286c5.046857-11.190857 12.726857-22.162286 22.601143-34.304l3.657143-4.608 4.022857-4.754286 6.217143-7.387428 11.264-13.312 4.900572-5.632 4.827428-5.924572c4.169143-4.973714 7.460571-15.067429 9.874286-29.842285C54.17447633 702.902857 21.33333333 606.866286 21.33333333 496.201143 21.33333333 222.134857 261.97333333 0 558.64076233 0z m396.580571 417.206857c-35.328 0-70.290286 6.948571-102.912 20.333714-32.621714 13.312-62.244571 32.914286-87.186286 57.563429a264.777143 264.777143 0 0 0-58.221714 86.089143c-13.458286 32.182857-20.406857 66.633143-20.333714 101.449143 0 34.816 6.875429 69.339429 20.333714 101.522285 13.458286 32.182857 33.28 61.44 58.221714 86.089143 24.868571 24.649143 54.564571 44.178286 87.186286 57.563429 32.621714 13.385143 67.584 20.260571 102.912 20.333714 35.328 0 70.363429-6.948571 102.985143-20.333714 32.621714-13.385143 62.171429-32.914286 87.186286-57.563429a264.777143 264.777143 0 0 0 58.221714-86.089143c13.458286-32.182857 20.333714-66.706286 20.260571-101.522285 0.073143-34.816-6.802286-69.266286-20.260571-101.449143a264.777143 264.777143 0 0 0-58.221714-86.089143 269.385143 269.385143 0 0 0-87.186286-57.563429 272.603429 272.603429 0 0 0-102.985143-20.333714zM558.64076233 75.849143c-255.488 0-460.507429 189.366857-460.507429 420.352 0 92.306286 26.331429 170.569143 79.872 238.665143l2.779429 3.437714 20.918857 26.112-5.12 32.768c-4.388571 27.355429-11.190857 47.981714-26.331429 66.267429l-7.460571 8.923428-15.36 18.139429h1.462857c27.867429-0.292571 59.026286-10.24 95.158857-30.573715l3.072-1.755428 37.595429-21.650286 38.107428 20.772572a491.52 491.52 0 0 0 235.812572 59.245714c44.617143 0 88.210286-5.851429 129.974857-16.969143l-5.339429-6.582857a337.334857 337.334857 0 0 1-73.508571-210.358857c0-188.489143 154.697143-341.284571 345.453714-341.284572 12.873143 0 25.526857 0.658286 38.034286 2.048l-5.705143-0.585143c-67.730286-157.988571-236.105143-266.971429-428.982857-266.971428h0.073143z m398.189714 461.531428c21.577143 0 39.131429 16.091429 40.009143 36.425143v70.948572h67.218285c21.138286 0 38.326857 17.627429 38.326858 39.350857a38.4 38.4 0 0 1-10.459429 27.062857 39.497143 39.497143 0 0 1-26.477714 12.288h-68.608v66.633143a38.473143 38.473143 0 0 1-12.068572 27.136 39.643429 39.643429 0 0 1-27.940571 10.825143 39.716571 39.716571 0 0 1-27.428572-10.313143 38.546286 38.546286 0 0 1-12.507428-26.185143v-68.096h-70.363429a39.497143 39.497143 0 0 1-27.501714-11.849143 38.326857 38.326857 0 0 1-10.898286-27.501714c0-21.211429 16.457143-38.546286 36.937143-39.350857h71.753143v-69.632c0-20.845714 17.92-37.888 40.009143-37.888v0.073143z"  ></path></svg>