<svg xmlns="http://www.w3.org/2000/svg" viewBox="0 0 1024 1024"><path d="M510.14544835 21.27232603c-272.22172283 0-488.54195225 218.43971738-488.54195224 488.54195225 0 272.08925403 216.45269823 492.78092817 488.54195224 492.78092817s492.78092817-220.69167414 492.78092817-492.78092817C1002.92637652 239.7120434 782.23470238 21.27232603 510.14544835 21.27232603zM808.33089679 807.86725921c-38.68065339 38.68065339-83.85223818 69.14829124-134.05760785 90.34316958-51.92745251 21.98968599-107.16660448 33.11699846-164.12784188 33.11699846s-112.20038937-11.12731117-164.12784188-33.11699846c-50.20536837-21.19487834-95.24448566-51.66251619-134.05760786-90.34316958-38.68065339-38.68065339-65.43918796-83.85223818-86.63406629-134.05760785C103.33624633 621.88219885 92.7388078 566.77551439 92.7388078 509.81427828s10.59743982-112.20038937 32.58712582-164.12784189c21.19487834-50.20536837 47.95341291-95.24448566 86.63406628-134.05760785 38.68065339-38.68065339 83.85223818-64.6443803 134.05760788-85.83925863 51.92745251-21.98968599 107.16660448-32.58712581 164.12784187-32.58712581s112.20038937 10.59743982 164.12784188 32.58712581c50.20536837 21.19487834 95.24448566 47.15860525 134.05760786 85.83925863 38.68065339 38.68065339 69.14829124 83.85223818 90.34316958 134.05760785 21.98968599 51.92745251 33.11699846 107.16660448 33.11699845 164.12784189s-11.12731117 112.20038937-33.11699845 164.12784188C877.47918803 724.01501973 847.01155019 769.18660581 808.33089679 807.86725921z"  ></path><path d="M525.77667047 518.68963396l0-250.09956801c-0.13246752-19.73773053-17.22083873-35.76635777-36.95856925-35.76635777 0 0-0.13246752 0-0.13246752 0-19.87019933 0.13246752-35.76635777 16.16109475-35.76635776 36.03129408L453.05174345 533.12864459c0 10.3325035 4.76884726 19.60526301 12.05458763 26.22866192l118.69132076 120.67833992c7.02080404 7.02080404 16.16109475 10.46497102 25.30138675 10.46497101 9.140292 0 18.41305023-3.44416826 25.30138676-10.46497101 14.04160679-14.04160679 14.04160679-36.69363423 0-50.73524101L525.77667047 518.68963396z"  ></path></svg>