<svg xmlns="http://www.w3.org/2000/svg" viewBox="0 0 1024 1024"><path d="M841.9289002 93.69728714C759.44667549 58.34776206 641.61492572 40.67299953 512 40.67299953c-129.61492572 0-247.44667549 17.67476253-329.9289002 53.02428761C87.80569917 134.93839878 40.67299953 182.0710998 40.67299953 235.09538741v547.91763858c0 53.02428761 47.13269964 106.0485752 141.39810027 141.39810028 82.4822247 41.24111305 200.31397585 58.91587557 329.9289002 58.9158742 129.61492572 0 247.44667549-17.67476253 329.9289002-53.02428761 88.37381268-35.34952507 141.39810029-88.37381268 141.39810027-141.39810027V235.09538741c0-53.02428761-47.13269964-100.15698723-141.39810027-141.39810027zM788.90461259 335.25237466c-76.59063811 29.45793709-182.63921332 41.24111305-276.90461259 41.24111302-100.15698723 0-200.31397585-11.78317456-276.90461259-41.24111302-88.37381268-23.56635051-129.61492572-58.91587557-129.61492572-100.15698725 0-35.34952507 47.13269964-70.69905013 129.61492572-100.15698863 76.59063811-23.56635051 176.74762534-35.34952507 276.90461259-35.34952505 94.26540064 0 200.31397585 17.67476253 276.90461259 41.24111303 82.4822247 29.45793709 129.61492572 64.80746218 129.61492572 100.15698725 0 35.34952507-41.24111305 70.69905013-129.61492572 94.26540065z m5.89158798 170.85603737c-76.59063811 23.56635051-182.63921332 41.24111305-282.79620057 41.24111304-100.15698723 0-200.31397585-17.67476253-282.79620057-41.24111304-82.4822247-29.45793709-129.61492572-64.80746218-129.6149257-100.15698723V341.14396262c58.91587557 23.56635051 100.15698723 53.02428761 164.96445078 64.80746218 76.59063811 17.67476253 159.07286282 29.45793709 247.44667549 29.45793709s170.85603738-11.78317456 247.44667549-29.45793709c64.80746218-11.78317456 106.0485752-41.24111305 164.96445078-64.80746218v70.69905015c0 29.45793709-47.13269964 64.80746218-129.6149257 94.26539926z m0 188.53080129c-76.59063811 23.56635051-182.63921332 41.24111305-282.79620057 41.24111167-100.15698723 0-200.31397585-17.67476253-282.79620057-41.24111167-82.4822247-23.56635051-129.61492572-58.91587557-129.6149257-100.15698862v-88.37381267c58.91587557 29.45793709 100.15698723 53.02428761 164.96445078 70.69905015 76.59063811 17.67476253 159.07286282 29.45793709 247.44667549 29.45793846s170.85603738-11.78317456 247.44667549-29.45793846c64.80746218-17.67476253 106.0485752-41.24111305 164.96445078-70.69905015v88.37381267c0 41.24111305-47.13269964 76.59063811-129.6149257 100.15698862zM512 924.41112627c-100.15698723 0-200.31397585-17.67476253-282.79620057-41.24111303-82.4822247-23.56635051-129.61492572-58.91587557-129.6149257-94.26540065v-88.37381268c58.91587557 29.45793709 100.15698723 53.02428761 164.96445078 70.69905014 70.69905013 17.67476253 159.07286282 29.45793709 241.55508752 29.45793848 88.37381268 0 170.85603738-11.78317456 247.44667549-29.45793848 70.69905013-17.67476253 111.94016319-41.24111305 170.85603875-70.69905014v88.37381268c0 35.34952507-47.13269964 70.69905013-129.6149257 100.15698863-76.59063811 23.56635051-188.53079991 35.34952507-282.79620057 35.34952505z"  ></path></svg>