<svg xmlns="http://www.w3.org/2000/svg" viewBox="0 0 1024 1024"><path d="M848.014222 960H176.014222a112.042667 112.042667 0 0 1-112.014222-112.042667V176.014222A112.042667 112.042667 0 0 1 176.014222 64h672a112.071111 112.071111 0 0 1 111.985778 112.042667v672.028444a112.071111 112.071111 0 0 1-112.014222 111.928889zM119.978667 848.071111c0 30.890667 25.116444 56.035556 55.978666 56.035556h112.071111V344.007111H120.035556v504.035556zM903.964444 176.071111a56.035556 56.035556 0 0 0-55.978666-56.035555H176.014222a56.035556 56.035556 0 0 0-56.035555 56.007111v112.071111h784.014222V175.985778v0.056889z m0 167.936H343.978667v224.085333H903.964444v-224.085333h0.028445z m0 280.092445H343.978667v280.007111h503.864889a56.035556 56.035556 0 0 0 56.007111-56.035556v-223.971555h0.142222z"  ></path></svg>