<svg xmlns="http://www.w3.org/2000/svg" viewBox="0 0 1024 1024"><path d="M424.041984 90.112c0 49.7664 39.424 90.112 87.9616 90.112 48.64 0 88.0128-40.3456 88.0128-90.112S560.592384 0 512.003584 0c-48.5888 0-87.9616 40.3456-87.9616 90.112z m302.2336 140.1344c5.0688 9.0112 11.6736 16.4864 19.3024 22.3232 21.6064 16.5888 23.04 40.3456 23.04 68.0448v82.6368c0 16.2304 0 46.5408-9.6256 50.5856-9.6256 4.096-39.2192-10.7008-60.9792-23.552l-76.8-45.4144c-22.528-13.312-36.5568-23.9616-40.448-50.3296a67.9424 67.9424 0 0 0-32.4608-48.64 65.536 65.536 0 0 0-90.624 24.8832 68.608 68.608 0 0 0-8.192 23.7568c-3.8912 26.368-17.92 37.0176-40.4992 50.3808l-49.664 29.3376c-28.16 16.7424-71.424 23.7568-76.6976 22.272-5.2224-1.536-10.9056-2.6112-15.36-9.216-4.4032-6.656-5.632-33.536-5.632-56.1152V312.5248c0-26.7264 0.6144-49.7152 20.992-66.4064a69.12 69.12 0 0 0 15.9744-87.04 65.536 65.536 0 0 0-90.624-24.832A68.864 68.864 0 0 0 199.683584 246.1696c20.3264 16.64 20.9408 39.6288 20.9408 66.3552V371.2c0 22.5792 4.8128 52.5312-7.8336 60.3136-16.64 9.216-30.5152 18.3296-39.936 34.9696-8.0384 14.336-11.3664 30.1568-10.3424 45.5168-1.024 15.36 2.304 31.232 10.3936 45.568 9.3696 16.5888 23.6544 28.5184 39.936 34.9184 10.3424 2.4064 7.7824 37.7856 7.7824 60.3136v58.6752c0 26.7264-0.6144 49.664-20.992 66.4064a68.9152 68.9152 0 0 0 8.2944 111.9232 65.536 65.536 0 0 0 90.6752-24.8832 69.12 69.12 0 0 0-15.9744-87.04c-20.3776-16.6912-20.992-39.68-20.992-66.3552V652.8c0-22.528 0.8704-53.5552 8.1408-60.416 12.8512-12.1856 61.3376 0.6656 89.6 17.3568l49.6128 29.3376c22.528 13.3632 36.608 24.0128 40.5504 50.3808 1.1776 8.1408 3.84 16.1792 8.0896 23.7568a65.536 65.536 0 0 0 90.624 24.8832c18.2272-10.752 29.5424-28.9792 32.4608-48.64 3.9424-26.368 17.92-36.9664 40.5504-50.3296l76.7488-45.4144c21.76-12.8 55.808-25.6 64.4608-19.968 7.4752 4.1984 6.144 30.7712 6.144 47.0016v82.688c0 27.648-1.4336 51.4048-23.04 67.9936a75.3152 75.3152 0 0 0 7.2704 123.904 71.68 71.68 0 0 0 99.1232-27.2384 75.52 75.52 0 0 0-19.3024-96.6144c-21.6064-16.5888-23.04-40.3968-23.04-68.096v-82.6368c0-13.9264-3.3792-38.2464 10.5984-48.384 5.12-4.352 32.768-36.608 30.9248-60.3648a64.1536 64.1536 0 0 0-30.9248-60.3648c-12.6464-12.0832-10.5984-32.1536-10.5984-48.384V320.6144c0-27.648 1.4336-51.5072 23.04-68.096 29.0304-22.2208 37.888-63.6416 19.3024-96.6144a72.2944 72.2944 0 0 0-62.976-37.1712c-12.288 0-24.7808 3.2256-36.1984 9.984a75.3664 75.3664 0 0 0-26.5216 101.5296zM419.331584 610.3552c-16.5376-9.8304-33.0752-19.5584-49.664-29.3376A102.656 102.656 0 0 1 320.361984 512c-4.1984 19.8144-4.1984 19.8144 0 0 6.2464-29.696 23.1936-53.504 49.408-69.0176l49.664-29.2864c22.528-13.3632 47.36-15.3088 71.68-5.5808 15.8208 6.4 33.0752 6.0416 48.1792 0 24.2688-9.728 49.1008-7.7824 71.6288 5.5808l76.8 45.4144c20.224 11.9808 33.5872 30.1056 38.9632 52.8896-5.376 22.8352-18.7392 40.96-38.9632 52.9408l-76.8 45.3632a78.848 78.848 0 0 1-71.6288 5.632 64.8192 64.8192 0 0 0-48.2304-0.0512c-10.1888 4.096-20.48 6.144-30.6176 6.144-14.08 0-27.9552-3.9424-41.0624-11.6736zM916.995584 512c0 30.3104 23.9616 54.8864 53.504 54.8864 29.5936 0 53.5552-24.576 53.5552-54.8864 0-30.3104-23.9616-54.8352-53.5552-54.8352-29.5424 0-53.5552 24.576-53.5552 54.8352zM0.003584 512a54.272 54.272 0 0 0 53.5552 54.8864A54.272 54.272 0 0 0 107.113984 512a54.272 54.272 0 0 0-53.5552-54.8352C23.965184 457.1648 0.003584 481.7408 0.003584 512z m424.0384 421.888c0 49.7664 39.424 90.112 87.9616 90.112 48.64 0 88.0128-40.3456 88.0128-90.112s-39.424-90.112-88.0128-90.112c-48.5888 0-87.9616 40.3456-87.9616 90.112z"  ></path></svg>