<svg xmlns="http://www.w3.org/2000/svg" viewBox="0 0 1024 1024"><path d="M531.73248 30.72a17.39264 17.39264 0 0 1 17.34656 17.35168v431.78496h426.8544a17.39264 17.39264 0 0 1 17.34656 17.3568v34.51392a17.39264 17.39264 0 0 1-17.35168 17.34656h-426.8544v426.85952a17.39264 17.39264 0 0 1-17.34656 17.34656h-34.51904a17.39776 17.39776 0 0 1-17.3568-17.35168v-426.8544H48.07168A17.39264 17.39264 0 0 1 30.72 531.72736v-34.51904a17.39776 17.39776 0 0 1 17.35168-17.3568h431.79008V48.0768A17.39776 17.39776 0 0 1 497.21856 30.72h34.51392z m1.3824 959.92832l0.09216-0.00512a0.55808 0.55808 0 0 1-0.09216 0.00512z m-38.39488-0.15872c0.19968 0.03584 0.39424 0.07168 0.59392 0.09728-0.19968-0.0256-0.39424-0.06144-0.59392-0.09728z m39.34208 0.0256c0.18432-0.03072 0.36864-0.04608 0.55296-0.08704-0.18432 0.04096-0.36864 0.05632-0.55296 0.08704z m-40.82176-0.3584l0.68608 0.1792-0.68608-0.1792z m42.16832 0.07168c0.20992-0.0512 0.42496-0.09728 0.62976-0.16384-0.2048 0.06656-0.41984 0.11264-0.62976 0.16384z m-43.48416-0.50688c0.2304 0.08704 0.4608 0.1792 0.70144 0.256-0.23552-0.0768-0.47104-0.16896-0.70144-0.256z m44.86144 0.0768c0.18432-0.06656 0.37376-0.128 0.55808-0.2048-0.18432 0.0768-0.37376 0.13824-0.55808 0.2048z m-45.98784-0.5632l0.45056 0.21504c-0.1536-0.06656-0.29696-0.14336-0.45056-0.21504z m47.22688 0.04608c0.21504-0.1024 0.43008-0.19456 0.63488-0.3072-0.2048 0.11264-0.41984 0.2048-0.63488 0.3072z m-48.45568-0.7168l0.41984 0.256-0.41984-0.256z m49.7664 0.01024z m-53.504-3.21536z m54.6816 2.42176c0.1536-0.11264 0.3072-0.22016 0.45568-0.34304-0.14848 0.12288-0.30208 0.2304-0.45568 0.34304z m0.99328-0.80384c0.18432-0.16384 0.36864-0.32768 0.54272-0.49664-0.17408 0.16896-0.3584 0.3328-0.54272 0.49664z m0.93184-0.90112z m0.9984-1.16224z m-58.42944-0.66048c0.1536 0.22528 0.32256 0.44032 0.4864 0.65536-0.16384-0.21504-0.3328-0.43008-0.4864-0.65536z m59.23328-0.50176c0.11776-0.18432 0.23552-0.36864 0.34304-0.55808-0.10752 0.18944-0.22528 0.37376-0.34304 0.55808z m-59.9552-0.66048c0.11264 0.2048 0.24064 0.40448 0.36352 0.60416-0.12288-0.19968-0.25088-0.39936-0.36352-0.60416z m-0.65536-1.32096z m61.29664 0.768z m-61.77792-2.04288z m62.34624 0.77824z m0.44032-1.32608z m-63.1552-0.80384z m-0.24576-1.44384z m63.744 0.76288c0.04096-0.20992 0.07168-0.42496 0.1024-0.64-0.03072 0.21504-0.06144 0.43008-0.1024 0.64z m-500.70016-432.1792c0.19968 0.03584 0.39424 0.07168 0.59904 0.09728-0.2048-0.0256-0.39936-0.06144-0.59904-0.09728z m932.23424 0.09728c0.2048-0.0256 0.39936-0.06144 0.59904-0.09728-0.19968 0.03584-0.39424 0.07168-0.59904 0.09728zM44.0832 545.95072z m935.12192 0.1792c0.2304-0.0512 0.45568-0.11776 0.68608-0.1792-0.2304 0.06144-0.45568 0.128-0.68608 0.1792zM42.752 545.50528z m937.7536 0.27136z m-939.008-0.82432c0.22016 0.10752 0.44032 0.22016 0.6656 0.31744-0.22528-0.09728-0.44544-0.20992-0.6656-0.31744z m940.33408 0.31744l0.64512-0.3072-0.64512 0.3072z m-941.5168-0.98304c0.18944 0.11776 0.37376 0.24064 0.56832 0.34816-0.19456-0.10752-0.37888-0.2304-0.56832-0.34816z m942.7968 0.34304c0.19456-0.10752 0.37888-0.22528 0.56832-0.34304-0.18944 0.11776-0.37376 0.23552-0.56832 0.34304z m-944.1024-1.2544c0.24064 0.18944 0.48128 0.37888 0.73216 0.54784-0.256-0.16896-0.49152-0.3584-0.73216-0.54784z m945.24416 0.54784z m-947.55328-2.76992z m950.59456 0z m-951.424-1.1008c0.1536 0.22528 0.32256 0.4352 0.49152 0.65024-0.16896-0.21504-0.33792-0.42496-0.49152-0.65024z m951.76704 0.65024zM35.1744 538.9312l0.1792 0.29696-0.1792-0.29696z m953.472 0.29696l0.18944-0.32256-0.18944 0.32256z m0.51712-0.95744c0.10752-0.21504 0.21504-0.42496 0.31232-0.64512-0.09728 0.22016-0.2048 0.43008-0.31232 0.64512z m-954.64448-0.64512c0.09216 0.20992 0.19456 0.4096 0.29696 0.6144-0.1024-0.2048-0.2048-0.40448-0.29696-0.6144z m-0.50176-1.32608c0.08192 0.256 0.1792 0.50688 0.27648 0.75776-0.09728-0.25088-0.19456-0.50176-0.27648-0.75776z m955.68384 0.75776c0.09728-0.25088 0.19456-0.50176 0.27648-0.75776-0.08192 0.256-0.1792 0.50688-0.27648 0.75776z m-956.04224-2.05824z m956.49792 0.68608z m-956.7488-2.0736c0.0256 0.19968 0.06144 0.39424 0.09728 0.59392-0.03584-0.19968-0.07168-0.39424-0.09728-0.59392z m957.0816 0.59392c0.03584-0.19968 0.07168-0.39424 0.09728-0.59392-0.0256 0.19968-0.06144 0.39424-0.09728 0.59392z m0.09216-38.93248c-0.04608-0.33792-0.08704-0.67072-0.15872-1.00352 0.07168 0.3328 0.11264 0.6656 0.15872 1.00352z m-0.3072-1.5872c-0.06656-0.26624-0.12288-0.5376-0.2048-0.79872 0.08192 0.26112 0.13824 0.53248 0.2048 0.80384z m-0.42496-1.42336c-0.08704-0.24064-0.16896-0.4864-0.27136-0.72704 0.1024 0.24064 0.18432 0.4864 0.27136 0.72704z m-0.5376-1.3056c-0.10752-0.22528-0.20992-0.45056-0.32768-0.67072 0.11776 0.22016 0.22016 0.44544 0.32768 0.6656z m-0.73728-1.37216c-0.09728-0.16384-0.18944-0.3328-0.29696-0.49152 0.10752 0.15872 0.19968 0.32768 0.29696 0.49152z m-0.74752-1.12128c-0.13312-0.1792-0.26624-0.3584-0.4096-0.53248 0.14336 0.17408 0.27648 0.3584 0.4096 0.53248z m-0.84992-1.0496c-0.1536-0.16896-0.30208-0.33792-0.45568-0.49664 0.1536 0.15872 0.30208 0.32768 0.45568 0.49664z m-1.06496-1.0752c-0.13312-0.128-0.26624-0.256-0.40448-0.36864l0.40448 0.36352z m-0.98304-0.83456c-0.18432-0.14336-0.36864-0.28672-0.5632-0.42496 0.19456 0.13824 0.37888 0.2816 0.5632 0.42496z m-1.13664-0.7936z m-1.19296-0.68096zM48.07168 482.41664z m933.248 1.03936c-0.25088-0.1024-0.49664-0.19456-0.75264-0.2816 0.256 0.08704 0.50176 0.18432 0.75264 0.2816z m-1.34144-0.4608z m-1.39776-0.32256zM483.58912 42.32704z m62.4384 2.05312c-0.0512-0.21504-0.09728-0.42496-0.16384-0.63488 0.06656 0.2048 0.11264 0.41984 0.16384 0.63488z m-0.43008-1.37728c-0.06656-0.18432-0.128-0.37376-0.2048-0.55808 0.0768 0.18432 0.13824 0.37376 0.2048 0.5632z m-0.51712-1.23904c-0.1024-0.20992-0.19456-0.42496-0.3072-0.63488 0.11264 0.2048 0.2048 0.42496 0.3072 0.63488z m-0.70656-1.31072l-0.29696-0.4864c0.1024 0.1536 0.19968 0.32256 0.29696 0.4864z m-0.7936-1.1776c-0.11264-0.14848-0.22016-0.3072-0.33792-0.45056 0.11776 0.14848 0.22528 0.3072 0.33792 0.45568z m-0.87552-1.06496c-0.128-0.14336-0.256-0.29184-0.38912-0.43008 0.13312 0.13824 0.26112 0.28672 0.38912 0.43008z m-0.92672-0.9472z m-1.0752-0.90624c-0.16896-0.13312-0.33792-0.26624-0.51712-0.39424 0.1792 0.128 0.34816 0.256 0.51712 0.39424z m-1.1776-0.8192c-0.17408-0.11264-0.34304-0.22016-0.52224-0.32256 0.1792 0.1024 0.34816 0.20992 0.52224 0.31744z m-1.17248-0.6656z m-1.28512-0.57344z m-1.31584-0.45056z m-1.4848-0.33792zM487.97696 987.4432z"  ></path></svg>