<svg xmlns="http://www.w3.org/2000/svg" viewBox="0 0 1024 1024"><path d="M805.205333 265.813333v122.581334h21.888c13.098667 0 26.24 13.098667 26.24 26.24s-13.141333 26.24-26.24 26.24h-65.664c21.888 34.986667 21.888 83.2 0 122.538666h65.664c13.098667 0 26.24 13.141333 26.24 26.282667 0 13.098667-13.141333 26.24-26.24 26.24h-21.888v122.538667h21.888c13.098667 0 26.24 13.098667 26.24 26.24s-13.141333 26.24-26.24 26.24H354.474667c-87.552 0-135.68-105.002667-91.904-175.018667H196.906667c-13.098667 0-26.24-13.141333-26.24-26.24 0-13.141333 13.141333-26.282667 26.24-26.282667h21.888v-122.538666h-21.888c-13.098667 0-26.24-13.098667-26.24-26.24s13.141333-26.24 26.24-26.24h65.664C218.794667 318.378667 266.922667 213.333333 354.474667 213.333333h472.618666c13.098667 0 26.24 13.141333 26.24 26.24 0 13.141333-13.141333 26.282667-26.24 26.282667h-21.888z m-135.68 175.061334H249.429333v122.538666h420.096c13.141333 0 30.634667-8.746667 39.381334-17.493333 21.888-26.282667 21.888-65.664 0-87.509333-13.098667-8.789333-26.24-17.493333-39.381334-17.493334z m105.045334 175.061333H354.474667c-13.141333 0-30.634667 8.746667-39.381334 17.493333-34.986667 34.986667-13.141333 105.045333 39.381334 105.045334h420.096v-122.538667z m0-227.541333V265.813333H354.474667c-52.522667 0-70.016 69.973333-39.381334 105.002667 8.746667 8.746667 21.845333 17.493333 39.381334 17.493333h420.096z"  ></path></svg>