<svg xmlns="http://www.w3.org/2000/svg" viewBox="0 0 1024 1024"><path d="M855.55712 704.12288a86.528 86.528 0 0 1 86.528 86.53312V855.552c0 47.78496-38.74304 86.528-86.528 86.528h-692.224C115.53792 942.08 76.8 903.33696 76.8 855.552v-64.896a86.54336 86.54336 0 0 1 86.528-86.53312h692.22912z m-692.224 51.92704c-17.44384 0-32.42496 12.97408-34.6112 30.2848v69.2224c0 17.44384 12.9792 32.42496 30.28992 34.60608h696.55552c17.44384 0 32.42496-12.97408 34.60608-30.2848v-69.21728c0-17.44896-12.97408-32.43008-30.2848-34.6112H163.33312z m173.00992 45.42976a21.78048 21.78048 0 0 1 21.632 19.77856c1.01376 11.1616-6.89664 20.87424-17.92512 22.87104l-3.70688 0.6144H228.18304a21.78048 21.78048 0 0 1-21.632-19.77344c-1.01376-11.1616 6.89664-20.87424 17.92-22.87104l3.712-0.61952h108.16z m519.21408-411.01312c47.78496 0 86.528 38.73792 86.528 86.528v64.896c0 47.79008-38.74304 86.528-86.528 86.528h-692.224c-47.79008 0-86.53312-38.73792-86.53312-86.528V476.99456c0-47.79008 38.74304-86.528 86.528-86.528h692.22912z m-692.224 51.9168c-17.44384 0-32.42496 12.97408-34.6112 30.2848v69.2224c0 17.44896 12.9792 32.4352 30.28992 34.61632h696.55552c17.44384-0.00512 32.42496-12.9792 34.60608-30.2848v-69.2224c0-17.45408-12.97408-32.4352-30.2848-34.6112H163.33312z m173.00992 45.42464a21.78048 21.78048 0 0 1 21.632 19.78368c1.01376 11.15648-6.90176 20.86912-17.92512 22.8608l-3.70688 0.62464H228.18304a21.7856 21.7856 0 0 1-21.632-19.78368c-1.01376-11.1616 6.90176-20.86912 17.92-22.8608l3.712-0.62464h108.16zM855.55712 76.8c47.78496 0 86.528 38.74304 86.528 86.528v64.896a86.528 86.528 0 0 1-86.528 86.528h-692.224c-22.95296 0-44.96384-9.1136-61.19424-25.33888A86.53824 86.53824 0 0 1 76.8 228.22912V163.328C76.8 115.54304 115.54304 76.8 163.328 76.8h692.22912z m-692.224 51.90656c-17.44384 0-32.42496 12.97408-34.6112 30.2848v69.2224c0 17.44896 12.9792 32.43008 30.28992 34.6112h696.55552c17.44384 0 32.42496-12.97408 34.60608-30.2848v-69.2224c0-17.44896-12.97408-32.43008-30.2848-34.6112H163.33312z m173.00992 45.44a21.78048 21.78048 0 0 1 21.632 19.77856c1.01376 11.1616-6.90176 20.86912-17.92512 22.86592l-3.70688 0.6144H228.18304a21.7856 21.7856 0 0 1-21.632-19.77344c-1.01376-11.1616 6.90176-20.86912 17.92-22.86592l3.712-0.61952h108.16z"  ></path><path d="M386.22208 373.76c-11.73504 0.02048-21.55008-9.07264-22.60992-20.95616-1.05984-11.88864 6.98368-22.6304 18.5344-24.7552l4.07552-0.36864h113.31584c11.73504-0.02048 21.55008 9.07264 22.60992 20.95616 1.05984 11.88864-6.98368 22.6304-18.5344 24.7552l-4.07552 0.36864H386.21696zM580.7872 691.2c-11.74016 0.02048-21.5552-9.07264-22.61504-20.95616-1.05984-11.88864 6.98368-22.6304 18.5344-24.7552l4.08064-0.36864h113.3056c11.74016-0.02048 21.5552 9.07264 22.61504 20.95616 1.05984 11.88864-6.98368 22.6304-18.5344 24.7552l-4.08064 0.36864h-113.3056z"  ></path></svg>