<svg xmlns="http://www.w3.org/2000/svg" viewBox="0 0 1024 1024"><path d="M373.76 279.259429l-2.413714 433.590857c0 68.608 53.906286 122.514286 119.954285 120.027428a128 128 0 0 0 122.587429-122.441143l2.413714-512C616.301714 90.624 525.604571 0 417.865143 0 310.052571 0 219.428571 90.697143 219.428571 198.436571v548.717715A278.089143 278.089143 0 0 0 496.274286 1024a278.089143 278.089143 0 0 0 276.845714-276.845714V267.044571l2.413714-7.314285a33.499429 33.499429 0 0 0-34.304-34.377143c-19.602286 0-34.304 14.701714-34.304 34.377143 0 4.827429 0 9.728 2.486857 17.115428l-2.486857 467.894857c0 112.64-95.524571 208.237714-208.237714 208.237715a208.018286 208.018286 0 0 1-208.237714-208.237715l2.486857-467.894857V198.436571C290.377143 127.414857 349.257143 68.608 422.765714 68.608s129.828571 61.220571 129.828572 129.828571l-2.413715 512a50.249143 50.249143 0 0 1-51.492571 51.419429c-29.403429 0-53.833143-24.502857-51.419429-51.419429V274.285714a33.499429 33.499429 0 0 0-34.304-34.304 53.174857 53.174857 0 0 0-39.204571 39.204572z"  ></path></svg>