<svg xmlns="http://www.w3.org/2000/svg" viewBox="0 0 1024 1024"><path d="M451.41333333 998.69113767H75.54509833a52.645647 52.645647 0 0 1-52.585412-52.585412V570.17725467a52.645647 52.645647 0 1 1 105.231059 0v323.222588h323.282823a52.585412 52.585412 0 1 1 0 105.291295z m501.157647-501.157647a52.585412 52.585412 0 0 1-52.585412-52.585412V121.72549067H576.70274533a52.645647 52.645647 0 1 1 0-105.231059h375.868235a52.585412 52.585412 0 0 1 52.645647 52.585411v375.868236a52.585412 52.585412 0 0 1-52.645647 52.645647z"  ></path></svg>