<svg xmlns="http://www.w3.org/2000/svg" viewBox="0 0 1024 1024"><path d="M834.56 814.04416V77.55264A5.96992 5.96992 0 0 0 828.72832 71.68h-44.47232a6.00064 6.00064 0 0 0-5.83168 5.87264V926.72M636.42112 112.40448H79.77472a8.12032 8.12032 0 0 0-7.51104 5.05856c-0.39936 0.98816-0.59904 2.048-0.58368 3.1232v40.27904c0 4.5056 3.57888 8.12544 8.0896 8.12544h556.2112a8.12544 8.12544 0 0 0 5.74464-2.3808 8.064 8.064 0 0 0 2.35008-5.74464v-40.27904a7.4496 7.4496 0 0 0-4.56192-7.6032 7.50592 7.50592 0 0 0-3.09248-0.57856z m0 386.54976H79.77472a8.10496 8.10496 0 0 0-7.51104 5.05344 8.0384 8.0384 0 0 0-0.58368 3.1232v40.28416c0 4.50048 3.57888 8.12544 8.0896 8.12544h556.2112a8.1152 8.1152 0 0 0 5.74464-2.38592 8.05376 8.05376 0 0 0 2.35008-5.73952v-40.28416a7.4496 7.4496 0 0 0-4.56192-7.6032 7.50592 7.50592 0 0 0-3.09248-0.57344z m0 368.49152H79.77472a8.09984 8.09984 0 0 0-8.0896 8.12032v40.28928c0 4.55168 3.57376 8.17664 8.0896 8.17664h556.20608a8.15616 8.15616 0 0 0 5.76-2.40128c0.75264-0.76288 1.34656-1.664 1.75104-2.65728a8.1408 8.1408 0 0 0 0.58368-3.11808v-40.28928a7.49568 7.49568 0 0 0-2.00192-5.77024 7.45984 7.45984 0 0 0-5.65248-2.35008z"  ></path><path d="M636.42624 862.32576c1.73056-0.0256 3.45088 0.30208 5.0432 0.96256a12.62592 12.62592 0 0 1 7.06048 7.50592c0.53248 1.536 0.74752 3.15392 0.66048 4.77696h0.00512v40.28416h-0.00512a13.12768 13.12768 0 0 1-3.80416 9.37472 13.1584 13.1584 0 0 1-4.31104 2.89792c-1.6128 0.67584-3.34336 1.024-5.08928 1.024H79.7696a13.2096 13.2096 0 0 1-13.2096-13.29664v-40.28928a13.19424 13.19424 0 0 1 13.2096-13.24032v5.12c-1.06496 0-2.1248 0.20992-3.10784 0.61952l-0.7168 0.33792a8.11008 8.11008 0 0 0-3.66592 4.06016l-0.26624 0.75264a8.02304 8.02304 0 0 0-0.3328 2.35008v40.28928l0.04096 0.83968c0.4096 4.15232 3.81952 7.33184 8.04864 7.33696h556.21632c0.80384 0 1.59744-0.11776 2.36544-0.35328l0.75264-0.27136a8.192 8.192 0 0 0 2.048-1.23904l0.59392-0.5376c0.5632-0.57344 1.03936-1.22368 1.408-1.93024l0.33792-0.72704c0.39936-0.98816 0.59904-2.048 0.58368-3.11808v-40.28416a7.50592 7.50592 0 0 0-0.16384-2.34496l-0.22016-0.75776a7.5264 7.5264 0 0 0-1.10592-2.06848l-0.512-0.60416a7.33696 7.33696 0 0 0-1.86368-1.4336l-0.71168-0.34304a7.48544 7.48544 0 0 0-2.28864-0.55296l-0.78336-0.02048H79.7696v-5.12h556.65664zM783.54432 926.72h-5.12512l5.12512-77.52192V926.72z m-10.24-849.25952l5.11488 0.09216V926.72h-5.11488V77.46048z m61.25568 0.09728a5.98016 5.98016 0 0 0-1.35168-3.6864l-0.384-0.41984a6.01088 6.01088 0 0 0-4.10112-1.77152h-44.4672a6.01088 6.01088 0 0 0-4.096 1.77152l-0.384 0.42496c-0.84992 1.03424-1.3312 2.32448-1.3568 3.67104l-5.11488-0.08704A11.0848 11.0848 0 0 1 784.11264 66.56h44.75392A11.13088 11.13088 0 0 1 839.68 77.46048v736.58368h-10.24V154.99776l5.12-77.44zM636.42624 493.824v0.00512a12.64128 12.64128 0 0 1 9.41056 3.9936 12.55424 12.55424 0 0 1 3.3536 9.30304l0.00512 40.24832-0.05632 1.30048a13.21984 13.21984 0 0 1-8.08448 10.97216c-1.60768 0.6656-3.328 1.00864-5.0688 1.00864H79.7696a13.18912 13.18912 0 0 1-13.2096-13.24544v-40.28416h0.00512a13.17376 13.17376 0 0 1 13.2096-13.30176v5.12c-1.0752 0-2.13504 0.21504-3.1232 0.62464l-0.72704 0.34816a8.11008 8.11008 0 0 0-1.91488 1.4336l-0.53248 0.59392a8.05888 8.05888 0 0 0-1.21344 2.05824l-0.26624 0.75776c-0.22016 0.768-0.32768 1.5616-0.31744 2.36544v40.28416c0 4.21888 3.14368 7.66464 7.25504 8.07936l0.83456 0.04608h556.21632c0.79872 0 1.59232-0.11776 2.3552-0.34816l0.74752-0.27136c0.7424-0.3072 1.4336-0.72192 2.048-1.22368l0.5888-0.54272c0.5632-0.5632 1.03936-1.21344 1.408-1.91488l0.34304-0.72192a8.1408 8.1408 0 0 0 0.59904-3.10272v-40.28416a7.424 7.424 0 0 0-0.14848-2.3552l-0.21504-0.76288a7.45984 7.45984 0 0 0-1.10592-2.08384l-0.512-0.60416a7.4752 7.4752 0 0 0-4.87936-2.35008l-0.78848-0.0256H79.7696v-5.12h556.65664z m5.12-386.54464v0.9984a12.6464 12.6464 0 0 1 7.0144 7.53664c0.52224 1.536 0.72192 3.15392 0.62976 4.7616h0.00512v40.24832l-0.05632 1.3056a13.19936 13.19936 0 0 1-13.15328 11.97568H79.7696A13.19424 13.19424 0 0 1 66.56 160.86528v-40.27904h0.00512a13.16864 13.16864 0 0 1 13.2096-13.30176v5.12c-1.0752 0-2.13504 0.21504-3.1232 0.62464l-0.72704 0.34304a8.07424 8.07424 0 0 0-3.6608 4.08576l-0.26624 0.75776c-0.22016 0.768-0.32768 1.56672-0.31744 2.37056v40.27904c0 4.21888 3.14368 7.66976 7.25504 8.08448l0.83456 0.04096h556.21632a8.10496 8.10496 0 0 0 5.15072-1.8432l0.5888-0.54272c0.5632-0.5632 1.03936-1.21344 1.408-1.91488l0.34304-0.7168c0.39936-0.98816 0.60416-2.048 0.59904-3.10784v-40.27904a7.424 7.424 0 0 0-0.14848-2.3552l-0.21504-0.76288a7.5264 7.5264 0 0 0-4.1984-4.49024 7.5008 7.5008 0 0 0-2.29888-0.55296l-0.78848-0.02048H79.7696v-5.12h561.77664z"  ></path><path d="M778.24 797.17376v131.95776c0 13.02528 9.87648 23.18848 22.38976 23.18848a22.33856 22.33856 0 0 0 10.64448-2.688 22.8352 22.8352 0 0 0 8.17152-7.4752l124.01152-174.12608c3.28192-5.09952 4.46976-11.3152 3.30752-17.3056a23.26528 23.26528 0 0 0-9.50784-14.70464 22.4768 22.4768 0 0 0-8.64768-3.51232 22.2464 22.2464 0 0 0-9.29792 0.31232L778.24 797.17376z"  ></path><path d="M918.07744 727.85408a27.4176 27.4176 0 0 1 20.82816 3.14368l1.21856 0.78336 0.05632 0.04096a28.38528 28.38528 0 0 1 11.61216 17.93024 28.8 28.8 0 0 1-4.02944 21.04832l-0.06144 0.09728-0.07168 0.1024-124.01152 174.12608a27.99104 27.99104 0 0 1-9.91232 9.0112 27.42784 27.42784 0 0 1-13.0816 3.29728c-15.49312 0-27.50464-12.61056-27.50464-28.30336v-135.24992l144.07168-65.7152 0.43008-0.19456 0.45568-0.11776zM778.24 929.13152l0.03072 1.20832c0.5888 12.4416 10.23488 21.98016 22.35392 21.98016a22.33344 22.33344 0 0 0 9.40032-2.06336l1.24928-0.61952a22.95296 22.95296 0 0 0 8.17664-7.48032l124.0064-174.12608a23.7056 23.7056 0 0 0 3.30752-17.3056 23.296 23.296 0 0 0-9.50784-14.70464 22.30272 22.30272 0 0 0-17.94048-3.2L778.24 797.16864v131.96288z"  ></path></svg>