<svg xmlns="http://www.w3.org/2000/svg" viewBox="0 0 1024 1024"><path d="M200.84224 334.98112l37.35552 560.5888 0.23552 2.5856c3.072 26.55232 25.76384 46.99136 52.74112 46.99648h441.64096c27.84768 0 51.1232-21.79072 52.98176-49.5872l37.3504-560.5888 0.16384-2.38592h66.176l-0.18432 2.72896-37.62688 564.64384c-4.15744 62.38208-56.36608 111.23712-118.8608 111.23712H291.1744c-61.52192 0-113.06496-47.34464-118.62528-108.32384l-0.2304-2.9184-37.632-564.6336-0.1792-2.73408h66.176l0.16384 2.39104z m203.2128 85.86752c16.6912 1.11616 30.44864 13.0304 30.44864 28.3136v352.36864c0 16.06144-15.18592 28.40064-33.00864 28.40576-17.82272 0-33.01376-12.34432-33.01376-28.40576V449.15712c0-15.5648 14.2592-27.6224 31.34976-28.3648l1.664-0.03072h2.56v0.08704z m208.54272 0c16.69632 1.11616 30.45888 13.02528 30.45888 28.3136v352.36864c-0.00512 16.06144-15.19616 28.40064-33.01888 28.40576-17.82272 0-33.00864-12.34432-33.00864-28.40576V449.15712c0-15.5648 14.25408-27.6224 31.34976-28.3648l1.65888-0.03072h2.56v0.08704zM619.63264 12.8c65.68448 0 119.12192 53.4528 119.12192 119.168l-0.00512 31.58016h214.36928c19.19488 0 35.04128 14.6432 35.04128 33.024 0 18.39104-15.85152 33.024-35.04128 33.024H70.87616c-19.19488 0-35.03616-14.63296-35.03616-33.024s15.84128-33.024 35.03616-33.024H285.2352v-31.58016C285.2352 66.25792 338.67264 12.8 404.36224 12.8h215.2704zM404.36224 78.848c-29.27104 0-53.0944 23.8336-53.0944 53.12v31.58016h321.4592v-31.58016c0-29.2864-23.82336-53.11488-53.09952-53.12H404.36224z"  ></path></svg>