<svg xmlns="http://www.w3.org/2000/svg" viewBox="0 0 1024 1024"><path d="M870.4 0a153.6 153.6 0 0 1 153.6 153.6v716.8a153.6 153.6 0 0 1-153.6 153.6H153.6l-7.8848-0.2048A153.6 153.6 0 0 1 0 870.4V153.6a153.6 153.6 0 0 1 153.6-153.6h716.8zM153.6 76.8A76.8 76.8 0 0 0 76.8 153.6v716.8A76.8 76.8 0 0 0 153.6 947.2h716.8a76.8 76.8 0 0 0 76.8-76.8V153.6A76.8 76.8 0 0 0 870.4 76.8H153.6z"  ></path><path d="M762.3168 256H261.632a31.8976 31.8976 0 0 0-22.1184 8.8064 29.5424 29.5424 0 0 0-9.1648 21.2992v90.368c0 7.9872 3.2768 15.6672 9.1648 21.2992 5.888 5.632 13.824 8.8064 22.1184 8.8064a31.8976 31.8976 0 0 0 22.1184-8.8064 29.5424 29.5424 0 0 0 9.216-21.2992V316.2112h187.6992v391.5264H418.1504a31.8976 31.8976 0 0 0-22.1184 8.8576 29.5424 29.5424 0 0 0-9.216 21.2992c0 7.9872 3.328 15.616 9.216 21.2992 5.8368 5.632 13.824 8.8064 22.1184 8.8064h187.6992a31.8976 31.8976 0 0 0 22.1184-8.8064 29.5424 29.5424 0 0 0 9.216-21.2992 29.5424 29.5424 0 0 0-9.216-21.2992 31.8976 31.8976 0 0 0-22.1184-8.8576h-62.5664V316.2112h187.7504v60.2624c0 7.9872 3.2768 15.6672 9.1648 21.2992 5.8368 5.632 13.824 8.8064 22.1184 8.8064a31.9488 31.9488 0 0 0 22.1184-8.8064 29.5424 29.5424 0 0 0 9.1648-21.2992V286.1056a29.5424 29.5424 0 0 0-9.1648-21.2992 31.8976 31.8976 0 0 0-22.1184-8.8064z"  ></path></svg>