<svg xmlns="http://www.w3.org/2000/svg" viewBox="0 0 1024 1024"><path d="M514.703073 198.358592l196.110195 251.001064a15.988602 15.988602 0 0 0 19.745923 4.456822l114.918076-57.479023-52.282728 406.610131H236.161643L183.868922 396.337455l114.918076 57.479023a15.988602 15.988602 0 0 0 19.745923-4.456822L514.703073 198.358592m0-80.942297a15.898666 15.898666 0 0 0-12.601017 6.145619L497.645233 129.307818l-203.005279 259.81478L141.828892 312.777024a15.988602 15.988602 0 0 0-22.983616 16.338353l64.504016 501.892205a31.977204 31.977204 0 0 0 31.717389 27.900111h599.272784a31.977204 31.977204 0 0 0 31.717389-27.900111l64.533994-501.922184a15.988602 15.988602 0 0 0-22.983615-16.338352l-152.821055 76.395538-203.00528-259.814781-4.476808-5.725918a15.898666 15.898666 0 0 0-12.601017-6.145618z"  ></path><path d="M514.703073 523.167039m-47.965806 0a47.965806 47.965806 0 1 0 95.931612 0 47.965806 47.965806 0 1 0-95.931612 0Z"  ></path></svg>