<svg xmlns="http://www.w3.org/2000/svg" viewBox="0 0 1024 1024"><path d="M900.1984 905.8304a33.792 33.792 0 1 1 0 67.5328H123.8016a33.8432 33.8432 0 0 1-23.9104-57.6512 33.792 33.792 0 0 1 23.9104-9.8816h776.3968zM990.2592 0A33.792 33.792 0 0 1 1024 33.792v787.6608a33.7408 33.7408 0 0 1-33.792 33.792H33.792a33.792 33.792 0 0 1-33.792-33.792V33.7408A33.7408 33.7408 0 0 1 33.792 0h956.416zM67.4816 787.712h888.9856V67.4816H67.4816v720.2304z m274.6368-135.0656H275.2512v-441.856h66.8672v441.856z m282.2656-441.856c105.216 0 157.7984 44.544 157.7984 134.2464 0 90.368-53.248 135.5776-159.0272 135.5776H508.672v172.032H441.1904v-441.856h183.1936z m-115.712 212.2752h110.1824c33.3824 0 57.4976-6.2464 73.0112-18.6368 14.848-12.3392 22.8864-32.1536 22.8864-59.392 0-27.1872-8.0384-47.0016-23.5008-58.112-15.4624-12.3904-39.6288-18.6368-72.3968-18.6368H508.672v154.7776z"  ></path></svg>