<svg xmlns="http://www.w3.org/2000/svg" viewBox="0 0 1024 1024"><path d="M421.85871107 40.67299953h2.41555042a32.87505831 32.87505831 0 0 1 0 65.75011663c-83.60162679 0-142.98882891 0.1178313-188.05947337 6.12725056-44.06907505 5.95050293-69.52073311 17.08560333-88.07923239 35.64410398-18.55850066 18.55850066-29.63468473 43.95124238-35.58518901 88.02031742-6.06833559 45.07064446-6.12725056 104.45784658-6.12725056 188.05947337a32.93397466 32.93397466 0 0 1-65.75011663 0v-2.47446676c0-80.53800083 0-144.34389358 6.65749343-194.36347155 6.95207373-51.37464265 21.56321029-92.9103346 54.32043732-125.7853929 32.75722702-32.75722702 74.41075027-47.36836359 125.7853929-54.32043732C277.51481749 40.67299953 341.26179391 40.67299953 421.85871107 40.67299953z m365.86758448 71.87736719c-45.01172812-6.00941926-104.45784658-6.12725056-188.11838972-6.12725056a32.93397466 32.93397466 0 0 1 0-65.75011663h2.5333831c80.59691715 0 144.34389358 0 194.42238789 6.65749343 51.31572768 6.95207373 92.9103346 21.56321029 125.72647795 54.32043732 32.81614198 32.81614198 47.36836359 74.41075027 54.32043594 125.7853929 6.71640976 50.01957797 6.71640976 113.82547073 6.71640976 194.42238789v2.41555042a32.87505831 32.87505831 0 0 1-65.75011663 0c0-83.60162679-0.1178313-142.98882891-6.12725056-188.05947337-6.00941926-44.06907505-17.08560333-69.52073311-35.64410398-88.07923239-18.55850066-18.55850066-44.01015871-29.63468473-88.07923375-35.58518901zM73.54805783 566.79176385c18.08717412 0 32.87505831 14.72896923 32.87505833 32.87505832 0 83.60162679 0.05891634 143.04774524 6.12725056 188.11838971 5.89158797 44.01015871 17.08560333 69.52073311 35.64410398 87.96140108 18.55850066 18.617417 43.95124238 29.7525174 88.02031742 35.70302032 45.07064446 5.95050293 104.45784658 6.06833559 188.05947337 6.06833561a32.99288962 32.99288962 0 0 1 0 65.80903158h-2.41555042c-80.53800083 0-144.40280991 0-194.42238789-6.71640976-51.43355899-6.95207373-92.96925093-21.50429395-125.7853929-54.32043594-32.75722702-32.81614198-47.36836359-74.41075027-54.32043732-125.78539429C40.67299953 746.48518251 40.67299953 682.67928975 40.67299953 602.14128893v-2.47446676c0-18.08717412 14.6700529-32.87505831 32.8750583-32.87505832v0.05891634z m876.90388434 0c18.08717412 0 32.87505831 14.72896923 32.8750583 32.87505832v2.47446676c0 80.59691715 0 144.40280991-6.71640976 194.42238789-6.95207373 51.31572768-21.50429395 92.9103346-54.32043594 125.72647795-32.81614198 32.81614198-74.41075027 47.36836359-125.78539429 54.32043594-50.01957797 6.65749344-113.82547073 6.65749344-194.42238788 6.6574948h-2.41555043a32.87505831 32.87505831 0 0 1 0-65.75011662c83.54271045 0 143.04774524-0.1178313 188.05947338-6.06833561 44.06907505-6.00941926 69.52073311-17.08560333 88.02031741-35.70302032 18.617417-18.49958433 29.7525174-43.95124238 35.70302032-88.02031741 5.95050293-45.01172812 6.06833559-104.45784658 6.06833561-188.05947338 0-18.08717412 14.72896923-32.87505831 32.93397328-32.87505832z m-433.62083994-335.17241398a41.83027087 41.83027087 0 0 1 78.00461773 0l49.13583984 124.7838235a42.41943008 42.41943008 0 0 0 23.74309814 23.56635049l124.66599219 49.13583986a42.06593483 42.06593483 0 0 1 0 78.06353405l-124.7838235 49.13583986a42.18376612 42.18376612 0 0 0-23.56635049 23.6841818l-49.19475618 124.72490854a41.88918721 41.88918721 0 0 1-78.00461773 0l-49.0769249-124.7838235a42.06593483 42.06593483 0 0 0-23.74309676-23.5663505l-124.72490854-49.1947562a41.88918721 41.88918721 0 0 1 0-78.00461773l124.7838235-49.19475618a42.0070185 42.0070185 0 0 0 23.5663505-23.62526546l49.1947562-124.72490853z"  ></path><path d="M303.31997079 651.27712878a17.08560333 17.08560333 0 0 1 31.81457257 0l20.03139663 50.72656847a16.96777203 16.96777203 0 0 0 9.72111937 9.66220306l50.66765354 20.03139799a17.08560333 17.08560333 0 0 1 0 31.75565623l-50.84440115 20.031398a17.08560333 17.08560333 0 0 0-9.54437176 9.66220308l-20.03139663 50.66765351a17.08560333 17.08560333 0 0 1-31.81457257 0l-20.031398-50.78548482a17.08560333 17.08560333 0 0 0-9.6032881-9.6032881l-50.84439976-20.03139661a17.02668837 17.02668837 0 0 1 0-31.69674129l50.90331609-20.03139799a17.14451966 17.14451966 0 0 0 9.6032881-9.72111939l20.03139664-50.66765214z"  ></path></svg>