<svg xmlns="http://www.w3.org/2000/svg" viewBox="0 0 1024 1024"><path d="M426.752 680.3456c0 23.5008 12.8 45.1584 33.7408 56.832 20.8896 11.7248 46.5408 11.7248 67.4304 0 20.8896-11.776 33.6896-33.4336 33.6896-56.832 0-36.1472-30.208-65.536-67.4304-65.536-37.1712 0-67.4304 29.3888-67.4304 65.536z m-331.52 4.864c-52.5312 0-95.1808 41.472-95.1808 92.6208C0.0512 828.8768 42.7008 870.4 95.232 870.4c52.48 0 95.1808-41.472 95.1808-92.6208 0-51.0464-42.7008-92.5696-95.232-92.5696z m-42.7008-257.4336c0 35.072 29.2352 63.488 65.3312 63.488 36.096 0 65.3312-28.416 65.3312-63.488 0-35.1232-29.2352-63.5904-65.3312-63.5904-36.096 0-65.3312 28.4672-65.3312 63.5904z m564.5824 3.4816c0 51.0976 42.6496 92.6208 95.1808 92.6208 52.6336 0 95.1808-41.5232 95.1808-92.6208 0-51.2-42.7008-92.5696-95.232-92.5696-52.5824 0-95.1296 41.472-95.1296 92.5696z m311.808-284.16c-52.5312 0-95.232 41.472-95.232 92.5696 0 51.0464 42.7008 92.5696 95.232 92.5696C981.3504 332.288 1024.0512 290.816 1024.0512 239.6672s-42.6496-92.6208-95.1808-92.6208zM197.6832 647.9872c0 15.9744 8.8576 30.8736 23.04 38.912 14.2848 7.936 31.8464 7.936 46.1312 0a44.544 44.544 0 0 0 23.04-38.912 45.568 45.568 0 0 0-46.1824-44.9024c-25.3952 0.1536-46.0288 20.224-46.0288 44.9024z m18.944-191.232c0 51.2 42.6496 92.5696 95.1296 92.5696 52.6336 0 95.1808-41.472 95.1808-92.5696s-42.6496-92.6208-95.1808-92.6208c-52.48 0-95.1808 41.5232-95.1808 92.6208z m210.0736-4.4544c0 22.3744 12.288 42.9568 32.1024 54.2208 19.9168 11.1104 44.4416 11.1104 64.3072 0 19.968-11.1616 32.1024-31.8464 32.1024-54.272 0-34.4576-28.672-62.5664-64.3072-62.5664-35.4304 0-64.2048 28.1088-64.2048 62.6176zM367.6672 195.0208c0 51.2 42.7008 92.5696 95.1808 92.5696s95.1808-41.472 95.1808-92.5696c0-51.2-42.7008-92.6208-95.1808-92.6208S367.6672 143.872 367.6672 195.0208z m367.616 472.5248c0 51.2 42.7008 92.5696 95.232 92.5696 52.48 0 95.1296-41.472 95.1296-92.5696s-42.6496-92.6208-95.1808-92.6208c-52.6336 0-95.1808 41.5232-95.1808 92.6208z"  ></path></svg>