<svg xmlns="http://www.w3.org/2000/svg" viewBox="0 0 1024 1024"><path d="M913.54851177 512a89.2023176 89.2023176 0 0 0-31.64887165 5.5785965l-140.79053119-211.87621547c11.54382885-17.12242665 17.78523023-37.17223539 18.00616519-57.7743796a108.86549049 108.86549049 0 0 0-95.16754995-107.8712851 108.31315373 108.31315373 0 0 0-118.58660945 81.19344041 108.97595732 108.97595732 0 0 0 23.36382673 98.09493206l-142.06090431 260.37134474a146.8109963 146.8109963 0 0 0-39.65774887-5.57859651 153.54949908 153.54949908 0 0 0-83.12661712 24.85513482L189.15941514 462.28973037c7.6774754-13.2560719 11.70952975-28.1691528 11.76476381-43.46886955a93.34484006 93.34484006 0 0 0-57.4429778-86.16446734 92.84773737 92.84773737 0 0 0-126.81642162 67.93736848 93.34484006 93.34484006 0 0 0 39.60251481 95.71988672c15.24448269 10.21822166 33.25064658 15.68635132 51.64344764 15.68635132 12.37233334 0.05523407 24.63419985-2.48551348 35.95709502-7.45654045l114.77548878 137.31081102a155.59314395 155.59314395 0 0 0 63.29774334 229.05387615 154.8198735 154.8198735 0 0 0 214.47219707-101.57465093 155.64837801 155.64837801 0 0 0-53.90802617-161.61361036l138.91258723-255.40031777c9.27925033 2.70644844 18.88990245 4.14252247 28.55578735 4.30822336 16.23868809 0.38663585 32.36690932-3.03785025 47.11428931-9.94205392l140.1277263 210.6610751c-9.05831537 14.08457639-13.80840865 30.48896537-13.64270647 47.22475614a93.34484006 93.34484006 0 0 0 57.77437961 86.82727096 92.90297014 92.90297014 0 0 0 126.81642162-69.76007838A93.34484006 93.34484006 0 0 0 913.54851177 512z m-526.5422235 310.68918518a92.90297014 92.90297014 0 0 1-85.9435324-57.55344593 93.34484006 93.34484006 0 0 1 67.7716676-127.03735528 92.90297014 92.90297014 0 0 1 95.55418452 39.60251479 93.34484006 93.34484006 0 0 1-77.38231972 144.98828642z"  ></path></svg>