<svg xmlns="http://www.w3.org/2000/svg" viewBox="0 0 1024 1024"><path d="M899.8912 361.4208a389.12 389.12 0 0 0-207.2064-60.2624c-46.848 0-92.0576 8.704-134.8608 24.3712l154.7776-154.7776c12.2368 6.144 25.7536 9.9328 40.3456 9.9328 49.8176 0 90.368-40.4992 90.368-90.3168S802.7648 0 752.9472 0c-49.8176 0-90.368 40.5504-90.368 90.368 0 13.2608 3.0208 25.7536 8.192 37.0688l-235.52 235.52a88.0128 88.0128 0 0 0-15.0528-1.536c-49.8176 0-90.368 40.5504-90.368 90.368 0 5.12 0.6656 10.0864 1.536 15.0528L127.3856 670.72a88.6272 88.6272 0 0 0-37.0176-8.192c-49.8176 0-90.368 40.5504-90.368 90.368 0 49.8176 40.5504 90.368 90.368 90.368 49.8176 0 90.3168-40.5504 90.3168-90.368 0-14.592-3.7888-28.16-9.9328-40.2944l154.8288-154.8288a392.4992 392.4992 0 0 0-24.4224 134.8608c0 88.5248 36.864 164.7616 60.2624 204.288V1024h180.736v-180.736H401.408c-25.1904-49.7152-39.9872-103.168-39.9872-150.528 0-53.4528 13.2608-106.2912 37.8368-153.344 6.8096 1.6384 13.7216 2.7136 20.992 2.7136 49.7664 0 90.3168-40.5504 90.3168-90.3168 0-10.8544-2.2528-21.0944-5.7344-30.72 99.0208-68.1472 231.7312-76.3904 338.432-22.528v143.5648H1024v-180.736h-124.1088z m-146.944-301.2096a30.1056 30.1056 0 1 1 0 60.2624 30.1056 30.1056 0 0 1 0-60.2624zM90.368 783.0528a30.1056 30.1056 0 1 1 0-60.2624 30.1056 30.1056 0 0 1 0 60.2624z m331.264 120.4736h60.2624v60.2624H421.632v-60.2624z m-1.4336-421.632a30.1056 30.1056 0 1 1 0-60.2624 30.1056 30.1056 0 0 1 0 60.2624z m543.5392 0h-60.2112V421.632h60.2624v60.2624z"  ></path></svg>