<svg xmlns="http://www.w3.org/2000/svg" viewBox="0 0 1024 1024"><path d="M672.938667 537.6c80.469333-51.2 131.669333-142.592 131.669333-244.992A293.461333 293.461333 0 0 0 512 0a293.461333 293.461333 0 0 0-292.608 292.608c0 102.4 51.2 193.792 131.669333 244.992C146.261333 603.392 0 797.269333 0 1024h73.130667C73.130667 782.592 270.592 585.130667 512 585.130667c241.408 0 438.869333 197.461333 438.869333 438.869333H1024c0-226.730667-146.261333-420.608-351.061333-486.4zM512 512a220.074667 220.074667 0 0 1-219.392-219.392A220.074667 220.074667 0 0 1 512 73.130667 220.074667 220.074667 0 0 1 731.392 292.693333 220.074667 220.074667 0 0 1 512 512z"  ></path></svg>