<svg xmlns="http://www.w3.org/2000/svg" viewBox="0 0 1024 1024"><path d="M701.176433 409.583617a306.522139 306.522139 0 0 1 307.187712 307.187712 307.290108 307.290108 0 0 1-367.089316 301.351146A307.23891 307.23891 0 0 1 701.125235 409.583617z m0 68.24687a238.940842 238.940842 0 1 0 0.102396 477.881685 238.940842 238.940842 0 0 0-0.102396-477.881685zM220.683653 0v68.24687h477.779288V0h68.246871v68.24687A136.596136 136.596136 0 0 1 903.25475 204.791808v197.316908a396.476941 396.476941 0 0 0-68.24687-34.917004v-25.906163H84.138714v409.532418a68.349266 68.349266 0 0 0 68.246871 68.298068h187.794088c6.655734 23.653454 15.768969 46.538938 27.288508 68.24687H152.385585A136.391344 136.391344 0 0 1 15.891844 750.817967V204.791808a136.544938 136.544938 0 0 1 136.493741-136.544938V0H220.683653z m514.641814 546.077357v136.544938h68.24687v68.24687H667.129795v-204.791808h68.24687z m-614.324227-409.583617a34.149034 34.149034 0 0 0-34.149034 34.814608v101.73033h750.817967V171.308348a34.097836 34.097836 0 0 0-34.097836-34.814608h-34.149034V204.791808h-68.24687V136.49374H223.345946V204.791808H155.150274V136.49374h-34.097836z"  ></path></svg>