<svg xmlns="http://www.w3.org/2000/svg" viewBox="0 0 1024 1024"><path d="M512 669.184c-84.48 0-153.6-69.12-153.6-153.6s69.12-153.6 153.6-153.6 153.6 69.12 153.6 153.6c0 84.992-69.12 153.6-153.6 153.6z m0-245.76c-50.688 0-92.16 41.472-92.16 92.16s41.472 92.16 92.16 92.16 92.16-41.472 92.16-92.16-41.472-92.16-92.16-92.16z"  ></path><path d="M512 212.992c83.968 0 188.928 56.832 303.616 164.352 55.808 52.224 101.376 105.472 129.024 139.264-26.624 32.768-71.168 83.456-125.44 134.144-113.664 104.448-219.648 159.744-307.2 159.744-111.616 0-228.864-87.04-307.712-159.744-54.784-50.688-98.816-101.888-125.44-134.656 26.112-33.28 70.144-85.504 124.416-137.728C282.624 303.104 400.384 212.992 512 212.992m0-61.44C256.512 151.552 1.536 516.608 1.536 516.608s255.488 355.328 510.464 355.328c253.44 0 510.464-355.328 510.464-355.328S757.248 151.552 512 151.552z"  ></path></svg>