<svg xmlns="http://www.w3.org/2000/svg" viewBox="0 0 1024 1024"><path d="M512 299.26912a213.53472 213.53472 0 0 1 147.03616 58.19904l3.79904 3.6864 0.0512 0.04608 0.04608 0.0512c38.5536 42.40896 61.80352 92.672 61.80352 150.74816 0 57.99936-23.19872 112.1536-61.89056 150.84544l-0.1024 0.08704c-42.40384 38.5536-92.672 61.80352-150.74304 61.80352-57.99936 0-112.1536-23.19872-150.84544-61.89056l-0.08704-0.1024c-38.5536-42.40384-61.7984-92.672-61.7984-150.74304a213.53472 213.53472 0 0 1 61.88032-150.8352l0.0512-0.0512 0.0512-0.0512c42.40896-38.54848 92.672-61.7984 150.74816-61.7984v0.00512z m0 47.61088c-90.04544 0-165.12 75.07456-165.12 165.12s75.07456 165.12 165.12 165.12 165.12-75.07456 165.12-165.12S602.04544 346.88 512 346.88z"  ></path><path d="M512 125.184c212.75648 0 386.816 174.05952 386.816 386.816 0 212.75648-174.05952 386.816-386.816 386.816-77.38368 0-150.87104-23.2192-216.57088-65.73056l-2.73408-1.77152 2.14528-2.44736 26.88-30.72 1.57184-1.792 2.0224 1.24416c48.70144 29.97248 108.51328 48.896 168.50944 53.13536V689.664h47.872v160.99328c165.21216-16.4352 296.30976-143.93856 309.02784-308.96128H689.664v-47.872h161.13664c-8.94464-168.97024-140.13952-303.99488-309.10464-320.49152V330.496h-47.872V173.19424C320.98816 182.20032 182.20544 320.98816 173.19936 493.824H342.016v47.872H177.08544a317.44 317.44 0 0 0 64.512 172.11392l1.50016 1.96096-1.74592 1.7408-32.9984 32.99328-1.9456-2.55488C156.13952 682.22464 125.184 600.99072 125.184 512c0-212.75648 174.05952-386.816 386.816-386.816z"  ></path><path d="M512 445.44c-36.97664 0-66.56 29.58336-66.56 66.56s29.58336 66.56 66.56 66.56 66.56-29.58336 66.56-66.56-29.58336-66.56-66.56-66.56z"  ></path></svg>