<svg xmlns="http://www.w3.org/2000/svg" viewBox="0 0 1024 1024"><path d="M622.09024 51.2c27.07456 0 30.08 18.91328 30.08 27.01824v862.208c0 18.432-12.93312 32.30208-30.08 32.30208H404.43392a31.17056 31.17056 0 0 1-23.82336-10.80832 26.5984 26.5984 0 0 1-6.25664-22.03136V78.27968c0-8.1664 2.88768-27.07968 30.08-27.07968h217.65632z m-343.808 296.5504c15.8208 0 30.19776 15.43168 30.19776 32.41984v557.49632c0 11.40736-3.01056 20.23424-9.02656 26.11712a27.62752 27.62752 0 0 1-21.17632 9.00608h-222.7712c-4.20864 0-24.78592-1.67936-24.78592-35.1232V380.11392c0-21.13536 8.54016-32.3072 24.78592-32.3072l222.83264-0.05632h-0.06144z m684.91776 206.0032c15.75936 0 30.08 15.43168 30.08 32.36352v351.488c0 11.40736-3.00544 20.23424-9.02144 26.11712a27.89888 27.89888 0 0 1-21.12 9.00608h-222.89408c-12.032 0-24.66304-9.30304-24.78592-35.1232v-351.42656c0-21.13536 8.60672-32.36352 24.78592-32.36352h222.95552v-0.06144zM591.89248 110.6432h-162.6112v800.12288h162.6112V110.58176v0.06144zM248.25856 409.77408H85.52448v500.75136h162.73408V409.77408z m684.68224 206.12608h-162.61632v294.56384h162.61632v-294.56384z"  ></path></svg>