<svg xmlns="http://www.w3.org/2000/svg" viewBox="0 0 1024 1024"><path d="M512 993.28c-264.704 0-481.28-216.576-481.28-481.28S247.296 30.72 512 30.72s481.28 216.576 481.28 481.28-216.576 481.28-481.28 481.28z m0-68.75648c226.88768 0 412.52352-185.63584 412.52352-412.52352S738.88768 99.47648 512 99.47648 99.47648 285.11232 99.47648 512 285.11232 924.52352 512 924.52352zM752.64 512c0 20.62848-13.75232 34.37568-34.37568 34.37568H305.73568c-20.62336 0-34.37568-13.7472-34.37568-34.37568s13.75232-34.37568 34.37568-34.37568h412.52864c20.62336 0 34.37568 13.7472 34.37568 34.37568z"  ></path></svg>