<svg xmlns="http://www.w3.org/2000/svg" viewBox="0 0 1024 1024"><path d="M936.96 784.530286A494.665143 494.665143 0 0 0 1024 503.661714C1024 225.865143 794.331429 0 512 0S0 225.938286 0 503.588571c0 277.723429 229.668571 503.588571 512 503.588572 89.965714 0 178.395429-23.259429 255.853714-67.291429 164.278857 62.317714 185.782857 52.589714 198.509715 46.811429l5.046857-2.267429 4.169143-3.510857c9.142857-7.753143 18.651429-15.725714 14.774857-43.885714-3.803429-27.794286-20.772571-76.361143-53.394286-152.502857z m-80.457143-2.048l9.216 21.138285c16.164571 37.156571 33.060571 79.286857 44.251429 110.445715a1910.564571 1910.564571 0 0 1-123.611429-43.154286l-19.236571-7.460571-17.408 10.898285a449.828571 449.828571 0 0 1-237.714286 67.510857C266.313143 941.860571 66.56 745.252571 66.56 503.588571S266.24 65.389714 512 65.389714s445.586286 196.534857 445.586286 438.198857a429.933714 429.933714 0 0 1-87.186286 260.388572l-13.897143 18.505143z"  ></path><path d="M361.837714 425.106286c0.950857-34.084571 2.706286-59.977143 9.801143-77.824 7.168-17.700571 16.969143-33.645714 32.621714-47.542857 15.652571-13.970286 33.133714-24.283429 52.297143-30.939429 19.236571-6.582857 39.497143-9.947429 60.854857-9.947429 43.154286 0 78.262857 14.921143 107.008 40.228572 26.697143 23.625143 37.741714 58.660571 37.741715 99.035428 0 18.944-2.925714 36.132571-10.24 51.492572-7.314286 15.36-17.773714 34.596571-41.691429 57.563428a645.046857 645.046857 0 0 0-47.689143 49.005715 100.425143 100.425143 0 0 0-17.773714 34.816c-4.022857 13.458286-5.339429 13.312-5.339429 20.48H476.891429c0-9.069714 2.194286-13.897143 6.436571-29.769143 4.242286-15.798857 10.678857-29.696 19.236571-41.545143 8.484571-11.849143 23.917714-29.257143 46.226286-52.224 22.235429-22.893714 36.571429-39.643429 43.008-50.029714 6.363429-10.459429 9.581714-25.965714 9.581714-46.518857 0-20.626286-7.314286-38.838857-22.016-54.710858-14.701714-15.872-36.059429-23.771429-64-23.771428-63.122286 0-94.646857 37.376-94.646857 112.201143h-58.806857z m178.834286 323.218285H475.428571v-72.411428h65.243429v72.411428z"  ></path></svg>