<svg xmlns="http://www.w3.org/2000/svg" viewBox="0 0 1024 1024"><path d="M378.52501333 851.84056889a84.97834667 84.97834667 0 1 0 0 169.88387556 84.97834667 84.97834667 0 0 0 0-169.88387556z m0-424.81891556a84.97834667 84.97834667 0 1 0 0 169.95669334 84.97834667 84.97834667 0 0 0 0-169.95669334z m0-424.74609778a84.97834667 84.97834667 0 1 0 0 169.88387556 84.97834667 84.97834667 0 0 0 0-169.88387556z m339.76775112 849.56501334a84.97834667 84.97834667 0 1 0 0 169.88387556 84.97834667 84.97834667 0 0 0 0-169.88387556z m0-424.81891556a84.97834667 84.97834667 0 1 0 0 169.95669334 84.97834667 84.97834667 0 0 0 0-169.95669334z m0-424.74609778a84.97834667 84.97834667 0 1 0 0 169.88387556 84.97834667 84.97834667 0 0 0 0-169.88387556z"  ></path></svg>