<svg xmlns="http://www.w3.org/2000/svg" viewBox="0 0 1024 1024"><path d="M190.58232889 791.76590222v-0.07281777A115.56181333 115.56181333 0 0 1 75.09333333 676.27690667V387.33596445h-23.52014222c-32.25827555 0-49.29763555 26.14158222-49.29763556 58.47267555v339.03957333c0 32.33109333 27.88920889 66.70108445 60.07466667 66.70108445h53.22979556L90.38506667 945.26577778s-2.47580445 5.24288 2.54862222 5.82542222c6.33514667 0.72817778 19.07825778-5.97105778 19.07825778-5.97105778l179.35018666-93.57084444h303.86858667c15.58300445 0 29.70965333 3.05834667 40.19541333-6.84487111l-95.24565333-52.93852445h-349.52533333z"  ></path><path d="M910.67733333 72.83598222H229.39420445a111.19274667 111.19274667 0 0 0-111.19274667 111.04711111V637.97475555a111.26556445 111.26556445 0 0 0 111.19274667 111.1199289h350.9088711l222.8224 124.00867555a36.62734222 36.62734222 0 0 0 38.95751112-2.18453333 36.55452445 36.55452445 0 0 0 14.78200888-36.0448l-15.00046222-85.77934222h68.8128c61.16693333 0 111.04711111-49.58890667 111.04711112-111.04711112V183.88309333c0-61.31256889-49.73454222-111.04711111-111.04711112-111.04711111z m0 603.36810667h-112.28501333a36.40888889 36.40888889 0 0 0-36.0448 42.88967111l9.32067555 53.15697778-164.34972444-91.38631111a37.50115555 37.50115555 0 0 0-17.69472-4.66033778H229.39420445a37.86524445 37.86524445 0 0 1-38.01088-38.01088v-454.38293334a37.86524445 37.86524445 0 0 1 38.01088-37.93806222h681.13749333c20.97152 0 38.01088 16.96654222 38.01088 38.01088v454.31011556h0.14563555c0 21.04433778-17.11217778 38.01088-38.01088 38.01088z"  ></path><path d="M304.68778667 406.55985778a55.34151111 55.34151111 0 1 0 110.61020444 0 55.34151111 55.34151111 0 0 0-110.61020444 0zM519.71868445 406.55985778a55.34151111 55.34151111 0 1 0 110.61020444 0 55.34151111 55.34151111 0 0 0-110.61020444 0zM734.8224 406.55985778a55.34151111 55.34151111 0 1 0 110.53738667 0 55.34151111 55.34151111 0 0 0-110.61020445 0z"  ></path></svg>