<svg xmlns="http://www.w3.org/2000/svg" viewBox="0 0 1024 1024"><path d="M481.834667 0a481.792 481.792 0 1 0 0 963.669333A481.792 481.792 0 0 0 481.834667 0z m-15.36 773.034667c-30.72 0-55.893333-25.6-55.893334-56.917334a56.32 56.32 0 0 1 55.893334-56.917333c30.72 0 55.893333 25.429333 55.893333 56.917333 0 31.488-25.088 56.917333-55.893333 56.917334z m155.989333-357.717334a155.306667 155.306667 0 0 1-27.562667 38.058667 1821.013333 1821.013333 0 0 1-57.173333 53.930667c-7.509333 7.082667-13.653333 13.397333-18.176 18.773333a68.437333 68.437333 0 0 0-15.36 28.330667 723.456 723.456 0 0 0-5.546667 23.552c-4.181333 23.893333-17.578667 35.84-39.850666 35.84a39.594667 39.594667 0 0 1-29.269334-11.776c-7.936-7.850667-11.946667-19.370667-11.946666-34.986667 0-19.2 2.901333-36.010667 8.789333-50.090667 5.802667-14.08 13.482667-26.453333 23.04-37.205333 9.642667-10.666667 22.528-23.466667 38.912-38.058667 14.336-12.8 24.576-22.528 30.890667-29.184 6.4-6.485333 11.776-13.653333 16.128-21.930666a61.525333 61.525333 0 0 0-13.397334-72.704 71.850667 71.850667 0 0 0-51.541333-18.944c-24.576 0-42.666667 6.4-54.186667 19.114666-11.690667 12.714667-21.504 31.573333-29.44 56.234667-7.594667 26.026667-22.016 38.997333-43.264 38.997333a42.410667 42.410667 0 0 1-31.744-13.568 42.154667 42.154667 0 0 1-12.970666-29.44c0-21.76 6.826667-43.861333 20.48-66.218666 13.482667-22.442667 33.450667-40.96 59.562666-55.637334a183.381333 183.381333 0 0 1 91.477334-22.101333c32.341333 0 61.013333 6.229333 85.76 18.432 24.832 12.288 43.946667 29.013333 57.514666 50.176 13.568 21.162667 20.309333 44.117333 20.309334 68.949333 0.085333 19.541333-3.584 36.693333-11.434667 51.456z"  ></path></svg>