<svg xmlns="http://www.w3.org/2000/svg" viewBox="0 0 1024 1024"><path d="M675.93216 662.1952c3.60448 2.57024 7.7312 2.05312 10.30656-1.024l41.23136-41.08288c1.54624-1.536 2.57536-4.10624 2.57536-6.15936 0-2.57024-1.54624-4.10624-3.09248-5.64736-26.28096-20.54144-57.20576-37.48864-92.76928-49.29536 74.73152-52.3776 119.05536-133.50912 119.05536-220.80512 0-69.8368-28.34432-137.10336-78.85312-187.93472C623.36 99.92192 556.35968 71.68 485.74976 71.68c-70.60992 0-137.61024 28.24192-188.63616 78.5664-51.02592 50.83136-78.85824 118.10304-78.85824 187.93472 0 84.72576 43.29472 167.3984 114.42176 220.80512C165.6832 619.06432 52.3008 767.9744 40.96 943.0784c0 2.56512 0.512 4.10624 2.57536 6.15936 1.54624 1.54112 4.12672 2.57024 5.67296 2.57024h59.26912c4.1216 0 7.7312-3.59424 8.2432-7.18848 17.52576-193.5872 176.27136-339.42016 370.05824-339.42016 68.03456 0 131.9424 18.4832 189.15328 56.99584zM293.504 338.18112c0-107.8272 84.5312-191.52896 192.24576-191.52896 106.17344 0 192.24064 88.832 192.24064 197.69344 0 107.83232-84.52096 191.53408-192.24064 191.53408-106.17344 0-192.24576-88.832-192.24576-197.69856z m341.7088 481.65888h-54.6304c-9.79456 0-17.52576 7.70048-17.52576 17.4592v97.0496c0 9.7536 7.7312 17.4592 17.52576 17.4592h54.6304c9.79456 0 17.52576-7.7056 17.52576-17.4592v-97.0496c0-9.75872-7.7312-17.4592-17.52576-17.4592z m160.29184-68.29568h-54.63552a17.34656 17.34656 0 0 0-17.52064 17.4592v165.85728c0 9.75872 7.7312 17.4592 17.52064 17.4592h54.63552a17.34656 17.34656 0 0 0 17.52064-17.4592v-165.85728c0-9.75872-7.7312-17.4592-17.52064-17.4592z m159.7696-137.10336h-54.6304a17.34656 17.34656 0 0 0-17.52064 17.4592v302.44864a17.34656 17.34656 0 0 0 17.52064 17.4592h54.6304c9.79456 0 17.52576-7.7056 17.52576-17.4592v-302.44864c0-9.7536-7.7312-17.4592-17.52576-17.4592z"  ></path></svg>