<svg xmlns="http://www.w3.org/2000/svg" viewBox="0 0 1024 1024"><path d="M512 993.28c-264.704 0-481.28-216.576-481.28-481.28S247.296 30.72 512 30.72s481.28 216.576 481.28 481.28-216.576 481.28-481.28 481.28z m0-68.75648c226.88768 0 412.52352-185.63584 412.52352-412.52352S738.88768 99.47648 512 99.47648 99.47648 285.11232 99.47648 512 285.11232 924.52352 512 924.52352z"  ></path><path d="M623.60064 321.8176c-30.0032-26.29632-69.60128-40.69888-111.60064-40.69888-41.99936 0-81.60256 14.49984-111.60064 40.704-31.20128 27.29472-48.39936 64-48.39936 103.296v7.6032c0 4.39808 3.59936 7.99744 8.00256 7.99744h47.99488c4.4032 0 8.00256-3.59936 8.00256-7.99744V425.1136c0-44.09856 43.10016-80 96-80s96 35.90144 96 80c0 31.104-22.00064 59.5968-56.09984 72.704a111.7696 111.7696 0 0 0-52.10112 40.89856c-13.09696 19.00032-19.89632 41.79968-19.89632 64.90112v21.49888c0 4.39808 3.59936 7.99744 7.99744 7.99744h48c4.39808 0 7.99744-3.59936 7.99744-7.99744v-22.70208c0-19.70176 12.40064-37.69856 30.90432-44.8 58.99776-22.69696 97.09568-74.7008 97.09568-132.50048 0.1024-39.296-17.09568-76.00128-48.29696-103.30112zM472.00256 737.12128a39.99744 39.99744 0 1 0 79.98976 0 39.99744 39.99744 0 0 0-79.99488 0z"  ></path></svg>