<svg xmlns="http://www.w3.org/2000/svg" viewBox="0 0 1024 1024"><path d="M716.11392 350.9248a32.73728 32.73728 0 0 1 0 65.46432H257.8432a32.7424 32.7424 0 0 1 0-65.46944h458.27072zM454.2464 547.31776a32.73728 32.73728 0 0 1 0 65.47456H257.8432a32.7424 32.7424 0 0 1 0-65.47456h196.4032zM323.3024 56.32a32.7424 32.7424 0 0 1 32.73728 32.73728v32.73216h261.86752v-32.73216A32.73728 32.73728 0 0 1 650.63936 56.32h65.47456a32.73728 32.73728 0 0 1 32.73216 32.73728v32.73216h130.93376a32.7424 32.7424 0 0 1 32.73728 32.73728v322.11968a32.7424 32.7424 0 0 1-65.47456 0V187.25376H126.8992v720.14336h327.33696a32.73728 32.73728 0 0 1 0 65.46944H94.17728A32.73728 32.73728 0 0 1 61.44 940.12928V154.51648a32.73728 32.73728 0 0 1 32.73728-32.73728h130.92864v-32.72192A32.7424 32.7424 0 0 1 257.8432 56.32h65.4592z"  ></path><path d="M624.72192 702.6944s33.39776-51.52768 86.19008-79.17056c52.82304-27.63776 117.85216-19.69152 160.49664 7.11168 42.68032 26.79808 57.05216 49.42848 57.05216 49.42848l36.75648-20.94592s7.58272-3.7632 7.58272 5.02784v131.5328s0 11.72992-8.8832 7.52128c-7.43936-3.5072-88.17664-49.42848-113.59232-63.91296-13.94176-6.23104-1.69984-11.29984-1.69984-11.29984l35.49696-20.28032s-20.25984-25.35424-49.8688-38.77888c-31.6672-16.50688-61.34784-18.47808-97.66912-4.74624-23.72608 8.95488-51.6352 31.88736-71.71072 65.72032l-40.15104-27.20768z m329.51808 173.81888s-33.39776 51.5072-86.19008 79.16544c-52.7872 27.64288-117.85216 19.67616-160.49664-7.12704-42.68032-26.79808-57.05216-49.42848-57.05216-49.42848l-36.75648 20.94592s-7.58272 3.75808-7.58272-5.01248v-131.55328s0-11.70432 8.8832-7.51616c7.43424 3.5072 88.17152 49.42848 113.59232 63.91296 13.94176 6.23104 1.69984 11.3152 1.69984 11.3152l-35.49696 20.26496s20.25984 25.34912 49.8688 38.77888c31.6672 16.50688 61.34272 18.47296 97.66912 4.74112 23.72096-8.94976 51.6352-31.86688 71.71072-65.72032l40.15104 27.23328z"  ></path></svg>