<svg xmlns="http://www.w3.org/2000/svg" viewBox="0 0 1024 1024"><path d="M51.2 993.28v-27.2128c0-116.88448 30.69952-229.84704 86.38976-318.11584 51.56352-81.71008 122.77248-140.72832 208.16896-173.1584a257.536 257.536 0 0 1-60.27776-85.94944 258.53952 258.53952 0 0 1-21.06368-102.9888C264.41728 145.16224 375.5008 30.72 512.02048 30.72c136.51456 0 247.56224 114.44224 247.56224 255.13472a258.65216 258.65216 0 0 1-21.16096 103.22944 257.664 257.664 0 0 1-60.54912 86.07744C881.1008 553.24672 972.8 771.57888 972.8 966.0672V993.28H51.2zM706.73408 285.85472c0-110.62784-87.35232-200.67328-194.7136-200.67328-107.3664 0-194.7136 90.04544-194.7136 200.67328 0 110.66368 87.3472 200.70912 194.7136 200.70912 107.36128 0 194.7136-90.04544 194.7136-200.704z m-84.29568 228.36736a240.2304 240.2304 0 0 1-110.41792 26.84416 239.7184 239.7184 0 0 1-110.86848-27.06944c-207.64672 54.68672-288.66048 255.6928-296.43776 424.82176h814.57152c-8.51456-179.05152-101.39648-371.94752-296.84736-424.59648z m-155.79648 72.56576h84.55168l42.31168-9.06752-48.17408 70.23104 35.68128 210.63168-68.992 60.87168-73.6768-60.87168 40.05376-210.63168-54.0672-70.23104 42.31168 9.06752z"  ></path><path d="M972.8 966.0672c0-194.48832-91.6992-412.82048-294.92736-490.9056a257.61792 257.61792 0 0 0 59.20768-83.03104l1.34144-3.0464a258.65216 258.65216 0 0 0 21.16096-103.22944c0-139.59168-109.31712-253.34272-244.36736-255.11424L512.02048 30.72c-136.51968 0-247.6032 114.44224-247.6032 255.13472a258.54464 258.54464 0 0 0 21.06368 102.98368A257.55136 257.55136 0 0 0 345.7536 474.78784c-85.39648 32.4352-156.60544 91.45344-208.16896 173.16864l-2.59072 4.15232C80.95232 739.75296 51.2 851.00544 51.2 966.0672V993.28h921.6v-27.2128zM401.152 514.00192a239.77984 239.77984 0 0 0 110.86848 27.06432 240.2304 240.2304 0 0 0 110.41792-26.84416c195.45088 52.64384 288.3328 245.54496 296.84736 424.59136H104.71424c7.7824-169.12384 88.79104-370.12992 296.44288-424.81152z m-0.34304 3.26656c-203.60704 54.26688-284.24704 250.9312-292.85376 418.47808h808.08448c-9.41568-177.0752-101.5552-365.96224-293.2736-418.24768a243.23072 243.23072 0 0 1-110.7456 26.62912 242.69824 242.69824 0 0 1-111.2064-26.85952z m66.1504 66.44736h83.9168l49.52064-10.61376-51.82976 75.56096 35.7632 211.0976-1.28512 1.13152-70.95808 62.59712-75.70432-62.53568-1.39776-1.15712 40.13568-211.06688-58.33216-75.77088 50.176 10.75712z m84.22912 3.072H466.64704l-42.3168-9.06752 54.0672 70.23616-40.05888 210.62656 73.68192 60.87168 68.992-60.87168-35.68128-210.62656 48.17408-70.23616-42.3168 9.06752z m152.4736-300.93312c0-109.02016-86.06208-197.59616-191.6416-197.60128-105.57952 0-191.6416 88.58112-191.6416 197.60128 0 109.056 86.06208 197.632 191.6416 197.632v3.07712l-5.0176-0.06656C403.6096 483.7888 319.98976 397.5936 317.3632 291.02592l-0.06144-5.1712c0-110.62784 87.3472-200.66816 194.7136-200.66816l5.01248 0.06144c105.05728 2.75456 189.696 91.70432 189.696 200.60672l-0.06144 5.1712c-2.66752 108.288-88.96 195.53792-194.64704 195.53792v-3.072c103.93088 0 188.94336-85.83168 191.57504-192.54272l0.06656-5.0944zM975.872 996.352H48.128v-30.2848c0-117.39648 30.83264-230.9376 86.86592-319.75424l2.44736-3.84c50.77504-78.82752 119.99744-136.29952 202.7008-168.8064a260.63872 260.63872 0 0 1-57.48736-83.6096 261.62688 261.62688 0 0 1-21.30944-104.21248C261.3504 143.54944 373.72416 27.648 512.02048 27.648s250.62912 115.90144 250.63424 258.2016l-0.01024 3.36384a261.71392 261.71392 0 0 1-21.40672 101.08928 260.64384 260.64384 0 0 1-57.76384 83.75296c201.7024 80.1792 292.39296 298.23488 292.39808 492.01152v30.2848z"  ></path></svg>