<svg xmlns="http://www.w3.org/2000/svg" viewBox="0 0 1024 1024"><path d="M538.24 66.2784a74.5472 74.5472 0 0 1 52.94592 22.1184 75.84256 75.84256 0 0 1 21.93408 53.4016v755.2c0 20.02944-7.88992 39.23968-21.93408 53.4016a74.5472 74.5472 0 0 1-52.94592 22.1184h-449.28a74.56256 74.56256 0 0 1-52.94592-22.1184 75.84768 75.84768 0 0 1-21.93408-53.4016v-755.2c0-20.02944 7.8848-39.23968 21.93408-53.4016a74.55744 74.55744 0 0 1 52.94592-22.1184h449.28z m0 75.52h-449.28v755.2h449.28v-755.2z"  ></path><path d="M183.04 747.2384c23.89504 0 35.84 12.8 35.84 38.4s-11.94496 38.4-35.84 38.4-35.84-12.8-35.84-38.4 11.94496-38.4 35.84-38.4zM441.6 747.2384c25.6 0 38.4 12.8 38.4 38.4s-12.8 38.4-38.4 38.4-38.4-12.8-38.4-38.4 12.8-38.4 38.4-38.4zM275.2 143.0784h71.68v752.64h-71.68v-752.64zM838.04672 51.47648c19.61984-2.42688 39.38816 3.1232 54.95808 15.43168a75.54048 75.54048 0 0 1 28.06784 50.19648l90.8544 747.93472a75.96544 75.96544 0 0 1-15.23712 55.53664 74.3424 74.3424 0 0 1-49.60256 28.40064l-184.9856 22.98368a73.94304 73.94304 0 0 1-54.95808-15.43168 75.5712 75.5712 0 0 1-28.07296-50.19648l-91.00288-747.9296a76.29312 76.29312 0 0 1 2.176-29.3376 75.6992 75.6992 0 0 1 13.11744-26.25024 74.76224 74.76224 0 0 1 22.06208-19.17952c8.5248-4.864 17.92-7.9872 27.63776-9.17504l184.83712-22.9888h0.14848z m9.09312 74.82368l-184.9856 22.98368 90.92608 747.8528 184.83712-22.98368-90.7776-747.8528z"  ></path><path d="M830.72 747.2384c25.6 0 38.4 12.8 38.4 38.4s-12.8 38.4-38.4 38.4-38.4-12.8-38.4-38.4 12.8-38.4 38.4-38.4z"  ></path></svg>