<svg xmlns="http://www.w3.org/2000/svg" viewBox="0 0 1024 1024"><path d="M767.061333 415.061333a33.564444 33.564444 0 0 1 47.872 0l142.165334 142.136889 2.304 2.616889c10.979556 13.454222 10.24 33.194667-2.304 45.255111l-326.542223 326.513778a93.838222 93.838222 0 0 1-58.168888 24.177778h-88.092445a67.925333 67.925333 0 0 1-67.982222-67.982222v-88.035556c1.564444-21.617778 9.813333-42.211556 24.234667-58.197333l326.513777-326.485334z m64.369778 385.194667c13.880889 0 25.713778 11.349333 25.201778 26.282667v0.483555c0 48.412444-39.651556 87.552-88.064 87.552h-2.048a25.827556 25.827556 0 0 1-25.742222-25.742222c0-14.421333 11.832889-25.742222 25.742222-25.742222h2.588444c20.081778 0 36.551111-17.009778 36.551111-37.091556 0-14.421333 11.861333-25.742222 25.742223-25.742222zM769.592889 113.777778c48.412444 0 88.035556 39.139556 88.035555 87.552v144.696889a25.486222 25.486222 0 0 1-25.713777 25.742222 25.827556 25.827556 0 0 1-25.742223-25.742222V201.329778c0-20.081778-17.009778-36.579556-37.091555-36.579556H145.464889c-20.593778 0-37.063111 16.497778-37.063111 37.091556V825.457778c0 20.622222 15.928889 37.091556 36.551111 37.091555h193.621333c13.937778 0 25.230222 10.837333 25.230222 25.258667a25.827556 25.827556 0 0 1-25.742222 25.742222H144.412444C96 913.550222 56.888889 873.870222 56.888889 825.486222V201.813333A88.348444 88.348444 0 0 1 144.952889 113.777778h624.64zM477.098667 777.102222c-5.12 6.684444-8.248889 14.392889-9.272889 22.129778v88.576c0 9.272889 7.736889 17.009778 17.009778 17.009778h88.064c8.248889-1.564444 15.928889-4.664889 22.129777-9.301334l225.052445-224.512-118.442667-118.442666-224.540444 224.512z m260.067555-260.608l118.442667 118.442667 53.560889-53.560889-118.442667-118.442667-53.560889 53.560889z m-246.670222-43.776c14.421333 0 25.742222 11.861333 25.742222 25.742222a25.827556 25.827556 0 0 1-25.742222 25.770667H201.102222a25.827556 25.827556 0 0 1-25.742222-25.770667c0-14.392889 11.861333-25.742222 25.742222-25.742222h289.422222z m135.964444-204.430222c14.392889 0 25.742222 11.832889 25.742223 25.742222a25.486222 25.486222 0 0 1-25.770667 25.742222H201.102222a25.827556 25.827556 0 0 1-25.742222-25.742222c0-14.421333 11.861333-25.742222 25.742222-25.742222h425.358222z"  ></path></svg>