<svg xmlns="http://www.w3.org/2000/svg" viewBox="0 0 1097 1024"><path d="M952.32 669.25568v125.80864c0 88.064-69.19168 157.25568-157.25568 157.25568H228.93568C140.87168 952.33024 71.68 883.13856 71.68 795.07456V228.93568C71.68 140.87168 140.87168 71.68 228.93568 71.68h125.80352c18.87232 0 31.45728 12.57472 31.45728 31.45728 0 18.87232-12.57472 31.44704-31.45728 31.44704H228.93568c-50.31936 0-94.3616 44.032-94.3616 94.3616v566.13376c0 50.31936 44.032 94.3616 94.3616 94.3616h566.12864c50.31936 0 94.3616-44.032 94.3616-94.3616v-125.824c0-18.87232 12.57472-31.44704 31.44704-31.44704 18.86208 0 31.44704 12.58496 31.44704 31.44704z"  ></path><path d="M508.8512 169.17504c0-18.87232 12.57472-31.45216 31.44704-31.45216v0.00512H886.272v345.96864c0 18.87232-12.58496 31.45728-31.45728 31.45728s-31.44704-12.58496-31.44704-31.45728V244.66432l-320.80384 320.80896c-12.58496 12.58496-31.45728 12.58496-44.032 0-12.58496-12.57472-12.58496-31.44704 0-44.032l320.80384-320.80896h-239.03744c-18.87232 0-31.44704-12.58496-31.44704-31.45728z"  ></path><path d="M949.76 795.06432v-125.80864c0-8.84736-2.93888-16.0256-7.90016-20.98688-4.96128-4.95616-12.1344-7.90016-20.98688-7.90016s-16.03584 2.93888-20.992 7.89504c-4.95616 4.96128-7.89504 12.13952-7.89504 20.992v125.824c0 51.74272-45.18912 96.9216-96.9216 96.9216H228.93568c-51.74272 0-96.9216-45.18912-96.9216-96.9216V228.94592c0-51.74272 45.18912-96.9216 96.9216-96.9216h125.80352c8.8576 0 16.04096-2.944 21.00224-7.90016 4.95616-4.95616 7.89504-12.1344 7.89504-20.992 0-8.8576-2.944-16.03072-7.90016-20.992-4.96128-4.96128-12.13952-7.90016-20.992-7.90016H228.93056C142.2848 74.24 74.24 142.2848 74.24 228.93568v566.13888c0 86.65088 68.0448 154.69568 154.69568 154.68544h566.12864c86.65088 0 154.69568-68.0448 154.69568-154.69568z m-128.95744-311.36256v-232.8576L504.3712 567.28576c-13.1584 13.1584-32.80384 13.57312-46.3616 1.23392l-1.29024-1.23392c-13.58336-13.57824-13.58336-34.0736 0-47.65696l316.43648-316.43136h-232.86272c-10.01472 0-18.56-3.3536-24.60672-9.40032-6.04672-6.05184-9.3952-14.60224-9.3952-24.61696s3.34848-18.56512 9.3952-24.61696c6.04672-6.04672 14.592-9.40544 24.60672-9.40544h2.56v0.01024H888.832v348.53376c0 10.01472-3.3536 18.56512-9.40032 24.61184-6.05184 6.05184-14.59712 9.40032-24.61696 9.40032-10.01472 0-18.56-3.34848-24.61184-9.40032-6.04672-6.04672-9.3952-14.59712-9.40032-24.61184z m-309.39136-314.5216c0 8.8576 2.93376 16.03584 7.89504 20.992 4.95616 4.9664 12.1344 7.90016 20.98688 7.90528h245.2224l-325.1712 325.1712c-11.59168 11.58656-11.58656 28.84096 0 40.41728l1.1008 1.0496c11.5456 10.51648 28.0832 10.16832 39.30624-1.0496l325.1712-325.18144v245.21728c0.00512 8.85248 2.944 16.03584 7.90016 20.992 4.96128 4.96128 12.13952 7.90016 20.992 7.90016 8.85248 0 16.03584-2.93888 20.99712-7.90016 4.95616-4.95616 7.90016-12.13952 7.90016-20.992V140.288h-343.8848c-8.63744 0.1024-15.65184 3.0208-20.52096 7.88992-4.96128 4.9664-7.89504 12.14976-7.89504 21.00224z m-122.65472-66.048c0 10.01984-3.34848 18.57024-9.3952 24.61696-6.05184 6.04672-14.60224 9.3952-24.62208 9.3952H228.93568c-48.90624 0-91.8016 42.88512-91.8016 91.8016v566.13376c0 48.90624 42.88512 91.8016 91.8016 91.8016h566.12864c48.90624 0 91.8016-42.88512 91.8016-91.8016v-125.824c0-10.01472 3.34848-18.56512 9.3952-24.61184 6.04672-6.04672 14.59712-9.3952 24.61184-9.3952 10.01472 0 18.56 3.3536 24.60672 9.40032s9.40032 14.592 9.40032 24.60672v125.80864c0 89.47712-70.33856 159.81568-159.81568 159.81568H228.93568c-89.47712 0.01024-159.81568-70.32832-159.81568-159.80544V228.93568C69.12 139.45856 139.45856 69.12 228.93568 69.12h125.80352c10.01984 0 18.56512 3.3536 24.61696 9.40032 6.04672 6.04672 9.40032 14.592 9.40032 24.61696z"  ></path></svg>