<svg xmlns="http://www.w3.org/2000/svg" viewBox="0 0 1024 1024"><path d="M306.26816 425.66144A205.73184 205.73184 0 1 1 512 630.6304a205.2864 205.2864 0 0 1-145.31584-59.8784 205.312 205.312 0 0 1-60.416-145.09056zM512 285.50656a140.2112 140.2112 0 1 0 140.97408 140.15488A140.5184 140.5184 0 0 0 512 285.50656zM5.12 511.95392a506.88 506.88 0 1 1 1013.76 0.09216A506.88 506.88 0 0 1 5.12 511.9488z m772.16768 353.7408a140.288 140.288 0 0 0-135.90528-105.68192H382.55616a140.25216 140.25216 0 0 0-135.9104 105.68192 442.17856 442.17856 0 0 0 530.64192 0zM512 69.76512a442.18368 442.18368 0 0 0-317.81376 749.67552 204.98432 204.98432 0 0 1 188.3648-124.11904h258.83136a204.94336 204.94336 0 0 1 188.36992 124.11904A442.18368 442.18368 0 0 0 512 69.77024z"  ></path></svg>