<svg xmlns="http://www.w3.org/2000/svg" viewBox="0 0 1024 1024"><path d="M774.8608 73.8816l5.9904 3.6864-38.5024 62.0544A438.3232 438.3232 0 0 0 201.728 822.3744 438.3232 438.3232 0 0 0 888.4736 288.4096l-3.072-5.12 62.208-38.2976a511.5392 511.5392 0 0 1-74.3936 629.0944c-199.68 199.68-523.52 199.68-723.2 0-199.7312-199.7312-199.7312-523.5712 0-723.2512a511.5904 511.5904 0 0 1 624.8448-76.9536z m-263.4752 146.432v295.8848l226.56 82.432-24.9856 68.6592-274.6368-99.9424V220.3136h73.0624zM871.424 2.304l150.1696 150.1184-51.712 51.6608-49.152-49.2544-178.432 178.432-51.712-51.712 178.432-178.3808-49.2544-49.2032 51.712-51.712z"  ></path></svg>