<svg xmlns="http://www.w3.org/2000/svg" viewBox="0 0 1024 1024"><path d="M175.762286 858.81904733c-22.235429 0-44.763429-17.554286-44.763429-50.980571V656.72533333H64.950857A65.024 65.024 0 0 1 0 591.84761933V86.28419033C0 50.44419033 29.110857 21.33333333 64.950857 21.33333333h701.147429c35.84 0 64.950857 29.110857 64.950857 64.950857v505.490286c0 35.84-29.184 64.950857-64.950857 64.950857H424.813714a52.516571 52.516571 0 0 0-26.624 10.605714l-186.002285 175.542857a52.589714 52.589714 0 0 1-36.425143 15.945143zM70.802286 585.92304733h66.048c35.84 0 64.950857 29.110857 64.950857 64.877715v104.448l147.748571-139.410286c18.285714-17.334857 50.029714-29.988571 75.337143-29.988572h335.286857V92.13561933H70.802286v493.714285z"  ></path><path d="M852.260571 988.50133333a54.052571 54.052571 0 0 1-36.205714-15.433143l-144.896-133.632a54.272 54.272 0 0 0-27.209143-10.605714h-150.674285a35.401143 35.401143 0 1 1 0-70.802286h150.674285c25.088 0 56.758857 12.361143 75.190857 29.330286l107.154286 98.816v-65.243429c0-35.84 29.184-64.877714 64.950857-64.877714h61.952V349.96419033h-149.723428a35.401143 35.401143 0 1 1 0-70.875428h155.574857c35.84 0 64.950857 29.184 64.950857 64.950857v417.865143c0 35.84-29.110857 64.950857-64.950857 64.950857h-61.878857v110.592c0 22.162286-10.313143 39.862857-27.574857 47.469714a42.642286 42.642286 0 0 1-17.334858 3.657143z"  ></path></svg>