<svg xmlns="http://www.w3.org/2000/svg" viewBox="0 0 1024 1024"><path d="M965.376 62.805333c93.44 94.293333 70.912 269.141333-37.205333 450.474667a815.786667 815.786667 0 0 1 66.901333 142.762667c44.629333 135.168 37.205333 247.808-29.696 315.392-37.205333 30.037333-96.682667 52.565333-163.669333 52.565333-85.504 0-185.770667-32.256-289.450667-91.050667-100.693333 59.733333-199.082667 91.050667-283.306667 91.050667-66.901333 0-126.464-22.528-171.093333-67.584-66.901333-67.584-74.325333-180.224-29.696-315.392 14.933333-42.837333 34.986667-85.589333 59.392-128.170667C-11.093333 337.066667-27.904 169.472 57.856 77.824c92.16-93.013333 261.973333-79.36 441.344 19.114667 190.549333-111.872 374.869333-131.754667 466.176-34.133334z m-80.298667 516.522667l-4.437333 6.314667a1229.653333 1229.653333 0 0 1-138.410667 160.426666 1145.002667 1145.002667 0 0 1-163.413333 143.36c142.421333 73.642667 273.066667 88.746667 334.506667 21.930667 44.629333-45.056 52.053333-135.168 14.848-232.789333a634.112 634.112 0 0 0-43.093334-99.242667z m-747.008 13.738667l-8.021333 16.384a642.304 642.304 0 0 0-27.562667 69.12c-37.205333 105.130667-29.696 187.733333 14.933334 232.789333 60.586667 65.962667 188.586667 52.053333 328.789333-19.285333A1325.226667 1325.226667 0 0 1 281.002667 761.173333a1183.573333 1183.573333 0 0 1-142.933334-168.106666z m377.258667-406.784l-12.202667 7.765333a1035.093333 1035.093333 0 0 0-169.984 139.093333 964.096 964.096 0 0 0-156.586666 190.72 1049.6 1049.6 0 0 0 156.586666 184.746667 1103.957333 1103.957333 0 0 0 182.101334 144.213333 1099.690667 1099.690667 0 0 0 182.357333-144.213333 1088.512 1088.512 0 0 0 153.6-186.709333 1164.117333 1164.117333 0 0 0-153.6-188.757334 1029.461333 1029.461333 0 0 0-182.272-146.858666zM452.266667 396.288a132.778667 132.778667 0 0 1 133.802666 0c41.472 24.149333 66.986667 68.778667 66.986667 117.077333 0 48.298667-25.6 92.928-66.986667 117.077334a132.778667 132.778667 0 0 1-133.888 0 135.424 135.424 0 0 1-66.901333-117.077334c0-48.298667 25.514667-92.928 66.901333-117.077333zM801.621333 85.333333c-62.293333 0-138.922667 21.845333-219.392 62.805334a1208.32 1208.32 0 0 1 159.914667 132.437333 1083.136 1083.136 0 0 1 148.650667 173.738667c72.618667-137.301333 89.6-263.68 29.866666-323.925334C890.88 100.352 846.336 85.333333 801.706667 85.333333zM228.949333 85.333333c-52.053333 0-89.258667 15.018667-119.04 45.056-58.026667 63.146667-46.336 183.210667 20.650667 314.538667a1322.837333 1322.837333 0 0 1 150.442667-179.370667A1183.744 1183.744 0 0 1 431.872 139.946667C357.376 104.106667 286.976 85.333333 228.949333 85.333333z"  ></path></svg>