<svg xmlns="http://www.w3.org/2000/svg" viewBox="0 0 1024 1024"><path d="M962.56 409.2416l-5.18656-222.6176-68.8128 69.0944a454.1696 454.1696 0 0 0-163.55328-150.12864A452.01408 452.01408 0 0 0 510.13632 51.2C259.51744 51.2 56.32 255.20128 56.32 506.88s203.19744 455.68 453.81632 455.68a452.5312 452.5312 0 0 0 253.51168-77.66016 455.33184 455.33184 0 0 0 167.08096-206.59712 39.18848 39.18848 0 0 0-0.2048-29.88544 38.95808 38.95808 0 0 0-21.18656-20.98688 38.71744 38.71744 0 0 0-29.76256 0.2048 38.98368 38.98368 0 0 0-20.89984 21.27872c-28.17024 69.61664-75.18208 133.6576-137.2672 175.616-62.09024 41.9584-137.79456 67.70688-212.6336 67.69664-207.6672 0-383.7696-176.82432-383.7696-385.34656 0-208.52224 178.688-385.34656 386.36544-385.34656 134.15424 0 257.19808 75.83232 324.13184 187.46368l-72.60672 78.11584L962.56 409.2416z"  ></path></svg>