<svg xmlns="http://www.w3.org/2000/svg" viewBox="0 0 1194 1024"><path d="M1068.885333 133.12h-188.586666V33.28A32.426667 32.426667 0 0 0 848.810667 0H345.856a32.426667 32.426667 0 0 0-31.488 33.28v99.84h-188.586667C56.32 133.12 0 192.853333 0 266.24v565.930667c0 73.557333 56.32 133.12 125.781333 133.12h943.104c69.461333 0 125.781333-59.562667 125.781334-133.12V266.325333c0-73.557333-56.32-133.12-125.781334-133.12zM377.258667 66.56H817.493333v66.56H377.173333V66.56zM125.781333 199.68h943.104c34.730667 0 62.890667 29.866667 62.890667 66.56v133.205333h-220.074667v-66.56a32.426667 32.426667 0 0 0-31.402666-33.28 32.426667 32.426667 0 0 0-31.488 33.28v66.56H345.856v-66.56a32.426667 32.426667 0 0 0-31.488-33.28 32.426667 32.426667 0 0 0-31.402667 33.28v66.56H62.805333v-133.12c0-36.778667 28.16-66.56 62.976-66.56z m943.104 699.136H125.781333c-34.730667 0-62.890667-29.866667-62.890666-66.56V465.92h220.074666v66.56c0 18.432 14.08 33.28 31.402667 33.28a32.426667 32.426667 0 0 0 31.488-33.28v-66.56h502.954667v66.56c0 18.432 14.08 33.28 31.488 33.28a32.426667 32.426667 0 0 0 31.402666-33.28v-66.56h220.16v366.165333c0 36.778667-28.16 66.56-62.976 66.56z"  ></path></svg>