<svg xmlns="http://www.w3.org/2000/svg" viewBox="0 0 1024 1024"><path d="M66.56 671.08352v127.27296C66.56 887.44448 136.55552 957.44 225.6384 957.44H798.3616c89.088 0.01024 159.08352-69.98528 159.08352-159.07328V225.64352C957.44 136.55552 887.44448 66.56 798.35648 66.56h-127.26784c-19.09248 0-31.8208 12.7232-31.8208 31.8208s12.71808 31.81568 31.8208 31.81568h127.26784c50.90304 0 95.45728 44.544 95.45728 95.45728v572.71808c0 50.90816-44.544 95.45728-95.45728 95.45728H225.64352c-50.90304 0-95.45728-44.544-95.45728-95.45728v-127.28832c0-19.09248-12.7232-31.81056-31.81056-31.81056S66.56 652.00128 66.56 671.08352z m159.0784-95.4368c-19.08736 0-31.81056-12.73344-31.81056-31.82592S206.55104 512 225.64352 512H467.456L142.9248 187.46368c-12.72832-12.73344-12.72832-31.82592 0-44.544 12.7232-12.73344 31.81568-12.73344 44.544 0L512.00512 467.456V225.64352c0-19.09248 12.7232-31.8208 31.81056-31.8208 19.09248 0 31.82592 12.72832 31.82592 31.8208v349.99296H225.6384v0.01024z"  ></path><path d="M69.12 798.35648v-127.27296c0-8.96 2.97472-16.2304 8.00256-21.25312 5.0176-5.02272 12.29312-8.00256 21.248-8.00256 8.97024 0.00512 16.23552 2.97984 21.25824 8.00256 5.0176 5.02272 7.99744 12.29312 7.99744 21.25312v127.29344c0 52.3264 45.70112 98.01216 98.01728 98.01216H798.3616c52.3264 0 98.01728-45.696 98.01728-98.01216V225.65376c0-52.3264-45.70112-98.01728-98.01728-98.01728h-127.27296c-8.96512 0-16.23552-2.97472-21.25824-7.99744-5.02272-5.0176-8.00256-12.29312-8.00256-21.25824 0.00512-8.96512 2.97984-16.23552 8.00256-21.25824 5.02272-5.02784 12.29824-8.00256 21.25824-8.00256h127.27296c87.66976 0 156.52352 68.84864 156.52352 156.52352v572.7232c0 87.66976-68.85376 156.52352-156.52352 156.51328H225.64352c-87.66976 0-156.52352-68.84864-156.52352-156.52352z m445.44512-572.71296c0-8.96 2.97472-16.2304 7.99232-21.25824 5.02272-5.02272 12.29312-8.00256 21.25824-8.00256 8.96512 0 16.23552 2.97984 21.25824 8.00256 5.02784 5.02272 8.00768 12.29824 8.00768 21.25824v347.43296H225.16736c-8.74496-0.1024-15.8464-3.05664-20.77696-7.99232-5.02272-5.02272-8.00256-12.29824-8.00256-21.26336 0-8.96512 2.97984-16.23552 8.00256-21.26336 5.0176-5.02272 12.288-7.99744 21.25312-7.99744h247.99744l-328.9088-328.9088c-11.7248-11.72992-11.7248-29.19936 0-40.91904 11.7248-11.72992 29.19936-11.73504 40.92928 0L514.56 473.63584V225.6384z m-5.12 235.6224L189.28128 141.1072c-13.73184-13.73184-34.44224-13.72672-48.16384 0-13.72672 13.7216-13.73184 34.432 0 48.16384L461.27616 509.44H225.6384c-10.12736 0-18.7648 3.38432-24.8832 9.4976-6.10816 6.1184-9.48736 14.75584-9.49248 24.8832 0 10.12736 3.38944 18.7648 9.4976 24.87808 6.11328 6.11328 14.75072 9.50784 24.8832 9.50784h2.56v-0.01024h349.99296V225.64352c0-10.12736-3.38944-18.7648-9.50272-24.8832-6.11328-6.10816-14.75584-9.4976-24.8832-9.4976-10.12736 0-18.7648 3.38944-24.87808 9.50272-6.10816 6.11328-9.49248 14.75072-9.49248 24.8832v235.6224z m127.2576-362.88512c0 10.12736 3.38944 18.76992 9.50272 24.8832 6.11328 6.10816 14.75072 9.49248 24.87808 9.49248h127.27296c49.48992 0 92.89728 43.39712 92.89728 92.89728v572.7232c0 49.48992-43.40224 92.89216-92.89728 92.89216H225.64352c-49.48992 0-92.89728-43.39712-92.89728-92.89216v-127.29344c0-10.12736-3.38432-18.75968-9.4976-24.87296-6.10816-6.11328-14.7456-9.4976-24.87296-9.50272-10.12224 0-18.7648 3.38944-24.87296 9.50272-6.11328 6.11328-9.50272 14.75072-9.50272 24.87296v127.27296c0 90.50112 71.1424 161.64352 161.64352 161.64352H798.3616c90.50112 0.01024 161.64352-71.13216 161.64352-161.63328V225.64352c0-90.50112-71.1424-161.64352-161.64352-161.64352h-127.27296c-10.12224 0-18.7648 3.38944-24.87808 9.4976-6.11328 6.11328-9.4976 14.75072-9.50272 24.8832z"  ></path></svg>