<svg xmlns="http://www.w3.org/2000/svg" viewBox="0 0 1024 1024"><path d="M276.48 128c-31.232 0-61.184 12.44672-83.27168 34.6112A118.35392 118.35392 0 0 0 158.72 246.14912v531.69152c0 31.3344 12.40576 61.3888 34.48832 83.54816A117.5552 117.5552 0 0 0 276.48 896h103.04a29.35296 29.35296 0 0 0 20.82304-8.64768 29.57312 29.57312 0 0 0 8.62208-20.8896 29.6192 29.6192 0 0 0-8.62208-20.8896 29.42976 29.42976 0 0 0-20.82304-8.64768H276.48a58.7776 58.7776 0 0 1-41.63584-17.3056 59.18208 59.18208 0 0 1-17.24416-41.77408V246.15424c0-15.6672 6.20544-30.6944 17.24416-41.77408A58.7776 58.7776 0 0 1 276.48 187.07456h353.28a58.71104 58.71104 0 0 1 41.63584 17.3056 59.0848 59.0848 0 0 1 17.24416 41.77408V444.0576a29.55264 29.55264 0 0 0 18.17088 27.2896 29.37344 29.37344 0 0 0 32.08704-6.4A29.55264 29.55264 0 0 0 747.52 444.0576V246.15424c0-31.3344-12.40576-61.3888-34.49344-83.54816A117.5552 117.5552 0 0 0 629.76 128H276.48z m51.52256 167.39328a29.35296 29.35296 0 0 0-20.82304 8.6528 29.55264 29.55264 0 0 0-8.62208 20.8896 29.62432 29.62432 0 0 0 8.62208 20.8896 29.44 29.44 0 0 0 20.81792 8.64768h235.52a29.35296 29.35296 0 0 0 20.82304-8.6528 29.55776 29.55776 0 0 0 8.62208-20.8896 29.62432 29.62432 0 0 0-8.62208-20.8896 29.41952 29.41952 0 0 0-20.82304-8.64768h-235.52z m0 147.69152a29.35296 29.35296 0 0 0-20.82304 8.6528 29.55264 29.55264 0 0 0-8.62208 20.8896 29.62432 29.62432 0 0 0 8.62208 20.8896 29.44 29.44 0 0 0 20.81792 8.64768h100.93568a29.35296 29.35296 0 0 0 20.82304-8.6528 29.5424 29.5424 0 0 0 8.62208-20.8896 29.61408 29.61408 0 0 0-8.62208-20.8896 29.44 29.44 0 0 0-20.82304-8.64768H328.00256z m331.19744 334.76096c15.616 0 30.592-6.22592 41.63584-17.30048a59.19232 59.19232 0 0 0 17.24416-41.77408 59.1872 59.1872 0 0 0-17.24416-41.77408 58.78784 58.78784 0 0 0-41.63584-17.3056c-15.616 0-30.592 6.22592-41.63584 17.3056a59.1872 59.1872 0 0 0-17.24416 41.77408c0 15.6672 6.20544 30.6944 17.24416 41.77408a58.8032 58.8032 0 0 0 41.63584 17.30048zM865.28 650.8288v156.55424c0 23.50592-9.30304 46.04416-25.86624 62.66368A88.1664 88.1664 0 0 1 776.96 896h-235.52a88.1664 88.1664 0 0 1-62.45376-25.95328 88.77056 88.77056 0 0 1-25.86624-62.66368v-156.55424c0-23.5008 9.30304-46.03904 25.86624-62.65856a88.1664 88.1664 0 0 1 62.45376-25.95328h15.55968l8.04864-15.09376a66.38592 66.38592 0 0 1 24.36608-25.67168 66.06336 66.06336 0 0 1 34.048-9.45152h71.4752c11.99616 0 23.76192 3.26656 34.048 9.45152a66.33472 66.33472 0 0 1 24.36096 25.67168l8.05376 15.10912h15.55968a88.1664 88.1664 0 0 1 62.45376 25.95328A88.76544 88.76544 0 0 1 865.28 650.84416v-0.01536z m-323.84-29.53728a29.3888 29.3888 0 0 0-20.81792 8.6528 29.5936 29.5936 0 0 0-8.62208 20.88448v156.55424c0 7.8336 3.10272 15.34976 8.62208 20.8896a29.3888 29.3888 0 0 0 20.81792 8.6528h235.52a29.3888 29.3888 0 0 0 20.81792-8.6528 29.60384 29.60384 0 0 0 8.62208-20.8896v-156.55424a29.5936 29.5936 0 0 0-8.62208-20.88448 29.3888 29.3888 0 0 0-20.81792-8.6528h-46.44352a7.34208 7.34208 0 0 1-6.4768-3.88608l-22.60992-42.42944a7.3216 7.3216 0 0 0-6.49216-3.90144h-71.4752a7.38816 7.38816 0 0 0-6.4768 3.90144l-22.60992 42.42944a7.36256 7.36256 0 0 1-6.49216 3.90144h-46.44352v-0.01536z"  ></path></svg>