<svg xmlns="http://www.w3.org/2000/svg" viewBox="0 0 1024 1024"><path d="M854.381714 0H169.691429A169.691429 169.691429 0 0 0 0 169.618286v684.690285A169.691429 169.691429 0 0 0 169.618286 1024h684.690285A169.691429 169.691429 0 0 0 1024 854.381714V169.691429A169.691429 169.691429 0 0 0 854.381714 0zM169.691429 68.242286h684.690285c55.954286 0 101.376 45.421714 101.376 101.376v101.229714H68.242286V169.618286c0-55.954286 45.421714-101.376 101.376-101.376zM68.242286 854.308571V339.017143h273.115428v616.594286H169.618286c-55.954286 0-101.302857-45.202286-101.376-101.156572v-0.146286z m786.066285 101.376H409.6v-616.594285h546.084571v515.218285c0 56.100571-45.348571 101.522286-101.376 101.522286v-0.146286z"  ></path></svg>