<svg xmlns="http://www.w3.org/2000/svg" viewBox="0 0 1024 1024"><path d="M881.91431111-5.80721778H142.08568889A147.96572445 147.96572445 0 0 0-5.7344 142.08568889v739.68298666a148.03854222 148.03854222 0 0 0 147.96572445 147.96572445h739.68298666a147.96572445 147.96572445 0 0 0 147.96572444-147.96572445V142.15850667A147.96572445 147.96572445 0 0 0 881.91431111-5.80721778z m73.98286222 887.86716445a73.83722667 73.83722667 0 0 1-73.91004444 73.83722666H142.37696c-19.80643555 0-38.59342222-7.57304889-52.4288-21.55406222a73.40032 73.40032 0 0 1-21.84533333-52.28316444V142.23132445a74.27413333 74.27413333 0 0 1 74.27413333-74.12849778H881.91431111a74.05568 74.05568 0 0 1 73.91004444 74.12849778v739.82862222z"  ></path><path d="M835.82065778 327.04284445H539.81639111a36.91861333 36.91861333 0 1 0 0 73.91004444h295.93144889a36.99143111 36.99143111 0 1 0 0-73.91004444h0.07281778z m0 296.00426666H539.81639111a36.99143111 36.99143111 0 0 0 0 73.91004444h295.93144889a36.99143111 36.99143111 0 1 0 0-73.91004444h0.07281778zM317.94062222 530.64135111a129.47000889 129.47000889 0 1 0 0 258.8672 129.47000889 129.47000889 0 0 0 0-258.8672z m39.3216 168.71879111a55.55996445 55.55996445 0 1 1-78.57038222-78.57038222 55.55996445 55.55996445 0 0 1 78.57038222 78.6432zM402.77333333 264.05546667L280.94919111 385.87960889l-47.84128-47.84128a36.99143111 36.99143111 0 0 0-52.28316444 52.28316444l73.98286222 73.98286222a36.99143111 36.99143111 0 0 0 52.28316444 0l147.96572445-147.96572444a36.99143111 36.99143111 0 0 0-52.28316445-52.28316444z"  ></path></svg>