<svg xmlns="http://www.w3.org/2000/svg" viewBox="0 0 1024 1024"><path d="M906.624 345.6v344.64768c0 121.93792-96.09216 221.11232-215.08096 221.11232-118.92224 0-215.08096-99.1744-215.08096-221.11232v-31.68256h66.176v31.68256c0 85.5296 66.8416 154.55232 148.90496 154.55232 82.05824 0 148.89984-69.02272 148.89984-154.55232V345.6h66.18112z m-762.7776 366.34624c24.576 0 48.14336 9.81504 65.51552 27.29472a93.45024 93.45024 0 0 1 27.136 65.88928c0 24.71424-9.75872 48.41472-27.136 65.88928a92.3648 92.3648 0 0 1-65.5104 27.29472 92.3648 92.3648 0 0 1-65.51552-27.29472 93.45024 93.45024 0 0 1-27.136-65.88928c0-24.71424 9.75872-48.41472 27.136-65.88928a92.3648 92.3648 0 0 1 65.51552-27.29472z m0 66.56a26.39872 26.39872 0 0 0-18.7136 7.79776 26.7008 26.7008 0 0 0-7.7568 18.82624c0 7.06048 2.7904 13.83424 7.7568 18.82624a26.39872 26.39872 0 0 0 18.71872 7.79776 26.39872 26.39872 0 0 0 18.7136-7.79776 26.7008 26.7008 0 0 0 7.7568-18.82624 26.7008 26.7008 0 0 0-7.75168-18.82624 26.39872 26.39872 0 0 0-18.71872-7.79776zM327.56736 112.64c118.9888 0 215.07584 99.1744 215.07584 221.11232v31.616H476.46208v-31.616C476.46208 248.15616 409.62048 179.2 327.56224 179.2c-82.06336 0-148.90496 68.95616-148.90496 154.55232V678.4H112.4864V333.75232C112.48128 211.8144 208.63488 112.64 327.56224 112.64z m181.9904 299.52a98.97472 98.97472 0 0 1 70.19008 29.24032A100.13696 100.13696 0 0 1 608.8192 512a100.13696 100.13696 0 0 1-29.07648 70.59968 98.9696 98.9696 0 0 1-70.1952 29.24032 98.97984 98.97984 0 0 1-70.19008-29.24032A100.13696 100.13696 0 0 1 410.28608 512a100.13184 100.13184 0 0 1 29.07136-70.59968 98.97984 98.97984 0 0 1 70.1952-29.24032z m0 66.56a32.99328 32.99328 0 0 0-23.3984 9.74848A33.3824 33.3824 0 0 0 476.46208 512c0 8.82688 3.4816 17.29024 9.69216 23.53152a32.99328 32.99328 0 0 0 23.3984 9.74848 32.9984 32.9984 0 0 0 23.3984-9.74848 33.37216 33.37216 0 0 0 9.68704-23.53152c0-8.82688-3.4816-17.29024-9.68704-23.53152a32.99328 32.99328 0 0 0-23.3984-9.74848z m363.9808-366.08c13.03552 0 25.94304 2.58048 37.98528 7.59808 12.04736 5.0176 22.9888 12.37504 32.2048 21.64224a99.80416 99.80416 0 0 1 21.51936 32.39424A100.2752 100.2752 0 0 1 972.8 212.48c0 13.1072-2.56512 26.09152-7.55712 38.20544a99.80416 99.80416 0 0 1-21.51936 32.39424 99.1744 99.1744 0 0 1-32.2048 21.64224A98.75456 98.75456 0 0 1 873.53344 312.32a98.98496 98.98496 0 0 1-70.1952-29.24032 100.13184 100.13184 0 0 1-29.07136-70.59968 100.13184 100.13184 0 0 1 29.07136-70.59968A98.98496 98.98496 0 0 1 873.53344 112.64z m0 66.56a32.99328 32.99328 0 0 0-23.3984 9.74848 33.3824 33.3824 0 0 0-9.69216 23.53152 33.3824 33.3824 0 0 0 9.69216 23.53152 32.99328 32.99328 0 0 0 23.3984 9.74848 32.99328 32.99328 0 0 0 23.3984-9.74848 33.3824 33.3824 0 0 0 9.69216-23.53152 33.3824 33.3824 0 0 0-9.69216-23.53152 32.99328 32.99328 0 0 0-23.3984-9.74848z"  ></path></svg>