<svg xmlns="http://www.w3.org/2000/svg" viewBox="0 0 1024 1024"><path d="M160.04740779 75.09333333A12.13629667 12.13629667 0 0 1 172.18370333 62.95703666h449.04296334V269.27407445c0 20.09770667 16.31118222 36.40888889 36.40888888 36.40888889h206.31703666v182.04444445a36.40888889 36.40888889 0 0 0 72.81777778 0V269.27407445a36.3117989 36.3117989 0 0 0-10.67993998-25.7289489l-242.72592668-242.72592555a36.3117989 36.3117989 0 0 0-25.72894778-10.67994112H172.18370333A84.95407445 84.95407445 0 0 0 87.22963001 75.09333333v873.81333334c0 46.89464889 38.05942557 84.95407445 84.95407332 84.95407445h291.2711111a36.40888889 36.40888889 0 0 0 0-72.81777778H172.18370333a12.13629667 12.13629667 0 0 1-12.13629554-12.13629667V75.09333333z m533.99703666 39.3216l118.45025222 118.45025224h-118.45025222V114.41493333z m242.67738112 759.78069334l0.04854442 1.89326222a36.26325333 36.26325333 0 0 1-10.67993998 25.72894777l-121.36296334 121.36296334a36.40888889 36.40888889 0 1 1-51.45789668-51.45789667l59.22512668-59.22512555H560.54518557a36.40888889 36.40888889 0 0 1 0-72.81777778h251.9495111l-59.22512668-59.22512555a36.40888889 36.40888889 0 1 1 51.45789668-51.45789667l121.36296334 121.36296334a36.3117989 36.3117989 0 0 1 10.63139556 23.83568555z"  ></path></svg>