<svg xmlns="http://www.w3.org/2000/svg" viewBox="0 0 1024 1024"><path d="M512 993.28c-264.704 0-481.28-216.576-481.28-481.28S247.296 30.72 512 30.72s481.28 216.576 481.28 481.28-216.576 481.28-481.28 481.28z m0-68.75648c226.88768 0 412.52352-185.63584 412.52352-412.52352S738.88768 99.47648 512 99.47648 99.47648 285.11232 99.47648 512 285.11232 924.52352 512 924.52352z"  ></path><path d="M464 336a48 48 0 1 0 96 0 48 48 0 0 0-96 0zM536.00256 448h-48.00512c-4.39808 0-7.99744 4.096-7.99744 9.10336v309.47328c0 5.00736 3.59936 9.10336 8.00256 9.10336h48c4.39808 0 7.99744-4.096 7.99744-9.10336V457.10336c0-5.00736-3.59936-9.10336-7.99744-9.10336z"  ></path></svg>