<svg xmlns="http://www.w3.org/2000/svg" viewBox="0 0 1024 1024"><path d="M53.79945605 87.80569917c20.21992834 0 36.62210797 17.25056822 36.62210797 38.53098232V859.13233618h879.77897993c20.29062739 0 36.69280702 17.25056822 36.69280702 38.60168139a37.61189467 37.61189467 0 0 1-36.69280702 38.53098231H53.87015509A37.61189467 37.61189467 0 0 1 17.10664903 897.66331851V126.33668149c0-21.20971504 16.40217963-38.53098233 36.69280702-38.53098232zM992.75354095 236.48580161c14.84680053 14.49330528 15.69518913 38.88447758 1.90887436 54.50896765l-286.89674548 324.43794109a35.34952507 35.34952507 0 0 1-51.18611228 2.47446676l-200.00761286-187.35248287-205.87563401 187.77667716a35.49092317 35.49092317 0 0 1-24.03767705 9.33227463 36.76350606 36.76350606 0 0 1-34.35973837-25.02746375 39.87426428 39.87426428 0 0 1 10.32206132-42.63152723l230.26680631-209.97617892a35.34952507 35.34952507 0 0 1 48.42884934 0.2827962l197.25034989 184.94871516 262.36417507-296.79461248a35.34952507 35.34952507 0 0 1 51.82240376-1.9795734z"  ></path></svg>