<svg xmlns="http://www.w3.org/2000/svg" viewBox="0 0 1024 1024"><path d="M736.67072 552.21248a61.31712 61.31712 0 0 0-32.57856-29.20448 60.97408 60.97408 0 0 0-43.66848 0.01536 222.40256 222.40256 0 0 0-66.87744 40.40704 61.66016 61.66016 0 0 0-20.49536 38.59968c-1.8944 14.9504 1.73568 30.08 10.20416 42.5216l0.04096 0.2048-0.14336 0.2048a61.08672 61.08672 0 0 0-41.46688 13.77792 61.55264 61.55264 0 0 0-21.79072 38.016 226.01728 226.01728 0 0 0 1.36704 78.37184 61.55776 61.55776 0 0 0 23.04512 37.10464 61.07136 61.07136 0 0 0 41.76896 12.3648c0.12288 0 0.24064 0.12288 0.2048 0.4352a61.73184 61.73184 0 0 0 13.0048 80.74752 222.1568 222.1568 0 0 0 68.20352 38.0928c13.5936 4.6848 28.39552 4.41856 41.82016-0.75264a61.35296 61.35296 0 0 0 31.5904-27.53536l1.69472-3.28192 0.2048-0.2048h0.1792a61.37344 61.37344 0 0 0 32.5888 29.22496 61.01504 61.01504 0 0 0 43.68384-0.01536 222.26432 222.26432 0 0 0 66.8928-40.40704 61.75232 61.75232 0 0 0 10.27072-81.1008l-0.04096-0.22528c0.02048-0.08192 0.08192-0.14336 0.14336-0.2048a61.06624 61.06624 0 0 0 41.472-13.76768 61.5936 61.5936 0 0 0 21.79072-38.02112 226.0224 226.0224 0 0 0-1.34656-78.35136 61.59872 61.59872 0 0 0-23.05024-37.13024 61.0816 61.0816 0 0 0-41.78432-12.3648c-0.12288 0-0.24576-0.12288-0.2048-0.43008a61.77792 61.77792 0 0 0 8.79104-42.86464 61.62432 61.62432 0 0 0-21.79584-37.888 222.20288 222.20288 0 0 0-68.20352-38.08768l-3.5328-1.11104a61.01504 61.01504 0 0 0-40.0384 2.54976 61.3376 61.3376 0 0 0-29.88032 26.88512l-2.00192 3.79392c0.12288-0.3072 0.04096-0.32768-0.06144-0.36864z m55.62368 26.46016a161.024 161.024 0 0 1 49.41824 27.58656 61.99296 61.99296 0 0 0-0.87552 64.98304 61.5936 61.5936 0 0 0 24.51968 23.12192 61.24544 61.24544 0 0 0 32.95744 6.71744c3.61984 18.7392 3.9424 37.9648 0.96256 56.81664a61.30688 61.30688 0 0 0-32.68608 7.84896 61.7216 61.7216 0 0 0-23.71072 23.92064 62.04416 62.04416 0 0 0 2.97472 64.87552 160.99328 160.99328 0 0 1-48.45568 29.27104 61.63456 61.63456 0 0 0-23.08096-24.57088 61.32224 61.32224 0 0 0-32.49664-8.69376 61.312 61.312 0 0 0-32.18944 9.7792 61.70624 61.70624 0 0 0-22.25664 25.32864 160.7936 160.7936 0 0 1-49.41312-27.58656 62.04928 62.04928 0 0 0 0.87552-64.98304 61.62432 61.62432 0 0 0-24.51968-23.12192 61.34784 61.34784 0 0 0-32.96256-6.71744 164.2752 164.2752 0 0 1-0.95744-56.81152 61.3888 61.3888 0 0 0 32.67584-7.8592 61.72672 61.72672 0 0 0 23.70048-23.92064 62.06976 62.06976 0 0 0-2.97984-64.8704 161.2288 161.2288 0 0 1 48.45568-29.27104 61.68576 61.68576 0 0 0 22.07232 23.95136 61.3376 61.3376 0 0 0 31.14496 9.30816 61.29664 61.29664 0 0 0 31.5136-7.936 61.61408 61.61408 0 0 0 23.08608-22.9632l1.77664-3.32288 0.43008-0.90112 0.02048 0.02048z"  ></path><path d="M739.82976 645.12a84.46464 84.46464 0 0 0-59.71968 144.22528A84.5312 84.5312 0 0 0 739.85024 814.08a84.49024 84.49024 0 0 0 59.71968-144.22528A84.47488 84.47488 0 0 0 739.82976 645.12z m0 61.27616a23.18336 23.18336 0 0 1 16.40448 6.80448 23.2192 23.2192 0 0 1 5.0176 25.28768 23.21408 23.21408 0 0 1-21.44256 14.31552 23.22432 23.22432 0 0 1-23.1936-23.21408 23.22432 23.22432 0 0 1 23.21408-23.1936z"  ></path><path d="M478.65344 46.08c66.03264 0 126.24896 51.584 169.35424 144.96768 2.33984 5.45792 4.88448 10.9824 7.2192 16.64 6.08256-0.6656 12.032-1.46432 18.048-1.9968 102.92224-9.38496 177.77664 16.70656 210.72384 73.74848 29.34272 50.90304 20.73088 118.18496-24.01792 191.67744a278.272 278.272 0 0 0-59.1616-18.0736c39.18336-58.63424 50.6368-110.61248 31.51872-143.85152-17.24416-29.75232-59.81696-45.79328-119.16288-45.79328-10.89536 0-22.39488 0.46592-34.3552 1.59744l-3.07712 0.3328a776.35584 776.35584 0 0 1 25.40032 118.8096 775.3216 775.3216 0 0 1 75.09504 65.42336 283.78112 283.78112 0 0 0-27.35104-1.32096 279.66976 279.66976 0 0 0-100.13696 18.41664 899.78368 899.78368 0 0 0-3.94752-50.17088A910.37696 910.37696 0 0 0 478.85312 320.9728a913.792 913.792 0 0 0-166.21568 95.31392c-3.2768 30.2848-5.01248 62.2336-5.01248 95.71328a896.2048 896.2048 0 0 0 4.94592 95.5136 910.20288 910.20288 0 0 0 157.77792 91.80672 282.39872 282.39872 0 0 0 1.792 71.04 787.87584 787.87584 0 0 1-109.312 34.76992c32.67584 71.59808 75.49952 113.2544 115.92192 113.28 16.16896-0.01024 32.73216-6.70208 48.87552-19.31264a281.22112 281.22112 0 0 0 41.97376 43.40736C541.57312 965.74976 510.8736 977.92 478.72 977.92c-66.0992 0-126.3104-51.51744-169.28768-144.96768a542.76096 542.76096 0 0 1-7.2192-16.64c-6.08256 0.6656-12.032 1.46432-18.04288 1.9968a458.81344 458.81344 0 0 1-39.90016 1.86368c-82.27328 0-142.22336-26.22464-170.76224-75.61216-33.01376-57.04192-18.10944-134.65088 41.64096-218.51648a489.216 489.216 0 0 1 10.55744-14.24384c-3.54304-4.6592-7.14752-9.45152-10.496-14.11072-59.74528-83.99872-74.51648-161.536-41.50272-218.58304 32.88064-56.97536 107.8784-83.13344 210.6624-73.48224 5.98016 0.54272 11.9552 1.18784 17.90976 1.93024 2.33984-5.5296 4.67968-11.04896 7.15264-16.37376C352.54272 97.73056 412.6208 46.08 478.64832 46.08zM163.8656 560.38912c-44.9792 62.8992-59.008 119.1424-38.62528 154.35264 20.31616 35.14368 76.25728 51.31776 153.4464 44.19584l3.072-0.3328c-11.1616-36.9408-19.712-76.8768-25.3952-118.8096-33.74592-25.95328-64.22016-53.38112-90.89024-81.536l-1.60768 2.12992z m161.54112 127.7952c4.33152 20.5312 9.68704 40.83712 16.04096 60.83584 19.78368-4.39296 40.09984-9.984 60.81536-16.64a1057.34144 1057.34144 0 0 1-76.85632-44.19584z m-76.45696-220.7744a636.42624 636.42624 0 0 0-45.31712 44.45696 677.42208 677.42208 0 0 0 45.312 44.52864 1019.41248 1019.41248 0 0 1 0-88.9856z m-4.67968-204.3392c-59.2128 0-101.65248 16.1024-118.83008 45.78816-20.31616 35.01056-6.28224 91.32032 38.56384 154.4192 0.39936 0.6656 1.06496 1.46432 1.60256 2.12992 26.5984-28.08832 57.1392-55.44448 90.89024-81.40288h-0.06144a776.92416 776.92416 0 0 1 25.3952-118.9376l-2.944-0.27136a350.29504 350.29504 0 0 0-34.6112-1.73056z m371.79392 11.84256c-19.85024 4.39296-40.09984 9.984-60.81536 16.64a1044.69504 1044.69504 0 0 1 76.85632 44.19584 664.93952 664.93952 0 0 0-16.04096-60.83584z m-274.61632-0.06656c-6.08256 18.96448-11.3664 39.33696-16.04096 60.83584a1036.48256 1036.48256 0 0 1 77.056-44.12928 641.18784 641.18784 0 0 0-61.01504-16.70656z m137.2672-169.12896c-40.36096 0-83.26656 41.53344-115.61472 113.01888a782.51008 782.51008 0 0 1 115.88608 37.67296c39.23456-16.04096 78.1312-28.55424 115.69152-37.40672-32.68608-71.61856-75.392-113.28512-115.8912-113.28512H478.72z"  ></path></svg>