<svg xmlns="http://www.w3.org/2000/svg" viewBox="0 0 1024 1024"><path d="M322.491733 541.764267a27.374933 27.374933 0 0 1-22.050133-43.895467L424.618667 333.073067a27.579733 27.579733 0 0 1 38.229333-5.870934l94.071467 67.447467 121.378133-145.134933a27.579733 27.579733 0 0 1 42.3936 35.157333l-137.898667 164.795733a27.648 27.648 0 0 1-37.2736 4.7104l-92.9792-66.628266-107.861333 143.223466a27.579733 27.579733 0 0 1-22.1184 10.990934z m353.962667 242.619733H271.9744a27.511467 27.511467 0 0 1-27.579733-27.4432c0-15.1552 12.356267-27.511467 27.579733-27.511467h404.48a27.511467 27.511467 0 0 1 0 54.954667z"  ></path><path d="M876.3392 908.629333H262.075733a146.432 146.432 0 0 1-146.773333-145.749333c0-80.349867 65.877333-145.749333 146.773333-145.749333h614.263467c15.1552 0 27.511467 12.288 27.511467 27.306666 0 15.086933-12.288 27.306667-27.511467 27.306667H262.075733a91.477333 91.477333 0 0 0-91.682133 91.136 91.477333 91.477333 0 0 0 91.682133 91.067733h614.263467c15.1552 0 27.511467 12.288 27.511467 27.306667 0 15.1552-12.288 27.374933-27.511467 27.374933z"  ></path><path d="M870.536533 903.850667a27.648 27.648 0 0 1-11.946666-2.730667 149.162667 149.162667 0 0 1-83.7632-133.666133 148.821333 148.821333 0 0 1 96.529066-139.0592 27.579733 27.579733 0 0 1 35.498667 16.452266 27.989333 27.989333 0 0 1-16.384 35.703467 93.047467 93.047467 0 0 0-60.279467 86.903467c0 35.498667 20.548267 68.266667 52.4288 83.5584a27.648 27.648 0 0 1 12.970667 37.0688 27.8528 27.8528 0 0 1-25.053867 15.701333z"  ></path><path d="M142.882133 770.048a27.511467 27.511467 0 0 1-27.511466-27.4432v-481.28c0-77.824 63.488-141.175467 141.448533-141.175467h506.948267c77.277867 0 140.0832 62.805333 140.0832 139.810134v372.736a27.511467 27.511467 0 0 1-55.022934 0v-372.736c0-46.762667-38.161067-84.855467-84.992-84.855467H256.750933c-47.650133 0-86.4256 38.7072-86.4256 86.289067v481.28c0 15.086933-12.288 27.374933-27.511466 27.374933z"  ></path></svg>