<svg xmlns="http://www.w3.org/2000/svg" viewBox="0 0 1024 1024"><path d="M605.91875186 466.36752555h0.06472704c26.27912704 0 47.50955406 23.30168889 47.50955406 51.78153074-0.12945408 28.67402297-21.3598811 51.84625778-47.5742811 52.04043889-26.27912704 0-47.50955406-23.30168889-47.57428224-51.91098481 0-28.67402297 21.3598811-51.91098482 47.5095552-51.91098482h0.06472704zM1029.81530851 66.54938112L1029.81530851 559.31537408c0 39.93650517-29.70965333 72.49414371-66.34508629 72.49414258H897.12513593V568.9596837h75.14794666V56.96979741H239.88805518V139.17297778h-57.60695296v-72.49414372C182.28110222 26.54814777 212.05548259-5.81530851 248.69091555-5.81530851h714.58512555c36.63543296 0 66.34508629 32.36345629 66.47454037 72.36468963zM418.0165211 466.43225259c26.14967296 0.06472704 47.44482816 23.30168889 47.44482816 51.78153074 0 28.73875001-21.23042816 51.84625778-47.44482816 52.04043889-26.27912704-0.06472704-47.50955406-23.30168889-47.50955406-51.91098481 0-28.67402297 21.23042816-51.91098482 47.50955406-51.91098482z m423.70237668-194.31019406h-0.19418112v492.83072c0 39.87177927-29.70965333 72.36468963-66.34508629 72.36468963H320.21415481l-175.66884295 191.72111701v-191.72111701H60.52977778c-36.63543296 0-66.34508629-32.36345629-66.34508629-72.36468963V271.86315037c0-40.00123221 29.70965333-72.36468963 66.34508629-72.49414258h714.84403371c36.63543296 0.12945408 66.21563221 32.49291037 66.34508629 72.62359666z m-61.36111445 498.33250702h0.12945408V266.42609038H55.35162482v503.96374813h150.42534741v97.09037112l88.93477888-97.02564408h485.64603222zM229.79065629 466.43225259c26.14967296 0 47.50955406 23.30168889 47.5095552 51.78153074 0 28.54456889-21.42460814 52.0404389-47.5095552 52.04043889-26.14967296 0-47.5742811-23.23696185-47.57428111-51.91098481 0-28.67402297 21.23042816-51.91098482 47.5095552-51.91098482h0.06472591z"  ></path></svg>