<svg xmlns="http://www.w3.org/2000/svg" viewBox="0 0 1024 1024"><path d="M438.860205 0.00192a438.774779 438.774779 0 0 1 334.792132 722.439443l239.576021 239.320063a36.281945 36.281945 0 1 1-51.447415 51.447415l-239.576021-239.384053a437.047068 437.047068 0 0 1-283.344717 103.726691 436.983078 436.983078 0 0 1-206.429552-51.447415 36.537903 36.537903 0 1 1 34.490245-64.565226 365.634985 365.634985 0 1 0-51.831351-611.993873 36.537903 36.537903 0 0 1-44.792525-57.782358A436.983078 436.983078 0 0 1 438.860205 0.00192z m-174.690848 219.419384l193.055784 438.77478H366.104346l-41.785027-100.463236H129.85577l-40.50524 100.463236H0.085426l195.039453-438.77478h68.980488z m320.970438 0v438.77478H505.345111V219.421304h79.794684zM227.439486 312.26981l-70.388254 178.530208h139.368743L227.375497 312.26981z"  ></path></svg>