<svg xmlns="http://www.w3.org/2000/svg" viewBox="0 0 1024 1024"><path d="M870.4 0a153.6 153.6 0 0 1 153.6 153.6v716.8a153.6 153.6 0 0 1-153.6 153.6H153.6l-7.8848-0.2048A153.6 153.6 0 0 1 0 870.4V153.6a153.6 153.6 0 0 1 153.6-153.6h716.8zM153.6 76.8A76.8 76.8 0 0 0 76.8 153.6v716.8A76.8 76.8 0 0 0 153.6 947.2h716.8a76.8 76.8 0 0 0 76.8-76.8V153.6A76.8 76.8 0 0 0 870.4 76.8H153.6z"  ></path><path d="M241.9712 332.8a37.7856 37.7856 0 0 0-26.5216 10.24 34.4064 34.4064 0 0 0-10.6496 26.368c0 10.752 3.3792 19.5584 10.6496 26.88 7.168 6.8096 15.872 10.24 26.5216 10.24a37.7856 37.7856 0 0 0 26.5216-10.24 35.84 35.84 0 0 0 11.1104-26.88 36.1984 36.1984 0 0 0-10.5984-26.368 38.912 38.912 0 0 0-27.0336-10.24zM214.528 435.8144v252.416h54.9888v-252.416H214.528z m227.7888-6.8096c-14.9504 0-28.4672 2.9184-41.0112 9.2672a99.84 99.84 0 0 0-32.8192 26.88v-29.3376H313.3952v252.416h55.04v-151.808c1.9456-20.0192 8.704-35.6352 20.2752-46.3872a50.176 50.176 0 0 1 35.7376-14.6432c37.632 0 56.4736 20.48 56.4736 62.0032v150.8864h55.04V532.48c0-69.376-31.3856-103.5264-93.696-103.5264z m205.6704-74.752l-55.04 22.9888v58.5728h-44.9024v45.9264h44.9024v142.5408c0 20.5312 4.8128 35.6864 14.4384 46.4384 10.1888 11.6736 26.112 17.5616 47.8208 17.5616h41.984v-45.9264h-32.8192c-5.7856 0-9.6256-1.4336-12.544-4.352-2.9184-3.4304-3.84-7.8336-3.84-13.7216V481.792h55.5008v-45.9264h-55.552V354.304z m130.2528 260.3008c-11.4176 0-21.248 3.3792-28.5184 11.264a34.7136 34.7136 0 0 0-11.9296 27.2896c0 10.752 3.584 19.5584 11.9296 27.3408 7.2704 6.8608 17.1008 10.752 28.5184 10.752a44.032 44.032 0 0 0 29.0304-10.752 37.2736 37.2736 0 0 0 0-54.6816 40.7552 40.7552 0 0 0-29.0304-11.264z"  ></path></svg>