<svg xmlns="http://www.w3.org/2000/svg" viewBox="0 0 1024 1024"><path d="M867.4048 669.45024C945.13664 685.7216 1003.52 754.65728 1003.52 837.22752 1003.52 931.8912 926.7712 1008.64 832.10752 1008.64c-94.67392 0-171.4176-76.74368-171.4176-171.41248 0-84.35712 60.928-154.48064 141.17888-168.76032v-118.65088H227.16928v119.61344c77.7472 16.26624 136.1408 85.20192 136.1408 167.7824 0 94.6688-76.7488 171.41248-171.4176 171.41248C97.2288 1008.62464 20.48 931.88096 20.48 837.21216c0-84.34688 60.91776-154.46528 141.1584-168.7552v-143.22688a40.96 40.96 0 0 1 40.96-40.96h281.67168V416.45568C387.2512 401.85856 312.86784 318.14144 312.86784 217.0368 312.86784 105.65632 403.15392 15.36 514.51904 15.36c111.36512 0 201.64608 90.29632 201.64608 201.6768 0 99.34848-71.81824 181.9136-166.35904 198.59968v68.6336h276.63872a40.96 40.96 0 0 1 40.96 40.96v144.22016z m-35.29728 61.9008c-58.47552 0-105.87648 47.40096-105.87648 105.87648 0 58.4704 47.40096 105.87136 105.87648 105.87136 58.4704 0 105.87136-47.40096 105.87136-105.87136 0-58.47552-47.40096-105.87648-105.87136-105.87648z m-640.20992-0.01536c-58.4704 0-105.8816 47.40096-105.8816 105.87648 0 58.4704 47.4112 105.87136 105.8816 105.87136s105.87136-47.40096 105.87136-105.87136c0-58.47552-47.40096-105.87648-105.87136-105.87648z m322.62144-650.42944c-75.17184 0-136.1152 60.94848-136.1152 136.13568 0 75.18208 60.94336 136.13568 136.1152 136.13568s136.11008-60.9536 136.11008-136.1408c0-75.18208-60.93824-136.13056-136.11008-136.13056z"  ></path></svg>