<svg xmlns="http://www.w3.org/2000/svg" viewBox="0 0 1024 1024"><path d="M660.06528 535.552c74.03008-47.104 121.13408-131.18464 121.13408-225.39264A269.98272 269.98272 0 0 0 512 40.96a269.98784 269.98784 0 0 0-269.19936 269.19936c0 94.208 47.104 178.28864 121.1392 225.39264C175.51872 596.08064 40.96 774.44608 40.96 983.04h67.2768c0-222.09536 181.66784-403.75808 403.7632-403.75808s403.75808 181.66272 403.75808 403.75808H983.04c0-208.59392-134.55872-386.95936-322.97472-447.488zM512 512a202.4704 202.4704 0 0 1-201.84064-201.84064A202.46528 202.46528 0 0 1 512 108.24192a202.4704 202.4704 0 0 1 201.84064 201.99424A202.45504 202.45504 0 0 1 512 512z"  ></path></svg>