<svg xmlns="http://www.w3.org/2000/svg" viewBox="0 0 1024 1024"><path d="M944.07168 899.3536c15.5904-0.29184 28.4672 13.56288 28.73344 30.96576 0.23552 16.37376-10.75712 30.01344-25.05728 31.80032l-2.7136 0.20992-555.7248 10.50112c-15.5904 0.29184-28.4672-13.56288-28.73344-30.96576-0.24064-16.37376 10.76224-30.01856 25.0624-31.80544l2.7136-0.2048 555.71968-10.50112zM437.02272 51.2c10.05056 0 20.00384 1.89952 29.2864 5.59616a76.81024 76.81024 0 0 1 24.832 15.92832l401.96608 385.93024h0.0256c14.34624 13.77792 22.40512 32.4608 22.40512 51.94752 0 19.4816-8.05888 38.16448-22.40512 51.9424l-216.46336 207.8208a76.8 76.8 0 0 1-24.832 15.9232 79.232 79.232 0 0 1-29.29152 5.59616c-10.04544 0-19.99872-1.90464-29.28128-5.59616a76.83072 76.83072 0 0 1-24.832-15.9232l-172.07296-165.1968-289.00352 277.45792a33.4848 33.4848 0 0 1-22.4 9.37472 33.6384 33.6384 0 0 1-22.9376-8.09984 31.03744 31.03744 0 0 1-10.73152-21.07392 30.67392 30.67392 0 0 1 7.424-22.35392l2.2528-2.39104 289.01376-277.43744-183.53664-176.19456a73.344 73.344 0 0 1-16.5888-23.8336 70.94784 70.94784 0 0 1-5.83168-28.12416c0-9.64608 1.98656-19.2 5.8368-28.1088a73.35424 73.35424 0 0 1 16.5888-23.84384l216.46336-207.81568a76.81024 76.81024 0 0 1 24.832-15.92832A79.30368 79.30368 0 0 1 437.0176 51.2z m0 62.98624c-2.8928 0-5.67296 1.09568-7.72096 3.05664L212.8384 325.0688a10.2912 10.2912 0 0 0-3.2 7.424c0 2.78016 1.152 5.44768 3.2 7.41888l401.9968 385.93536c2.048 1.96608 4.82304 3.06688 7.72096 3.06688 2.89792 0 5.6832-1.1008 7.7312-3.06688l216.46336-207.80032a10.4448 10.4448 0 0 0 2.3808-3.4048 10.11712 10.11712 0 0 0 0-8.04864 10.43968 10.43968 0 0 0-2.3808-3.40992L444.76416 117.26848l-0.02048-0.0256a11.17184 11.17184 0 0 0-7.72096-3.05664z m250.69056 333.9264a33.6128 33.6128 0 0 1 22.77888 8.09472 31.04768 31.04768 0 0 1 10.72128 20.92544 30.64832 30.64832 0 0 1-7.20384 22.272l-2.25792 2.39104-109.32224 104.96a33.46432 33.46432 0 0 1-22.4 9.3696 33.6384 33.6384 0 0 1-22.9376-8.09472 31.04768 31.04768 0 0 1-10.73664-21.07392 30.6944 30.6944 0 0 1 7.424-22.35904l2.2528-2.38592 109.32736-104.96 0.02048 0.02048a33.47456 33.47456 0 0 1 22.33344-9.1648z"  ></path></svg>