<svg xmlns="http://www.w3.org/2000/svg" viewBox="0 0 1024 1024"><path d="M190.464 253.87008a63.488 63.488 0 1 1 0-126.93504 63.488 63.488 0 0 1 0 126.976z m317.31712 0a63.488 63.488 0 1 1 0-126.93504 63.488 63.488 0 0 1 0 126.976z m317.35808 0a63.488 63.488 0 1 1 0-126.93504 63.488 63.488 0 0 1 0 126.976zM190.42304 571.22816a63.488 63.488 0 1 1 0-126.976 63.488 63.488 0 0 1 0 126.976z m0 317.35808a63.488 63.488 0 1 1 0-126.976 63.488 63.488 0 0 1 0 126.976z m317.35808 0a63.488 63.488 0 1 1 0-126.976 63.488 63.488 0 0 1 0 126.976z m317.35808 0a63.488 63.488 0 1 1 0-126.976 63.488 63.488 0 0 1 0 126.976z m-317.35808-317.35808a63.488 63.488 0 1 1 0-126.976 63.488 63.488 0 0 1 0 126.976z m317.35808 0a63.488 63.488 0 1 1 0-126.976 63.488 63.488 0 0 1 0 126.976z"  ></path></svg>