<svg xmlns="http://www.w3.org/2000/svg" viewBox="0 0 1024 1024"><path d="M153.6 673.28c0-25.2416 18.6368-43.9808 42.6496-43.9808 23.9616 0 42.5984 18.7392 42.5984 44.032 0 25.2416-18.6368 43.008-42.5984 43.008A41.6256 41.6256 0 0 1 153.6 673.28z m151.9104-162.816C305.5104 373.4528 357.2224 307.2 437.6576 307.2c79.9232 0 132.1472 67.2768 132.1472 203.264 0 137.5744-52.224 206.336-132.1472 206.336-80.4864-0.512-132.1472-69.2736-132.1472-206.336z m203.5712 0c0-113.2544-29.3376-154.7264-70.912-154.7264s-71.3728 41.472-71.3728 154.7264c0 114.2784 29.2864 157.2864 70.8608 157.2864 41.5744 0 71.424-43.008 71.424-157.2864z m96.9728 0c0-137.0112 51.712-203.264 132.1984-203.264C818.1248 307.2 870.4 374.4768 870.4 510.464c0 137.5744-52.224 206.336-132.1472 206.336-80.4864-0.512-132.1984-69.2736-132.1984-206.336z m203.5712 0c0-113.2544-29.2864-154.7264-70.8608-154.7264-41.5744 0-70.8608 41.472-70.8608 154.7264 0 114.2784 29.2864 157.2864 70.8608 157.2864 41.5744 0 70.8608-43.008 70.8608-157.2864z"  ></path><path d="M870.4 0a153.6 153.6 0 0 1 153.6 153.6v716.8a153.6 153.6 0 0 1-153.6 153.6H153.6l-7.8848-0.2048A153.6 153.6 0 0 1 0 870.4V153.6a153.6 153.6 0 0 1 153.6-153.6h716.8zM153.6 76.8A76.8 76.8 0 0 0 76.8 153.6v716.8A76.8 76.8 0 0 0 153.6 947.2h716.8a76.8 76.8 0 0 0 76.8-76.8V153.6A76.8 76.8 0 0 0 870.4 76.8H153.6z"  ></path></svg>