<svg xmlns="http://www.w3.org/2000/svg" viewBox="0 0 1024 1024"><path d="M901.671656 843.211299l4.351728-5.183676c1.27992-1.407912 2.303856-2.815824 3.51978-4.223736l3.903756-4.863696 3.51978-4.47972 3.647772-4.7997c1.27992-1.535904 2.303856-3.135804 3.455784-4.607712l3.583776-4.927692 3.263796-4.671708 3.51978-4.991688 3.1998-4.735704 3.391788-5.11968 3.135804-4.735704 3.263796-5.311668 2.87982-4.7997c1.151928-1.791888 2.23986-3.711768 3.327792-5.631648l2.687832-4.607712 3.583776-6.3996c0.703956-1.27992 1.535904-2.55984 2.23986-3.967752l5.375664-10.23936 1.983876-3.967752 3.327792-6.655584c0.63996-1.535904 1.471908-3.135804 2.175864-4.607712 1.023936-1.983876 1.91988-4.095744 2.87982-6.07962l2.23986-4.927692c0.895944-1.983876 1.791888-4.031748 2.55984-6.015624a215.026561 215.026561 0 0 1 2.111868-4.991688l2.55984-6.015624 1.91988-5.11968c0.831948-1.91988 1.663896-4.031748 2.303856-6.07962l1.91988-5.11968c0.831948-2.047872 1.535904-4.15974 2.175864-6.271608 0.63996-1.663896 1.27992-3.391788 1.727892-5.11968l2.111868-6.527592c0.511968-1.5999 0.95994-3.1998 1.5999-4.927692 0.63996-2.367852 1.407912-4.671708 2.111868-7.03956l1.27992-4.47972a326.699581 326.699581 0 0 0 3.1998-11.519281 458.211362 458.211362 0 0 0 2.87982-11.711268c0.31998-1.27992 0.63996-2.55984 0.831948-3.83976l1.791888-8.063496a305.068933 305.068933 0 0 1 2.303856-12.031248l0.895944-5.11968 1.151928-6.975564 0.831948-5.11968 1.023936-7.03956 0.63996-5.311668a162.549841 162.549841 0 0 0 0.831948-7.03956l0.63996-5.247672 0.575964-7.231548 0.383976-5.11968 0.511968-7.551528 0.31998-4.863696 0.255984-8.447472 0.127992-4.095744c0.063996-4.15974 0.191988-8.31948 0.191988-12.543216a510.24011 510.24011 0 0 0-165.621649-376.552465l-0.383976-0.383976-8.255484-7.423537c-0.255984-0.191988-0.447972-0.511968-0.767952-0.63996l-8.127492-6.975564-1.151928-0.95994a256.495969 256.495969 0 0 0-7.9995-6.527592l-1.407912-1.151928a234.353353 234.353353 0 0 0-7.871508-6.143616c-0.63996-0.383976-1.151928-0.895944-1.727892-1.27992-2.55984-1.91988-5.183676-3.903756-7.807512-5.75964l-1.983876-1.535904a500.448722 500.448722 0 0 0-7.67952-5.375664c-0.831948-0.511968-1.535904-1.151928-2.303856-1.5999l-7.615524-5.11968c-0.767952-0.63996-1.663896-1.087932-2.495844-1.727892l-7.615524-4.7997-2.687832-1.663896-7.487532-4.607712-3.007812-1.791888-7.423536-4.287732-3.1998-1.791888c-2.367852-1.407912-4.863696-2.751828-7.35954-4.031748L748.529227 58.23636 741.233683 54.460596l-3.711768-1.791888a237.553153 237.553153 0 0 0-7.167552-3.51978L726.450607 47.35704 719.219059 44.15724 715.123315 42.23736l-7.03956-3.007812-4.351728-1.791888c-2.303856-1.023936-4.671708-1.91988-7.03956-2.815824-1.471908-0.63996-2.943816-1.087932-4.47972-1.727892-2.23986-0.895944-4.671708-1.663896-6.975564-2.55984l-4.671708-1.727892-6.911568-2.367852-4.863696-1.5999L661.878643 22.3986l-5.11968-1.471908-6.783576-1.983876c-1.791888-0.511968-3.455784-1.023936-5.247672-1.407912L638.07213 15.807012 632.568474 14.3991 626.040882 12.7992 620.281242 11.51928 613.75365 10.111368C611.83377 9.727392 609.785898 9.27942 607.802022 8.95944l-6.3996-1.27992a114.616836 114.616836 0 0 0-6.207612-0.95994C593.082942 6.527592 590.971074 6.143616 588.923202 5.823636L582.523602 4.927692c-2.111868-0.31998-4.095744-0.63996-6.207612-0.831948L569.59641 3.327792 563.580786 2.55984 556.733214 1.91988a113.27292 113.27292 0 0 0-5.823636-0.511968L543.486042 1.023936 538.110378 0.63996 529.534914 0.383976A563.35679 563.35679 0 0 0 512.128002 0c-4.415724 0-8.703456 0.127992-12.991188 0.191988l-4.415724 0.191988-8.575464 0.31998-5.375664 0.31998-7.423536 0.447972a104.31348 104.31348 0 0 0-5.75964 0.511968l-6.911568 0.63996a122.424348 122.424348 0 0 0-6.015624 0.63996l-6.71958 0.831948c-2.111868 0.31998-4.095744 0.63996-6.207612 0.831948L435.332802 5.75964l-6.271608 0.95994-6.207612 1.023936-6.3996 1.215924c-1.983876 0.383976-3.967752 0.63996-5.951628 1.087932-2.23986 0.383976-4.351728 0.895944-6.527592 1.407912-1.91988 0.383976-3.83976 0.767952-5.695644 1.27992l-6.591588 1.5999a110.71308 110.71308 0 0 0-5.503656 1.407912l-6.719581 1.791888-5.247672 1.407912-6.847572 1.983876-5.11968 1.471908a135.031561 135.031561 0 0 0-6.71958 2.23986L350.602097 26.23836l-6.911568 2.367852a198.195613 198.195613 0 0 0-11.711268 4.287732c-1.471908 0.63996-2.943816 1.151928-4.47972 1.727892l-7.03956 2.815824c-1.343916 0.63996-2.815824 1.151928-4.223736 1.791888-2.431848 0.95994-4.735704 1.983876-7.103556 3.007812l-4.095744 1.791888L297.741401 47.35704l-3.83976 1.791888a237.425161 237.425161 0 0 0-10.87932 5.311668c-2.431848 1.215924-4.927692 2.55984-7.35954 3.711768l-3.391788 1.791888c-2.495844 1.27992-4.927692 2.687832-7.423536 4.031748l-3.1998 1.791888c-2.495844 1.407912-4.991688 2.751828-7.487532 4.287732a45.11718 45.11718 0 0 1-3.007812 1.663896l-7.487532 4.607712-2.687832 1.727892-7.615524 4.7997a496.736954 496.736954 0 0 0-12.415224 8.383476l-7.67952 5.375664-1.91988 1.535904-7.871508 5.75964-1.663896 1.27992-7.871508 6.143616a17.27892 17.27892 0 0 0-1.407912 1.215924c-2.751828 2.047872-5.311668 4.287732-7.9995 6.463596l-1.27992 1.023936-8.063496 6.911568-0.767952 0.63996c-2.815824 2.431848-5.503656 4.927692-8.191488 7.423537l-0.383976 0.383976a509.984126 509.984126 0 0 0-165.557653 389.095681l0.127992 4.15974 0.255984 8.383476 0.31998 4.927692 0.511968 7.487532 0.383976 5.11968 0.63996 7.231548 0.575964 5.311668 0.767952 7.03956 0.703956 5.247672 1.023936 7.03956c0.31998 1.663896 0.511968 3.455784 0.767952 5.11968l1.27992 7.167552 0.831948 5.11968c0.383976 2.367852 0.895944 4.735704 1.407912 7.231548l0.895944 4.735704 1.791888 8.063496 0.831948 3.83976 2.87982 11.647272c0.191988 0.831948 0.383976 1.5999 0.703956 2.431849 0.767952 3.071808 1.5999 6.207612 2.495844 9.215424l1.27992 4.351728 2.111868 7.103556 1.535904 4.927692 2.047872 6.591588c0.63996 1.663896 1.27992 3.391788 1.727892 4.991688 0.63996 2.111868 1.471908 4.223736 2.175864 6.271608l1.91988 5.11968c0.767952 1.983876 1.471908 4.095744 2.303856 6.07962l1.983876 5.11968c0.831948 1.983876 1.5999 3.967752 2.55984 6.015624l2.047872 4.991688 2.55984 5.951628 2.23986 4.927692 2.815824 6.07962c0.63996 1.5999 1.471908 3.135804 2.175864 4.735704l3.327792 6.655584 1.91988 4.031748 5.43966 10.23936c0.703956 1.27992 1.535904 2.55984 2.175864 3.967752 1.27992 2.047872 2.303856 4.15974 3.647772 6.271608l2.687832 4.607712 3.263796 5.567652c1.023936 1.5999 2.047872 3.1998 2.943816 4.7997l3.263796 5.311668 3.135804 4.7997 3.391788 5.11968c1.087932 1.5999 2.111868 3.1998 3.1998 4.671708 1.087932 1.727892 2.303856 3.327792 3.455784 4.991688l3.327792 4.735704c1.215924 1.535904 2.367852 3.263796 3.583776 4.863696l3.391788 4.607712c1.27992 1.5999 2.55984 3.1998 3.711768 4.7997l3.51978 4.47972 3.83976 4.927692c1.27992 1.407912 2.367852 2.751828 3.51978 4.287732 1.535904 1.791888 2.943816 3.51978 4.47972 5.183676a518.367602 518.367602 0 0 0 35.133805 37.373664c2.815824 2.55984 5.503656 5.311668 8.383476 7.935504l0.511968 0.383976 8.191488 7.359541 0.767952 0.703956 7.9995 6.911568 1.27992 1.023936 7.871508 6.463596 1.343916 1.27992 7.807512 6.015624 1.791888 1.27992 7.807512 5.823636 1.983876 1.535904 7.67952 5.375664 2.367852 1.5999c2.495844 1.727892 5.11968 3.391788 7.551528 5.11968l2.55984 1.663896 7.423536 4.7997c0.95994 0.63996 1.855884 1.215924 2.815824 1.727892l7.487532 4.47972 3.007812 1.791888 7.423536 4.287732 3.1998 1.791888c2.367852 1.407912 4.863696 2.751828 7.35954 4.031748l3.51978 1.791888c2.367852 1.27992 4.7997 2.495844 7.295544 3.711768l3.711768 1.791888 7.167552 3.51978 3.903756 1.791888 7.231548 3.263796 4.095744 1.791888 7.03956 3.007812 4.351728 1.791888c2.303856 1.023936 4.671708 1.91988 7.03956 2.815824 1.535904 0.63996 3.007812 1.087932 4.47972 1.727892 2.367852 0.895944 4.735704 1.791888 7.03956 2.55984l4.735704 1.727892 6.847572 2.367852 4.927692 1.5999 6.783576 2.23986 5.11968 1.471908 6.783576 1.983876c1.791888 0.511968 3.51978 1.023936 5.311668 1.407912l6.655585 1.791888 5.503656 1.407912 6.591588 1.5999 5.75964 1.27992 6.463596 1.407912c1.983876 0.383976 3.967752 0.831948 5.887632 1.087932l6.3996 1.27992 6.207612 0.95994 6.271608 0.95994 6.3996 0.895944c2.111868 0.31998 4.095744 0.63996 6.207612 0.831948l6.71958 0.767952 5.951628 0.703956 6.911568 0.63996 5.75964 0.511968 7.423536 0.447972 5.43966 0.31998 8.575464 0.31998c1.535904 0 2.87982 0.063996 4.415724 0.191988l12.991188 0.191988c4.415724 0 8.703456-0.127992 12.991188-0.191988l4.415724-0.191988 8.575464-0.31998 5.375664-0.31998 7.423536-0.447972 5.75964-0.511968 6.911568-0.63996a127.35204 127.35204 0 0 0 6.015624-0.63996L576.124002 1019.776264c2.047872-0.31998 4.095744-0.63996 6.143616-0.767952l6.3996-0.95994 6.335604-0.95994 6.207612-1.023936 6.3996-1.215924c1.91988-0.383976 3.967752-0.63996 5.887632-1.087932 2.175864-0.383976 4.287732-0.895944 6.463596-1.407912 1.91988-0.383976 3.83976-0.767952 5.75964-1.27992l6.527592-1.5999c1.855884-0.383976 3.711768-0.895944 5.503656-1.407912l6.719581-1.791888 5.311668-1.407912 6.783576-1.983876 5.11968-1.471908c2.303856-0.703956 4.543716-1.407912 6.783576-2.23986l4.863696-1.5999 6.911568-2.367852a206.259109 206.259109 0 0 0 11.711268-4.287732c1.471908-0.63996 3.007812-1.151928 4.47972-1.727892l7.103556-2.815824 4.287732-1.791888c2.431848-0.95994 4.7997-1.983876 7.103556-3.007812l4.095744-1.791888 7.231548-3.263796 3.83976-1.791888 7.231548-3.51978 3.711768-1.791888c2.367852-1.215924 4.863696-2.55984 7.295544-3.711768l3.455784-1.791888c2.55984-1.27992 4.927692-2.55984 7.423536-4.031748l3.1998-1.791888c2.495844-1.407912 4.991688-2.751828 7.423536-4.287732l2.943816-1.791888 7.551528-4.47972a25.406412 25.406412 0 0 1 2.751828-1.727892l7.487532-4.7997a36.093744 36.093744 0 0 0 2.55984-1.663896c2.495844-1.727892 5.11968-3.391788 7.551528-5.11968l2.303856-1.5999 7.67952-5.375664 2.047872-1.535904 7.743516-5.75964 1.855884-1.27992c2.55984-2.047872 5.247672-4.031748 7.743516-6.143616a241.904881 241.904881 0 0 0 9.27942-7.67952l1.27992-1.023936 7.935504-6.911568 0.831948-0.63996 8.191488-7.423537c0.191988-0.127992 0.31998-0.31998 0.511968-0.383976l8.31948-7.935504a479.970002 479.970002 0 0 0 35.197801-37.373664z m76.219236-296.429473l-0.383976 4.863696-0.63996 6.591588-0.447972 5.11968-0.703956 6.271608-0.63996 5.11968-0.95994 6.07962-0.767952 5.183676-1.023936 6.015624-0.895944 5.183676-1.087932 5.887632c-0.31998 1.727892-0.703956 3.51978-1.151928 5.247672-0.383976 1.91988-0.767952 3.83976-1.27992 5.75964l-1.151928 5.183676-1.407912 5.823636a93.11418 93.11418 0 0 1-1.27992 5.11968c-0.511968 1.91988-1.023936 3.83976-1.663896 5.75964l-1.407912 4.991689-1.663896 5.75964-1.535904 4.991688c-0.575964 1.91988-1.151928 3.775764-1.91988 5.695644l-1.535904 4.863696-2.111868 5.887632-1.5999 4.47972c-1.215924 3.455784-2.495844 6.71958-3.83976 10.111368l-1.91988 4.927692-2.23986 5.311668-2.175864 5.11968-2.23986 4.863696-2.367852 5.183676-2.23986 4.7997-2.495844 5.183676c-0.767952 1.535904-1.471908 3.135804-2.303856 4.607712l-2.687832 5.183676-2.367852 4.47972-2.815824 5.247672a102.265608 102.265608 0 0 1-2.495844 4.415724l-3.007812 5.11968-2.495844 4.223736a144.438973 144.438973 0 0 1-3.071808 5.11968l-2.55984 4.223736a135.479533 135.479533 0 0 1-5.887632 9.087432c-1.151928 1.663896-2.23986 3.391788-3.455784 4.991688l-2.687833 3.83976-3.583776 5.11968a123.51228 123.51228 0 0 0-2.751828 3.711768c-1.151928 1.727892-2.495844 3.391788-3.775764 5.11968a75.003312 75.003312 0 0 0-2.55984 3.391788l-4.031748 5.183676a77.11518 77.11518 0 0 1-2.431848 2.87982l-4.47972 5.503656a5.311668 5.311668 0 0 1-1.023936 1.151928c-4.15974 4.991688-8.447472 9.855384-12.7992 14.71908a650.903319 650.903319 0 0 0-118.71258-41.725392c23.03856-71.867508 37.11768-156.150241 39.293544-247.216549h199.923505l-0.255984 3.391788a51.83676 51.83676 0 0 1-0.191988 6.847572z m-212.210737 357.28967c-2.55984 1.727892-5.11968 3.327792-7.743516 4.927692l-1.407912 0.895944a183.092557 183.092557 0 0 1-9.27942 5.503656l-7.103556 4.095744c-0.831948 0.383976-1.535904 0.895944-2.303856 1.27992l-7.03956 3.83976-2.495844 1.27992-6.847572 3.583776-2.751828 1.407912-6.847572 3.391788-2.815824 1.27992c-2.303856 1.151928-4.607712 2.23986-7.03956 3.1998l-2.751828 1.215924-7.103556 3.071808c-0.895944 0.447972-1.727892 0.703956-2.55984 1.151928l-7.551528 2.943816-1.791888 0.703956a470.88257 470.88257 0 0 1-26.750328 9.407412l-1.855884 0.63996-6.463596 1.91988a28.7982 28.7982 0 0 1-2.815824 0.831948c31.998-33.533904 59.772264-79.35504 81.91488-134.327605 36.029748 8.95944 69.627648 20.222736 99.705768 33.213924a458.595338 458.595338 0 0 1-57.660396 44.157241l-0.63996 0.383976z m-393.319418 53.884632l-1.791888-0.63996a471.010562 471.010562 0 0 1-26.750328-9.343416c-0.63996-0.191988-1.215924-0.383976-1.727892-0.703956l-7.487532-3.007812a25.406412 25.406412 0 0 0-2.55984-0.95994c-2.431848-1.023936-4.7997-2.047872-7.103556-3.135804l-2.815824-1.215924a211.954753 211.954753 0 0 1-7.03956-3.1998l-2.751828-1.27992c-2.303856-1.087932-4.607712-2.175864-6.911568-3.391788l-2.687832-1.407912-6.911568-3.583776-2.495844-1.27992-7.03956-3.83976a161.525905 161.525905 0 0 1-11.263296-6.527592l-7.35954-4.351728c-0.511968-0.31998-0.895944-0.63996-1.407912-0.767952l-7.807512-4.927692-0.383976-0.31998a466.914818 466.914818 0 0 1-57.5964-44.157241c30.07812-12.991188 63.67602-24.190488 99.769764-33.213924 21.950628 55.03656 49.91688 100.7937 81.850884 134.391601a28.670208 28.670208 0 0 0-2.815824-0.831948 78.203112 78.203112 0 0 0-6.911568-2.303856z m-220.338228-148.470721c-1.535904-1.727892-3.007812-3.647772-4.47972-5.43966-0.831948-1.023936-1.663896-1.91988-2.367852-2.943816-1.407912-1.663896-2.687832-3.455784-3.967752-5.11968l-2.55984-3.455784c-1.343916-1.663896-2.55984-3.391788-3.83976-5.11968l-2.687832-3.647772-3.647772-5.11968-2.687833-3.83976-3.391788-5.11968a94.522092 94.522092 0 0 1-2.55984-4.031748c-1.151928-1.727892-2.23986-3.391788-3.1998-5.11968l-2.623836-4.15974c-1.023936-1.727892-2.111868-3.391788-3.071808-5.11968l-2.55984-4.287732a127.544028 127.544028 0 0 1-2.87982-5.11968 101.241672 101.241672 0 0 0-2.495844-4.351728l-2.815824-5.11968-2.367852-4.47972-2.687832-5.247672c-0.831948-1.471908-1.535904-3.071808-2.303856-4.543716l-2.55984-5.247672-2.175864-4.7997a254.448097 254.448097 0 0 1-2.367852-5.11968l-2.175864-4.927692-2.23986-5.11968c-0.63996-1.791888-1.471908-3.583776-2.175864-5.375664l-1.983876-4.7997a299.309293 299.309293 0 0 1-3.83976-10.111368l-1.5999-4.47972-2.047872-6.015624c-0.511968-1.5999-1.151928-3.1998-1.5999-4.927692l-1.91988-5.695644-1.535904-4.991688-1.663896-5.695644-1.407912-5.119681-1.5999-5.75964-1.27992-5.11968a121.848384 121.848384 0 0 1-1.407912-5.75964l-1.215924-5.11968-1.27992-5.887632-1.087932-5.183676-1.151928-5.887632-0.895944-5.247672-0.95994-5.951628-0.831948-5.247672-0.895944-6.07962c-0.191988-1.663896-0.511968-3.391788-0.63996-5.11968-0.31998-2.047872-0.575964-4.15974-0.767952-6.271608-0.191988-1.663896-0.383976-3.391788-0.447972-5.11968l-0.63996-6.591588-0.383976-4.863696L45.59716 539.486282c-0.127992-1.087932-0.127992-2.303856-0.191988-3.391788H245.264681c2.111868 91.130304 16.190988 175.349041 39.293544 247.216549a653.399163 653.399163 0 0 0-118.71258 41.725392c-4.47972-4.863696-8.703456-9.855384-12.991188-14.847072-0.447972 0-0.703956-0.31998-0.895944-0.703956zM258.063881 119.928504a332.139241 332.139241 0 0 1 7.807512-4.927692l1.407912-0.895944a180.468721 180.468721 0 0 1 9.27942-5.503656c2.431848-1.407912 4.7997-2.687832 7.103556-4.095744 0.831948-0.383976 1.535904-0.895944 2.303856-1.27992l7.03956-3.83976 2.431848-1.27992 6.911568-3.583776 2.687832-1.407912 6.911568-3.391788 2.815824-1.27992a149.110681 149.110681 0 0 1 7.03956-3.1998c0.831948-0.447972 1.855884-0.831948 2.751828-1.215924l7.03956-3.071808 2.623836-1.151928c2.55984-0.95994 4.991688-2.047872 7.551528-2.943816l1.791888-0.703956c8.767452-3.455784 17.662896-6.527592 26.686332-9.407412l1.791888-0.63996 6.591588-1.91988a22.846572 22.846572 0 0 1 2.815824-0.831948c-31.998 33.533904-59.772264 79.35504-81.91488 134.327605a648.279483 648.279483 0 0 1-99.705768-33.213924c17.91888-16.190988 37.245672-30.974064 57.5964-44.157241l0.63996-0.383976z m393.44741-53.884632l1.791888 0.63996c8.95944 2.87982 17.982876 5.951628 26.750328 9.343416l1.855884 0.703956 7.487532 3.007812c0.895944 0.383976 1.791888 0.63996 2.55984 1.087932 2.431848 1.023936 4.7997 1.983876 7.103556 3.071808l2.815824 1.27992c2.303856 0.95994 4.671708 2.047872 7.03956 3.1998l2.751828 1.27992 7.03956 3.391788 2.687832 1.27992 6.975564 3.583776 2.495844 1.27992 7.03956 3.83976 2.23986 1.27992a162.677833 162.677833 0 0 1 8.95944 5.183676l7.423536 4.415724 1.407912 0.895944 7.807512 4.927692 0.383976 0.255984c20.414724 13.311168 39.613524 28.15824 57.660396 44.157241-30.07812 13.055184-63.612024 24.254484-99.705768 33.27792-22.014624-55.03656-49.91688-100.7937-81.91488-134.391601l2.751828 0.767952c2.175864 0.95994 4.415724 1.535904 6.591588 2.23986z m127.03206 421.477658c-2.111868-91.130304-16.190988-175.349041-39.293544-247.152553 43.51728-11.007312 83.450784-25.086432 118.776576-41.789388a465.698894 465.698894 0 0 1 120.440473 289.069933h-199.923505v-0.127992z m-291.181801-265.071433c-49.788888-1.27992-97.849884-6.463596-142.711081-14.975064C380.680217 120.824448 431.237058 61.244172 487.425546 47.67702v174.709081z m0 44.47722v220.594213h-197.747641c2.367852-86.970564 16.574964-168.501469 39.229548-237.297169 49.404912 9.5994 102.649584 15.35904 158.518093 16.702956z m0 269.615149v220.594213c-55.868508 1.27992-109.11318 7.03956-158.518093 16.63896-22.654584-68.859696-36.861696-150.262609-39.165552-237.233173h197.747641z m0 265.071433v174.709081c-56.188488-13.567152-106.745328-73.147428-142.711081-159.734017a897.223924 897.223924 0 0 1 142.711081-14.975064z m49.020936 0a895.944003 895.944003 0 0 1 142.711081 14.975064c-35.965752 86.586588-86.586588 146.166865-142.711081 159.734017v-174.709081z m0-44.47722V536.47847h197.683645c-2.303856 86.970564-16.510968 168.501469-39.165552 237.297169-49.404912-9.5994-102.649584-15.35904-158.518093-16.702956z m0-269.615149V266.863321c55.868508-1.27992 109.11318-7.03956 158.518093-16.63896 22.654584 68.859696 36.861696 150.262609 39.165552 237.233173h-197.747641z m0-265.071433V47.67702c56.124492 13.567152 106.745328 73.147428 142.711081 159.734017-44.989188 8.511468-92.986188 13.695144-142.711081 14.975064zM165.781649 198.387601c35.261796 16.702956 75.1953 30.782076 118.776576 41.789388-23.102556 71.867508-37.11768 156.150241-39.293544 247.216549H45.341176A464.80295 464.80295 0 0 1 165.781649 198.387601z"  ></path></svg>