<svg xmlns="http://www.w3.org/2000/svg" viewBox="0 0 1024 1024"><path d="M912.04266667 625.32266667c6.21226667-25.94133333 9.4208-52.56533333 9.55733333-79.18933334a370.688 370.688 0 0 0-204.8-325.632 204.8 204.8 0 0 0-409.6 0A370.688 370.688 0 0 0 102.4 546.13333333c0.13653333 26.624 3.34506667 53.248 9.55733333 79.18933334a204.8 204.8 0 1 0 290.13333334 281.94133333 436.36053333 436.36053333 0 0 0 219.81866666 0 204.8 204.8 0 1 0 290.13333334-281.94133333zM512 853.33333333a375.87626667 375.87626667 0 0 1-77.824-8.87466666A204.8 204.8 0 0 0 443.73333333 785.06666667a204.8 204.8 0 0 0-204.8-204.8 204.8 204.8 0 0 0-63.488 10.92266666A273.06666667 273.06666667 0 0 1 170.66666667 546.13333333a299.008 299.008 0 0 1 145.408-251.22133333 204.8 204.8 0 0 0 391.85066666 0A299.008 299.008 0 0 1 853.33333333 546.13333333a272.7936 272.7936 0 0 1-4.77866666 45.056A204.8 204.8 0 0 0 785.06666667 580.26666667a204.8 204.8 0 0 0-204.8 204.8 204.8 204.8 0 0 0 9.55733333 59.392A375.87626667 375.87626667 0 0 1 512 853.33333333z"  ></path></svg>