<svg xmlns="http://www.w3.org/2000/svg" viewBox="0 0 1024 1024"><path d="M512.187611 0c46.079967 0 87.039938 26.623981 106.788496 69.119951l78.116515 163.620454c10.239993 20.553128 29.403408 35.181689 51.199964 38.546258l173.348447 25.892553c45.421682 6.655995 82.505084 39.277686 96.548503 84.47994a126.829624 126.829624 0 0 1-29.98855 126.975909L862.834218 635.610975l-5.631996 6.363424a72.850234 72.850234 0 0 0-14.262847 56.246817L872.415926 877.713659a124.63534 124.63534 0 0 1-47.396538 120.978199 114.834204 114.834204 0 0 1-125.366768 9.362279l-155.501603-83.090226a66.925666 66.925666 0 0 0-63.341669 0L325.307745 1010.102136l-13.604562 6.070852a118.930201 118.930201 0 0 1-42.057113 7.826281v-73.142805a48.127966 48.127966 0 0 0 21.577128-5.631996l154.477604-84.406797 0.511999-0.292571a139.995329 139.995329 0 0 1 132.388477-0.073143h0.073143l155.42846 83.090226 0.512 0.219429a41.691399 41.691399 0 0 0 46.445681-3.510855 51.565677 51.565677 0 0 0 19.090272-50.834249l-29.330264-179.053587a145.554182 145.554182 0 0 1 39.935971-126.098195l125.43991-126.97591a53.759962 53.759962 0 0 0 12.287992-53.833104 46.811395 46.811395 0 0 0-37.449116-33.865119h-0.219429l-173.348447-25.965696h-0.219429a142.994184 142.994184 0 0 1-105.61821-78.335944l-0.292571-0.585142-0.219429-0.512-78.116515-163.547311-0.219429-0.585143A44.32454 44.32454 0 0 0 512.187611 73.142805c-16.457131 0-32.402263 9.069708-41.398827 28.013694l-77.238802 163.108455c-19.748557 42.203398-59.391958 72.923376-106.788495 79.945086l0.146285 0.073143-173.348447 25.965695h-0.219429a46.811395 46.811395 0 0 0-37.449116 33.791976 53.686819 53.686819 0 0 0 12.287991 53.906247L213.83811 585.142439c32.767977 32.694834 47.98168 79.725657 40.301686 126.244481L224.736388 890.879364a52.66282 52.66282 0 0 0 14.116562 46.299395l5.046853 4.461711 1.023999 0.731428a39.497115 39.497115 0 0 0 24.722268 8.484566v73.142805a112.63992 112.63992 0 0 1-69.705093-23.917698 125.220482 125.220482 0 0 1-47.323394-120.978199l29.403407-179.638729a71.826234 71.826234 0 0 0-19.8217-62.463955L36.174237 509.366493a126.610195 126.610195 0 0 1-32.402262-118.491344l2.340569-8.484565c14.043419-45.275396 51.199963-77.897087 96.548503-84.553082l173.42159-25.892553a67.657095 67.657095 0 0 0 51.199964-38.619401L404.667688 69.778236C425.147674 26.623981 466.107644 0 512.187611 0z"  ></path></svg>