<svg xmlns="http://www.w3.org/2000/svg" viewBox="0 0 1024 1024"><path d="M40.96 129.755429V626.834286a78.482286 78.482286 0 0 0 78.555429 78.555428h183.149714V626.834286H119.515429V129.755429h706.56v104.594285h78.482285v-104.594285A78.482286 78.482286 0 0 0 826.075429 51.2h-706.56A78.482286 78.482286 0 0 0 40.96 129.755429z m942.08 497.664V407.405714L682.130286 260.534857l-300.909715 147.017143v219.867429c0 161.206857 99.108571 282.185143 290.304 361.545142l10.386286 4.388572 10.459429-4.169143c191.414857-75.776 290.742857-196.973714 290.742857-361.764571zM451.949714 446.390857l230.253715-104.667428 230.326857 104.594285v181.101715c0 123.684571-82.578286 223.817143-230.546286 287.378285-148.626286-66.56-230.034286-166.692571-230.034286-287.378285V446.390857z m-149.211428 376.832H93.330286a39.277714 39.277714 0 0 0 0 78.482286h209.334857v-78.482286z"  ></path><path d="M667.062857 731.574857a25.673143 25.673143 0 0 1-18.066286-7.387428l-66.633142-66.194286a25.307429 25.307429 0 0 1 0-35.913143 25.746286 25.746286 0 0 1 36.205714 0l48.566857 48.201143L782.409143 555.885714a25.746286 25.746286 0 0 1 36.132571 0 25.307429 25.307429 0 0 1 0 35.84L685.202286 724.114286a25.673143 25.673143 0 0 1-18.066286 7.460571z"  ></path></svg>