<svg xmlns="http://www.w3.org/2000/svg" viewBox="0 0 1024 1024"><path d="M535.15264 57.4464l173.91104 100.9664A46.6944 46.6944 0 0 1 732.16 198.6304v201.92768a46.68416 46.68416 0 0 1-23.08096 40.22784l-173.9264 100.80256a45.83936 45.83936 0 0 1-46.2336 0L314.99264 440.6272A46.6432 46.6432 0 0 1 291.84 400.41472V198.49216a46.4384 46.4384 0 0 1 23.15264-40.16128l173.9264-100.87936a45.8752 45.8752 0 0 1 46.2336 0z m-23.1168 65.48992L358.50752 217.73312v174.22336L511.0784 481.62816a1.536 1.536 0 0 0 0.9216 0l0.9216 0.07168 152.57088-92.30336V215.17312l-153.45664-92.2368zM786.03264 482.4064l173.91104 100.9664a46.6944 46.6944 0 0 1 23.09632 40.2176v201.92768a46.6944 46.6944 0 0 1-23.08096 40.22784l-173.9264 100.80256a45.83936 45.83936 0 0 1-46.2336 0l-173.9264-100.96128a46.60224 46.60224 0 0 1-23.15264-40.21248v-201.92256a46.45376 46.45376 0 0 1 23.15264-40.16128l173.9264-100.87936a45.8752 45.8752 0 0 1 46.2336 0z m-23.1168 65.48992l-153.52832 94.7968v174.22336l152.57088 89.67168a1.48992 1.48992 0 0 0 0.9216 0l0.9216 0.07168 152.57088-92.30336v-174.22336l-153.45664-92.2368zM284.27264 482.4064l173.91104 100.9664a46.66368 46.66368 0 0 1 23.0912 40.2176v201.92768a46.65344 46.65344 0 0 1-23.07584 40.22784l-173.9264 100.80256a45.84448 45.84448 0 0 1-46.2336 0l-173.9264-100.96128A46.63808 46.63808 0 0 1 40.96 825.37472v-201.92256a46.4896 46.4896 0 0 1 23.15264-40.16128l173.9264-100.87936a45.8752 45.8752 0 0 1 46.2336 0z m-23.1168 65.48992L107.6224 642.69312v174.22336l152.57088 89.67168a1.49504 1.49504 0 0 0 0.9216 0l0.9216 0.07168 152.576-92.30336v-174.22336l-153.46176-92.2368z"  ></path></svg>