<svg xmlns="http://www.w3.org/2000/svg" viewBox="0 0 1024 1024"><path d="M329.646763 645.93919966C154.611029 549.88799966 119.726763 301.19253366 246.361429 160.56319966c147.387733-163.84 449.058133-153.463467 561.834667 42.325334 49.9712 86.766933 61.371733 185.1392 19.797333 277.162666-17.339733 38.229333-44.2368 71.68-73.045333 103.082667-4.5056 4.778667-9.557333 9.898667-14.7456 15.1552-21.162667 21.2992-45.533867 45.738667-47.445333 73.591467-4.437333 64.375467-39.253333 72.362667-91.886934 84.3776-6.826667 1.570133-13.994667 3.208533-21.435733 5.051733-34.269867 8.3968-68.539733 16.930133-102.741333 25.463467-29.969067 7.509333-59.8016 14.882133-89.770667 22.254933-42.734933 10.581333-61.098667-50.926933-18.432-61.44l251.904-62.122667c1.501867-5.666133 2.8672-11.264 4.164267-16.861866 5.9392-25.053867 11.605333-49.220267 30.037333-71.816534 10.990933-13.653333 23.005867-26.624 35.0208-39.594666 19.114667-20.753067 38.365867-41.5744 53.6576-64.853334 74.888533-114.210133 43.963733-277.367467-86.016-347.477333C512.191829 66.55999966 306.231296 120.76373366 253.188096 276.61653366c-36.4544 106.973867-0.750933 253.610667 110.592 314.709333 38.024533 20.821333 4.027733 75.502933-34.133333 54.613333z m127.453866-443.255466a197.495467 197.495467 0 0 0-150.186666 152.917333 25.6 25.6 0 0 0 19.114666 30.72c1.024 0 1.911467 0.341333 2.730667 0.682667 0.887467 0.341333 1.706667 0.682667 2.730667 0.682666 12.288 0 22.528-8.192 24.576-20.48a146.2272 146.2272 0 0 1 111.274666-113.322666 25.6 25.6 0 0 0 19.114667-30.72c-3.072-14.336-15.018667-23.552-29.354667-20.48zM386.376363 905.21599966c-42.871467 10.24-60.552533-51.2-17.749334-61.44 44.032-10.513067 88.064-20.8896 132.096-31.266133 46.2848-10.922667 92.637867-21.845333 138.922667-32.904533 42.871467-10.24 60.552533 51.2 17.749333 61.44-44.782933 10.717867-89.565867 21.230933-134.3488 31.812266-45.602133 10.717867-91.136 21.504-136.669866 32.3584z m123.6992 34.474667a92.023467 92.023467 0 0 1-44.100267-13.243733l-0.2048-0.136534c-6.144-3.549867-12.765867-7.441067-4.846933-1.6384-34.338133-25.122133-83.217067 19.6608-48.469334 45.056 56.251733 41.1648 129.2288 42.666667 188.416 4.778667 36.181333-23.1424 1.706667-78.6432-34.816-55.296-16.520533 10.581333-35.703467 19.387733-55.978666 20.48z"  ></path></svg>