<svg xmlns="http://www.w3.org/2000/svg" viewBox="0 0 1024 1024"><path d="M77.12 333.248l-0.128 472.576c0 19.904 15.232 36.288 34.624 38.144l437.952 0.128a38.4 38.4 0 0 1 0 76.672H115.328a114.944 114.944 0 0 1-114.944-114.944V116.096C0.384 52.608 51.84 1.152 115.328 1.152h791.872c63.488 0 115.008 51.456 115.008 114.944v485.376a38.336 38.336 0 0 1-76.672 0v-268.16H77.12z m868.48-76.608V116.096a38.336 38.336 0 0 0-34.688-38.144l-795.52-0.128a38.336 38.336 0 0 0-38.208 34.56V256.64h868.352z m19.84 493.888h-287.488c-26.624 0-48.256 16.384-48.256 36.544 0 20.224 21.632 36.608 48.256 36.608h287.552c26.624 0 48.192-16.384 48.192-36.608 0-20.16-21.568-36.544-48.192-36.544z m-180.288-102.592v287.488c0 26.624 16.384 48.256 36.544 48.256 20.224 0 36.608-21.632 36.608-48.256v-287.488c0-26.688-16.384-48.256-36.608-48.256-20.16 0-36.544 21.568-36.544 48.256z"  ></path></svg>