<svg xmlns="http://www.w3.org/2000/svg" viewBox="0 0 1024 1024"><path d="M255.29 344.04m8 0l224 0q8 0 8 8l0 48q0 8-8 8l-224 0q-8 0-8-8l0-48q0-8 8-8Z"  ></path><path d="M255.29 480.04m8 0l224 0q8 0 8 8l0 48q0 8-8 8l-224 0q-8 0-8-8l0-48q0-8 8-8Z"  ></path><path d="M951.29 832h-72V416a32 32 0 0 0-32-32h-176a8 8 0 0 0-8 8v40a8 8 0 0 0 8 8h152v392h-216V192a32 32 0 0 0-32-32h-400a32 32 0 0 0-32 32v640h-72a8 8 0 0 0-8 8v40a8 8 0 0 0 8 8h880a8 8 0 0 0 8-8v-40a8 8 0 0 0-8-8z m-752 0V216h352v616z"  ></path></svg>