<svg xmlns="http://www.w3.org/2000/svg" viewBox="0 0 1024 1024"><path d="M1018.8839099 698.81517009a51.69514546 51.69514546 0 0 0-34.10522179-42.13663389l-6.22151642-1.75333643a54.18375202 54.18375202 0 0 1-41.85383768-63.57258589l1.58365872-6.39119414a51.63858622 51.63858622 0 0 0-17.53336444-56.89859554c-17.98583836-13.97013231-37.78157239-25.45165805-58.82160972-34.21834027a51.46890851 51.46890851 0 0 0-53.56160039 8.48388601l-4.63785768 4.5247392a54.29687052 54.29687052 0 0 1-75.95905948 4.52473922l-4.63785768-4.63785768a51.63858622 51.63858622 0 0 0-58.19945807-13.34798067 258.58884579 258.58884579 0 0 0-59.04784669 34.04866254 51.63858622 51.63858622 0 0 0-19.28670087 50.56396067l1.58365872 6.33463489a54.01407431 54.01407431 0 0 1-34.10522178 67.92764737l-6.27807566 1.75333645a51.63858622 51.63858622 0 0 0-40.6095344 43.72029259c-3.05419897 22.62369604-3.11075821 45.47362905-0.16967772 68.04076587 2.5451658 19.34326012 15.72346875 35.63232127 34.16178103 42.08007463l6.22151641 1.75333645c29.01489018 6.22151641 47.67943941 34.50113648 41.85383768 63.57258589l-1.64021796 6.39119413c-6.78710881 20.75724113 0.22623696 43.55061489 17.53336444 56.89859554 18.04239759 13.97013231 37.78157239 25.45165805 58.82160972 34.21834028a51.63858622 51.63858622 0 0 0 53.61815961-8.48388602l4.63785769-4.5247392a54.01407431 54.01407431 0 0 1 76.01561871-4.52473922l4.63785769 4.6378577a51.63858622 51.63858622 0 0 0 58.14289885 13.34798065 258.58884579 258.58884579 0 0 0 59.04784667-34.04866254 51.63858622 51.63858622 0 0 0 19.28670087-50.56396066l-1.58365872-6.33463489a54.01407431 54.01407431 0 0 1 34.10522179-67.92764738l6.33463488-1.6967772a51.63858622 51.63858622 0 0 0 40.55297517-43.7202926c2.9410805-22.62369604 3.05419897-45.47362905 0.1131185-68.04076586z m-51.2992308 61.19709779a105.87889749 105.87889749 0 0 0-78.9566992 136.13809097 208.5339183 208.5339183 0 0 1-47.28352473 27.20499448 105.76577901 105.76577901 0 0 0-157.5174837-0.33935543 206.38466717 206.38466717 0 0 1-47.17040626-27.43123146 105.59610129 105.59610129 0 0 0-78.39110681-136.42088715c-2.3754881-18.15551607-2.31892885-36.53726912 0.1131185-54.63622596a105.65266053 105.65266053 0 0 0 78.90013995-136.13809093c14.53572471-11.08561106 30.42887119-20.24820797 47.34008397-27.2049945a105.70921978 105.70921978 0 0 0 157.46092447 0.28279619c16.91121278 7.01334578 32.74780002 16.28906115 47.17040626 27.48779069a105.76577901 105.76577901 0 0 0 78.44766603 136.42088716c2.3754881 18.09895683 2.2623696 36.53726912-0.11311848 54.63622594zM338.36313285 208.33343984a25.79101349 25.79101349 0 0 1 25.7910135-25.79101349h374.53528801a25.79101349 25.79101349 0 1 1 0 51.58202698H364.15414635a25.79101349 25.79101349 0 0 1-25.7910135-25.79101349z m174.93772967 677.74937426H132.03502493a77.48615895 77.48615895 0 0 1-77.48615896-77.48615895v-74.60163771a77.48615895 77.48615895 0 0 1 77.48615896-77.42959972h333.07736501a25.79101349 25.79101349 0 1 0 0-51.58202698H131.92190645a77.48615895 77.48615895 0 0 1-77.37304048-77.48615894v-74.65819695a77.48615895 77.48615895 0 0 1 77.42959972-77.42959971H777.82842851c30.42887119 0 58.19945808 17.98583836 70.69905016 45.69986599 3.39355441 7.74861588 5.54280553 15.83658723 6.3346349 24.20735478a25.79101349 25.79101349 0 0 0 51.41234926-4.75097617 128.95506745 128.95506745 0 0 0-10.74625563-40.60953441 127.82388266 127.82388266 0 0 0-41.45792301-50.0549275 128.50259354 128.50259354 0 0 0 52.76977104-103.5034094v-74.65819694a129.18130443 129.18130443 0 0 0-129.06818594-129.01162669H132.03502493A129.18130443 129.18130443 0 0 0 2.96683899 171.73961149v74.65819694c0 42.36287084 20.81380035 79.69196932 52.37385635 103.2206132A128.44603429 128.44603429 0 0 0 2.96683899 452.83903485v74.65819695c0.11311847 40.72265287 19.56949708 79.06981767 52.43041559 103.22061319A128.50259354 128.50259354 0 0 0 2.96683899 733.93845821v74.65819694a129.18130443 129.18130443 0 0 0 129.06818594 129.0116267h381.20927836a25.79101349 25.79101349 0 0 0 0-51.52546775z m-458.69543731-639.68500567v-74.65819694a77.48615895 77.48615895 0 0 1 77.42959972-77.42959972H777.82842851a77.48615895 77.48615895 0 0 1 77.42959972 77.48615896v74.6016377A77.48615895 77.48615895 0 0 1 777.82842851 323.82740815H132.03502493a77.48615895 77.48615895 0 0 1-77.48615896-77.48615896z m160.51512345 32.01252991c35.57576203 0 64.47753373-28.95833093 64.47753372-64.47753373 0-35.63232127-28.90177171-64.53409297-64.47753372-64.53409296-35.57576203 0-64.53409297 28.95833093-64.53409297 64.47753372 0 35.63232127 28.95833093 64.53409297 64.47753373 64.53409297z m0-77.37304047c7.12646425 0 12.89550674 5.76904249 12.89550674 12.89550674 0 14.13981003-25.79101349 14.13981003-25.79101349 0 0-7.12646425 5.76904249-12.89550674 12.89550675-12.89550674z m496.59012817 441.50142831c-23.8114401 13.57421762-41.17512681 36.19791367-48.13191333 62.66763804a103.05093548 103.05093548 0 0 0 151.23940805 116.11611996 103.33373168 103.33373168 0 0 0-24.88606564-189.13409893 103.05093548 103.05093548 0 0 0-78.27798832 10.35034093z m77.37304047 134.04539907a51.92138242 51.92138242 0 0 1-70.5293724-18.89078621 51.46890851 51.46890851 0 0 1 44.62524043-77.37304047 51.69514546 51.69514546 0 0 1 25.90413197 96.32038591z m-353.32557298-31.10758207a25.79101349 25.79101349 0 1 1 0.56559241 51.63858623l-71.60399798 1.41398099h-0.5655924a25.79101349 25.79101349 0 0 1-0.50903317-51.63858622l71.60399799-1.35742175h0.5655924z m120.75397765-279.74200158a25.79101349 25.79101349 0 0 1 0 51.63858622h-192.30141638a25.79101349 25.79101349 0 0 1 0-51.63858622h192.30141638zM150.58645569 772.73809692c0 35.51920279 28.95833093 64.47753373 64.47753373 64.47753373 35.63232127 0 64.5906522-28.95833093 64.5906522-64.47753373 0-35.63232127-28.95833093-64.53409297-64.53409296-64.53409297s-64.53409297 28.95833093-64.53409297 64.47753374z m77.42959971 0c0 14.13981003-25.79101349 14.13981003-25.79101349 0a12.89550674 12.89550674 0 0 1 25.79101349 0zM150.58645569 491.58211431c0 35.51920279 28.95833093 64.47753373 64.47753373 64.47753373 35.63232127 0 64.5906522-28.95833093 64.5906522-64.47753373 0-35.63232127-28.95833093-64.53409297-64.53409296-64.53409296s-64.53409297 28.95833093-64.53409297 64.47753373z m77.42959971 0c0 14.13981003-25.79101349 14.13981003-25.79101349 0a12.89550674 12.89550674 0 0 1 25.79101349 0z"  ></path></svg>