<svg xmlns="http://www.w3.org/2000/svg" viewBox="0 0 1024 1024"><path d="M173.4656 51.2h57.3952c6.5536 0 11.9296 5.3248 11.9296 11.776v43.6224c0 6.4512-5.376 11.776-11.9296 11.776H178.4832c-6.5024 0-15.36 5.2224-15.36 11.776l-1.1264 279.3472c-1.4848 39.8848-28.672 101.888-67.0208 103.5264 26.5216-1.1264 68.1984 44.7488 68.1984 101.2736L161.9456 888.832c0 6.5536 5.376 22.1696 12.1344 22.1696H230.5536c6.7072 0 12.288 7.68 12.288 14.4896v35.0208A12.288 12.288 0 0 1 230.5536 972.8H173.568c-37.0688-13.824-69.3248-46.08-69.3248-102.4v-205.0048c0-56.5248-30.976-102.4-69.3248-102.4H14.1312a13.824 13.824 0 0 1-13.9776-13.824V474.5216c0-7.68 6.2976-13.824 13.9776-13.824h20.6848c38.2976 0 69.3248-45.8752 69.3248-102.4v-204.8C104.0896 96.9728 135.1168 51.2 173.4656 51.2z m677.376 0c38.3488 0 69.3248 45.7728 69.3248 102.2976v204.8c0 56.5248 31.0272 102.4 69.3248 102.4h20.6848c7.68 0 13.9776 6.144 13.9776 13.824v74.6496a13.824 13.824 0 0 1-13.9776 13.824h-20.7872c-38.3488 0-69.3248 45.8752-69.3248 102.4V870.4c0 56.32-32.256 88.576-69.3248 102.4H793.7536a12.288 12.288 0 0 1-12.288-12.2368v-35.0208c0-6.7584 5.5808-14.4896 12.288-14.4896h56.4224c6.7584 0 12.1344-15.616 12.1344-22.1696l-1.1776-274.5856c0-56.5248 41.6768-102.4 68.1984-101.2736-38.2976-1.5872-65.536-63.6416-67.072-103.5264l-1.1264-279.3472c0-6.5536-8.8064-11.776-15.3088-11.776h-52.3776a11.8784 11.8784 0 0 1-11.9296-11.776V62.976c0-6.4512 5.376-11.776 11.9296-11.776h57.3952zM507.4432 686.336c19.2512 0 34.816 15.36 34.816 34.4064a34.6112 34.6112 0 0 1-34.816 34.4576c-19.2 0-34.7648-15.36-34.7648-34.4576 0-18.9952 15.5648-34.4064 34.816-34.4064z m-139.0592 0c19.2 0 34.7648 15.36 34.7648 34.4064a34.6112 34.6112 0 0 1-34.816 34.4576c-19.2 0-34.7136-15.36-34.7136-34.4576 0-18.9952 15.5136-34.4064 34.7648-34.4064z m278.1696 0c19.2 0 34.816 15.36 34.816 34.4064a34.6112 34.6112 0 0 1-34.816 34.4576c-19.2 0-34.816-15.36-34.816-34.4576 0-18.9952 15.616-34.4064 34.816-34.4064z"  ></path></svg>