<svg xmlns="http://www.w3.org/2000/svg" viewBox="0 0 1024 1024"><path d="M883.49696 51.2a61.7984 61.7984 0 0 1 43.70944 18.1248 61.88544 61.88544 0 0 1 18.10944 43.73504v797.88032c0 16.40448-6.51776 32.13824-18.10944 43.74016a61.7984 61.7984 0 0 1-43.70944 18.11968H143.73888a61.7984 61.7984 0 0 1-43.71456-18.11968A61.89056 61.89056 0 0 1 81.92 910.94016V113.05984c0-16.40448 6.51264-32.13824 18.10432-43.74016A61.80352 61.80352 0 0 1 143.73888 51.2h739.75808zM143.73888 108.8a4.26496 4.26496 0 0 0-4.25984 4.25984v797.88032a4.27008 4.27008 0 0 0 4.25984 4.25984h739.75808a4.26496 4.26496 0 0 0 4.25984-4.25984V113.05984a4.28032 4.28032 0 0 0-4.25984-4.25984H143.73888z m432.50176 637.80352a27.63776 27.63776 0 0 1 25.85088 27.59168 27.63776 27.63776 0 0 1-25.85088 27.59168H310.94784a27.63264 27.63264 0 0 1-25.84064-27.59168 27.648 27.648 0 0 1 25.84064-27.59168h265.2928z m140.04224-152.9856a27.62752 27.62752 0 0 1 25.84576 27.59168 27.63776 27.63776 0 0 1-25.84576 27.59168H310.94784a27.5712 27.5712 0 0 1-27.56608-27.59168 27.59168 27.59168 0 0 1 27.56608-27.59168H716.288z m28.85632-371.5584a28.79488 28.79488 0 0 1 26.17856 40.12032 28.71808 28.71808 0 0 1-6.33856 9.28256l-174.0032 170.2656a28.77952 28.77952 0 0 1-40.28928 0L445.17888 337.3056 330.752 447.77472a28.7744 28.7744 0 0 1-47.95904-21.48864 28.81024 28.81024 0 0 1 8.07424-19.98336l134.68672-130.00192a28.7744 28.7744 0 0 1 40.2944 0.28672l105.33376 104.25856 153.79968-150.4512-0.28672-0.11264a28.82048 28.82048 0 0 1 20.44928-8.22784z"  ></path></svg>