<svg xmlns="http://www.w3.org/2000/svg" viewBox="0 0 1024 1024"><path d="M606.26944 30.7712A40.96 40.96 0 0 1 645.12 71.68v295.936h276.48l2.10944 0.0512A40.96 40.96 0 0 1 962.56 408.576V926.72h28.16a33.28 33.28 0 1 1 0 66.56H33.28a33.28 33.28 0 1 1 0-66.56H61.44V71.68a40.96 40.96 0 0 1 38.85056-40.9088L102.4 30.72h501.76l2.10944 0.0512zM128 926.72h450.56V97.28H128v829.44z m522.24 0h245.76V434.176h-245.76V926.72z"  ></path><path d="M819.2 706.56a20.48 20.48 0 0 1 20.48 20.48v25.6a20.48 20.48 0 0 1-20.48 20.48h-92.16a20.48 20.48 0 0 1-20.48-20.48v-25.6a20.48 20.48 0 0 1 20.48-20.48h92.16zM302.08 573.44a20.48 20.48 0 0 1 20.48 20.48v25.6a20.48 20.48 0 0 1-20.48 20.48H209.92a20.48 20.48 0 0 1-20.48-20.48v-25.6a20.48 20.48 0 0 1 20.48-20.48h92.16z m189.44 0a20.48 20.48 0 0 1 20.48 20.48v25.6a20.48 20.48 0 0 1-20.48 20.48H399.36a20.48 20.48 0 0 1-20.48-20.48v-25.6a20.48 20.48 0 0 1 20.48-20.48h92.16z m327.68-35.84a20.48 20.48 0 0 1 20.48 20.48v25.6a20.48 20.48 0 0 1-20.48 20.48h-92.16a20.48 20.48 0 0 1-20.48-20.48v-25.6a20.48 20.48 0 0 1 20.48-20.48h92.16zM302.08 394.24a20.48 20.48 0 0 1 20.48 20.48v25.6a20.48 20.48 0 0 1-20.48 20.48H209.92a20.48 20.48 0 0 1-20.48-20.48v-25.6a20.48 20.48 0 0 1 20.48-20.48h92.16z m189.44 0a20.48 20.48 0 0 1 20.48 20.48v25.6a20.48 20.48 0 0 1-20.48 20.48H399.36a20.48 20.48 0 0 1-20.48-20.48v-25.6a20.48 20.48 0 0 1 20.48-20.48h92.16zM302.08 215.04a20.48 20.48 0 0 1 20.48 20.48v25.6a20.48 20.48 0 0 1-20.48 20.48H209.92a20.48 20.48 0 0 1-20.48-20.48v-25.6a20.48 20.48 0 0 1 20.48-20.48h92.16z m189.44 0a20.48 20.48 0 0 1 20.48 20.48v25.6a20.48 20.48 0 0 1-20.48 20.48H399.36a20.48 20.48 0 0 1-20.48-20.48v-25.6a20.48 20.48 0 0 1 20.48-20.48h92.16z"  ></path></svg>