<svg xmlns="http://www.w3.org/2000/svg" viewBox="0 0 1024 1024"><path d="M478.65344 46.08c66.03264 0 126.24896 51.584 169.35424 144.96768 2.33984 5.45792 4.88448 10.9824 7.2192 16.64 6.08256-0.6656 12.032-1.46432 18.048-1.9968 102.92224-9.38496 177.77664 16.70656 210.72384 73.74848 29.34272 50.90304 20.73088 118.18496-24.01792 191.67744a278.272 278.272 0 0 0-59.1616-18.0736c39.18336-58.63424 50.6368-110.61248 31.51872-143.85152-17.24416-29.75232-59.81696-45.79328-119.16288-45.79328-10.89536 0-22.39488 0.46592-34.3552 1.59744l-3.07712 0.3328a776.35584 776.35584 0 0 1 25.40032 118.8096 775.3216 775.3216 0 0 1 75.09504 65.42336 283.78112 283.78112 0 0 0-27.35104-1.32096 279.66976 279.66976 0 0 0-100.13696 18.41664 899.78368 899.78368 0 0 0-3.94752-50.17088A910.37696 910.37696 0 0 0 478.85312 320.9728a913.792 913.792 0 0 0-166.21568 95.31392c-3.2768 30.2848-5.01248 62.2336-5.01248 95.71328a896.2048 896.2048 0 0 0 4.94592 95.5136 910.20288 910.20288 0 0 0 157.77792 91.80672 282.39872 282.39872 0 0 0 1.792 71.04 787.87584 787.87584 0 0 1-109.312 34.76992c32.67584 71.59808 75.49952 113.2544 115.92192 113.28 16.16896-0.01024 32.73216-6.70208 48.87552-19.31264a281.22112 281.22112 0 0 0 41.97376 43.40736C541.57312 965.74976 510.8736 977.92 478.72 977.92c-66.0992 0-126.3104-51.51744-169.28768-144.96768a542.76096 542.76096 0 0 1-7.2192-16.64c-6.08256 0.6656-12.032 1.46432-18.04288 1.9968a458.81344 458.81344 0 0 1-39.90016 1.86368c-82.27328 0-142.22336-26.22464-170.76224-75.61216-33.01376-57.04192-18.10944-134.65088 41.64096-218.51648a489.216 489.216 0 0 1 10.55744-14.24384c-3.54304-4.6592-7.14752-9.45152-10.496-14.11072-59.74528-83.99872-74.51648-161.536-41.50272-218.58304 32.88064-56.97536 107.8784-83.13344 210.6624-73.48224 5.98016 0.54272 11.9552 1.18784 17.90976 1.93024 2.33984-5.5296 4.67968-11.04896 7.15264-16.37376C352.54272 97.73056 412.6208 46.08 478.64832 46.08zM163.8656 560.38912c-44.9792 62.8992-59.008 119.1424-38.62528 154.35264 20.31616 35.14368 76.25728 51.31776 153.4464 44.19584l3.072-0.3328c-11.1616-36.9408-19.712-76.8768-25.3952-118.8096-33.74592-25.95328-64.22016-53.38112-90.89024-81.536l-1.60768 2.12992z m161.54112 127.7952c4.33152 20.5312 9.68704 40.83712 16.04096 60.83584 19.78368-4.39296 40.09984-9.984 60.81536-16.64a1057.34144 1057.34144 0 0 1-76.85632-44.19584z m-76.45696-220.7744a636.42624 636.42624 0 0 0-45.31712 44.45696 677.42208 677.42208 0 0 0 45.312 44.52864 1019.41248 1019.41248 0 0 1 0-88.9856z m-4.67968-204.3392c-59.2128 0-101.65248 16.1024-118.83008 45.78816-20.31616 35.01056-6.28224 91.32032 38.56384 154.4192 0.39936 0.6656 1.06496 1.46432 1.60256 2.12992 26.5984-28.08832 57.1392-55.44448 90.89024-81.40288h-0.06144a776.92416 776.92416 0 0 1 25.3952-118.9376l-2.944-0.27136a350.29504 350.29504 0 0 0-34.6112-1.73056z m371.79392 11.84256c-19.85024 4.39296-40.09984 9.984-60.81536 16.64a1044.69504 1044.69504 0 0 1 76.85632 44.19584 664.93952 664.93952 0 0 0-16.04096-60.83584z m-274.61632-0.06656c-6.08256 18.96448-11.3664 39.33696-16.04096 60.83584a1036.48256 1036.48256 0 0 1 77.056-44.12928 641.18784 641.18784 0 0 0-61.01504-16.70656z m137.2672-169.12896c-40.36096 0-83.26656 41.53344-115.61472 113.01888a782.51008 782.51008 0 0 1 115.88608 37.67296c39.23456-16.04096 78.1312-28.55424 115.69152-37.40672-32.68608-71.61856-75.392-113.28512-115.8912-113.28512H478.72z"  ></path><path d="M551.59296 637.76768l189.91104 103.5776a12.76928 12.76928 0 0 0 12.19072 0.02048l191.90784-103.57248a12.78464 12.78464 0 0 0 6.71744-11.4176 12.8512 12.8512 0 0 0-6.99904-11.27424l-189.92128-96.59392a12.8 12.8 0 0 0-11.54048-0.0256l-191.8976 96.59392a12.8256 12.8256 0 0 0-0.36864 22.69184z m197.9904-93.48608l162.35008 82.57536-164.2752 88.66304-162.36544-88.5504 164.29056-82.688z m193.54112 164.94592l-37.9648-19.30752-27.40224 14.80704 31.98464 16.26112-164.28544 88.66304-162.36544-88.5504 34.10432-17.16224-27.33056-14.91456-40.09984 20.17792a12.82048 12.82048 0 0 0-0.36864 22.69696l189.90592 103.5776a12.78464 12.78464 0 0 0 12.19072 0.03072l191.90784-103.58272a12.76928 12.76928 0 0 0 6.71744-11.42272 12.84096 12.84096 0 0 0-6.99392-11.27424z m0 89.6768l-35.968-17.69984-27.40224 14.7968 29.9776 14.66368-164.2752 88.66304-162.36544-88.5504 31.70816-14.3616-27.33056-14.91456-37.69856 17.37216a12.8256 12.8256 0 0 0-0.37376 22.70208l189.90592 103.5776a12.78464 12.78464 0 0 0 12.19072 0.0256l191.90784-103.5776a12.78464 12.78464 0 0 0 6.71744-11.42784 12.84608 12.84608 0 0 0-6.99392-11.26912z"  ></path><path d="M947.64544 789.71392l0.07168 0.03584 0.07168 0.04096a23.0912 23.0912 0 0 1 12.5696 20.24448 23.0144 23.0144 0 0 1-12.09856 20.57216l0.00512 0.00512-191.90784 103.57248a23.0144 23.0144 0 0 1-10.93632 2.77504 23.08096 23.08096 0 0 1-11.01312-2.81088l-0.00512-0.00512-189.91104-103.5776a23.07072 23.07072 0 0 1-12.0064-20.608v-0.01536a23.07072 23.07072 0 0 1 12.67712-20.20864l0.15872-0.08192 0.16384-0.0768 42.368-19.5328 49.88416 27.22816-31.70304 14.35648 139.44832 76.04736 141.85984-76.56448-29.97248-14.65856 49.57184-26.76736 40.704 20.02944z m-67.8912 6.28736l29.98272 14.66368-164.2752 88.66304-162.36544-88.55552 31.69792-14.35648-27.33056-14.91456-37.69344 17.37216a12.82048 12.82048 0 1 0-0.37376 22.70208l189.90592 103.5776c1.66912 0.91136 3.48672 1.42848 5.32992 1.54112l0.78848 0.0256a12.7488 12.7488 0 0 0 6.0672-1.54112l191.91296-103.5776a12.77952 12.77952 0 0 0 6.69696-10.53696l0.02048-0.89088a12.8512 12.8512 0 0 0-6.99392-11.26912l-35.968-17.69984-27.40224 14.7968z m-240.50688-91.69408l-34.10944 17.15712 140.34432 76.53376 142.19264-76.73856-31.96416-16.26112 49.31072-26.63936 42.74176 21.73952 0.01536 0.01024a23.08096 23.08096 0 0 1 12.57984 20.2496 23.00928 23.00928 0 0 1-12.10368 20.58752l-0.00512-0.00512-191.89248 103.56736a23.0144 23.0144 0 0 1-21.94944-0.03072l-0.00512-0.00512-189.91104-103.58272a23.0656 23.0656 0 0 1-12.0064-20.60288v-0.01536a23.08608 23.08608 0 0 1 12.66176-20.21376l0.01536-0.00512 44.89728-22.59456 49.18784 26.84928z m-89.48224 4.89472a12.82048 12.82048 0 0 0-0.36864 22.69696l189.90592 103.58272a12.8 12.8 0 0 0 5.32992 1.536l0.78848 0.0256c2.08896 0 4.1728-0.512 6.0672-1.536l191.91296-103.58272a12.76928 12.76928 0 0 0 6.69696-10.53696l0.02048-0.88576a12.8512 12.8512 0 0 0-6.99392-11.27424l-37.9648-19.30752-27.39712 14.80704 31.97952 16.26112-164.28032 88.66816-162.36544-88.5504 34.0992-17.16736-27.33056-14.91456-40.09984 20.17792z m189.5168-199.87456a23.04 23.04 0 0 1 19.51744-0.53248l1.23392 0.57856 0.01024 0.00512 189.92128 96.59392 0.01536 0.01024a23.07584 23.07584 0 0 1 12.57984 20.25472l-0.03584 1.59744a23.0144 23.0144 0 0 1-12.07296 18.97984l-0.00512-0.00512-191.88736 103.57248-0.00512-0.00512a22.9632 22.9632 0 0 1-21.94432-0.03072l-0.01024-0.01024-189.91104-103.5776a23.05536 23.05536 0 0 1 0.67072-40.82688l191.8976-96.59904 0.0256-0.00512z m16.11776 9.18016a12.8 12.8 0 0 0-11.54048-0.0256l-191.89248 96.59392a12.8256 12.8256 0 0 0-0.37376 22.69184l189.90592 103.58272c1.67424 0.90624 3.49184 1.41824 5.33504 1.536l0.7936 0.0256c2.08384 0 4.16768-0.512 6.0672-1.54112l191.90784-103.5776a12.78464 12.78464 0 0 0 6.71744-11.4176 12.83072 12.83072 0 0 0-6.99392-11.26912l-189.9264-96.59904z m156.53376 108.35456l-164.2752 88.65792-162.36544-88.5504 164.28544-82.688 162.3552 82.58048z m-304.5888 0.46592l140.33408 76.544 142.19776-76.7488-140.32384-71.3728-142.208 71.5776z"  ></path></svg>