<svg xmlns="http://www.w3.org/2000/svg" viewBox="0 0 1024 1024"><path d="M846.409143 0c46.08 0 83.529143 37.449143 83.529143 83.602286v856.795428c0 46.153143-37.376 83.602286-83.529143 83.602286h-689.737143A83.602286 83.602286 0 0 1 73.142857 940.397714V83.602286C73.142857 37.449143 110.592 0 156.745143 0h689.664z m-585.142857 62.683429h-104.594286a20.918857 20.918857 0 0 0-20.845714 20.918857v856.795428c0 11.556571 9.362286 20.918857 20.918857 20.918857h689.664a20.918857 20.918857 0 0 0 20.845714-20.918857V83.602286a20.918857 20.918857 0 0 0-20.918857-20.918857H512v232.594285a20.918857 20.918857 0 0 1-32.475429 17.408l-81.334857-54.198857a20.918857 20.918857 0 0 0-23.186285 0l-81.261715 54.125714a20.918857 20.918857 0 0 1-32.548571-17.334857V62.683429z m491.081143 585.142857a31.378286 31.378286 0 0 1 0 62.683428H271.652571a31.378286 31.378286 0 0 1 0-62.683428zM585.142857 459.776a31.378286 31.378286 0 1 1 0 62.683429H271.652571a31.378286 31.378286 0 1 1 0-62.683429H585.142857zM449.316571 62.610286H323.876571V217.234286l16.384-10.825143a83.602286 83.602286 0 0 1 92.745143 0l16.310857 10.825143V62.683429z"  ></path></svg>