<svg xmlns="http://www.w3.org/2000/svg" viewBox="0 0 1024 1024"><path d="M1010.30475 943.922L804.99475 738.42c144.127-177.853 133.567-440.441-31.807-605.943-176.509-176.637-464.249-176.637-640.758 0-176.573 176.637-176.573 464.633 0 641.27a451.13 451.13 0 0 0 320.06 132.478 450.233 450.233 0 0 0 285.435-101.31l205.309 205.5a46.143 46.143 0 0 0 33.535 13.569 49.727 49.727 0 0 0 33.536-13.568 47.295 47.295 0 0 0 0-66.56z m-811.38-237.373a359.867 359.867 0 0 1 0-508.152A359.547 359.547 0 0 1 452.48875 93.631a357.115 357.115 0 0 1 253.628 104.766 359.867 359.867 0 0 1 0 508.152c-139.517 140.158-367.162 140.158-507.192 0z"  ></path></svg>