<svg xmlns="http://www.w3.org/2000/svg" viewBox="0 0 1024 1024"><path d="M832.51 111.85h-632a32 32 0 0 0-32 32v728a32 32 0 0 0 32 32h632a32 32 0 0 0 32-32v-728a32 32 0 0 0-32-32z m-608 736v-680h584v680z"  ></path><path d="M744.51 271.85h-456a8 8 0 0 0-8 8v40a8 8 0 0 0 8 8h456a8 8 0 0 0 8-8v-40a8 8 0 0 0-8-8zM744.51 423.85h-456a8 8 0 0 0-8 8v40a8 8 0 0 0 8 8h456a8 8 0 0 0 8-8v-40a8 8 0 0 0-8-8zM568.51 583.85h-280a8 8 0 0 0-8 8v40a8 8 0 0 0 8 8h280a8 8 0 0 0 8-8v-40a8 8 0 0 0-8-8z"  ></path></svg>