<?xml version="1.0" encoding="UTF-8"?>
<svg width="16px" height="16px" viewBox="0 0 16 16" version="1.1" xmlns="http://www.w3.org/2000/svg" xmlns:xlink="http://www.w3.org/1999/xlink">
    <title>编组 13</title>
    <g id="模型参数量和上下文" stroke="none" stroke-width="1" fill="none" fill-rule="evenodd">
        <g id="admin大模型接入" transform="translate(-1006.000000, -596.000000)">
            <g id="编组-16" transform="translate(930.000000, 340.000000)">
                <g id="编组-4备份-7" transform="translate(64.000000, 244.000000)">
                    <g id="编组-13" transform="translate(12.000000, 12.000000)">
                        <rect id="矩形" x="0" y="0" width="16" height="16"></rect>
                        <g id="logo-collapse.d00ef130" transform="translate(0.000000, 1.000000)">
                            <path d="M2.01008197,8.83632414 C2.01008197,7.87402583 2.57857564,6.90846086 3.69146099,6.14661661 C4.79999277,5.38803903 6.37725446,4.89085355 8.16162233,4.89085355 C9.9459902,4.89085355 11.5232519,5.38803903 12.6317777,6.14661661 C13.1926334,6.53083509 13.6153984,6.96714193 13.896925,7.42780023 C14.2386769,6.79662234 14.3865675,6.12553182 14.306564,5.45669826 C14.3010998,5.41244988 14.306564,5.36814211 14.318621,5.32716039 C14.0907864,5.12011361 13.8454306,4.92631165 13.5858203,4.74913995 C12.161854,3.77353743 10.2417119,3.19774425 8.16269142,3.19774425 C6.08373032,3.19774425 4.16355853,3.77353743 2.73959223,4.74913995 C1.31781756,5.7224855 0.321041149,7.1531633 0.321041149,8.83632414 C0.321041149,10.519485 1.31781756,11.9501628 2.7374006,12.9224392 C4.1613669,13.8979824 6.08153274,14.4738052 8.16055324,14.4738052 C10.2395143,14.4738052 12.1607849,13.8979824 13.5836227,12.9224392 C15.0032533,11.9501628 16,10.5206135 16,8.83632414 C16,7.76551336 15.5968943,6.79769143 14.9386328,5.9849467 C14.9046596,6.73461521 14.6406542,7.45434925 14.2025061,8.10993799 C14.2748478,8.3501859 14.3109592,8.59381926 14.3109592,8.83632414 C14.3109592,9.79862245 13.7425011,10.7641874 12.6295802,11.5260317 C11.5211137,12.2846092 9.94379262,12.7817947 8.15942476,12.7817947 C6.37511629,12.7817947 4.7977952,12.2846092 3.68926936,11.5260317 C2.5774828,10.7641874 2.00789628,9.79862245 2.00789628,8.83632414 L2.01008197,8.83632414 Z" id="Vector" fill="#3762FF"></path>
                            <path d="M1.99719352,6.87104277 C1.54700041,8.15115729 1.65324997,9.30606969 2.23926482,10.1343756 C2.8252856,10.9626815 3.87792782,11.4465628 5.23291416,11.4465628 C6.5856673,11.4465628 8.16298839,10.9549009 9.61213766,9.92732881 C11.0612869,8.89969732 12.0482337,7.57420594 12.4973102,6.29634838 C12.9475152,5.01623386 12.8412597,3.86132146 12.2552211,3.03300368 C11.6692418,2.20471559 10.6166056,1.72080462 9.26159546,1.72080462 C7.90884233,1.72080462 6.33152124,2.21246648 4.88237197,3.24008015 C3.43321082,4.26769382 2.44628784,5.59318521 1.99719352,6.87104277 Z M0.377156409,6.29967443 C0.958793931,4.64864564 2.18559658,3.04408062 3.88997288,1.8359692 C5.59325633,0.626753051 7.51232933,0 9.26052638,0 C11.0065258,0 12.6627219,0.632288553 13.657271,2.0386149 C14.6508105,3.4449353 14.6979098,5.21888549 14.1173354,6.86884519 C13.5356919,8.51987398 12.308913,10.1243974 10.6045486,11.3325267 C8.90012481,12.5406559 6.98218029,13.1673793 5.23291416,13.1685077 C3.48687905,13.1685077 1.83070082,12.5362014 0.836110102,11.129875 C-0.158474677,9.72354869 -0.204481113,7.94850565 0.376063563,6.29967443 L0.377156409,6.29967443 Z" id="Vector_2" fill="#1041F3"></path>
                        </g>
                    </g>
                </g>
            </g>
        </g>
    </g>
</svg>