<?xml version="1.0" encoding="UTF-8"?>
<svg width="22px" height="22px" viewBox="0 0 22 22" version="1.1" xmlns="http://www.w3.org/2000/svg" xmlns:xlink="http://www.w3.org/1999/xlink">
    <title>10001</title>
    <defs>
        <linearGradient x1="54.5899109%" y1="54.0677329%" x2="80.6014946%" y2="81.3950005%" id="linearGradient-1">
            <stop stop-color="#7896FF" offset="0%"></stop>
            <stop stop-color="#475AFF" offset="100%"></stop>
        </linearGradient>
        <linearGradient x1="50%" y1="0%" x2="50%" y2="100%" id="linearGradient-2">
            <stop stop-color="#4A73FF" offset="0%"></stop>
            <stop stop-color="#475AFF" offset="45.8576%"></stop>
            <stop stop-color="#4B73FF" offset="100%"></stop>
        </linearGradient>
    </defs>
    <g id="大模型接入-增加其它协议" stroke="none" stroke-width="1" fill="none" fill-rule="evenodd">
        <g id="OpenAI" transform="translate(-1187.000000, -823.000000)">
            <g id="编组" transform="translate(640.000000, 754.000000)">
                <g id="编组-10" transform="translate(16.000000, 58.000000)">
                    <g id="编组-5备份-9" transform="translate(520.000000, 0.000000)">
                        <g id="10001" transform="translate(11.000000, 11.000000)">
                            <path d="M21.8715112,15.0120395 C21.6784766,14.1183291 21.2782872,13.3017062 20.7236931,12.6149497 L20.7189576,12.6102142 C20.6489876,12.9469772 20.5628022,13.2777993 20.4612912,13.6018483 L21.8715112,15.0120395 Z M18.744443,16.8821731 L21.1365104,19.2742405 C21.2991232,19.0125561 21.4413592,18.7368663 21.5610085,18.4494382 L19.263105,16.1515347 C19.1004922,16.4026863 18.927404,16.6464333 18.744443,16.8821731 Z M17.5468021,18.1831045 C17.763801,17.9838994 17.9723908,17.775654 18.1719402,17.5589421 L20.6075739,19.9946044 C20.4152281,20.2180895 20.2060643,20.4266506 19.982034,20.6183363 L17.5468021,18.1831045 Z M16.3664959,22 L14.5002942,20.1337696 C14.7901043,20.0127427 15.0733135,19.8790592 15.3492043,19.733408 L17.4820842,21.8662878 C17.1217013,21.9457288 16.7486906,21.9914762 16.3664959,22 Z M18.4329358,21.5678391 L16.137357,19.2722889 C16.388853,19.1100205 16.6329445,18.937248 16.8690287,18.7546314 L19.2598333,21.145436 C18.9974027,21.3074175 18.7210527,21.4489647 18.4329358,21.5678391 Z M14.9821631,21.8649676 C14.097694,21.6690057 13.2895949,21.2699069 12.6093246,20.7191585 C12.9402328,20.6504226 13.265401,20.5660453 13.5840544,20.466859 L14.9821631,21.8649676 Z M19.7253433,15.3644726 C19.8713677,15.0889549 20.005453,14.8061475 20.1268816,14.5167104 L21.9994547,16.3892835 C21.9894385,16.7702728 21.9424857,17.1420494 21.8620403,17.5011695 L19.7253433,15.3644726 Z" id="形状" fill="url(#linearGradient-1)"></path>
                            <path d="M20.7198186,12.6099559 C20.8633748,11.9189519 20.9388265,11.202979 20.9388265,10.4694132 C20.9388265,4.68730179 16.251496,0 10.4694132,0 C4.68730179,0 0,4.68730179 0,10.4694132 C0,16.251496 4.68730179,20.9388265 10.4694132,20.9388265 C11.2030077,20.9388265 11.9189519,20.8633748 12.6099846,20.7197899 C11.3042031,19.6626631 10.4694132,18.0466945 10.4694132,16.2357685 C10.4694132,13.0510712 13.0510999,10.4693845 16.2357685,10.4693845 C18.0466945,10.4693845 19.6626631,11.3042031 20.7198186,12.6099559 Z" id="路径" fill="url(#linearGradient-2)" fill-rule="nonzero"></path>
                        </g>
                    </g>
                </g>
            </g>
        </g>
    </g>
</svg>