<?xml version="1.0" standalone="no"?><!DOCTYPE svg PUBLIC "-//W3C//DTD SVG 1.1//EN" "http://www.w3.org/Graphics/SVG/1.1/DTD/svg11.dtd"><svg t="1773025885242" class="icon" viewBox="0 0 1024 1024" version="1.1" xmlns="http://www.w3.org/2000/svg" p-id="6302" xmlns:xlink="http://www.w3.org/1999/xlink" fill="currentColor" width="1em" height="1em"><path d="M885.504 315.328a32 32 0 0 0-15.936-27.712L528 89.984a32 32 0 0 0-32 0L154.432 287.616a32 32 0 0 0-15.936 27.712v393.344a32 32 0 0 0 16 27.712l341.504 197.632a32 32 0 0 0 32 0l341.568-197.632a32 32 0 0 0 16-27.712V315.328zM512 154.688l277.632 160.64L512 475.968l-277.632-160.64z m-309.568 535.552V370.752L480 531.2v319.424zM544 850.816V531.2l277.568-160.64v319.488z" p-id="6303"></path></svg>