<svg fill="currentColor" viewBox="0 0 144 144" focusable="false" class="" data-icon="networkloadfailed" width="1em" height="1em" aria-hidden="true"><g clip-path="url(#clip0_0_420)"><path d="M0 0h144v144H0z" fill="#fff"></path><path clip-rule="evenodd" d="M98.4 23.98a.9.9 0 00-1.16-.54 7.14 7.14 0 00-4.25 9.1.9.9 0 001.17.55c.47-.17.71-.7.54-1.17a5.31 5.31 0 013.16-6.77c.47-.17.72-.7.55-1.17zm.92 7.17c-.53-.25-.77-.9-.51-1.44a1.08 1.08 0 111.95.9c-.26.55-.9.79-1.44.54zm1.7-3.62a2.9 2.9 0 00-3.86 1.41 2.9 2.9 0 001.39 3.87 2.9 2.9 0 003.85-1.42 2.9 2.9 0 00-1.39-3.86z" fill-rule="evenodd" fill="#779EEA"></path><path clip-rule="evenodd" d="M106.5 27.93a.9.9 0 00-1.18-.54.94.94 0 00-.55 1.19 5.41 5.41 0 01-3.2 6.86.94.94 0 00-.56 1.2.9.9 0 001.17.54 7.29 7.29 0 004.31-9.24zm-10.2-6.67a.94.94 0 00.55-1.19.9.9 0 00-1.17-.55 11.64 11.64 0 00-6.9 14.77c.18.5.7.74 1.18.56a.94.94 0 00.56-1.2 9.67 9.67 0 01.36-7.37 9.68 9.68 0 015.42-5.02z" fill-rule="evenodd" fill="#779EEA"></path><path clip-rule="evenodd" d="M111.25 31c.09-1.54-.12-3.07-.62-4.5a.88.88 0 00-1.15-.54.95.95 0 00-.56 1.19c.83 2.4.7 5.02-.4 7.36a9.76 9.76 0 01-5.38 5.03.95.95 0 00-.56 1.2c.17.47.69.71 1.16.53a11.8 11.8 0 007.5-10.28z" fill-rule="evenodd" fill="#779EEA"></path><path clip-rule="evenodd" d="M144.57 136H-.57c7.92-20.66 37.4-36 72.57-36 35.16 0 64.65 15.34 72.57 36z" fill-rule="evenodd" fill="url(#paint0_linear_0_420)"></path><ellipse cx="63.51" cy="105.97" fill="#F8FAFE" rx="8.66" ry="8.12" stroke-width="2" stroke="#779EEA" transform="rotate(26 63.5 105.97)"></ellipse><ellipse cx="69.67" cy="93.33" fill="#F8FAFE" rx="40.05" ry="13.53" stroke-width="2" stroke="#779EEA" transform="rotate(26 69.67 93.33)"></ellipse><ellipse cx="72.52" cy="87.49" fill="#fff" rx="40.05" ry="13.53" stroke-width="2" stroke="#779EEA" transform="rotate(26 72.52 87.5)"></ellipse><path clip-rule="evenodd" d="M77.06 91.25l-9.68-4.88 27.68-45.96-18 50.84z" fill-rule="evenodd" fill="#779EEA"></path><path d="M36.5 21v34M42.25 21v23M50.2 21v27M58.2 21v33M72.4 21v33M65.2 21v42" opacity=".3" stroke-width="2.5" stroke="#779EEA"></path></g><defs><linearGradient gradientUnits="userSpaceOnUse" id="paint0_linear_0_420" x1="-12.75" x2="-12.75" y1="101.39" y2="143.76"><stop stop-color="#779EEA" stop-opacity=".4"></stop><stop offset="1" stop-color="#fff" stop-opacity=".01"></stop></linearGradient><clipPath id="clip0_0_420"><path d="M0 0h144v144H0z" fill="#fff"></path></clipPath></defs></svg>