<svg width="56" height="56" viewBox="0 0 56 56" fill="none" xmlns="http://www.w3.org/2000/svg">
<path d="M0 12C0 5.37258 5.37258 0 12 0H44C50.6274 0 56 5.37258 56 12V44C56 50.6274 50.6274 56 44 56H12C5.37258 56 0 50.6274 0 44V12Z" fill="#7342E4"/>
<path d="M29.47 18.9251C29.47 19.3602 29.2809 19.7513 28.98 20.0208V21.8651H33.88C34.6597 21.8651 35.4075 22.1749 35.9589 22.7262C36.5102 23.2776 36.82 24.0254 36.82 24.8051V34.6051C36.82 35.3848 36.5102 36.1326 35.9589 36.684C35.4075 37.2354 34.6597 37.5451 33.88 37.5451H22.12C21.3403 37.5451 20.5925 37.2354 20.0411 36.684C19.4897 36.1326 19.18 35.3848 19.18 34.6051V24.8051C19.18 24.0254 19.4897 23.2776 20.0411 22.7262C20.5925 22.1749 21.3403 21.8651 22.12 21.8651H27.02V20.0208C26.8372 19.8573 26.6983 19.6507 26.6157 19.4198C26.5332 19.1889 26.5098 18.941 26.5475 18.6987C26.5853 18.4564 26.683 18.2274 26.8319 18.0326C26.9808 17.8378 27.176 17.6833 27.3999 17.5832C27.6237 17.483 27.8691 17.4405 28.1135 17.4595C28.358 17.4784 28.5939 17.5582 28.7996 17.6916C29.0054 17.825 29.1745 18.0077 29.2916 18.2231C29.4087 18.4386 29.47 18.6799 29.47 18.9251ZM16.24 26.7651H18.2V32.6451H16.24V26.7651ZM39.76 26.7651H37.8V32.6451H39.76V26.7651ZM25.06 31.1751C25.4499 31.1751 25.8238 31.0202 26.0994 30.7446C26.3751 30.4689 26.53 30.095 26.53 29.7051C26.53 29.3152 26.3751 28.9413 26.0994 28.6657C25.8238 28.39 25.4499 28.2351 25.06 28.2351C24.6701 28.2351 24.2962 28.39 24.0205 28.6657C23.7449 28.9413 23.59 29.3152 23.59 29.7051C23.59 30.095 23.7449 30.4689 24.0205 30.7446C24.2962 31.0202 24.6701 31.1751 25.06 31.1751ZM32.41 29.7051C32.41 29.3152 32.2551 28.9413 31.9794 28.6657C31.7038 28.39 31.3299 28.2351 30.94 28.2351C30.5501 28.2351 30.1762 28.39 29.9005 28.6657C29.6249 28.9413 29.47 29.3152 29.47 29.7051C29.47 30.095 29.6249 30.4689 29.9005 30.7446C30.1762 31.0202 30.5501 31.1751 30.94 31.1751C31.3299 31.1751 31.7038 31.0202 31.9794 30.7446C32.2551 30.4689 32.41 30.095 32.41 29.7051Z" fill="white"/>
<path d="M29.47 18.9251C29.47 19.3602 29.2809 19.7513 28.98 20.0208V21.8651H33.88C34.6597 21.8651 35.4075 22.1749 35.9589 22.7262C36.5102 23.2776 36.82 24.0254 36.82 24.8051V34.6051C36.82 35.3848 36.5102 36.1326 35.9589 36.684C35.4075 37.2354 34.6597 37.5451 33.88 37.5451H22.12C21.3403 37.5451 20.5925 37.2354 20.0411 36.684C19.4897 36.1326 19.18 35.3848 19.18 34.6051V24.8051C19.18 24.0254 19.4897 23.2776 20.0411 22.7262C20.5925 22.1749 21.3403 21.8651 22.12 21.8651H27.02V20.0208C26.8372 19.8573 26.6983 19.6507 26.6157 19.4198C26.5332 19.1889 26.5098 18.941 26.5475 18.6987C26.5853 18.4564 26.683 18.2274 26.8319 18.0326C26.9808 17.8378 27.176 17.6833 27.3999 17.5832C27.6237 17.483 27.8691 17.4405 28.1135 17.4595C28.358 17.4784 28.5939 17.5582 28.7996 17.6916C29.0054 17.825 29.1745 18.0077 29.2916 18.2231C29.4087 18.4386 29.47 18.6799 29.47 18.9251ZM16.24 26.7651H18.2V32.6451H16.24V26.7651ZM39.76 26.7651H37.8V32.6451H39.76V26.7651ZM25.06 31.1751C25.4499 31.1751 25.8238 31.0202 26.0994 30.7446C26.3751 30.4689 26.53 30.095 26.53 29.7051C26.53 29.3152 26.3751 28.9413 26.0994 28.6657C25.8238 28.39 25.4499 28.2351 25.06 28.2351C24.6701 28.2351 24.2962 28.39 24.0205 28.6657C23.7449 28.9413 23.59 29.3152 23.59 29.7051C23.59 30.095 23.7449 30.4689 24.0205 30.7446C24.2962 31.0202 24.6701 31.1751 25.06 31.1751ZM32.41 29.7051C32.41 29.3152 32.2551 28.9413 31.9794 28.6657C31.7038 28.39 31.3299 28.2351 30.94 28.2351C30.5501 28.2351 30.1762 28.39 29.9005 28.6657C29.6249 28.9413 29.47 29.3152 29.47 29.7051C29.47 30.095 29.6249 30.4689 29.9005 30.7446C30.1762 31.0202 30.5501 31.1751 30.94 31.1751C31.3299 31.1751 31.7038 31.0202 31.9794 30.7446C32.2551 30.4689 32.41 30.095 32.41 29.7051Z" fill="white"/>
</svg>
