<svg width="56" height="56" viewBox="0 0 56 56" fill="none" xmlns="http://www.w3.org/2000/svg">
<path d="M0 12C0 5.37258 5.37258 0 12 0H44C50.6274 0 56 5.37258 56 12V44C56 50.6274 50.6274 56 44 56H12C5.37258 56 0 50.6274 0 44V12Z" fill="#3661E3"/>
<path d="M27.5 28C28.5933 28 29.5933 27.7344 30.5 27.2033C31.4067 26.6722 32.1411 25.9378 32.7033 25C33.2344 24.0622 33.5 23.0622 33.5 22C33.5 20.9378 33.2344 19.9378 32.7033 19C32.1411 18.0622 31.4067 17.3278 30.5 16.7967C29.5933 16.2656 28.5933 16 27.5 16C26.4067 16 25.4067 16.2656 24.5 16.7967C23.5933 17.3278 22.8589 18.0622 22.2967 19C21.7656 19.9378 21.5 20.9378 21.5 22C21.5 23.0622 21.7656 24.0622 22.2967 25C22.8589 25.9378 23.5933 26.6722 24.5 27.2033C25.4067 27.7344 26.4067 28 27.5 28ZM23 30.5767C21.2178 31.1411 19.78 32.1411 18.6867 33.5767C17.5933 34.9833 17.0311 36.6556 17 38.5933C17 39 17.1411 39.3278 17.4233 39.5767C17.6722 39.8589 18 40 18.4067 40H36.5933C37 40 37.3278 39.8589 37.5767 39.5767C37.8589 39.3278 38 39 38 38.5933C37.9689 36.6556 37.4067 34.9833 36.3133 33.5767C35.22 32.1411 33.7822 31.1411 32 30.5767V32.97C32.6556 33.1567 33.1867 33.5 33.5933 34C34.0311 34.5311 34.25 35.1567 34.25 35.8767V37.75C34.2189 38.2189 33.9689 38.4689 33.5 38.5H32.75C32.2811 38.4689 32.0311 38.2189 32 37.75C32.0311 37.2811 32.2811 37.0311 32.75 37V35.8767C32.75 35.4389 32.6089 35.0789 32.3267 34.7967C32.0467 34.5167 31.6878 34.3767 31.25 34.3767C30.8122 34.3767 30.4533 34.5167 30.1733 34.7967C29.8911 35.0789 29.75 35.4389 29.75 35.8767V37C30.2189 37.0311 30.4689 37.2811 30.5 37.75C30.4689 38.2189 30.2189 38.4689 29.75 38.5H29C28.5311 38.4689 28.2811 38.2189 28.25 37.75V35.8767C28.25 35.1567 28.4689 34.5311 28.9067 34C29.3133 33.5 29.8444 33.1567 30.5 32.97V30.2967C30.2178 30.2656 29.9367 30.25 29.6567 30.25H25.3433C25.0633 30.25 24.7822 30.2656 24.5 30.2967V33.3433C25.0622 33.5322 25.5156 33.8444 25.86 34.28C26.2044 34.7489 26.3767 35.2811 26.3767 35.8767C26.3433 36.6256 26.0933 37.25 25.6267 37.75C25.1267 38.2189 24.5011 38.4689 23.75 38.5C23.0011 38.4689 22.3767 38.2189 21.8767 37.75C21.4078 37.25 21.1578 36.6256 21.1267 35.8767C21.1267 35.2811 21.2978 34.7489 21.64 34.28C21.9844 33.8444 22.4378 33.5322 23 33.3433V30.5767ZM23.75 37C24.4367 36.9378 24.8122 36.5633 24.8767 35.8767C24.8122 35.1878 24.4367 34.8122 23.75 34.75C23.0633 34.8122 22.6889 35.1878 22.6267 35.8767C22.6889 36.5633 23.0633 36.9378 23.75 37Z" fill="white"/>
</svg>
