<svg width="56" height="56" viewBox="0 0 56 56" fill="none" xmlns="http://www.w3.org/2000/svg">
<path d="M0 12C0 5.37258 5.37258 0 12 0H44C50.6274 0 56 5.37258 56 12V44C56 50.6274 50.6274 56 44 56H12C5.37258 56 0 50.6274 0 44V12Z" fill="#4D47DC"/>
<g clip-path="url(#clip0_1201_2203)">
<path d="M27.1295 17.1789C27.5484 16.5667 28.4526 16.5667 28.8716 17.1789L32.645 22.6933L39.0614 24.5743C39.7738 24.7831 40.0532 25.642 39.5997 26.2292L35.5145 31.5181L35.7074 38.1945C35.7288 38.9358 34.9973 39.4667 34.298 39.2173L28.0005 36.9717L21.7019 39.2174C21.0026 39.4667 20.2711 38.9358 20.2926 38.1945L20.4854 31.5181L16.4003 26.2292C15.9468 25.6421 16.2262 24.7831 16.9386 24.5743L23.3561 22.6933L27.1295 17.1789ZM25.8025 29.1887H23.6044C23.6044 30.3342 24.0526 31.4344 24.8534 32.2545C25.6541 33.0746 26.7441 33.5497 27.8906 33.5783C29.0371 33.607 30.1495 33.187 30.9903 32.4079C31.8311 31.6288 32.3338 30.5523 32.3911 29.4082L32.3966 29.1887H30.1986C30.2011 29.7584 29.9819 30.3068 29.5871 30.718C29.1923 31.1292 28.653 31.3711 28.083 31.3924C27.513 31.4138 26.9571 31.213 26.5325 30.8325C26.108 30.4521 25.8482 29.9216 25.808 29.3533L25.8025 29.1887Z" fill="white"/>
</g>
<defs>
<clipPath id="clip0_1201_2203">
<rect width="24" height="24" fill="white" transform="translate(16 16)"/>
</clipPath>
</defs>
</svg>
