<svg width="56" height="56" viewBox="0 0 56 56" fill="none" xmlns="http://www.w3.org/2000/svg">
<path d="M0 12C0 5.37258 5.37258 0 12 0H44C50.6274 0 56 5.37258 56 12V44C56 50.6274 50.6274 56 44 56H12C5.37258 56 0 50.6274 0 44V12Z" fill="#42946C"/>
<path d="M17.6236 37.7405C19.6937 37.0915 21.8656 36.7224 22.2643 36.9388C24.3535 38.2251 26.8105 38.782 29.2501 38.522C31.6897 38.2621 33.9742 37.2001 35.7455 35.5024C37.5167 33.8048 38.6747 31.5674 39.0379 29.141C39.401 26.7146 38.9489 24.2363 37.7524 22.0944C36.5558 19.9525 34.6824 18.2681 32.4258 17.3053C30.1692 16.3424 27.6569 16.1555 25.2826 16.7737C22.9084 17.392 20.8063 18.7805 19.3059 20.7217C17.8055 22.6629 16.9915 25.047 16.9916 27.5004C16.9871 29.1474 17.3539 30.7742 18.0648 32.2599L16.8431 37.0151C16.839 37.0574 16.839 37.1001 16.8431 37.1424V37.2018C16.8515 37.3538 16.9184 37.4967 17.0298 37.6005C17.1071 37.675 17.203 37.7273 17.3075 37.7519C17.412 37.7766 17.5212 37.7726 17.6236 37.7405ZM22.4891 26.8133C22.6006 26.8133 22.7109 26.8352 22.8138 26.8778C22.9167 26.9205 23.0103 26.983 23.089 27.0617C23.1678 27.1405 23.2303 27.234 23.273 27.337C23.3156 27.4399 23.3375 27.5502 23.3375 27.6616C23.3736 28.8408 23.8674 29.9597 24.7143 30.7811C25.5611 31.6024 26.6945 32.0618 27.8743 32.0618C29.0541 32.0618 30.1875 31.6024 31.0343 30.7811C31.8812 29.9597 32.375 28.8408 32.411 27.6616C32.411 27.4366 32.5004 27.2208 32.6595 27.0617C32.8186 26.9026 33.0344 26.8133 33.2594 26.8133C33.4844 26.8133 33.7002 26.9026 33.8593 27.0617C34.0184 27.2208 34.1078 27.4366 34.1078 27.6616C34.0654 29.2867 33.3901 30.831 32.2257 31.9654C31.0613 33.0998 29.4999 33.7347 27.8743 33.7347C26.2487 33.7347 24.6873 33.0998 23.5229 31.9654C22.3585 30.831 21.6832 29.2867 21.6408 27.6616C21.6408 27.5502 21.6627 27.4399 21.7053 27.337C21.748 27.234 21.8105 27.1405 21.8892 27.0617C21.968 26.983 22.0616 26.9205 22.1645 26.8778C22.2674 26.8352 22.3777 26.8133 22.4891 26.8133Z" fill="white"/>
</svg>
