<svg width="56" height="56" viewBox="0 0 56 56" fill="none" xmlns="http://www.w3.org/2000/svg">
<path d="M0 12C0 5.37258 5.37258 0 12 0H44C50.6274 0 56 5.37258 56 12V44C56 50.6274 50.6274 56 44 56H12C5.37258 56 0 50.6274 0 44V12Z" fill="#CF364C"/>
<path d="M31.7452 35.6043C31.7422 35.8681 31.8305 36.1241 31.9936 36.3247C32.1598 36.5305 32.3245 36.6677 32.4906 36.7318L32.7377 36.8467V38.9705C31.7338 38.9705 30.8776 38.5678 30.1705 37.7624C29.7332 37.2509 29.5089 36.7766 29.4961 36.3396L31.7452 35.6043Z" fill="white"/>
<path d="M32.81 29.6544C32.6577 29.6918 32.5163 29.7643 32.3972 29.8663C32.278 29.9682 32.1844 30.0966 32.1238 30.2413C32.0748 30.3372 32.0493 30.4434 32.0493 30.5511C32.0493 30.998 32.4259 31.3779 33.1806 31.6937C33.3428 31.7577 33.6018 31.8575 33.9606 31.9871C34.556 32.1927 34.9757 32.3625 35.2243 32.4936C36.2261 33.015 36.8944 33.5483 37.2279 34.092C37.4764 34.5165 37.6 34.9887 37.6 35.5116C37.6 36.5007 37.1728 37.3498 36.3184 38.0573C35.6269 38.6517 34.7441 38.976 33.8326 38.9705V36.8492C34.3134 36.7956 34.6542 36.5722 34.8522 36.1804C34.94 36.0026 34.9849 35.8067 34.9832 35.6084C34.9832 35.0543 34.5113 34.5969 33.5706 34.2379C33.3002 34.1403 33.0277 34.0484 32.7534 33.9624C32.4454 33.8743 32.1423 33.7698 31.8454 33.6495C30.7811 33.2056 30.1009 32.6292 29.8032 31.9216C29.6365 31.5123 29.5539 31.0735 29.5605 30.6316C29.5605 29.4369 30.1425 28.5387 31.3066 27.9413C31.838 27.6583 32.3396 27.5108 32.81 27.5004V29.6544ZM27.5466 28.9006V38.4863H19.8882C19.6735 38.4863 19.4613 38.4398 19.2663 38.3499C19.0712 38.2601 18.8979 38.1291 18.7582 37.966C18.6185 37.8028 18.5157 37.6114 18.4569 37.4047C18.3981 37.1981 18.3847 36.9811 18.4175 36.7688L18.6616 35.2017C18.9344 33.4459 19.8254 31.8455 21.1738 30.6895C22.5223 29.5334 24.2393 28.8979 26.0149 28.8977H27.3114C27.3903 28.8977 27.4692 28.8977 27.5466 28.9006Z" fill="white"/>
<path d="M33.8456 27.5198C34.8855 27.5198 35.7614 27.9053 36.4686 28.6763C36.8775 29.1333 37.0879 29.5471 37.1013 29.9162L34.6826 30.6173C34.6826 30.1603 34.4275 29.8522 33.9187 29.6885L33.8441 29.6736V27.5198H33.8456ZM26.6641 16.0303C27.422 16.0303 28.1723 16.1792 28.8725 16.4685C29.5726 16.7578 30.2088 17.1818 30.7446 17.7164C31.2805 18.2509 31.7055 18.8855 31.9955 19.584C32.2855 20.2824 32.4348 21.031 32.4348 21.7869C32.4348 22.5429 32.2855 23.2915 31.9955 23.9899C31.7055 24.6883 31.2805 25.323 30.7446 25.8575C30.2088 26.3921 29.5726 26.8161 28.8725 27.1054C28.1723 27.3947 27.422 27.5436 26.6641 27.5436C25.1337 27.5436 23.6659 26.9371 22.5837 25.8575C21.5015 24.7779 20.8935 23.3137 20.8935 21.7869C20.8935 20.2602 21.5015 18.7959 22.5837 17.7164C23.6659 16.6368 25.1337 16.0303 26.6641 16.0303Z" fill="white"/>
</svg>
