<svg width="56" height="56" viewBox="0 0 56 56" fill="none" xmlns="http://www.w3.org/2000/svg">
<path d="M0 12C0 5.37258 5.37258 0 12 0H44C50.6274 0 56 5.37258 56 12V44C56 50.6274 50.6274 56 44 56H12C5.37258 56 0 50.6274 0 44V12Z" fill="#E87A35"/>
<path d="M19.4113 22.5574C19.4113 23.213 19.5405 23.8621 19.7913 24.4678C20.0422 25.0734 20.4099 25.6238 20.8735 26.0873C21.337 26.5509 21.8873 26.9186 22.493 27.1694C23.0986 27.4203 23.7478 27.5494 24.4033 27.5494C25.0589 27.5494 25.708 27.4203 26.3137 27.1694C26.9194 26.9186 27.4697 26.5509 27.9332 26.0873C28.3968 25.6238 28.7645 25.0734 29.0154 24.4678C29.2662 23.8621 29.3953 23.213 29.3953 22.5574C29.3953 21.9019 29.2662 21.2527 29.0154 20.6471C28.7645 20.0414 28.3968 19.4911 27.9332 19.0276C27.4697 18.564 26.9194 18.1963 26.3137 17.9454C25.708 17.6946 25.0589 17.5654 24.4033 17.5654C23.7478 17.5654 23.0986 17.6946 22.493 17.9454C21.8873 18.1963 21.337 18.564 20.8735 19.0276C20.4099 19.4911 20.0422 20.0414 19.7913 20.6471C19.5405 21.2527 19.4113 21.9019 19.4113 22.5574Z" fill="white"/>
<path d="M31.224 37.8196C29.8547 36.3116 28.9447 34.5609 28.4073 32.6022C28.156 31.7009 28 30.7909 27.922 29.8722C26.804 30.4616 25.5213 30.7909 24.1693 30.7909C22.6353 30.7909 21.1967 30.3662 19.9747 29.6209H19.7233C17.2187 29.6209 15.1733 31.6662 15.1733 34.1709V36.2336C15.1733 37.4469 16.17 38.4436 17.3833 38.4436H31.8393C31.6227 38.2442 31.4233 38.0362 31.224 37.8196ZM40.8007 28.8669C40.766 28.4249 40.4887 28.1389 40.0467 28.1302C39.6307 28.1216 39.2233 28.0956 38.8073 28.0262C37.724 27.8442 36.7187 27.4629 35.8 26.8736C35.7393 26.8389 35.6787 26.8042 35.618 26.7869C35.384 26.7089 35.1587 26.7522 34.9507 26.8822C33.9107 27.5409 32.784 27.9482 31.562 28.0782C31.2587 28.1129 30.9467 28.1129 30.6433 28.1389C30.2967 28.1649 30.0107 28.4422 29.9847 28.7889C29.9673 29.0662 29.9587 29.3436 29.9413 29.6209C29.95 30.5916 30.0713 31.5536 30.3313 32.4896C30.7213 33.9022 31.3887 35.1762 32.3767 36.2682C33.1393 37.1089 34.032 37.7589 35.0633 38.2269C35.28 38.3222 35.4967 38.3309 35.7133 38.2356C36.8487 37.7242 37.828 36.9876 38.6253 36.0256C39.934 34.4569 40.6013 32.6282 40.792 30.6089C40.8353 30.0282 40.844 29.4476 40.8007 28.8669ZM39.6827 31.0076C39.5353 32.6022 39.0067 34.0496 37.9667 35.2889C37.334 36.0516 36.5627 36.6322 35.6613 37.0396C35.5487 37.0916 35.4447 37.1089 35.332 37.0916V27.9569C35.4187 27.9482 35.5053 27.9482 35.6007 27.9829C35.6527 28.0002 35.696 28.0262 35.7393 28.0522C36.4673 28.5202 37.2647 28.8236 38.1227 28.9622C38.4433 29.0142 38.7727 29.0402 39.102 29.0489C39.4487 29.0576 39.674 29.2829 39.7 29.6296C39.726 30.0889 39.726 30.5482 39.6827 31.0076Z" fill="white"/>
</svg>
