<svg width="56" height="56" viewBox="0 0 56 56" fill="none" xmlns="http://www.w3.org/2000/svg">
<path d="M0 12C0 5.37258 5.37258 0 12 0H44C50.6274 0 56 5.37258 56 12V44C56 50.6274 50.6274 56 44 56H12C5.37258 56 0 50.6274 0 44V12Z" fill="#3A82C1"/>
<path d="M38.8235 36.8564C38.7967 36.3344 38.6616 35.8237 38.4267 35.3568C38.4267 35.3568 38.1318 34.607 36.9451 33.7626C35.7584 32.92 31.805 30.8582 31.805 30.8582C31.805 30.8582 29.6318 29.8263 31.2135 27.6716C32.2018 26.4523 33.1901 24.2976 33.09 22.7034C33.09 18.5796 30.5218 17.1729 27.9517 17.0801C25.48 17.0801 22.8116 18.5796 22.8116 22.7034C22.7134 24.203 23.8 26.3595 24.69 27.6716C26.37 29.8263 24.0967 30.8563 24.0967 30.8563C24.0967 30.8563 20.1433 32.8272 18.9584 33.7645C17.7717 34.7017 17.475 35.3586 17.475 35.3586C17.2784 35.8263 17.08 36.3887 17.08 36.8582V38.0775C17.08 38.2631 17.1783 38.5452 17.3767 38.638C17.5732 38.8255 17.7717 38.9201 17.97 38.9201H38.0299C38.3266 38.9201 38.525 38.8255 38.6233 38.638C38.8217 38.4506 38.92 38.2631 38.92 38.0757V36.951C38.8217 36.951 38.8217 36.951 38.8217 36.8582L38.8235 36.8564ZM28.05 37.3241L27.9517 37.4187L27.8535 37.3241L27.7534 37.2313L26.4683 36.012L27.4567 31.1384H28.3467L29.3351 36.012L28.05 37.3241Z" fill="white"/>
</svg>
