<svg width="56" height="56" viewBox="0 0 56 56" fill="none" xmlns="http://www.w3.org/2000/svg">
<path d="M0 12C0 5.37258 5.37258 0 12 0H44C50.6274 0 56 5.37258 56 12V44C56 50.6274 50.6274 56 44 56H12C5.37258 56 0 50.6274 0 44V12Z" fill="#364153"/>
<path d="M34.1579 24.067V22.8203C34.1581 22.8076 34.1559 22.7951 34.1512 22.7834C34.1465 22.7716 34.1395 22.761 34.1306 22.7521C34.1216 22.7431 34.111 22.7361 34.0993 22.7314C34.0876 22.7267 34.0751 22.7244 34.0625 22.7247H33.5839V22.2447C33.574 21.1515 33.2538 20.0837 32.6609 19.1664C32.0679 18.249 31.2267 17.52 30.2357 17.0645V18.9824C30.2287 19.0793 30.1853 19.1699 30.1144 19.236C30.0435 19.3021 29.9503 19.3389 29.8534 19.3389C29.7566 19.3389 29.6633 19.3021 29.5924 19.236C29.5215 19.1699 29.4782 19.0793 29.4711 18.9824V16.7757C29.4329 16.5519 29.3146 16.3498 29.1384 16.2071C28.9622 16.0645 28.7402 15.9912 28.5139 16.0009H27.2708C26.7922 16.0009 26.5042 16.2958 26.3176 16.7757V18.9824C26.3106 19.0793 26.2672 19.1699 26.1963 19.236C26.1254 19.3021 26.0322 19.3389 25.9353 19.3389C25.8385 19.3389 25.7452 19.3021 25.6743 19.236C25.6034 19.1699 25.5601 19.0793 25.553 18.9824V17.0645C24.5613 17.5194 23.7192 18.2482 23.1255 19.1656C22.5318 20.083 22.211 21.1511 22.2008 22.2447V22.7247H21.5315C21.5189 22.7244 21.5064 22.7267 21.4947 22.7314C21.483 22.7361 21.4724 22.7431 21.4635 22.7521C21.4546 22.761 21.4476 22.7716 21.4429 22.7834C21.4382 22.7951 21.4359 22.8076 21.4362 22.8203V23.9714C21.4359 23.984 21.4382 23.9966 21.4429 24.0083C21.4476 24.02 21.4546 24.0307 21.4635 24.0396C21.4724 24.0486 21.483 24.0556 21.4947 24.0603C21.5064 24.065 21.5189 24.0673 21.5315 24.067H34.1579ZM31.2882 32.9894C30.8096 32.7026 30.2357 32.5094 30.2357 32.2226V30.8803C30.2357 30.8803 33.1053 28.576 33.1053 24.6426H22.7747C22.7747 28.576 25.6443 30.8783 25.6443 30.8783V32.2206C25.6443 32.5094 25.1657 32.7006 24.5918 32.9874C18.8525 34.045 17.8 37.114 17.8 37.6896C18.088 40 27.94 40 27.94 40C27.94 40 37.7941 40 38.08 37.6977C38.08 37.1221 37.0275 33.9555 31.2882 32.9975V32.9894Z" fill="white"/>
</svg>
