<?xml version="1.0" standalone="no"?><!DOCTYPE svg PUBLIC "-//W3C//DTD SVG 1.1//EN" "http://www.w3.org/Graphics/SVG/1.1/DTD/svg11.dtd"><svg t="1752201817487" class="icon" viewBox="0 0 1024 1024" version="1.1" xmlns="http://www.w3.org/2000/svg" p-id="2472" xmlns:xlink="http://www.w3.org/1999/xlink" width="200" height="200"><path d="M987.20366553 687.13922196a48.46419887 48.46419887 0 0 0-31.97364543-39.50309427l-5.83267164-1.64375291a50.79726752 50.79726752 0 0 1-39.23797283-59.59929927l1.48468005-5.9917445a48.41117458 48.41117458 0 0 0-16.43752916-53.34243332c-16.86172346-13.09699904-35.42022412-23.86092942-55.14525911-32.07969401a48.25210173 48.25210173 0 0 0-50.21400037 7.95364314l-4.34799157 4.241943a50.90331611 50.90331611 0 0 1-71.21161826 4.24194302l-4.34799158-4.34799158a48.41117458 48.41117458 0 0 0-54.56199194-12.51373188 242.42704293 242.42704293 0 0 0-55.35735627 31.92062114 48.41117458 48.41117458 0 0 0-18.08128207 47.40371312l1.48468005 5.93872021a50.63819467 50.63819467 0 0 1-31.97364542 63.68216941l-5.88569593 1.64375292a48.41117458 48.41117458 0 0 0-38.0714385 40.98777431c-2.86331153 21.20971504-2.91633582 42.63152723-0.15907286 63.788218 2.38609294 18.13430636 14.74075195 33.40530119 32.02666972 39.45006997l5.83267163 1.64375292c27.20145954 5.83267163 44.69947445 32.34481545 39.23797283 59.59929927l-1.53770434 5.9917445c-6.36291451 19.45991356 0.21209715 40.82870146 16.43752916 53.34243332 16.91474774 13.09699904 35.42022412 23.86092942 55.14525911 32.07969401a48.41117458 48.41117458 0 0 0 50.26702464-7.95364315l4.34799158-4.241943a50.63819467 50.63819467 0 0 1 71.26464254-4.24194301l4.34799159 4.34799159a48.41117458 48.41117458 0 0 0 54.50896767 12.51373186 242.42704293 242.42704293 0 0 0 55.35735625-31.92062113 48.41117458 48.41117458 0 0 0 18.08128207-47.40371312l-1.48468005-5.93872021a50.63819467 50.63819467 0 0 1 31.97364543-63.68216942l5.9387202-1.59072862a48.41117458 48.41117458 0 0 0 38.01841422-40.98777432c2.75726297-21.20971504 2.86331153-42.63152723 0.10604859-63.78821799z m-48.09302887 57.37227918a99.2614664 99.2614664 0 0 0-74.0219055 127.62946028 195.50054841 195.50054841 0 0 1-44.32830444 25.50468233 99.15541782 99.15541782 0 0 0-147.67264097-0.31814572 193.48562547 193.48562547 0 0 1-44.22225587-25.71677949 98.99634496 98.99634496 0 0 0-73.49166263-127.89458171c-2.22702009-17.02079632-2.1739958-34.2536898 0.10604859-51.22146183a99.04936925 99.04936925 0 0 0 73.96888121-127.62946025c13.62724192-10.39276037 28.52706674-18.98269497 44.38132872-25.50468234a99.10239354 99.10239354 0 0 0 147.61961669 0.26512142c15.85426198 6.57501167 30.70106252 15.27099483 44.22225587 25.76980378a99.15541782 99.15541782 0 0 0 73.5446869 127.89458171c2.22702009 16.96777203 2.1209715 34.2536898-0.10604857 51.22146182zM349.21543705 227.31259985a24.17907515 24.17907515 0 0 1 24.17907515-24.17907515h351.12683251a24.17907515 24.17907515 0 1 1 0 48.3581503H373.3945122a24.17907515 24.17907515 0 0 1-24.17907515-24.17907515z m164.00412156 635.39003837H155.78283587a72.64327402 72.64327402 0 0 1-72.64327402-72.64327402v-69.93903535a72.64327402 72.64327402 0 0 1 72.64327402-72.59024974h312.2600297a24.17907515 24.17907515 0 1 0 0-48.35815029H155.6767873a72.64327402 72.64327402 0 0 1-72.53722545-72.64327401v-69.99205964a72.64327402 72.64327402 0 0 1 72.59024973-72.59024973H761.21415173c28.52706674 0 54.56199195 16.86172346 66.28035952 42.84362437 3.18145726 7.26432739 5.19638018 14.84680053 5.93872022 22.69439511a24.17907515 24.17907515 0 0 0 48.19907743-4.45404016 120.89537573 120.89537573 0 0 0-10.07461465-38.07143851 119.83488999 119.83488999 0 0 0-38.86680282-46.92649453 120.47118144 120.47118144 0 0 0 49.47166035-97.03444632v-69.99205963a121.1074729 121.1074729 0 0 0-121.00142432-120.94840002H155.78283587A121.1074729 121.1074729 0 0 0 34.78141155 193.00588577v69.99205963c0 39.71519141 19.51293783 74.71122124 49.10049033 96.76932488A120.41815715 120.41815715 0 0 0 34.78141155 456.53659517v69.99205964c0.10604857 38.17748707 18.34640351 74.12795407 49.15351462 96.76932487A120.47118144 120.47118144 0 0 0 34.78141155 720.06730457v69.99205963a121.1074729 121.1074729 0 0 0 121.00142432 120.94840003h357.38369846a24.17907515 24.17907515 0 0 0 0-48.30512601z m-430.02697248-599.70469282v-69.99205963a72.64327402 72.64327402 0 0 1 72.59024974-72.59024974H761.21415173a72.64327402 72.64327402 0 0 1 72.59024974 72.64327403v69.93903534A72.64327402 72.64327402 0 0 1 761.21415173 335.58819514H155.78283587a72.64327402 72.64327402 0 0 1-72.64327402-72.64327402z m150.48292824 30.01174679c33.3522769 0 60.44768787-27.14843525 60.44768786-60.44768787 0-33.40530119-27.09541098-60.50071216-60.44768786-60.50071215-33.3522769 0-60.50071216 27.14843525-60.50071216 60.44768786 0 33.40530119 27.14843525 60.50071216 60.44768787 60.50071216z m0-72.53722544c6.68106023 0 12.08953757 5.40847733 12.08953757 12.08953757 0 13.2560719-24.17907515 13.2560719-24.17907515 0 0-6.68106023 5.40847733-12.08953757 12.08953758-12.08953757z m465.55324516 413.90758904c-22.32322509 12.72582902-38.60168138 33.93554407-45.12366875 58.75091067a96.61025201 96.61025201 0 0 0 141.78694505 108.85886246 96.87537345 96.87537345 0 0 0-23.33068654-177.31321775 96.61025201 96.61025201 0 0 0-73.38561405 9.70344462z m72.53722544 125.66756163a48.67629602 48.67629602 0 0 1-66.12128663-17.71011207 48.25210173 48.25210173 0 0 1 41.83616291-72.53722544 48.46419887 48.46419887 0 0 1 24.28512372 90.30036179z m-331.24272467-29.16335819a24.17907515 24.17907515 0 1 1 0.53024288 48.41117459l-67.1287481 1.32560718h-0.53024288a24.17907515 24.17907515 0 0 1-0.47721859-48.41117458l67.12874811-1.27258289h0.53024288z m113.20685405-262.25812648a24.17907515 24.17907515 0 0 1 0 48.41117458h-180.28257786a24.17907515 24.17907515 0 0 1 0-48.41117458h180.28257786zM173.17480221 756.44196586c0 33.29925262 27.14843525 60.44768787 60.44768787 60.44768787 33.40530119 0 60.55373644-27.14843525 60.55373644-60.44768787 0-33.40530119-27.14843525-60.50071216-60.50071215-60.50071216s-60.50071216 27.14843525-60.50071216 60.44768788z m72.59024973 0c0 13.2560719-24.17907515 13.2560719-24.17907515 0a12.08953757 12.08953757 0 0 1 24.17907515 0zM173.17480221 492.85823217c0 33.29925262 27.14843525 60.44768787 60.44768787 60.44768787 33.40530119 0 60.55373644-27.14843525 60.55373644-60.44768787 0-33.40530119-27.14843525-60.50071216-60.50071215-60.50071215s-60.50071216 27.14843525-60.50071216 60.44768787z m72.59024973 0c0 13.2560719-24.17907515 13.2560719-24.17907515 0a12.08953757 12.08953757 0 0 1 24.17907515 0z" p-id="2473"></path></svg>