<svg width="32" height="32" viewBox="0 0 32 32" fill="none" xmlns="http://www.w3.org/2000/svg">
<rect width="32" height="32" rx="4" fill="url(#paint0_linear_2490_2073)"/>
<path d="M11.2318 15.726L14.8383 17.8277C14.984 17.9131 15.1049 18.0354 15.1889 18.1823C15.2729 18.3292 15.317 18.4956 15.3169 18.665V22.8682C15.317 23.0375 15.2729 23.204 15.189 23.3509C15.105 23.4978 14.9841 23.6201 14.8383 23.7056L11.2318 25.8041C11.0863 25.8893 10.9209 25.9342 10.7524 25.9342C10.584 25.9342 10.4186 25.8893 10.2731 25.8041L6.6666 23.7025C6.52063 23.6171 6.39951 23.4949 6.31528 23.3479C6.23105 23.201 6.18666 23.0345 6.18652 22.8651V18.662C6.18692 18.4928 6.23143 18.3266 6.31564 18.18C6.39986 18.0333 6.52085 17.9113 6.6666 17.8261L10.2731 15.726C10.4186 15.6408 10.584 15.5959 10.7524 15.5959C10.9209 15.5959 11.0863 15.6408 11.2318 15.726ZM21.8333 15.726L25.4398 17.8277C25.5857 17.9131 25.7069 18.0353 25.7911 18.1822C25.8753 18.3292 25.9197 18.4956 25.9199 18.6651V22.8683C25.9197 23.0378 25.8753 23.2043 25.7911 23.3512C25.7069 23.4981 25.5857 23.6203 25.4398 23.7057L21.8348 25.8043C21.6893 25.8895 21.5239 25.9344 21.3554 25.9344C21.187 25.9344 21.0215 25.8895 20.8761 25.8043L17.2696 23.7026C17.1236 23.6172 17.0025 23.495 16.9183 23.3481C16.834 23.2012 16.7896 23.0347 16.7895 22.8652V18.6623C16.7896 18.493 16.834 18.3267 16.9182 18.18C17.0025 18.0334 17.1236 17.9114 17.2696 17.8264L20.8761 15.7262C21.0213 15.641 21.1865 15.5961 21.3547 15.5961C21.5229 15.5961 21.6881 15.641 21.8333 15.7262V15.726ZM10.7321 17.2205L7.65916 19.0496L7.6783 22.6673L10.732 24.4559C10.7381 24.4578 10.7448 24.4578 10.751 24.4559L10.7775 24.4575L13.8442 22.627L13.8251 19.0092L10.7321 17.2205ZM21.3425 17.2205L18.2621 19.0472L18.2828 22.6664L21.3291 24.4559C21.3353 24.458 21.342 24.458 21.3482 24.4559L21.3744 24.4573L24.4472 22.6292L24.4281 19.01L21.3425 17.2205ZM16.5333 6.86446L20.1395 8.96613C20.2851 9.05176 20.4059 9.17406 20.4899 9.32092C20.5739 9.46777 20.6182 9.63409 20.6184 9.8034V14.0067C20.6182 14.176 20.574 14.3424 20.4901 14.4893C20.4061 14.6361 20.2854 14.7585 20.1398 14.8442L16.5333 16.9426C16.3878 17.0278 16.2224 17.0727 16.0539 17.0727C15.8855 17.0727 15.7201 17.0278 15.5746 16.9426L11.9681 14.8409C11.8222 14.7555 11.7011 14.6334 11.6168 14.4865C11.5326 14.3396 11.4882 14.1732 11.488 14.0038V9.80044C11.4881 9.63116 11.5325 9.46487 11.6167 9.31818C11.701 9.17148 11.8221 9.04953 11.9681 8.9645L15.5746 6.86446C15.7201 6.77927 15.8855 6.73438 16.0539 6.73438C16.2224 6.73438 16.3878 6.77927 16.5333 6.86446ZM16.037 8.35896L12.9607 10.1858L12.9813 13.805L16.0311 15.5944C16.0373 15.5964 16.044 15.5964 16.0502 15.5944L16.0694 15.5959L19.1457 13.7676L19.1266 10.1484L16.037 8.35896Z" fill="white"/>
<defs>
<linearGradient id="paint0_linear_2490_2073" x1="16" y1="0" x2="16" y2="32" gradientUnits="userSpaceOnUse">
<stop stop-color="#A2B4D2"/>
<stop offset="1" stop-color="#95B3E6"/>
</linearGradient>
</defs>
</svg>
