<svg width="20" height="20" viewBox="0 0 20 20" fill="none" xmlns="http://www.w3.org/2000/svg">
<path d="M10.2727 1.33212L15.2854 3.76128C15.596 3.91179 15.7257 4.28546 15.5751 4.59591C15.5138 4.72224 15.4118 4.82424 15.2854 4.88546L10.625 7.14386V9.3403H14.6777C15.0229 9.3403 15.3027 9.61999 15.3027 9.96499V12.9322H14.0527V10.5897H5.94727V12.9322H4.69727V9.96499C4.69727 9.61999 4.97709 9.3403 5.32227 9.3403H9.375V7.14387L4.71461 4.88548C4.404 4.73495 4.2743 4.36128 4.42488 4.05085C4.48618 3.92451 4.58824 3.8225 4.71461 3.76128L9.72732 1.33212C9.81232 1.29093 9.90555 1.26953 10 1.26953C10.0945 1.26953 10.1877 1.29093 10.2727 1.33212ZM10 2.58843L6.41986 4.32339L9.99998 6.05829L13.5801 4.32335L10 2.58843ZM7.83203 12.9322C8.17721 12.9322 8.45703 13.2119 8.45703 13.5569V17.1488C8.45703 17.4938 8.17721 17.7734 7.83203 17.7734H2.8125C2.46732 17.7734 2.1875 17.4938 2.1875 17.1488V13.5569C2.1875 13.2119 2.46732 12.9322 2.8125 12.9322H7.83203ZM7.20703 14.1815H3.4375V16.5241H7.20703V14.1815ZM17.1875 12.9322C17.5327 12.9322 17.8125 13.2119 17.8125 13.5569V17.1488C17.8125 17.4938 17.5327 17.7734 17.1875 17.7734H12.168C11.8228 17.7734 11.543 17.4938 11.543 17.1488V13.5569C11.543 13.2119 11.8228 12.9322 12.168 12.9322H17.1875ZM16.5625 14.1815H12.793V16.5241H16.5625V14.1815Z" fill="#666666"/>
</svg>
