<svg width="20" height="20" viewBox="0 0 20 20" fill="none" xmlns="http://www.w3.org/2000/svg">
<path d="M16.9401 6.23504C15.9335 5.22851 14.5958 4.67468 13.1742 4.67468H7.58628V3.60603C7.58628 3.26522 7.35254 3.13734 7.06412 3.32244L4.49224 4.98261C4.20502 5.16881 4.20741 5.46705 4.49838 5.64712L7.0592 7.23309C7.34772 7.41327 7.58628 7.28056 7.58628 6.93977V5.87483H13.1754C15.449 5.87483 17.2991 7.72611 17.2991 9.99853C17.2991 10.3758 17.2493 10.7483 17.1494 11.1061C17.0606 11.4262 17.2481 11.7561 17.5682 11.8437C17.6217 11.8608 17.6752 11.868 17.7288 11.868C17.9917 11.868 18.2328 11.6928 18.307 11.4287C18.4347 10.9649 18.4981 10.4841 18.4981 9.99971C18.4981 8.57814 17.9442 7.23924 16.9401 6.23504ZM15.9481 14.3522L13.3884 12.7663C13.0975 12.5862 12.8589 12.7176 12.8589 13.0596V14.1222H6.82676C4.55312 14.1222 2.70305 12.2722 2.70305 9.99855C2.70305 9.20253 2.93066 8.42966 3.36035 7.76383C3.54051 7.48506 3.46008 7.11267 3.18261 6.93253C2.90384 6.75359 2.53145 6.83392 2.35251 7.11137C1.79629 7.97193 1.50171 8.97121 1.50171 9.99973C1.50171 11.4226 2.05553 12.759 3.06085 13.7644C4.06627 14.771 5.40392 15.3248 6.82676 15.3248H12.8602V16.3935C12.8602 16.7354 13.0951 16.8632 13.3823 16.677L15.9542 15.0157C16.2414 14.8306 16.239 14.5324 15.9481 14.3522Z" fill="#666666"/>
</svg>
