<svg width="20" height="20" viewBox="0 0 20 20" fill="none" xmlns="http://www.w3.org/2000/svg">
<path d="M2.8 5.19229H3.74C3.90656 5.65833 4.21312 6.06148 4.6177 6.34653C5.02228 6.63157 5.50509 6.78457 6 6.78457C6.49491 6.78457 6.97772 6.63157 7.3823 6.34653C7.78688 6.06148 8.09344 5.65833 8.26 5.19229H17.2C17.4122 5.19229 17.6157 5.108 17.7657 4.95797C17.9157 4.80794 18 4.60446 18 4.39229C18 4.18011 17.9157 3.97663 17.7657 3.8266C17.6157 3.67657 17.4122 3.59229 17.2 3.59229H8.26C8.09344 3.12625 7.78688 2.72309 7.3823 2.43805C6.97772 2.153 6.49491 2 6 2C5.50509 2 5.02228 2.153 4.6177 2.43805C4.21312 2.72309 3.90656 3.12625 3.74 3.59229H2.8C2.58817 3.59318 2.38534 3.67805 2.236 3.82829C2.08576 3.97763 2.00089 4.18046 2 4.39229C2 4.60446 2.08429 4.80794 2.23431 4.95797C2.38434 5.108 2.58783 5.19229 2.8 5.19229ZM6.8 4.39229C6.8 4.55051 6.75308 4.70518 6.66518 4.83674C6.57727 4.9683 6.45233 5.07084 6.30615 5.13139C6.15997 5.19194 5.99911 5.20778 5.84393 5.17692C5.68874 5.14605 5.5462 5.06985 5.43431 4.95797C5.32243 4.84609 5.24624 4.70354 5.21537 4.54836C5.1845 4.39317 5.20035 4.23232 5.2609 4.08614C5.32145 3.93996 5.42398 3.81502 5.55554 3.72711C5.6871 3.63921 5.84177 3.59229 6 3.59229C6.21217 3.59229 6.41566 3.67657 6.56569 3.8266C6.71571 3.97663 6.8 4.18011 6.8 4.39229ZM17.2 9.19229H16.26C16.0934 8.72625 15.7869 8.32309 15.3823 8.03805C14.9777 7.753 14.4949 7.6 14 7.6C13.5051 7.6 13.0223 7.753 12.6177 8.03805C12.2131 8.32309 11.9066 8.72625 11.74 9.19229H2.8C2.58817 9.19318 2.38534 9.27805 2.236 9.42829C2.08576 9.57763 2.00089 9.78046 2 9.99229C2 10.2045 2.08429 10.4079 2.23431 10.558C2.38434 10.708 2.58783 10.7923 2.8 10.7923H11.74C11.9066 11.2583 12.2131 11.6615 12.6177 11.9465C13.0223 12.2316 13.5051 12.3846 14 12.3846C14.4949 12.3846 14.9777 12.2316 15.3823 11.9465C15.7869 11.6615 16.0934 11.2583 16.26 10.7923H17.2C17.4122 10.7923 17.6157 10.708 17.7657 10.558C17.9157 10.4079 18 10.2045 18 9.99229C18 9.78011 17.9157 9.57663 17.7657 9.4266C17.6157 9.27657 17.4122 9.19229 17.2 9.19229ZM13.2 9.99229C13.2 9.83406 13.2469 9.67939 13.3348 9.54783C13.4227 9.41627 13.5477 9.31373 13.6939 9.25318C13.84 9.19263 14.0009 9.17679 14.1561 9.20766C14.3113 9.23853 14.4538 9.31472 14.5657 9.4266C14.6776 9.53848 14.7538 9.68103 14.7846 9.83622C14.8155 9.9914 14.7997 10.1523 14.7391 10.2984C14.6786 10.4446 14.576 10.5696 14.4445 10.6575C14.3129 10.7454 14.1582 10.7923 14 10.7923C13.7878 10.7923 13.5843 10.708 13.4343 10.558C13.2843 10.4079 13.2 10.2045 13.2 9.99229ZM17.2 14.7923H8.26C8.09344 14.3262 7.78688 13.9231 7.3823 13.638C6.97772 13.353 6.49491 13.2 6 13.2C5.50509 13.2 5.02228 13.353 4.6177 13.638C4.21312 13.9231 3.90656 14.3262 3.74 14.7923H2.8C2.58817 14.7932 2.38534 14.8781 2.236 15.0283C2.08576 15.1776 2.00089 15.3805 2 15.5923C2 15.8045 2.08429 16.0079 2.23431 16.158C2.38434 16.308 2.58783 16.3923 2.8 16.3923H3.74C3.90656 16.8583 4.21312 17.2615 4.6177 17.5465C5.02228 17.8316 5.50509 17.9846 6 17.9846C6.49491 17.9846 6.97772 17.8316 7.3823 17.5465C7.78688 17.2615 8.09344 16.8583 8.26 16.3923H17.2C17.4122 16.3923 17.6157 16.308 17.7657 16.158C17.9157 16.0079 18 15.8045 18 15.5923C18 15.3801 17.9157 15.1766 17.7657 15.0266C17.6157 14.8766 17.4122 14.7923 17.2 14.7923ZM5.2 15.5923C5.2 15.4341 5.24692 15.2794 5.33482 15.1478C5.42273 15.0163 5.54767 14.9137 5.69385 14.8532C5.84003 14.7926 6.00089 14.7768 6.15607 14.8077C6.31126 14.8385 6.4538 14.9147 6.56569 15.0266C6.67757 15.1385 6.75376 15.281 6.78463 15.4362C6.8155 15.5914 6.79965 15.7523 6.7391 15.8984C6.67855 16.0446 6.57602 16.1696 6.44446 16.2575C6.3129 16.3454 6.15823 16.3923 6 16.3923C5.78783 16.3923 5.58434 16.308 5.43431 16.158C5.28429 16.0079 5.2 15.8045 5.2 15.5923Z" fill="#666666"/>
</svg>
