<svg width="20" height="20" viewBox="0 0 20 20" fill="none" xmlns="http://www.w3.org/2000/svg">
<path d="M12.4684 7.76667H7.53172C7.35491 7.76667 7.18534 7.69643 7.06032 7.5714C6.93529 7.44638 6.86506 7.27681 6.86506 7.1V2.16667C6.86506 1.98986 6.93529 1.82029 7.06032 1.69526C7.18534 1.57024 7.35491 1.5 7.53172 1.5H12.4684C12.6452 1.5 12.8148 1.57024 12.9398 1.69526C13.0648 1.82029 13.1351 1.98986 13.1351 2.16667V7.1C13.1351 7.27681 13.0648 7.44638 12.9398 7.5714C12.8148 7.69643 12.6452 7.76667 12.4684 7.76667ZM8.19839 6.43333H11.8017V2.83333H8.19839V6.43333ZM7.20339 18.5H2.26506C2.08824 18.5 1.91868 18.4298 1.79365 18.3047C1.66863 18.1797 1.59839 18.0101 1.59839 17.8333V12.9C1.59839 12.7232 1.66863 12.5536 1.79365 12.4286C1.91868 12.3036 2.08824 12.2333 2.26506 12.2333H7.20339C7.3802 12.2333 7.54977 12.3036 7.67479 12.4286C7.79982 12.5536 7.87006 12.7232 7.87006 12.9V17.8333C7.87006 18.0101 7.79982 18.1797 7.67479 18.3047C7.54977 18.4298 7.3802 18.5 7.20339 18.5ZM2.93172 17.1667H6.53672V13.5667H2.93172V17.1667ZM17.7351 18.5H12.7967C12.6199 18.5 12.4503 18.4298 12.3253 18.3047C12.2003 18.1797 12.1301 18.0101 12.1301 17.8333V12.9C12.1301 12.7232 12.2003 12.5536 12.3253 12.4286C12.4503 12.3036 12.6199 12.2333 12.7967 12.2333H17.7351C17.9119 12.2333 18.0814 12.3036 18.2065 12.4286C18.3315 12.5536 18.4017 12.7232 18.4017 12.9V17.8333C18.4017 18.0101 18.3315 18.1797 18.2065 18.3047C18.0814 18.4298 17.9119 18.5 17.7351 18.5ZM13.4634 17.1667H17.0684V13.5667H13.4634V17.1667Z" fill="#666666"/>
<path d="M15.3101 13.5699C15.1333 13.5699 14.9637 13.4996 14.8387 13.3746C14.7137 13.2496 14.6434 13.08 14.6434 12.9032V10.9632H5.44344V12.9032C5.44344 13.08 5.3732 13.2496 5.24818 13.3746C5.12315 13.4996 4.95359 13.5699 4.77677 13.5699C4.59996 13.5699 4.43039 13.4996 4.30537 13.3746C4.18035 13.2496 4.11011 13.08 4.11011 12.9032V10.2965C4.11011 10.1197 4.18035 9.95017 4.30537 9.82515C4.43039 9.70012 4.59996 9.62988 4.77677 9.62988H15.3101C15.4869 9.62988 15.6565 9.70012 15.7815 9.82515C15.9065 9.95017 15.9768 10.1197 15.9768 10.2965V12.9032C15.9768 13.08 15.9065 13.2496 15.7815 13.3746C15.6565 13.4996 15.4869 13.5699 15.3101 13.5699Z" fill="#666666"/>
<path d="M9.99992 10.9634C9.91237 10.9634 9.82568 10.9461 9.7448 10.9126C9.66391 10.8791 9.59042 10.83 9.52851 10.7681C9.46661 10.7062 9.4175 10.6327 9.384 10.5518C9.3505 10.4709 9.33325 10.3842 9.33325 10.2967V7.10002C9.33325 7.01247 9.3505 6.92578 9.384 6.84489C9.4175 6.76401 9.46661 6.69052 9.52851 6.62861C9.59042 6.56671 9.66391 6.5176 9.7448 6.4841C9.82568 6.45059 9.91237 6.43335 9.99992 6.43335C10.0875 6.43335 10.1742 6.45059 10.255 6.4841C10.3359 6.5176 10.4094 6.56671 10.4713 6.62861C10.5332 6.69052 10.5823 6.76401 10.6158 6.84489C10.6493 6.92578 10.6666 7.01247 10.6666 7.10002V10.2967C10.6666 10.3842 10.6493 10.4709 10.6158 10.5518C10.5823 10.6327 10.5332 10.7062 10.4713 10.7681C10.4094 10.83 10.3359 10.8791 10.255 10.9126C10.1742 10.9461 10.0875 10.9634 9.99992 10.9634Z" fill="#666666"/>
</svg>
