<svg width="24" height="24" viewBox="0 0 24 24" fill="none" xmlns="http://www.w3.org/2000/svg">
<g clip-path="url(#clip0_206_384)">
<path d="M22.4196 0.0117188H1.58085C0.718552 0.0117188 0.0239258 0.706345 0.0239258 1.56864V22.4074C0.0239258 23.2697 0.718552 23.9644 1.58085 23.9644H22.4196C23.2819 23.9644 23.9766 23.2697 23.9766 22.4074V1.56864C23.9766 0.706345 23.2819 0.0117188 22.4196 0.0117188Z" fill="#8894FF"/>
<path d="M10.487 6.40137C10.1907 6.40137 9.89446 6.69762 9.96821 6.99387C9.96821 7.29012 10.2645 7.58637 10.5607 7.58637C10.857 7.58637 11.1532 7.29012 11.1532 6.99387C11.0795 6.62387 10.857 6.40137 10.487 6.40137Z" fill="white"/>
<path d="M18.19 10.2531C17.8938 9.06815 17.2269 8.40127 16.3382 8.40127H15.5232V7.1419C15.5232 6.17877 14.7825 5.3644 13.6713 5.21627C12.6344 5.06815 11.6713 4.9944 10.4863 5.21627C8.93129 5.51252 8.63504 6.1794 8.63504 7.1419V8.3269H7.82004C6.63504 8.40065 5.82004 9.06752 5.59816 10.1788C5.30191 11.4381 5.30191 12.2525 5.59816 13.4375C5.89441 14.6225 6.56129 15.2894 7.59816 15.2894H8.26504V16.4744C8.26504 17.3631 8.93191 18.03 10.0425 18.4C10.635 18.5481 11.1538 18.6225 11.6719 18.6225C12.1907 18.6225 12.7088 18.5481 13.3013 18.4C14.7825 17.9556 15.0788 17.1406 15.0788 16.4744V15.2894H16.2638C17.4488 15.2894 17.8194 14.4006 18.1157 13.5119C18.4863 12.5488 18.4863 11.5119 18.19 10.2531ZM8.26441 13.5119V14.5488H7.59816C6.93129 14.5488 6.56129 14.1044 6.33879 13.2894C6.04254 12.1781 6.04254 11.5119 6.33879 10.3269C6.56129 9.29002 7.45004 9.06752 7.89441 9.06752H12.1163C12.3388 9.06752 12.4869 8.9194 12.4869 8.6969C12.4869 8.47502 12.3388 8.3269 12.1163 8.3269H9.37566V7.1419C9.37566 6.47502 9.45004 6.10502 10.5607 5.9569C11.5975 5.80877 12.5607 5.80877 13.5232 5.9569C14.1157 6.03127 14.7082 6.47565 14.7082 7.1419V10.0306C14.7082 10.6975 14.1894 11.2156 13.5232 11.2156H10.5607C9.30191 11.29 8.26441 12.3269 8.26441 13.5119ZM17.4494 13.2894C17.0788 14.3263 16.8569 14.6225 16.2644 14.6225H11.6719C11.4494 14.6225 11.3013 14.7706 11.3013 14.9925C11.3013 15.215 11.4494 15.3631 11.6719 15.3631H14.3382V16.5481C14.3382 17.0669 13.8938 17.5113 13.0788 17.7331C12.1157 18.0294 11.2269 18.0294 10.2644 17.7331C9.67191 17.585 9.00504 17.2144 9.00504 16.5481V13.5856C9.00504 12.7706 9.74566 12.03 10.5607 12.03H13.5975C14.6344 12.03 15.5232 11.1413 15.5232 10.1044V9.1419H16.3382C16.7088 9.1419 17.2269 9.29002 17.5232 10.4013C17.7457 11.5863 17.7457 12.475 17.4494 13.2894Z" fill="white"/>
<path d="M13.3757 17.1413C13.672 17.1413 13.9682 16.845 13.9682 16.5488C13.9682 16.2525 13.672 15.9563 13.3757 15.9563C13.0795 15.9563 12.7832 16.2525 12.7832 16.5488C12.7832 16.845 13.0795 17.1413 13.3757 17.1413Z" fill="white"/>
</g>
<defs>
<clipPath id="clip0_206_384">
<rect width="24" height="24" fill="white"/>
</clipPath>
</defs>
</svg>
