<svg width="24" height="24" viewBox="0 0 24 24" fill="none" xmlns="http://www.w3.org/2000/svg">
<g clip-path="url(#clip0_206_371)">
<path d="M22.4196 0.0117188H1.58085C0.718552 0.0117188 0.0239258 0.706345 0.0239258 1.56864V22.4074C0.0239258 23.2697 0.718552 23.9644 1.58085 23.9644H22.4196C23.2819 23.9644 23.9766 23.2697 23.9766 22.4074V1.56864C23.9766 0.706345 23.2819 0.0117188 22.4196 0.0117188Z" fill="#8894FF"/>
<path d="M20.3873 6.49426V5.95107C20.3873 5.29463 19.8554 4.7627 19.1992 4.7627H4.79804C4.13804 4.7627 3.6031 5.29782 3.6031 5.95801V6.79257C3.60104 6.82951 3.6001 6.86682 3.6001 6.90432V17.1722C3.59991 18.3109 4.52635 19.2375 5.66522 19.2375H18.2658C19.4425 19.2375 20.3999 18.2799 20.3999 17.103V6.71007C20.3999 6.63713 20.3956 6.56513 20.3873 6.49426ZM10.8016 5.7002C11.1123 5.7002 11.3641 5.95201 11.3641 6.26288C11.3641 6.57376 11.1123 6.82557 10.8016 6.82557C10.4909 6.82557 10.2391 6.57376 10.2391 6.26288C10.2391 5.95201 10.4909 5.7002 10.8016 5.7002ZM8.40104 5.7002C8.71172 5.7002 8.96354 5.95201 8.96354 6.26288C8.96354 6.57376 8.71172 6.82557 8.40104 6.82557C8.09035 6.82557 7.83854 6.57376 7.83854 6.26288C7.83854 5.95201 8.09035 5.7002 8.40104 5.7002ZM6.00066 5.7002C6.31135 5.7002 6.56316 5.95201 6.56316 6.26288C6.56316 6.57376 6.31135 6.82557 6.00066 6.82557C5.68997 6.82557 5.43816 6.57376 5.43816 6.26288C5.43816 5.95201 5.68997 5.7002 6.00066 5.7002ZM19.1999 17.103C19.1999 17.6181 18.7808 18.0373 18.2658 18.0373H5.66522C5.18804 18.0373 4.79991 17.649 4.79991 17.1718V7.62563H19.1999V17.103Z" fill="white"/>
<path d="M9.35615 16.2C9.2024 16.2 9.04884 16.1413 8.93146 16.0239L6.11896 13.2071C5.88515 12.9729 5.88515 12.5934 6.11896 12.3592L8.92303 9.55106C9.15721 9.3165 9.53709 9.31631 9.77146 9.5505C10.006 9.78469 10.0062 10.1646 9.77221 10.3989L7.39153 12.7832L9.78065 15.1761C10.0148 15.4106 10.0145 15.7905 9.7799 16.0245C9.6629 16.1415 9.50953 16.2 9.35615 16.2ZM14.7187 16.2C14.5653 16.2 14.4119 16.1415 14.2947 16.0245C14.0602 15.7903 14.06 15.4104 14.2942 15.1761L16.6833 12.7832L14.3028 10.3989C14.0686 10.1644 14.069 9.7845 14.3033 9.5505C14.5377 9.31631 14.9178 9.31669 15.1518 9.55106L17.9557 12.3592C18.1895 12.5934 18.1895 12.9729 17.9557 13.2071L15.1432 16.0239C15.0262 16.1413 14.8724 16.2 14.7187 16.2ZM11.0812 16.2377C11.0148 16.2377 10.9475 16.2266 10.8813 16.2032C10.5689 16.0927 10.405 15.75 10.5155 15.4376L12.503 9.81263C12.6134 9.50025 12.9562 9.33637 13.2685 9.44681C13.5809 9.55725 13.7448 9.9 13.6343 10.2124L11.6468 15.8374C11.5598 16.0837 11.3283 16.2377 11.0812 16.2377Z" fill="white"/>
<path d="M14.3667 20.0495C14.1589 19.8489 14.0304 19.5802 14.0047 19.2925C13.9791 19.0049 14.0581 18.7176 14.2272 18.4835L15.6617 16.4975C15.7728 16.3435 15.919 16.2182 16.088 16.1317C16.2571 16.0452 16.4443 16.0001 16.6342 16H20.7942C20.9838 16 21.1708 16.0449 21.3398 16.1311C21.5088 16.2173 21.6549 16.3424 21.7662 16.496L23.2067 18.483L21.8157 16.5645L17.5852 23.156L17.8852 23.4455L14.3667 20.0495Z" fill="#F9C85E"/>
<path d="M21.8155 16.5652L23.2065 18.4832C23.3761 18.7173 23.4556 19.0047 23.4303 19.2927C23.4049 19.5807 23.2764 19.8499 23.0685 20.0507L19.5515 23.4457C19.3277 23.6617 19.0289 23.7824 18.718 23.7824C18.407 23.7824 18.1082 23.6617 17.8845 23.4457L17.585 23.1562L21.8155 16.5652Z" fill="#FFB800"/>
</g>
<defs>
<clipPath id="clip0_206_371">
<rect width="24" height="24" fill="white"/>
</clipPath>
</defs>
</svg>
