<svg width="20" height="21" viewBox="0 0 20 21" fill="none" xmlns="http://www.w3.org/2000/svg">
<path d="M0 20.4142V0.41423H20L0 20.4142Z" fill="#CE9965"/>
<path d="M4.31901 8.96895L4.38265 8.55741C4.58347 8.54327 4.79843 8.53196 5.02753 8.52347C5.2538 8.51216 5.48008 8.5065 5.70635 8.5065C5.9298 8.50367 6.14334 8.50509 6.34699 8.51074C6.54781 8.51357 6.72317 8.52206 6.87308 8.5362L6.81792 9.00713C6.66802 8.98734 6.49265 8.97319 6.29184 8.96471C6.09385 8.95339 5.8803 8.94632 5.6512 8.94349C5.42492 8.93784 5.19723 8.93925 4.96813 8.94774C4.73903 8.95057 4.52265 8.95764 4.31901 8.96895ZM2.64316 7.19977L2.96561 6.87733L3.79716 7.70889C3.93293 7.84465 4.06728 7.99597 4.20021 8.16285C4.33598 8.3269 4.45902 8.50933 4.56932 8.71015C4.68246 8.90814 4.77156 9.13017 4.83661 9.37624C4.90449 9.61949 4.93702 9.88678 4.93419 10.1781C4.93136 10.4694 4.88611 10.789 4.79843 11.1369C4.75883 11.1256 4.71075 11.12 4.65418 11.12C4.60044 11.1171 4.54245 11.1157 4.48023 11.1157C4.42083 11.1129 4.36992 11.1157 4.32749 11.1242C4.42649 10.7989 4.48023 10.502 4.48871 10.2333C4.49437 9.96173 4.4675 9.71707 4.4081 9.49928C4.34871 9.27584 4.2681 9.07643 4.16627 8.90107C4.06445 8.72571 3.95273 8.5659 3.8311 8.42165C3.70948 8.2774 3.58927 8.14588 3.47048 8.02708L2.64316 7.19977ZM1.82434 9.46958L5.06571 6.2282L5.37967 6.54216L2.45225 9.46958L5.32451 12.3418L5.01056 12.6558L1.82434 9.46958ZM4.92146 6.37245L5.23542 6.0585L7.99314 8.81621C8.09779 8.92087 8.16284 9.0142 8.1883 9.09623C8.21658 9.18108 8.20951 9.27301 8.16708 9.372C8.11617 9.47382 8.02566 9.59262 7.89555 9.72838C7.7711 9.86415 7.61413 10.0268 7.42462 10.2163C7.38785 10.1908 7.34401 10.164 7.2931 10.1357C7.24502 10.1102 7.1941 10.0848 7.14036 10.0593C7.08662 10.0339 7.03713 10.0155 6.99187 10.0042C7.09652 9.90516 7.1941 9.81041 7.28461 9.7199C7.38078 9.62939 7.46281 9.55019 7.53069 9.48231C7.6014 9.4116 7.64948 9.36352 7.67494 9.33806C7.71454 9.2928 7.73433 9.25604 7.73433 9.22775C7.73151 9.19664 7.71171 9.1627 7.67494 9.12593L4.92146 6.37245ZM8.07374 2.54983L8.45558 2.93167L9.17259 2.21467L8.79075 1.83283L8.07374 2.54983ZM7.08097 3.54261L7.4628 3.92445L8.16284 3.22441L7.781 2.84258L7.08097 3.54261ZM6.11364 4.50994L6.49548 4.89177L7.17006 4.21719L6.78822 3.83536L6.11364 4.50994ZM5.57907 4.5863L8.87985 1.28553L9.72413 2.12981L6.42336 5.43059L5.57907 4.5863ZM6.46154 5.88455L10.0848 2.26133L10.3351 2.51165L6.71186 6.13487L6.46154 5.88455ZM7.781 3.91172L8.1289 3.60625C8.25335 3.77596 8.38063 3.96263 8.51074 4.16628C8.64084 4.36427 8.75257 4.53822 8.8459 4.68813L8.54468 4.98935C8.48245 4.88753 8.40891 4.77439 8.32406 4.64994C8.23638 4.52266 8.14587 4.39538 8.05253 4.2681C7.95636 4.138 7.86585 4.0192 7.781 3.91172ZM8.70166 8.218L12.4691 4.45054L12.7067 4.68812L8.93924 8.45559L8.70166 8.218ZM8.08647 6.16881L10.3987 3.85657L10.5896 4.04749L8.27739 6.35973L8.08647 6.16881ZM8.54044 6.58883L10.8272 4.30204L11.0181 4.49296L8.73135 6.77975L8.54044 6.58883ZM8.99864 7.01309L11.2854 4.72631L11.4763 4.91723L9.18956 7.20401L8.99864 7.01309ZM7.47977 5.86758L10.1017 3.24563L12.0194 5.1633L11.7054 5.47726L10.0041 3.77596L8.00162 5.77848L9.70292 7.47978L9.39745 7.78525L7.47977 5.86758Z" fill="white"/>
</svg>
