<svg width="14" height="14" viewBox="0 0 14 14" fill="none" xmlns="http://www.w3.org/2000/svg">
<g clip-path="url(#clip0_209_2971)">
<path d="M3.21152 0.875C1.43691 0.875 0 2.31191 0 4.08652V9.91484C0 9.99004 0.00273438 10.0652 0.00820313 10.1404C0.00820313 10.1418 0.00820313 10.1432 0.00820313 10.1432C0.00957031 10.1678 0.0123047 10.1924 0.0136719 10.217C0.0136719 10.2184 0.0136719 10.2211 0.0136719 10.2225C0.0164062 10.2457 0.0191406 10.2703 0.021875 10.2936C0.021875 10.2963 0.021875 10.299 0.0232422 10.3018C0.0259766 10.325 0.0287109 10.3482 0.0328125 10.3715C0.0328125 10.3742 0.0341797 10.3783 0.0341797 10.3811C0.0369141 10.4043 0.0410156 10.4262 0.0451172 10.448C0.0451172 10.4521 0.0464844 10.4549 0.0464844 10.459C0.0505859 10.4809 0.0546875 10.5027 0.0587891 10.5246C0.0601563 10.5287 0.0601562 10.5328 0.0615234 10.5355C0.065625 10.5574 0.0697266 10.5793 0.0751953 10.5998C0.0765625 10.6039 0.0765625 10.608 0.0779297 10.6121C0.0820312 10.634 0.0875 10.6545 0.0929688 10.675C0.0943359 10.6791 0.0943359 10.6832 0.0957031 10.6873C0.101172 10.7078 0.106641 10.7283 0.112109 10.7502C0.113477 10.7543 0.114844 10.7584 0.116211 10.7625C0.12168 10.783 0.127148 10.8035 0.133984 10.824C0.135352 10.8281 0.136719 10.8322 0.138086 10.8377C0.143555 10.8582 0.150391 10.8787 0.157227 10.8979C0.158594 10.902 0.159961 10.9061 0.161328 10.9115C0.168164 10.932 0.175 10.9512 0.181836 10.9717C0.183203 10.9758 0.18457 10.9799 0.185938 10.9854C0.192773 11.0045 0.199609 11.025 0.207813 11.0441C0.20918 11.0482 0.210547 11.0523 0.213281 11.0578C0.220117 11.077 0.22832 11.0961 0.236523 11.1166C0.237891 11.1207 0.240625 11.1248 0.241992 11.1289C0.250195 11.148 0.258398 11.1672 0.266602 11.1863C0.267969 11.1904 0.270703 11.1945 0.27207 11.1986C0.280273 11.2178 0.288477 11.2369 0.298047 11.2561C0.299414 11.2602 0.302148 11.2643 0.303516 11.2684C0.311719 11.2875 0.321289 11.3066 0.330859 11.3258C0.332227 11.3299 0.334961 11.334 0.336328 11.3367C0.345898 11.3559 0.355469 11.375 0.365039 11.3928C0.366406 11.3969 0.369141 11.3996 0.370508 11.4037C0.380078 11.4229 0.391016 11.442 0.400586 11.4598C0.401953 11.4625 0.404688 11.4666 0.406055 11.4693C0.416992 11.4885 0.42793 11.5076 0.4375 11.5254C0.438867 11.5281 0.440234 11.5309 0.442969 11.5336C0.453906 11.5527 0.464844 11.5719 0.477148 11.591C0.478516 11.5938 0.479883 11.5951 0.48125 11.5979C0.493555 11.617 0.505859 11.6361 0.518164 11.6553C0.519531 11.6566 0.519531 11.658 0.520898 11.6594C0.533203 11.6799 0.546875 11.699 0.560547 11.7182C0.560547 11.7182 0.560547 11.7182 0.560547 11.7195C0.686328 11.9041 0.83125 12.0764 0.992578 12.2309C0.993945 12.2322 0.993945 12.2322 0.995313 12.2336C1.01035 12.2486 1.02539 12.2623 1.0418 12.276C1.04453 12.2787 1.04863 12.2814 1.05137 12.2855C1.06504 12.2979 1.08008 12.3115 1.09375 12.3238C1.09785 12.3279 1.10332 12.332 1.10742 12.3361C1.12109 12.3484 1.13477 12.3594 1.14844 12.3703C1.15391 12.3758 1.15938 12.3799 1.16621 12.3854C1.17988 12.3963 1.19219 12.4072 1.20586 12.4182C1.2127 12.4236 1.21953 12.4291 1.225 12.4346C1.2373 12.4441 1.25098 12.4551 1.26328 12.4646C1.27012 12.4701 1.27832 12.4756 1.28516 12.4811C1.29746 12.4906 1.30977 12.5002 1.32344 12.5084C1.33164 12.5139 1.33848 12.5193 1.34668 12.5262C1.35898 12.5344 1.37129 12.5439 1.38359 12.5521C1.3918 12.5576 1.4 12.5645 1.4082 12.5699C1.42051 12.5781 1.43281 12.5863 1.44512 12.5945C1.45332 12.6 1.46289 12.6068 1.47109 12.6123C1.4834 12.6205 1.4957 12.6273 1.50801 12.6355C1.51758 12.641 1.52715 12.6479 1.53535 12.6533C1.54766 12.6602 1.55996 12.6684 1.57227 12.6752C1.58184 12.6807 1.59141 12.6861 1.60098 12.693C1.61328 12.6998 1.62559 12.7066 1.63789 12.7135C1.64746 12.7189 1.6584 12.7244 1.66797 12.7299C1.68027 12.7367 1.69258 12.7436 1.70488 12.7504C1.71582 12.7559 1.72539 12.7613 1.73633 12.7668C1.74863 12.7736 1.76094 12.7791 1.77324 12.7859C1.78418 12.7914 1.79512 12.7969 1.80469 12.8023C1.81699 12.8078 1.8293 12.8146 1.8416 12.8201C1.85254 12.8256 1.86348 12.8311 1.87441 12.8352C1.88672 12.8406 1.89902 12.8461 1.91133 12.8516C1.92227 12.857 1.9332 12.8611 1.94551 12.8666C1.95781 12.8721 1.97012 12.8775 1.98242 12.8816C1.99336 12.8871 2.00566 12.8912 2.0166 12.8953C2.02891 12.9008 2.04121 12.9049 2.05352 12.9104C2.06582 12.9145 2.07676 12.9199 2.08906 12.924C2.10137 12.9281 2.11367 12.9336 2.12598 12.9377C2.13828 12.9418 2.15059 12.9459 2.16152 12.95C2.17383 12.9541 2.18613 12.9582 2.19844 12.9623C2.21074 12.9664 2.22305 12.9705 2.23535 12.9746C2.24766 12.9787 2.25996 12.9828 2.27227 12.9869C2.28457 12.991 2.29688 12.9951 2.31055 12.9979C2.32285 13.002 2.33516 13.0047 2.34746 13.0088C2.35977 13.0129 2.37344 13.0156 2.38574 13.0197C2.39805 13.0225 2.41035 13.0266 2.42266 13.0293C2.43633 13.032 2.44863 13.0361 2.4623 13.0389C2.47461 13.0416 2.48691 13.0443 2.49922 13.0471C2.51289 13.0498 2.5252 13.0525 2.53887 13.0553C2.55117 13.058 2.56348 13.0607 2.57578 13.0635C2.58945 13.0662 2.60312 13.0689 2.6168 13.0717C2.6291 13.0744 2.64141 13.0758 2.65371 13.0785C2.66738 13.0812 2.68105 13.0826 2.69473 13.0854C2.70703 13.0867 2.71934 13.0895 2.73164 13.0908C2.74531 13.0936 2.76035 13.0949 2.77402 13.0963C2.78633 13.0977 2.79863 13.099 2.81094 13.1018C2.82598 13.1031 2.83965 13.1045 2.85469 13.1072C2.86699 13.1086 2.87793 13.11 2.89023 13.1113C2.90527 13.1127 2.92031 13.1141 2.93535 13.1154C2.94629 13.1168 2.95859 13.1182 2.96953 13.1182C2.98594 13.1195 3.00234 13.1209 3.01738 13.1209C3.02832 13.1209 3.03926 13.1223 3.0502 13.1223C3.06797 13.1236 3.08711 13.1236 3.10488 13.125C3.11445 13.125 3.12266 13.1264 3.13223 13.1264C3.15957 13.1264 3.18691 13.1277 3.21426 13.1277H14V7V0.875H3.21152ZM13.125 12.25H3.21152C3.19238 12.25 3.17324 12.25 3.1541 12.2486C3.14316 12.2486 3.13223 12.2473 3.12129 12.2473C3.11309 12.2473 3.10488 12.2473 3.09668 12.2459C3.08164 12.2445 3.0666 12.2445 3.05156 12.2432C3.04746 12.2432 3.04473 12.2432 3.04062 12.2432C3.02285 12.2418 3.00371 12.2404 2.98594 12.2391H2.98457C2.46367 12.1898 1.97695 11.967 1.59414 11.6006C1.16895 11.1932 0.916016 10.6477 0.880469 10.0625C0.917383 9.47734 1.17031 8.93184 1.59551 8.52441C2.03164 8.10605 2.60586 7.875 3.21152 7.875H13.125V12.25ZM3.21152 7C2.29141 7 1.46152 7.38691 0.875 8.00762V4.08652C0.875 3.46309 1.11836 2.87656 1.55859 2.43496C2.0002 1.99336 2.58672 1.75137 3.21016 1.75137H13.125V7.00137H3.21152V7Z" fill="black"/>
</g>
<defs>
<clipPath id="clip0_209_2971">
<rect width="14" height="14" fill="white"/>
</clipPath>
</defs>
</svg>
