<?xml version="1.0" encoding="UTF-8"?>
<svg width="480px" height="275px" viewBox="0 0 480 275" version="1.1" xmlns="http://www.w3.org/2000/svg" xmlns:xlink="http://www.w3.org/1999/xlink">
    <title>Group 5@3x</title>
    <defs>
        <linearGradient x1="50%" y1="3.85205925%" x2="50%" y2="100%" id="linearGradient-1">
            <stop stop-color="#779EEA" stop-opacity="0.4" offset="0%"></stop>
            <stop stop-color="#FFFFFF" stop-opacity="0" offset="100%"></stop>
        </linearGradient>
    </defs>
    <g id="保留线条" stroke="none" stroke-width="1" fill="none" fill-rule="evenodd">
        <g id="403页面-" transform="translate(-400.000000, -165.000000)">
            <g id="Group-5" transform="translate(400.000000, 160.000000)">
                <path d="M224,184 C316.167479,184 393.779717,226.66762 416.99916,279.998071 L31.0008398,279.998071 C54.2202826,226.66762 131.832521,184 224,184 Z" id="Combined-Shape" fill="url(#linearGradient-1)"></path>
                <g id="Group-7" transform="translate(305.923726, 189.499104) rotate(-345.000000) translate(-305.923726, -189.499104) translate(271.923726, 165.999104)">
                    <path d="M40.1641715,20.0455183 L40.1641715,45.0477565 L27.7211138,45.0477565 L27.7211138,20.0455183 L40.1641715,20.0455183 Z" id="Rectangle-21-Copy" stroke="#779EEA" stroke-width="2" fill="#F8FAFE"></path>
                    <rect id="Rectangle-21" stroke="#779EEA" stroke-width="2" fill="#F8FAFE" x="1" y="1" width="65.8195751" height="20.606525"></rect>
                    <text id="No-Access" font-family="PingFangSC-Regular, PingFang SC" font-size="10" font-weight="normal" line-spacing="23" fill="#779EEA">
                        <tspan x="9.36654645" y="11.8093293">No Access</tspan>
                    </text>
                </g>
                <g id="Group-4" transform="translate(74.000000, 90.000000)">
                    <text id="4" font-family="Helvetica" font-size="72" font-weight="normal" line-spacing="23" fill="#779EEA">
                        <tspan x="0" y="72">4</tspan>
                    </text>
                    <text id="3" transform="translate(172.500000, 52.500000) rotate(7.000000) translate(-172.500000, -52.500000) " font-family="PingFangSC-Regular, PingFang SC" font-size="72" font-weight="normal" line-spacing="23" fill="#779EEA">
                        <tspan x="147" y="79">3</tspan>
                    </text>
                    <g id="Group-2" transform="translate(64.000000, 20.000000)">
                        <polygon id="Path-2" fill-opacity="0.05" fill="#779EEA" opacity="0.5" points="8.74747754 9.94462365 2.77967508 16.706367 1.11524921 26.0944426 56.3716628 11.4665463 48.2464789 3.79384784 37.2373747 0 21.3877106 1.57049493"></polygon>
                        <circle id="Oval-12" stroke="#779EEA" stroke-width="2.5" cx="32" cy="32" r="32"></circle>
                        <path d="M53.1428571,21.7142857 L50.6085091,27.0945608 C50.4021656,27.5586051 50.2857143,28.0862006 50.2857143,28.6461713 C50.2857143,30.498751 51.5646356,32 53.1428571,32 C54.7210787,32 56,30.498751 56,28.6461713 C56,28.0862006 55.8835487,27.5586051 55.6761837,27.0945608 L53.1428571,21.7142857 Z" id="Shape" fill="#779EEA" fill-rule="nonzero"></path>
                        <path d="M11.7387961,35.0245104 C12.2910809,35.0245104 12.7387961,35.4722257 12.7387961,36.0245104 L12.7380818,39.0245104 L15.7387961,39.0245104 C16.2910809,39.0245104 16.7387961,39.4722257 16.7387961,40.0245104 L16.7387961,40.3102247 C16.7387961,40.8625094 16.2910809,41.3102247 15.7387961,41.3102247 L12.7380818,41.3095104 L12.7387961,44.3102247 C12.7387961,44.8625094 12.2910809,45.3102247 11.7387961,45.3102247 L11.4530818,45.3102247 C10.9007971,45.3102247 10.4530818,44.8625094 10.4530818,44.3102247 L10.4520818,41.3095104 L7.45308184,41.3102247 C6.90079709,41.3102247 6.45308184,40.8625094 6.45308184,40.3102247 L6.45308184,40.0245104 C6.45308184,39.4722257 6.90079709,39.0245104 7.45308184,39.0245104 L10.4520818,39.0245104 L10.4530818,36.0245104 C10.4530818,35.4722257 10.9007971,35.0245104 11.4530818,35.0245104 L11.7387961,35.0245104 Z" id="Combined-Shape" fill="#779EEA" transform="translate(11.595939, 40.167368) rotate(-315.000000) translate(-11.595939, -40.167368) "></path>
                        <path d="M41.1428571,50.2857143 C41.1428571,46.4986189 37.3052979,43.4285714 32.5714286,43.4285714 C27.8375593,43.4285714 24,46.4986189 24,50.2857143" id="Oval-12-Copy" stroke="#779EEA" stroke-width="2.5"></path>
                        <line x1="48" y1="4.57142857" x2="4.57142857" y2="16" id="Path-6" stroke="#779EEA" stroke-width="2.5"></line>
                        <line x1="56" y1="11.4285714" x2="1.14285714" y2="25.8285714" id="Path-6-Copy" stroke="#779EEA" stroke-width="2.5"></line>
                        <g id="Group" transform="translate(19.428571, 28.571429)" fill="#779EEA">
                            <ellipse id="Oval-13" cx="3.14285714" cy="3.42857143" rx="3.14285714" ry="3.42857143"></ellipse>
                            <ellipse id="Oval-13-Copy" cx="22" cy="3.42857143" rx="3.14285714" ry="3.42857143"></ellipse>
                        </g>
                    </g>
                </g>
                <path d="M335.5,5 C355.28247,5 373.311146,12.5579615 386.891343,24.9615862 L415.259259,24.962963 C419.196845,24.962963 422.388889,28.1550069 422.388889,32.0925926 C422.388889,36.0301783 419.196845,39.2222222 415.259259,39.2222222 L399.117367,39.2215207 C407.25451,51.4569431 412,66.1706651 412,82 C412,96.2223291 408.169132,109.544063 401.489349,120.97683 L430.37037,120.975309 C434.307956,120.975309 437.5,124.167353 437.5,128.104938 C437.5,132.042524 434.307956,135.234568 430.37037,135.234568 L390.770661,135.236348 C387.441692,138.736894 383.787724,141.92176 379.857541,144.741845 L451.148148,144.740741 C455.085734,144.740741 458.277778,147.932785 458.277778,151.87037 C458.277778,155.807956 455.085734,159 451.148148,159 L337.907407,159 C337.711277,159 337.516997,158.992081 337.324868,158.976544 L336.765067,158.989684 L336.765067,158.989684 L335.5,159 C293.250217,159 259,124.525926 259,82 C259,39.4740743 293.250217,5 335.5,5 Z M472.916667,144.740741 C476.828684,144.740741 480,147.912057 480,151.824074 L480,151.916667 C480,155.828684 476.828684,159 472.916667,159 C469.00465,159 465.833333,155.828684 465.833333,151.916667 L465.833333,151.824074 C465.833333,147.912057 469.00465,144.740741 472.916667,144.740741 Z M435.138889,24.962963 C439.050906,24.962963 442.222222,28.1342793 442.222222,32.0462963 L442.222222,32.1388889 C442.222222,36.0509059 439.050906,39.2222222 435.138889,39.2222222 C431.226872,39.2222222 428.055556,36.0509059 428.055556,32.1388889 L428.055556,32.0462963 C428.055556,28.1342793 431.226872,24.962963 435.138889,24.962963 Z" id="Combined-Shape" fill="#779EEA" opacity="0.05"></path>
                <g id="Group-3" transform="translate(322.500000, 72.500000) rotate(-330.000000) translate(-322.500000, -72.500000) translate(268.000000, 21.000000)">
                    <g id="Group" transform="translate(5.000000, 0.000000)">
                        <ellipse id="Oval-8" stroke="#779EEA" stroke-width="2.5" fill="#FCFDFF" cx="49.4394187" cy="49.0452781" rx="49.4394187" ry="16.7860189"></ellipse>
                        <ellipse id="Oval-8-Copy" stroke="#779EEA" stroke-width="2.5" fill="#FFFFFF" cx="49.4394187" cy="40.3600929" rx="49.4394187" ry="16.7860189"></ellipse>
                        <path d="M49.382716,40.9578094 C66.4285417,40.9578094 80.2469136,39.6865672 80.2469136,27.3323151 C80.2469136,14.9780631 66.4285417,0 49.382716,0 C32.3368904,0 18.5185185,14.9780631 18.5185185,27.3323151 C18.5185185,39.6865672 32.3368904,40.9578094 49.382716,40.9578094 Z" id="Oval-8-Copy-2" stroke="#779EEA" stroke-width="2.5" fill="#FFFFFF"></path>
                        <ellipse id="Oval-18" fill="#779EEA" cx="13.5802469" cy="40.9444444" rx="2.4691358" ry="2.48148148"></ellipse>
                        <ellipse id="Oval-18-Copy-4" fill="#779EEA" cx="85.1851852" cy="40.9444444" rx="2.4691358" ry="2.48148148"></ellipse>
                        <ellipse id="Oval-18-Copy" fill="#779EEA" cx="29.6296296" cy="47.1481481" rx="2.4691358" ry="2.48148148"></ellipse>
                        <ellipse id="Oval-18-Copy-3" fill="#779EEA" cx="69.1358025" cy="47.1481481" rx="2.4691358" ry="2.48148148"></ellipse>
                        <ellipse id="Oval-18-Copy-2" fill="#779EEA" cx="49.382716" cy="49.6296296" rx="2.4691358" ry="2.48148148"></ellipse>
                        <path d="M38.768217,12.4074074 C33.4176696,15.150696 29.9599511,19.1911019 28.3950617,24.5286253" id="Path-11" stroke="#779EEA" stroke-width="3"></path>
                    </g>
                    <g id="Group-2" transform="translate(0.000000, 77.000000)" stroke="#779EEA" stroke-width="2.5">
                        <line x1="54.75" y1="0" x2="54.75" y2="25.0535225" id="Path-12"></line>
                        <line x1="26.3210227" y1="0" x2="0" y2="24.7619048" id="Path-12-Copy"></line>
                        <line x1="108.071023" y1="0" x2="81.75" y2="24.7619048" id="Path-12-Copy-2" transform="translate(95.375000, 12.380952) scale(-1, 1) translate(-95.375000, -12.380952) "></line>
                    </g>
                </g>
                <path d="M64.8409091,71 C69.6125077,71 73.6730365,74.0755179 75.1859896,78.3713082 C76.1182937,77.9703809 77.1373585,77.75 78.2045455,77.75 C81.3912668,77.75 84.1488951,79.7150841 85.4760692,82.5741686 L85.2857143,82.5714286 C89.5461966,82.5714286 93,86.0252319 93,90.2857143 C93,94.5461966 89.5461966,98 85.2857143,98 L58.7142857,98 C54.4538034,98 51,94.5461966 51,90.2857143 C51,87.7774979 52.1970439,85.5488661 54.0510082,84.1399423 C53.9280093,83.4759424 53.8636364,82.7902083 53.8636364,82.0892857 C53.8636364,75.9648423 58.7783288,71 64.8409091,71 Z" id="Combined-Shape" fill="#779EEA" opacity="0.3"></path>
                <path d="M447.395349,92 C452.360512,92 456.519855,95.3503917 457.606784,99.8501008 C458.906369,98.9866377 460.479645,98.4814815 462.174419,98.4814815 C465.080944,98.4814815 467.63012,99.967248 469.060494,102.199339 C472.93359,102.441227 476,105.65881 476,109.592593 C476,113.683591 472.683591,117 468.592593,117 L442.407407,117 C438.316409,117 435,113.683591 435,109.592593 C435,107.55757 435.820631,105.714217 437.149022,104.375402 C436.990856,103.669771 436.906977,102.936991 436.906977,102.185185 C436.906977,96.5600627 441.602781,92 447.395349,92 Z" id="Combined-Shape-Copy-2" fill="#779EEA" opacity="0.3"></path>
                <path d="M57.2051282,175 C62.046207,175 66.1019508,178.286575 67.1643582,182.701527 C68.1385332,182.250608 69.2202379,182 70.3589744,182 C73.2449173,182 75.764553,183.60962 77.1120677,186.00184 L77,186 C80.8659932,186 84,189.134007 84,193 C84,196.865993 80.8659932,200 77,200 L53,200 C49.1340068,200 46,196.865993 46,193 C46,191.293556 46.6106072,189.729727 47.6252504,188.515084 C47.2042784,187.422229 46.974359,186.237359 46.974359,185 C46.974359,179.477153 51.5548304,175 57.2051282,175 Z" id="Combined-Shape-Copy-5" fill="#779EEA" opacity="0.3"></path>
                <path d="M129.631579,19.5 C133.156773,19.5 136.43828,20.5331742 139.182617,22.3116597 C142.010657,24.14439 144.268872,26.767649 145.634275,29.8651858 C145.843785,30.3404792 146.030872,30.8237566 146.195565,31.313131 C146.640369,31.061127 147.098887,30.8405131 147.568101,30.6511931 C148.911853,30.109012 150.370564,29.8125 151.894737,29.8125 C154.460458,29.8125 156.839884,30.6539022 158.802736,32.0866464 C160.845028,33.5773774 162.43746,35.7058198 163.330854,38.1970422 C163.455506,38.5446334 163.565163,38.89542 163.660116,39.2481331 C164.01689,39.2103297 164.378347,39.190867 164.743525,39.190692 C167.674977,39.1892871 170.367724,40.4310011 172.325004,42.4265441 C174.276989,44.4166878 175.5,47.1591905 175.5,50.1875 C175.5,53.3614639 174.282127,56.1850254 172.298313,58.2184346 C170.307749,60.2587625 167.548726,61.5 164.5,61.5 L164.5,61.5 L117.5,61.5 C114.462434,61.5 111.712434,60.2687831 109.721825,58.2781746 C107.731217,56.2875661 106.5,53.5375661 106.5,50.5 C106.5,46.2731104 108.562677,42.7938599 111.691605,40.8440609 C111.97654,40.6665036 112.268964,40.502472 112.567681,40.3523392 C112.494809,40.0160396 112.432585,39.6795111 112.380893,39.3431588 C112.250999,38.4979447 112.184211,37.631698 112.184211,36.75 C112.184211,31.9883256 114.135796,27.6781652 117.288859,24.5579466 C120.447636,21.432073 124.81181,19.5 129.631579,19.5 Z" id="Combined-Shape-Copy" stroke="#779EEA" stroke-width="3" opacity="0.3"></path>
                <path d="M15.9,116.5 C18.7812236,116.5 21.4340616,117.48563 23.5449745,119.140515 C25.7058381,120.83456 27.2999882,123.228706 27.9917781,125.985252 C28.2603196,127.055298 28.3832151,128.141411 28.3685065,129.216553 C28.8415844,128.276756 29.5315276,127.462528 30.3746507,126.79862 C31.6159994,125.821133 33.0962401,125.242857 34.6909091,125.242857 C36.1315454,125.242857 37.4794644,125.714702 38.642312,126.52662 C39.9072898,127.409847 40.9539661,128.690304 41.6845862,130.217961 C41.8272854,130.516331 41.955076,130.818168 42.0676179,131.121936 C42.3853588,131.088086 42.7089817,131.070738 43.0376127,131.070776 C45.413734,131.071053 47.5278246,131.980152 49.0497337,133.464285 C50.5734922,134.950222 51.5,137.009871 51.5,139.285714 C51.5,141.554027 50.5805848,143.607598 49.0940914,145.094091 C47.6075981,146.580585 45.5540267,147.5 43.2857143,147.5 L43.2857143,147.5 L9.71428571,147.5 C7.44597335,147.5 5.39240192,146.580585 3.90590858,145.094091 C2.41941525,143.607598 1.5,141.554027 1.5,139.285714 C1.5,137.200664 2.27672438,135.296964 3.5569192,133.848508 C3.7378061,133.643846 3.9289479,133.448043 4.12948396,133.261838 C4.03674496,132.995412 3.95342222,132.727259 3.8794121,132.457825 C3.58466691,131.384805 3.42727273,130.253796 3.42727273,129.085714 C3.42727273,125.608875 4.8243289,122.460652 7.08471245,120.181991 C9.34074127,117.907719 12.4571244,116.5 15.9,116.5 Z" id="Combined-Shape-Copy-3" stroke="#779EEA" stroke-width="3" opacity="0.3"></path>
                <path d="M373.052632,174.5 C375.87106,174.5 378.475532,175.413824 380.583344,176.961414 C382.743864,178.547703 384.383529,180.79885 385.196175,183.412952 C385.437826,184.19029 385.601041,184.982651 385.688067,185.778771 C386.189516,185.173617 386.782503,184.654343 387.442976,184.22732 C388.648008,183.448216 390.04087,183 391.526316,183 C393.035505,183 394.449057,183.462683 395.667831,184.264225 C396.971295,185.121465 398.05253,186.362798 398.805518,187.845931 C398.951437,188.133343 399.082751,188.425347 399.199146,188.720545 C399.509115,188.685109 399.824084,188.666896 400.143073,188.666883 C402.441368,188.666791 404.531029,189.611519 406.045658,191.135285 C407.559735,192.658496 408.5,194.761084 408.5,197.083333 C408.5,199.407532 407.557932,201.511698 406.034815,203.034815 C404.511698,204.557932 402.407532,205.5 400.083333,205.5 L400.083333,205.5 L365.916667,205.5 C363.592468,205.5 361.488302,204.557932 359.965185,203.034815 C358.442068,201.511698 357.5,199.407532 357.5,197.083333 C357.5,194.67498 358.511575,192.50293 360.13288,190.968721 C360.334751,190.777694 360.545975,190.59665 360.765509,190.42627 C360.692017,190.149254 360.628378,189.871485 360.574412,189.59342 C360.422074,188.808474 360.342105,187.996886 360.342105,187.166667 C360.342105,183.669392 361.7644,180.503415 364.063292,178.211619 C366.363864,175.918147 369.542185,174.5 373.052632,174.5 Z" id="Combined-Shape-Copy-4" stroke="#779EEA" stroke-width="3" fill="#FFFFFF" opacity="0.3"></path>
                <path d="M213,48 L207.677869,59.5078107 C207.244548,60.5003497 207,61.6288179 207,62.826533 C207,66.7889951 209.685735,70 213,70 C216.314265,70 219,66.7889951 219,62.826533 C219,61.6288179 218.755452,60.5003497 218.319986,59.5078107 L213,48 Z" id="Shape" fill="#779EEA" fill-rule="nonzero" opacity="0.3"></path>
                <path d="M194.5,75 L191.395424,81.2769876 C191.142653,81.8183726 191,82.4339007 191,83.0871998 C191,85.2485428 192.566679,87 194.5,87 C196.433321,87 198,85.2485428 198,83.0871998 C198,82.4339007 197.857347,81.8183726 197.603325,81.2769876 L194.5,75 Z" id="Shape-Copy" fill="#779EEA" fill-rule="nonzero" opacity="0.3"></path>
                <path d="M219.5,95 L216.395424,101.276988 C216.142653,101.818373 216,102.433901 216,103.0872 C216,105.248543 217.566679,107 219.5,107 C221.433321,107 223,105.248543 223,103.0872 C223,102.433901 222.857347,101.818373 222.603325,101.276988 L219.5,95 Z" id="Shape-Copy-2" fill="#779EEA" fill-rule="nonzero" opacity="0.3"></path>
            </g>
        </g>
    </g>
</svg>