<svg width="144" height="144" viewBox="0 0 144 144" fill="none" xmlns="http://www.w3.org/2000/svg">
<g id="&#229;&#133;&#168;&#233;&#131;&#168;&#228;&#184;&#186;&#231;&#169;&#186;" clip-path="url(#clip0_153_1065)">
<rect width="144" height="144" fill="white" fill-opacity="0.01"/>
<g id="Group 13">
<g id="Group 6">
<g id="Group">
<path id="Combined Shape" d="M71.9995 100C107.163 100 136.648 115.343 144.566 136H-0.565918C7.35159 115.343 36.8361 100 71.9995 100Z" fill="url(#paint0_linear_153_1065)"/>
<g id="Group_2">
<path id="Path 2" fill-rule="evenodd" clip-rule="evenodd" d="M37 81.3115C37 80.845 37.1631 80.3932 37.461 80.0343L52.5879 61.8069C53.5378 60.6623 54.948 60 56.4355 60L88.4395 60C89.916 60 91.317 60.6526 92.2671 61.7829L107.531 79.9429C107.834 80.3033 108 80.759 108 81.2298V98.5255L37 99V81.3115Z" fill="white" fill-opacity="0.01"/>
<path id="Path 2_2" fill-rule="evenodd" clip-rule="evenodd" d="M37 81.3434C37 80.8576 37.1768 80.3884 37.4974 80.0235L53.5939 61.7001C54.5432 60.6195 55.912 60 57.3503 60L88.4395 60C89.916 60 91.317 60.6526 92.2671 61.7829L107.531 79.9429C107.834 80.3033 108 80.759 108 81.2298V98.5255L37 99V81.3434Z" stroke="#779EEA" stroke-width="2"/>
<path id="Path" fill-rule="evenodd" clip-rule="evenodd" d="M38 80C37.4477 80 37 80.4477 37 81V107C37 110.314 39.6863 113 43 113H102C105.314 113 108 110.314 108 107V81C108 80.4477 107.552 80 107 80H92.2036C90.5467 80 89.2036 81.3431 89.2036 83V87.3544C89.2036 88.459 88.3082 89.3544 87.2036 89.3544H60.1033C58.9987 89.3544 58.1033 88.459 58.1033 87.3544V83C58.1033 81.3431 56.7601 80 55.1033 80H38Z" fill="#F8FAFE"/>
<path id="Path_2" fill-rule="evenodd" clip-rule="evenodd" d="M38 80C37.4477 80 37 80.4477 37 81V107C37 110.314 39.6863 113 43 113H102C105.314 113 108 110.314 108 107V81C108 80.4477 107.552 80 107 80H93.2036C90.9945 80 89.2036 81.7909 89.2036 84V85.3544C89.2036 87.5636 87.4127 89.3544 85.2036 89.3544H62.1033C59.8941 89.3544 58.1033 87.5636 58.1033 85.3544V84C58.1033 81.7909 56.3124 80 54.1033 80H38Z" stroke="#779EEA" stroke-width="2"/>
</g>
<g id="Group 12">
<path id="Path 18" d="M33.7535 52.8629C33.7535 52.8629 38.3907 53.4256 40.8021 55.4574" stroke="#8DA5E6"/>
<path id="Path 18 Copy" d="M35.9158 55.6231C35.9158 55.6231 39.1907 56.137 40.8507 57.6378" stroke="#8DA5E6"/>
<path id="Shape" d="M33.0079 55.8068L28.5714 55.4172L25.6012 58.74L24.754 54.5268L20.6564 52.9281L24.5704 50.7148L25.0077 46.4012L28.2739 49.2461L32.6401 48.1811L30.7459 52.1533L33.0079 55.8068Z" fill="#779EEA"/>
<path id="Path 18_2" d="M111.193 38.458C111.193 38.458 106.701 39.7391 104.637 42.1232" stroke="#8DA5E6"/>
<path id="Path 18 Copy_2" d="M109.489 41.5224C109.489 41.5224 106.335 42.5423 104.93 44.2843" stroke="#8DA5E6"/>
<path id="Shape Copy" d="M112.954 41.0657L114.64 36.8964L112.308 33.0471L116.627 33.4728L119.38 29.9878L120.362 34.4211L124.399 36.1168L120.687 38.4311L120.426 42.962L117.15 39.9599L112.954 41.0657Z" fill="#779EEA"/>
<path id="Path 18_3" d="M108.724 56.5601C108.724 56.5601 104.193 55.4236 101.214 56.4563" stroke="#DDE4F8"/>
<path id="Path 18 Copy_3" d="M105.716 58.3621C105.716 58.3621 102.475 57.6682 100.387 58.4745" stroke="#DDE4F8"/>
<path id="Shape Copy 4" d="M121.442 60.6531L117.006 61.0398L114.658 64.8279L113.092 60.8258L108.779 59.9629L112.249 57.1036L111.93 52.7796L115.641 55.0141L119.756 53.2071L118.58 57.4479L121.442 60.6531Z" fill="#779EEA" fill-opacity="0.3"/>
<path id="Path 18_4" d="M29.0848 69.7107C29.0848 69.7107 32.4535 68.0601 34.965 68.3722" stroke="#DDE4F8"/>
<path id="Path 18 Copy_4" d="M31.7466 70.622C31.7466 70.622 34.1767 69.5347 35.9502 69.8183" stroke="#DDE4F8"/>
<path id="Shape Copy 6" d="M20.8182 75.2435L22.2308 72.4732L20.8565 69.6811L23.8058 70.2347L25.9126 68L26.3217 71.1129L29 72.5243L26.3038 73.8947L25.8513 77L23.7751 74.7347L20.8182 75.2435Z" fill="#779EEA" fill-opacity="0.3"/>
<path id="Shape Copy 2" d="M21.095 39.6839L22.2864 37.1311L20.9539 34.6469L23.6415 35.0548L25.4782 32.9651L25.947 35.7704L28.4164 36.9634L26.0188 38.2894L25.7072 41.115L23.756 39.1297L21.095 39.6839Z" fill="#779EEA" fill-opacity="0.3"/>
<path id="Shape Copy 3" d="M93 22.3119L94.0359 20.2803L93.0281 18.2328L95.1909 18.6387L96.7359 17L97.0359 19.2828L99 20.3178L97.0228 21.3228L96.6909 23.6L95.1684 21.9387L93 22.3119Z" fill="#779EEA" fill-opacity="0.3"/>
<path id="Shape Copy 5" d="M117.091 86.302L118.456 83.624L117.128 80.9251L119.979 81.4602L122.016 79.3L122.411 82.3091L125 83.6735L122.394 84.9982L121.956 88L119.949 85.8102L117.091 86.302Z" fill="#779EEA" fill-opacity="0.3"/>
<circle id="Oval 7" cx="11" cy="57" r="2" stroke="#779EEA"/>
<circle id="Oval 7 Copy" cx="124" cy="24" r="2" stroke="#779EEA"/>
<circle id="Oval 7 Copy 2" cx="133" cy="63" r="2" stroke="#779EEA"/>
<circle id="Oval 7 Copy 3" cx="49.5" cy="20.5" r="2.5" stroke="#779EEA"/>
</g>
<rect id="Rectangle 3" x="70" y="30.03" width="2.2" height="16" rx="1.1" fill="#779EEA"/>
<rect id="Rectangle 3 Copy" x="92.2991" y="38.0653" width="2.2" height="16" rx="1.1" transform="rotate(45 92.2991 38.0653)" fill="#779EEA"/>
<rect id="Rectangle 3 Copy 2" width="2.2" height="16" rx="1.1" transform="matrix(-0.707107 0.707107 0.707107 0.707107 49.541 38.0653)" fill="#779EEA"/>
</g>
</g>
</g>
</g>
<defs>
<linearGradient id="paint0_linear_153_1065" x1="-13.4161" y1="101.387" x2="-13.4161" y2="143.762" gradientUnits="userSpaceOnUse">
<stop stop-color="#779EEA" stop-opacity="0.4"/>
<stop offset="1" stop-color="white" stop-opacity="0.01"/>
</linearGradient>
<clipPath id="clip0_153_1065">
<rect width="144" height="144" fill="white"/>
</clipPath>
</defs>
</svg>
