<svg xmlns="http://www.w3.org/2000/svg" viewBox="0 0 1024 1024"><path d="M353.10592 319.0272c0 47.95392-44.58496 198.0672 138.69056 218.27072 80.07168 18.72896 100.54656 60.50304 93.61408 185.58464a415.31904 415.31904 0 0 1-1.30048 30.19264c-28.06272 15.4368-47.83616 24.74496-59.37664 27.92448 1.8432-17.31072 20.58752-153.97376-17.7664-185.80992-38.35904-31.78496-65.01376-35.69664-104.56064-41.14944-19.1232-2.66752-49.02912-19.46624-71.67488-34.048-22.64576-14.53056-35.8656-42.68032-39.87456-69.0176-2.70848-17.59232-3.46624-43.01824-2.3808-76.27264 14.57152-17.02912 36.13184-35.64032 64.62976-55.61856v-0.05632z m76.31872-45.66016c-1.24416 17.34656-27.06432 167.77216 47.04256 203.47904 27.06944 13.09184 38.43584 18.13504 57.54368 22.84032 19.10784 4.70528 67.5072 11.44832 87.53152 32.64512 8.12032 8.50432 20.35712 22.95808 27.17696 41.26208 9.96352 26.92096 12.61568 65.18272 12.61568 104.80128v29.9264c-21.60128 16.94208-39.84384 28.73344-54.89152 35.5328 0-20.29056 6.92736-115.45088-11.3152-154.61376-18.24256-39.11168-37.7856-57.52832-70.26688-62.06464-32.48128-4.53632-84.82816-18.59072-105.72288-37.01248-20.94592-18.36032-48.33792-46.02368-48.33792-92.55424 0-31.0016 0.70144-60.81536 2.10944-89.4976 21.00224-16.03584 39.84384-27.5968 56.51456-34.7392z m78.2336-36.36736c-2.05824 34.38592-6.99392 116.43904 8.7296 159.0528s48.95232 66.39104 85.49376 72.97024c36.53632 6.528 101.48352 29.056 117.63712 69.79584 14.7456 37.05344 16.26624 59.18208 16.48128 77.34272v32.56832c-20.06016 19.1232-37.7856 34.048-53.23776 44.8256 0-56.00256-0.15872-109.34272-15.7184-140.7232-15.50336-31.31904-35.9424-50.10432-80.45056-60.93824-44.45696-10.89536-90.96704-15.54944-119.05024-53.56544-18.75968-25.30816-25.53344-67.12832-20.43904-125.46048l4.608-49.42336c18.432-10.4448 37.08416-19.29728 55.94624-26.4448z" fill="#E8130D" ></path><path d="M246.25152 384.21504c2.20672 36.77184 5.0176 61.47584 8.49408 74.12224 9.81504 35.6608 37.82144 62.40768 50.33984 70.38976 20.29056 12.99968 59.99104 30.65344 90.368 34.96448 20.23936 2.80064 42.07104 9.6768 65.61792 20.57216 22.05696 15.3856 33.41312 30.30016 34.18624 44.86656 4.6848 93.6448-8.9344 125.2864-14.83264 158.21312-67.49184 43.58656-346.42944 48.07168-352.16384-120.39168-3.86048-112.34816 35.45088-206.57664 117.9904-282.73664zM866.0992 248.1664c61.30176 94.2336 28.3392 214.47168-98.83648 360.76544a203.648 203.648 0 0 0-3.24608-32.80896c-15.7952-74.3424-44.02688-106.44992-78.6432-119.94624-34.66752-13.55264-135.26528-14.83264-154.79808-89.7536a448.39936 448.39936 0 0 1 6.37952-167.70048c156.56448-46.47936 266.29632-29.95712 329.14432 49.44384z" fill="#1D2683" ></path></svg>