<svg xmlns="http://www.w3.org/2000/svg" viewBox="0 0 1024 1024"><path d="M63.8976 0h894.9248c42.5984 0 63.8976 21.3504 63.8976 64v896c0 42.6496-21.2992 64-63.8976 64H63.8976C21.2992 1024 0 1002.6496 0 960V64C0 21.3504 21.2992 0 63.8976 0z" fill="#59A3FF" ></path><path d="M410.3168 205.3632c6.7584 0 12.544 4.4544 13.824 10.5984l8.6528 40.192c0.9728 4.5056 4.4032 8.192 9.0624 9.7792a143.36 143.36 0 0 1 11.52 4.4544c4.5056 1.9968 9.728 1.6384 13.8752-0.9216l36.5056-22.7328a14.848 14.848 0 0 1 17.7664 1.6384l23.552 22.016a12.4928 12.4928 0 0 1 1.792 16.5888l-24.32 34.048a12.4928 12.4928 0 0 0-1.024 12.9536c1.7408 3.5328 3.328 7.1168 4.7616 10.752 1.6896 4.352 5.6832 7.5776 10.5472 8.4992l43.008 8.0384c6.6048 1.2288 11.3152 6.656 11.3152 12.9024v31.0784a13.4144 13.4144 0 0 1-11.3152 12.9024l-43.008 8.0384a13.9264 13.9264 0 0 0-10.5472 8.448 123.904 123.904 0 0 1-4.7616 10.752 12.4928 12.4928 0 0 0 1.024 12.9536l24.32 34.0992a12.4928 12.4928 0 0 1-1.7408 16.5888l-23.552 22.016a14.848 14.848 0 0 1-17.8176 1.5872l-36.5056-22.6816a15.0528 15.0528 0 0 0-13.8752-0.9216 145.1008 145.1008 0 0 1-11.52 4.4544 13.5168 13.5168 0 0 0-9.0624 9.8304l-8.6016 40.1408a13.8752 13.8752 0 0 1-13.824 10.5472h-33.28a13.8752 13.8752 0 0 1-13.8752-10.5984l-8.6016-40.1408a13.5168 13.5168 0 0 0-9.1136-9.8304 143.36 143.36 0 0 1-11.52-4.4544 15.0528 15.0528 0 0 0-13.824 0.9728l-36.5568 22.6816a14.848 14.848 0 0 1-17.7664-1.5872l-23.552-22.016a12.4928 12.4928 0 0 1-1.7408-16.5888l24.32-34.0992a12.4928 12.4928 0 0 0 1.024-12.9536 125.44 125.44 0 0 1-4.8128-10.752 13.9264 13.9264 0 0 0-10.496-8.448l-43.008-8.0384a13.4144 13.4144 0 0 1-11.3664-12.9024v-31.0784c0-6.2976 4.7616-11.6736 11.3664-12.9024l43.008-8.0384a13.9264 13.9264 0 0 0 10.496-8.4992 123.904 123.904 0 0 1 4.8128-10.752 12.4928 12.4928 0 0 0-1.024-12.9536l-24.32-34.048a12.4928 12.4928 0 0 1 1.7408-16.5888l23.552-22.016a14.848 14.848 0 0 1 17.7664-1.6384l36.5056 22.7328c4.1472 2.56 9.4208 2.9184 13.9264 0.9216 3.7376-1.6384 7.5776-3.1232 11.52-4.4544a13.5168 13.5168 0 0 0 9.0624-9.8304l8.6016-40.1408a13.8752 13.8752 0 0 1 13.824-10.5984z m-0.1024 106.8544c-39.6288-7.3728-79.2576 12.4416-94.72 47.2576-15.4624 34.816-2.4064 74.9568 31.1808 95.8976 33.536 20.992 78.336 16.8448 106.8544-9.8304 15.9232-14.7456 24.8832-34.8672 24.7808-55.808 0-37.7344-28.5184-70.144-68.096-77.5168z" fill="#FFFFFF" ></path><path d="M221.8496 626.2784H460.8c11.3664 0 17.0496 5.2736 17.0496 15.8208v31.6416c0 10.5472-5.632 15.8208-17.0496 15.8208H221.8496c-11.3664 0-17.0496-5.2736-17.0496-15.872v-31.5904c0-10.5472 5.6832-15.872 17.0496-15.872zM221.8496 752.8448h375.5008c11.3664 0 17.0496 5.2736 17.0496 15.872v31.5904c0 10.5472-5.6832 15.872-17.0496 15.872H221.8496c-11.3664 0-17.0496-5.3248-17.0496-15.872v-31.6416c0-10.5472 5.6832-15.8208 17.0496-15.8208zM818.7904 276.8896c0.256 163.584 0 327.2704 0.1024 490.9056 1.536 19.456-2.7136 43.4176-18.2272 47.1552-28.5696 1.536-57.2416 0.256-85.9136 0.6656-13.824 2.9184-30.5152-6.7072-31.5904-29.7984-0.256-164.7104 0-329.472-0.1024-494.1824-2.4064-20.992 6.7072-45.3632 22.8352-44.6464h81.3056c13.824-2.9184 30.5152 6.7584 31.5904 29.8496z" fill="#FFFFFF" ></path></svg>