<svg xmlns="http://www.w3.org/2000/svg" viewBox="0 0 1024 1024"><path d="M402.432 0A146.432 146.432 0 0 0 256 146.432v86.016h219.648c19.968 0 36.352 29.184 36.352 49.152H146.432A146.432 146.432 0 0 0 0 428.032v193.536A146.432 146.432 0 0 0 146.432 768h60.416v-137.216c0-80.896 65.024-146.432 145.92-146.432h268.7488A146.0224 146.0224 0 0 0 768 338.432V146.432A146.432 146.432 0 0 0 621.5168 0h-219.136z m-36.864 82.432c20.48 0 36.864 6.144 36.864 36.352s-16.384 45.568-36.864 45.568c-19.968 0-36.352-15.36-36.352-45.5168 0-30.208 16.384-36.352 36.352-36.352z" fill="#3C78AA" ></path><path d="M817.1008 256v137.216a145.92 145.92 0 0 1-145.92 146.432h-268.8A146.0224 146.0224 0 0 0 256 685.568v192A146.432 146.432 0 0 0 402.432 1024h219.136A146.432 146.432 0 0 0 768 877.6192v-86.016h-219.6992c-19.968 0-36.352-29.184-36.352-49.152h365.568A146.432 146.432 0 0 0 1024 595.968V402.432A146.432 146.432 0 0 0 877.5168 256h-60.416zM324.1472 489.6256l-0.768 1.1264c2.56-0.4096 4.7616 0 7.3216-1.1264H324.096z m334.2336 369.9712c19.968 0 36.352 15.36 36.352 45.6192a36.352 36.352 0 0 1-36.352 36.352c-20.48 0-36.864-6.144-36.864-36.352s16.384-45.568 36.864-45.568z" fill="#FDD835" ></path></svg>