<svg xmlns="http://www.w3.org/2000/svg" viewBox="0 0 1024 1024"><path d="M0 0m204.8 0l614.4 0q204.8 0 204.8 204.8l0 614.4q0 204.8-204.8 204.8l-614.4 0q-204.8 0-204.8-204.8l0-614.4q0-204.8 204.8-204.8Z" fill="#8B5CF6" ></path><path d="M665.6 204.8a153.6 153.6 0 0 1 153.6 153.6v307.2a153.6 153.6 0 0 1-153.6 153.6H358.4a153.6 153.6 0 0 1-153.6-153.6V358.4a153.6 153.6 0 0 1 153.6-153.6h307.2z m-120.6784 205.6192c-13.6192 0-22.7328 9.472-22.7328 23.6544 0 14.1312 9.1136 23.552 22.7328 23.552h29.44l-115.6608 120.5248L347.648 462.336a21.3504 21.3504 0 0 0-31.744 0l-104.2944 108.6976a23.552 23.552 0 0 0 0 33.1264 21.2992 21.2992 0 0 0 31.744 0L331.776 512l111.104 115.8144a20.1728 20.1728 0 0 0 15.8208 7.0144 24.064 24.064 0 0 0 15.872-7.0144l129.28-134.8096v26.112c0 14.1824 9.0624 23.6544 22.6304 23.6544 13.6192 0 22.6816-11.8784 22.6816-23.6544V434.0736c0-14.1824-9.0624-23.6544-22.6816-23.6544h-81.5616z" fill="#FFFFFF" ></path></svg>