<svg xmlns="http://www.w3.org/2000/svg" viewBox="0 0 1024 1024"><path d="M664.14 679.066v117.882h-14.847v-20.183c-13.527 16.108-28.846 24.198-46.218 24.198-17.367 0-31.98-6.124-43.91-18.391a61.676 61.676 0 0 1-17.786-44.17c0-17.209 5.99-31.822 18.001-43.915 11.95-12.267 26.328-18.391 43.065-18.391 19.261 0 34.816 8.253 46.848 24.678V679.23l14.848-0.158m-13.978 59.489c0-13.507-4.572-24.812-13.532-33.946a44.442 44.442 0 0 0-33.316-13.987c-13.04 0-24.048 4.787-33.085 14.458a47.319 47.319 0 0 0-13.507 33.792c0 13.056 4.624 24.356 13.742 33.946 9.196 9.513 20.127 14.218 32.85 14.218 12.897 0 23.885-4.628 33.08-13.742 9.196-9.257 13.748-20.818 13.748-34.739m44.011 58.388v-159.37h33.08c22.651 0 39.23 1.73 49.746 5.12a68.864 68.864 0 0 1 27.51 15.719c7.7 7.065 13.589 15.79 17.767 26.163 4.147 10.363 6.195 22.477 6.195 36.377 0 13.763-3.205 26.799-9.744 39.066-6.359 12.093-15.083 21.289-26.173 27.494-10.906 6.221-26.778 9.35-47.457 9.35l-50.924 0.081z m15.32-15.083h18.395c19.257 0 33.158-0.947 41.744-2.918 8.704-1.967 16.348-5.71 22.845-11.3a56.643 56.643 0 0 0 14.869-20.915c3.364-8.172 5.12-17.45 5.12-27.96 0-10.538-1.971-20.21-5.99-29.088A56.714 56.714 0 0 0 789.8 667.69a57.303 57.303 0 0 0-25.8-11.561c-9.728-2.048-24.181-3.072-43.284-3.072h-11.32v128.809h0.076zM496.286 646.221a12.605 12.605 0 0 1 3.543-8.858 12.211 12.211 0 0 1 8.857-3.783c3.549 0 6.544 1.259 8.884 3.763 2.524 2.36 3.783 5.355 3.783 8.878a12.211 12.211 0 0 1-3.783 8.883 12.093 12.093 0 0 1-8.858 3.543 12.211 12.211 0 0 1-8.904-3.779 12.329 12.329 0 0 1-3.543-8.647m4.885 32.85h15.319v117.877h-15.32V679.066zM81.664 796.948l22.646-159.37h2.422L171.5 768.276l64.358-130.76h2.437l22.866 159.35h-15.718L229.965 682.85l-56.356 114.1h-3.999l-57.047-114.965-15.56 114.964H81.665M399.38 679.071v117.877h-14.848v-20.183c-13.511 16.108-28.825 24.198-46.197 24.198s-31.98-6.124-43.935-18.391a61.676 61.676 0 0 1-17.766-44.17c0-17.209 5.97-31.822 18.002-43.915 11.955-12.267 26.327-18.391 43.069-18.391 19.256 0 34.816 8.253 46.827 24.678V679.23l14.848-0.158m-13.905 59.489c0-13.507-4.547-24.812-13.507-33.946a44.442 44.442 0 0 0-33.321-13.987c-13.056 0-24.043 4.787-33.08 14.458a47.319 47.319 0 0 0-13.532 33.792c0 13.056 4.572 24.356 13.767 33.946 9.196 9.513 20.106 14.218 32.845 14.218 12.882 0 23.89-4.628 33.085-13.742 9.114-9.257 13.743-20.818 13.743-34.739m39.782-59.469h15.555v17.132c4.157-6.933 8.171-12.032 11.93-15.34 4.023-3.21 8.334-4.864 13.137-4.864 4.864 0 9.728 1.337 14.613 3.994l-8.013 12.902a13.158 13.158 0 0 0-6.835-1.971c-4.568 0-8.96 2.365-13.133 7.091-3.999 4.705-6.912 10.829-8.863 18.37-1.971 7.384-2.918 20.972-2.918 40.628v39.915h-15.494V679.066l0.021 0.02z m421.432-41.513h31.509c16.742 0 29.399 3.385 37.965 10.24 8.724 6.656 13.117 16.246 13.117 28.826a37.12 37.12 0 0 1-20.419 33.32c10.906 3.549 19.236 8.864 24.812 15.955 5.827 7.065 8.663 15.554 8.663 25.303 0 13.194-4.803 24.125-14.474 32.845-9.651 8.57-22.073 12.881-37.315 12.881h-43.935v-159.37h0.077z m15.719 15.555v51.082h9.113c13.906 0 24.284-2.186 31.038-6.676 6.773-4.47 10.24-11.398 10.24-20.89 0-15.657-10.635-23.516-32-23.516h-18.396z m0 67.036v61.24h19.727c11.382 0 19.712-1.121 25.068-3.307a31.55 31.55 0 0 0 13.353-10.634c3.389-4.864 5.12-9.805 5.12-14.828 0-5.043-0.943-9.513-2.919-13.373a30.228 30.228 0 0 0-8.642-10.22 38.892 38.892 0 0 0-13.507-6.676c-5.197-1.495-14.95-2.202-29.322-2.202h-8.883zM816.68 137.846c-9.769 0.297-6.933 4.71-28.124 10.004-21.422 5.3-47.299 2.007-70.282 11.7-60.196 25.22-69.986 122.798-141.666 160.547-47.001 26.588-94.976 32.691-137.881 46.121-34.386 13.783-55.793 22.979-81.02 44.682-19.552 16.856-24.32 33.28-44.835 54.467-20.736 28.201-99.446 3.133-119.67 38.559 10.67 6.953 16.876 8.806 35.6 6.343-3.876 7.322-28.514 17.014-24.023 27.823 0 0 59.607 10.905 109.885-19.456 23.434-9.55 45.43-29.696 81.838-34.54 47.145-6.282 100.352 9.907 157.343 14.474-11.776 23.276-23.946 37.059-36.92 56.243-4.04 4.332 3.425 8.208 17.305 5.51 24.832-6.18 42.89-12.816 60.79-25.206 23.357-16.108 33.362-30.817 53.053-54.154 17.09 27.453 77.369 33.418 89.754 9.769-22.979-9.785-27.904-60.519-20.08-82.371 9.333-20.874 16.045-50.355 23.587-77.804 6.774-24.698 10.972-62.366 19.103-81.705 9.687-23.946 28.493-31.467 42.598-44.15 14.096-12.763 28.196-23.357 27.76-52.459-0.312-9.456-5.237-14.694-14.115-14.397z" fill="#1F305F" ></path><path d="M210.903 533.11c36.925 1.1 46.986 0.138 76.15-12.544 24.852-10.829 58.055-39.834 87.434-49.229 43.126-13.804 89.308-11.797 135.132-6.344 15.36 1.854 30.72 4.393 41.764 3.21 17.152-10.536 17.981-39.188 28.652-41.41-2.914 55.352-26.64 90.778-50.35 122.88 49.976-8.806 83.394-40.074 103.618-78.71 6.108-11.72 16.348-30.899 20.956-44.114 3.661 8.745-4.767 14.336-0.809 23.89 32.154-26.567 47.36-56.852 60.416-101.084 15.16-51.256 30.68-95.35 40.371-110.49 9.472-14.77 24.32-23.946 37.807-33.418 15.38-10.834 29.107-22.016 31.431-42.537-16.19-1.495-19.932-5.222-22.313-13.43-8.135 4.547-15.595 5.515-23.946 5.827-7.306 0.22-15.36-0.077-25.15 0.886-81.09 8.274-84.889 87.593-143.83 145.863a180.362 180.362 0 0 1-14.633 12.39c-18.192 13.584-37.668 21.029-58.246 28.867-33.28 12.678-64.85 16.4-96.02 27.372-22.902 8.074-44.17 17.229-63.058 30.126-4.685 3.23-11.028 8.96-15.14 12.329-11.028 9.021-18.278 19.02-25.287 29.399-7.225 10.578-14.183 21.545-24.853 32-17.229 16.937-81.603 4.925-104.29 20.68a18.314 18.314 0 0 0-5.908 6.318c12.406 5.596 20.68 2.166 34.857 3.743 1.792 13.27-29.399 21.33-24.775 27.53h0.02z" fill="#C0765A" ></path><path d="M727.081 189.911c11.479 10.005 35.584 1.95 31.252-17.818-17.904-1.577-28.2 4.47-31.252 17.818z m78.868-23.194c-3.072 6.416-8.883 14.71-8.883 30.956 0 2.755-2.089 4.726-2.166 0.394 0.139-15.974 4.393-22.845 8.858-31.862 2.033-3.665 3.292-2.17 2.171 0.512h0.02z m-3.584-2.385c-3.665 6.103-12.308 17.233-13.726 33.495-0.236 2.76-2.56 4.551-2.166 0.22 1.572-15.816 8.504-25.739 13.722-34.386 2.385-3.584 3.507-1.946 2.17 0.67z m-3.584-3.21c-4.116 5.749-17.469 19.179-20.224 35.21-0.512 2.76-2.918 4.25-2.17 0 2.918-15.657 14.397-27.96 20.382-36.096 2.524-3.288 3.564-1.577 2.012 0.885z" fill="#1F305F" ></path><path d="M798.781 157.542c-4.848 5.156-20.817 22.247-25.82 37.745-0.885 2.698-3.502 3.804-2.165-0.292 5.079-15.145 19.025-31.411 26.035-38.579 3.072-2.97 3.82-1.1 1.945 1.126z" fill="#1F305F" ></path></svg>