<svg xmlns="http://www.w3.org/2000/svg" viewBox="0 0 1024 1024"><path d="M33.568 517.856a480.576 480.576 0 0 0 140.48 339.552A479.648 479.648 0 0 0 513.28 998.08a479.296 479.296 0 0 0 339.2-140.64 480.224 480.224 0 0 0 140.544-339.52A480.608 480.608 0 0 0 852.48 178.304a479.68 479.68 0 0 0-339.2-140.672A479.296 479.296 0 0 0 174.08 178.336a480.224 480.224 0 0 0-140.512 339.52z" fill="#B8D9FF" ></path><path d="M164.16 513.984c0-247.68 174.08-451.52 397.6-477.376a484.192 484.192 0 0 0-51.712-2.816C245.088 33.792 30.304 248.8 30.304 513.984c0 265.184 214.752 480.192 479.744 480.192 17.472 0 34.72-0.992 51.712-2.816C338.24 965.536 164.16 761.696 164.16 513.984z" fill="#FFFFFF" opacity=".21" ></path><path d="M513.28 1014.24C239.84 1014.24 17.376 791.584 17.376 517.856 17.376 244.16 239.84 21.472 513.28 21.472S1009.184 244.16 1009.184 517.856c0 273.728-222.464 496.384-495.904 496.384z m0-960.384c-255.584 0-463.552 208.16-463.552 464 0 255.872 207.968 464 463.552 464 255.616 0 463.552-208.128 463.552-464 0-255.84-207.936-464-463.552-464z" fill="#6E6E96" ></path><path d="M518.72 30.912c-22.72 0-45.056 1.696-66.944 4.768 233.248 32.608 412.8 232.96 412.8 475.424 0 242.464-179.552 442.848-412.8 475.456 22.176 3.136 44.544 4.704 66.944 4.736 264.928 0 479.68-214.976 479.68-480.192C998.4 245.92 783.68 30.912 518.72 30.912z" fill="#6E6E96" opacity=".15" ></path><path d="M506.944 46.72s-101.888 107.04-101.888 467.616c-0.768 140.704 16.256 384.16 101.888 469.856 0 0-267.712-60.48-267.712-469.856 0-441.568 267.712-467.584 267.712-467.584z" fill="#FFFFFF" opacity=".21" ></path><path d="M523.936 1014.112c-123.84 0-220.8-218.56-220.8-497.632 0-279.04 96.96-497.664 220.8-497.664 123.84 0 220.8 218.592 220.8 497.664 0 279.04-96.96 497.632-220.8 497.632z m0-962.88c-102.144 0-188.48 213.024-188.48 465.248 0 252.16 86.336 465.28 188.48 465.28 102.144 0 188.48-213.12 188.48-465.28 0-252.224-86.336-465.28-188.48-465.28z" fill="#6E6E96" ></path><path d="M512.128 700.096c-129.984 0-252.448-18.112-344.8-51.008C69.76 614.336 16 565.984 16 512.928c0-53.024 53.76-101.376 151.36-136.128 92.32-32.896 214.784-51.04 344.768-51.04 130.016 0 252.48 18.144 344.8 51.04 97.6 34.752 151.36 83.104 151.36 136.128 0 53.024-53.76 101.408-151.36 136.16-92.32 32.896-214.784 51.008-344.8 51.008z m0-341.92c-126.4 0-244.992 17.44-333.952 49.12-82.496 29.408-129.824 67.904-129.824 105.632 0 37.76 47.328 76.256 129.824 105.664 88.96 31.68 207.552 49.12 333.952 49.12s245.024-17.44 333.952-49.12c82.528-29.408 129.824-67.904 129.824-105.664 0-37.76-47.296-76.224-129.792-105.6-88.96-31.712-207.584-49.152-333.984-49.152z" fill="#6E6E96" ></path></svg>