<svg xmlns="http://www.w3.org/2000/svg" viewBox="0 0 1024 1024"><path d="M117.63186094 26.16496482l359.94653902 46.92649454c23.90511633 3.13727035 48.119541 3.13727035 72.02465734 0 181.51981123-28.14705934 291.05915204-43.78922418 359.94653902-50.0637649a92.88087712 92.88087712 0 0 1 103.22061321 93.89717598v729.2607022a94.29485812 94.29485812 0 0 1-78.21082422 93.94136287l-378.68178732 68.84320006a206.92728238 206.92728238 0 0 1-87.66682217 0l-378.68178732-68.84320006a97.21119393 97.21119393 0 0 1-78.29919803-93.94136287V120.06214078a92.17388661 92.17388661 0 0 1 106.40207047-93.89717596z m194.06889264 200.29924643h-18.7794352a142.2818384 142.2818384 0 0 0-140.8236705 140.8236705v12.5490814a155.62628413 155.62628413 0 0 0 153.32856499 153.32856499c17.18870657 0.22093454 34.2006655-2.96052272 50.10795179-9.36762415l72.02465733 109.53934082a139.80737166 139.80737166 0 0 0-18.8236221 131.45604634 111.92543374 111.92543374 0 0 0 62.56865936 62.61284629 123.72333775 123.72333775 0 0 0 175.28945744-109.58352771c0-18.7794352-3.09308345-28.14705934-3.09308343-40.65195384l109.53934081-90.75990562c14.89098742 6.09779308 30.84246063 9.27925033 46.92649453 9.41181104a92.39482115 92.39482115 0 0 0 81.39228147-134.59331669 86.95983167 86.95983167 0 0 0-37.55887038-37.6030573 91.68783066 91.68783066 0 0 0-134.59331671 81.34809458c-0.53024288 9.50018486 0.53024288 19.00036972 3.09308344 28.19124624l-109.5393408 90.7599056a120.18838525 120.18838525 0 0 0-78.21082421-28.19124622 79.53643141 79.53643141 0 0 0-37.55887039 6.27454069l-72.02465733-109.58352772a156.42164844 156.42164844 0 0 0 43.83341108-109.53934081 149.1749958 149.1749958 0 0 0-147.1423981-156.51002225v0.08837382z" fill="#D81E06" ></path></svg>