<svg xmlns="http://www.w3.org/2000/svg" viewBox="0 0 1024 1024"><path d="M512 512m-480 0a480 480 0 1 0 960 0 480 480 0 1 0-960 0Z" fill="#000000" fill-opacity=".04" ></path><path d="M512 512m-480 0a480 480 0 1 0 960 0 480 480 0 1 0-960 0Z" fill="#FFBF00" ></path><path d="M380.10000031 538.44000031c-22.14 35.29999969-53.88 59.95999969-81.68000062 74.41999969 0 0 21.88000031 127.33999969 24.14000062 138.43999969 33.19999969-4.74 81.66-21.61999969 121.8-65.04 15.70000031-56.44000031-3.67999969-118.99999969-64.26-147.84z" fill="#FFFFFF" ></path><path d="M268.04 512.84L213.00000031 273.00000031c126.22000031 8.34 229.27999969 91.12000031 268.08 171.33999938 38.80000031 80.20000031 22.60000031 180.01999969-38.80000031 244.16000062 15.13999969-64.60000031-18.31999969-120.6-57.55999969-144.34000031-39.22000031-23.71999969-74.94-31.87999969-116.68000031-31.30000031z" fill="#FFFFFF" ></path><path d="M642.2 538.44000031c22.09999969 35.29999969 53.86000031 59.95999969 81.66 74.41999969 0 0-21.88000031 127.33999969-24.13999969 138.43999969-33.19999969-4.74-81.66-21.61999969-121.8-65.04-15.70000031-56.44000031 3.67999969-118.99999969 64.26-147.84z" fill="#FFFFFF" ></path><path d="M754.23999969 512.84l55.04000062-239.86000031c-126.22000031 8.34-229.27999969 91.12000031-268.08 171.34000031-38.80000031 80.20000031-22.60000031 180.01999969 38.79999938 244.15999969-15.13999969-64.60000031 18.34000031-120.6 57.56000062-144.33999938 39.22000031-23.71999969 74.94-31.87999969 116.67999938-31.30000031z" fill="#FFFFFF" ></path></svg>