<svg xmlns="http://www.w3.org/2000/svg" viewBox="0 0 1536 1024"><path d="M1024 992a480 480 0 1 0 0-960 480 480 0 0 0 0 960z" fill="#FFFFFF" ></path><path d="M1472 512A448 448 0 1 0 576 512a448 448 0 0 0 896 0z m64 0A512 512 0 1 1 512 512a512 512 0 0 1 1024 0z" fill="#547EE8" ></path><path d="M512 992a480 480 0 1 0 0-960 480 480 0 0 0 0 960z" fill="#547EE8" fill-opacity=".45" ></path><path d="M960 512A448 448 0 1 0 64 512a448 448 0 0 0 896 0z m64 0A512 512 0 1 1 0 512a512 512 0 0 1 1024 0z" fill="#547EE8" ></path></svg>