<svg xmlns="http://www.w3.org/2000/svg" viewBox="0 0 1024 1024"><path d="M0 0m128 0l768 0q128 0 128 128l0 768q0 128-128 128l-768 0q-128 0-128-128l0-768q0-128 128-128Z" fill="#FCF1E1" ></path><path d="M235.52 368.64a51.2 51.2 0 0 1 51.2-51.2h368.64a51.2 51.2 0 0 1 51.2 51.2v368.64a51.2 51.2 0 0 1-51.2 51.2H286.72a51.2 51.2 0 0 1-51.2-51.2V368.64z" fill="#F1B957" fill-opacity=".2" ></path><path d="M317.44 286.72a51.2 51.2 0 0 1 51.2-51.2h368.64a51.2 51.2 0 0 1 51.2 51.2v368.64a51.2 51.2 0 0 1-51.2 51.2H368.64a51.2 51.2 0 0 1-51.2-51.2V286.72z" fill="#F1B957" ></path><path d="M583.125333 375.168c10.538667 0 19.072 8.533333 19.072 19.072v13.866667h35.797334c10.538667 0 19.072 8.533333 19.072 19.029333v120.661333a19.072 19.072 0 0 1-17.152 18.986667l-1.92 0.085333h-170.069334a19.072 19.072 0 0 1-19.072-19.072v-120.661333c0-10.496 8.533333-19.029333 19.072-19.029333h30.293334V394.24c0-10.538667 8.533333-19.072 19.072-19.072h65.834666zM465.066667 542.336c0 4.608 3.754667 8.362667 8.405333 8.362667h159.061333a8.405333 8.405333 0 0 0 8.405334-8.362667v-52.266667h-77.141334v0.128a10.837333 10.837333 0 0 1-21.589333 0v-0.128h-77.141333v52.266667z m8.405333-118.101333a8.405333 8.405333 0 0 0-8.405333 8.405333v41.258667h77.141333v-11.093334a10.837333 10.837333 0 0 1 21.589333 0v11.093334h77.141334v-41.258667l-0.170667-1.706667a8.405333 8.405333 0 0 0-8.234667-6.698666h-159.061333z m49.365333-32.896a8.362667 8.362667 0 0 0-8.405333 8.362666v8.405334h71.637333v-8.405334l-0.170666-1.706666a8.362667 8.362667 0 0 0-8.192-6.656h-54.869334z" fill="#FFFFFF" ></path></svg>