<svg xmlns="http://www.w3.org/2000/svg" viewBox="0 0 1024 1024"><path d="M829.293714 0H142.628571A73.435429 73.435429 0 0 0 73.142857 70.144v909.604571l0.073143 2.194286c0 0.292571 0 0.585143 0.146286 1.024l0.073143 1.097143 0.146285 1.316571 0.073143 0.877715c0.146286 0.438857 0.146286 0.950857 0.219429 1.389714l0.146285 0.731429 0.292572 1.462857a1.462857 1.462857 0 0 1 0.146286 0.585143l0.292571 1.316571c0.146286 0.219429 0.146286 0.512 0.219429 0.731429a3.949714 3.949714 0 0 0 0.438857 1.170285l0.292571 0.877715 0.438857 1.097142 0.365715 0.950858c0.073143 0.365714 0.292571 0.731429 0.438857 1.024l0.438857 1.024c0.073143 0.219429 0.146286 0.585143 0.365714 0.731428l0.585143 1.243429 0.438857 0.658285 0.658286 1.170286 0.365714 0.658286c0.219429 0.438857 0.585143 0.731429 0.731429 1.170286l0.512 0.658285 0.804571 1.170286 0.585143 0.658286 0.731429 0.950857c0.219429 0.365714 0.585143 0.585143 0.731428 0.877714l0.731429 0.731429 1.462857 1.682285 1.609143 1.462858 0.731428 0.658285 0.877715 0.731429c0.365714 0.365714 0.731429 0.585143 1.024 0.731428l0.585142 0.585143 1.243429 0.877715 0.585143 0.438857 1.243428 0.731428a2.048 2.048 0 0 1 0.658286 0.438857l1.170286 0.658286 0.658286 0.438857c0.438857 0.219429 0.731429 0.438857 1.170285 0.512 0.219429 0.146286 0.512 0.219429 0.731429 0.438857l1.097143 0.438858 0.950857 0.438857 1.024 0.292571 1.024 0.438857 0.877714 0.365715 1.170286 0.365714c0.219429 0.146286 0.585143 0.146286 0.731428 0.219428l1.316572 0.365715 0.731428 0.219428 1.462858 0.292572 0.731428 0.146285a6.582857 6.582857 0 0 0 1.462857 0.219429l0.804572 0.073143c0.438857 0.146286 0.877714 0.146286 1.316571 0.146286l1.097143 0.073142 1.024 0.146286 2.194286 0.073143c0.731429 0 1.462857 0 2.194285-0.146286l1.024-0.073143 1.097143-0.073142 1.316572-0.146286 0.804571-0.073143c0.438857-0.146286 1.024-0.146286 1.462857-0.219429l0.731429-0.146285 1.389714-0.292572c0.219429-0.146286 0.438857-0.146286 0.731429-0.219428l1.316571-0.365715c0.219429-0.073143 0.512-0.073143 0.731429-0.219428a3.657143 3.657143 0 0 0 1.243428-0.438857c0.292571 0 0.512-0.146286 0.804572-0.292572l1.097143-0.438857 0.950857-0.292571 1.024-0.438857 1.024-0.438858c0.219429-0.146286 0.585143-0.219429 0.731428-0.438857 0.512-0.219429 0.804571-0.438857 1.243429-0.512l0.658286-0.438857 1.170285-0.658286a2.413714 2.413714 0 0 0 0.658286-0.438857l1.170286-0.731428c0.219429-0.146286 0.438857-0.365714 0.731428-0.438857l1.097143-0.877715 0.731429-0.512c0.292571-0.219429 0.585143-0.585143 1.024-0.731428l0.877714-0.804572 0.731429-0.658285a9.874286 9.874286 0 0 0 1.462857-1.462858l336.676571-336.676571 336.676572 336.676571c8.777143 8.704 20.260571 13.019429 31.817142 12.946286h0.585143c24.356571 0 44.251429-19.748571 44.251429-44.251428V70.948571C897.170286 32.914286 867.108571 2.194286 829.366857 0z" fill="#8D9AA7" ></path></svg>