<svg xmlns="http://www.w3.org/2000/svg" viewBox="0 0 1024 1024"><path d="M807.574588 124.687059a419.358118 419.358118 0 0 0-591.872-3.192471c-164.623059 164.562824-167.755294 430.441412-3.19247 595.004236l294.369882 297.562352 297.562353-294.369882c164.562824-164.623059 167.695059-430.441412 3.132235-595.06447z" fill="#67D4C8" ></path><path d="M655.781647 638.614588h-47.104l-56.440471-94.569412a196.306824 196.306824 0 0 0-15.058823-22.407529 82.040471 82.040471 0 0 0-15.058824-15.299765 48.429176 48.429176 0 0 0-16.444235-8.432941 63.969882 63.969882 0 0 0-19.817412-2.831059h-32.466823v143.540706h-39.514353V301.176471h100.713412c14.757647 0 28.310588 1.867294 40.719058 5.662117 12.528941 3.614118 23.371294 9.155765 32.466824 16.685177 9.216 7.529412 16.444235 16.926118 21.684706 28.250353 5.12 11.143529 7.710118 24.214588 7.710118 39.273411 0 11.806118-1.807059 22.588235-5.421177 32.527059-3.433412 9.637647-8.432941 18.371765-15.058823 26.081883a90.593882 90.593882 0 0 1-23.491765 19.757176A120.771765 120.771765 0 0 1 542.358588 481.882353v0.963765c5.662118 2.469647 10.480941 5.421176 14.576941 8.673882 4.216471 3.132235 8.252235 6.927059 12.047059 11.324235 3.734588 4.397176 7.408941 9.396706 11.023059 15.058824 3.734588 5.421176 7.890824 11.926588 12.468706 19.275294l63.247059 101.436235z m-202.390588-301.658353v122.337883h53.669647c9.878588 0 18.974118-1.505882 27.286588-4.457412 8.432941-3.011765 15.781647-7.228235 21.865412-12.709647A59.632941 59.632941 0 0 0 570.608941 421.647059c3.433412-8.131765 5.180235-17.227294 5.180235-27.286588 0-18.070588-5.903059-32.105412-17.648941-42.164706-11.625412-10.179765-28.491294-15.239529-50.597647-15.23953h-54.151529z" fill="#FFFFFF" ></path></svg>