<svg xmlns="http://www.w3.org/2000/svg" viewBox="0 0 1024 1024"><path d="M952.07424 109.57312H356.224c-38.8864 0-70.39488 31.8464-70.39488 71.0912v487.808c0 35.98848 30.76096 70.89664 70.3232 71.3472 0 0.06144 325.5808-0.256 325.5808-0.256l104.18688 76.32896 58.58304-76.31872h107.5712c38.88128 0 70.4512-31.8464 70.4512-71.0912V180.66432c0-39.2448-31.5904-71.0912-70.4512-71.0912z m-300.0064 539.5712a30.16704 30.16704 0 0 1-27.88864-18.6368 30.16704 30.16704 0 0 1 6.54336-32.896 30.19776 30.19776 0 0 1 46.44864 4.57216 30.19264 30.19264 0 0 1-25.10336 46.96064zM783.9744 348.8256c-4.79232 26.99264-15.89248 52.4544-36.56192 73.0624-7.9104 9.56928-19.08736 17.48992-30.18752 23.8592-9.56928 4.79232-19.08736 9.51296-25.46176 17.48992-6.3744 7.9872-9.50784 20.6848-9.50784 41.25184a31.85664 31.85664 0 0 1-31.77984 31.78496c-17.48992 0-30.18752-12.70272-30.18752-30.18752 0-36.56192 9.50272-60.37504 22.26688-77.85472 12.75904-17.47968 28.59008-26.99264 44.48256-34.9696a71.49568 71.49568 0 0 0 17.4848-12.6976c11.10528-9.50272 17.48992-23.8592 19.01568-36.5568 1.59744-14.33088-1.536-28.5952-7.9104-41.2928-4.7872-6.38464-7.98208-12.6976-14.32576-19.08736a68.608 68.608 0 0 0-49.23392-20.6336c-9.50272 0-19.08224 3.18976-28.59008 6.37952-7.98208 3.19488-17.48992 7.9104-23.86432 15.89248-12.6976 12.6976-20.67968 28.59008-20.67968 49.26464 0 15.88736-12.6976 28.59008-30.18752 28.59008s-30.18752-12.6976-30.18752-30.18752c0-38.15936 15.89248-69.9392 38.15936-93.7472 12.70784-11.10016 28.63104-22.2464 44.4928-28.59008 15.89248-7.98208 33.3824-11.1616 52.4544-11.1616a128.68608 128.68608 0 0 1 92.14976 38.15424 152.91904 152.91904 0 0 1 23.86432 31.78496c12.70784 25.3952 17.4848 54.05184 14.30528 79.45216h-0.01024z m-468.21376 438.15424s-40.84224-0.50688-63.9488-25.84576c-16.9728-18.51392-14.55104-62.73024-14.55104-62.73024l0.256-302.82752-184.42752 0.84992C24.4992 396.42624 1.46432 419.77856 1.46432 448.6144v357.63712c0 28.84608 23.03488 52.18816 51.62496 52.18816h78.93504l42.9824 55.96672 76.3904-55.96672h238.58176c28.52864 0 51.62496-23.35232 51.62496-52.18816v-18.95424l-225.8432-0.31744z" fill="#52C41A" ></path></svg>