<svg xmlns="http://www.w3.org/2000/svg" viewBox="0 0 1024 1024"><path d="M0 0m64 0l896 0q64 0 64 64l0 896q0 64-64 64l-896 0q-64 0-64-64l0-896q0-64 64-64Z" fill="#2261E4" fill-opacity=".06" ></path><path d="M502.976 325.76c0 33.472-25.6 59.072-59.072 59.072s-59.072-25.6-59.072-59.072c0-33.504 25.6-59.104 59.072-59.104s59.072 25.6 59.072 59.104z m78.784 196.896c0 33.504-25.6 59.104-59.104 59.104-33.472 0-59.072-25.6-59.072-59.104 0-33.472 25.6-59.072 59.072-59.072 33.504 0 59.104 25.6 59.104 59.072z m19.68 256c33.472 0 59.072-25.6 59.072-59.072s-25.6-59.072-59.072-59.072-59.072 25.6-59.072 59.072 25.6 59.072 59.072 59.072z m0-78.752c11.84 0 19.68 7.872 19.68 19.68 0 11.84-7.872 19.712-19.68 19.712-11.84 0-19.712-7.904-19.712-19.712s7.904-19.68 19.712-19.68z m-78.784-196.928c11.84 0 19.712 7.872 19.712 19.68 0 11.84-7.872 19.712-19.712 19.712-11.808 0-19.68-7.872-19.68-19.712 0-11.808 7.872-19.68 19.68-19.68z m-78.752-196.928c11.808 0 19.68 7.872 19.68 19.712 0 11.808-7.872 19.68-19.68 19.68-11.84 0-19.712-7.872-19.712-19.68 0-11.84 7.904-19.712 19.712-19.712zM286.368 699.904c-11.84 0-19.712 7.872-19.712 19.68 0 11.84 7.872 19.712 19.712 19.712h196.896c11.84 0 19.712-7.904 19.712-19.712s-7.872-19.68-19.712-19.68H286.4z m275.68-393.856c-11.84 0-19.68 7.872-19.68 19.712 0 11.808 7.872 19.68 19.68 19.68h196.928c11.84 0 19.68-7.872 19.68-19.68 0-11.84-7.872-19.712-19.68-19.712h-196.928z m-295.36 216.64c0-11.84 7.84-19.712 19.68-19.712h118.144c11.84 0 19.68 7.872 19.68 19.68 0 11.84-7.872 19.712-19.68 19.712H286.368c-11.84 0-19.712-7.872-19.712-19.712z m374.144-19.712c-11.84 0-19.712 7.872-19.712 19.68 0 11.84 7.872 19.712 19.712 19.712h118.144c11.84 0 19.68-7.872 19.68-19.712 0-11.808-7.872-19.68-19.68-19.68h-118.144z m59.072 216.64c0-11.84 7.872-19.712 19.68-19.712h39.36c11.84 0 19.712 7.872 19.712 19.68 0 11.84-7.872 19.712-19.68 19.712h-39.36c-11.84 0-19.712-7.904-19.712-19.712zM286.368 306.016c-11.84 0-19.712 7.872-19.712 19.712 0 11.808 7.872 19.68 19.712 19.68h39.36c11.84 0 19.712-7.872 19.712-19.68 0-11.84-7.872-19.712-19.712-19.712H286.4z" fill="#2261E4" ></path></svg>