<svg xmlns="http://www.w3.org/2000/svg" viewBox="0 0 1024 1024"><path d="M512.256 71.168c-340.2752 0-434.5344 96.6656-434.5344 436.8896 0 340.2752 94.3104 433.92 434.5344 433.92s436.224-93.696 436.224-433.92-96-436.8896-436.224-436.8896z m214.528 482.4576l-8.6528 8.4992a136.8576 136.8576 0 0 1-176.2816 14.3872c-28.2624 30.6176-144.5376 159.5904-144.5376 159.5904-19.456 19.3024-77.1072 40.192-117.76 0-40.704-40.0896-19.5584-97.024 0-116.2752l162.7136-141.9264a133.632 133.632 0 0 1 15.7696-173.056l8.704-8.448c41.984-41.472 128.6656-42.4448 171.3152-42.2912 13.2096 0.1024 4.096 10.1888 4.096 10.1888l-80.6912 79.5648c-9.5744 9.472-7.7312 28.5696-7.7312 28.5696s6.6048 68.608 16.128 78.0288c9.6256 9.4208 76.1344 16.896 76.1344 16.896s25.1904 0.7168 32.6144-6.656l80.3328-79.7184s10.1376-8.8064 10.0352 4.864c-0.2048 42.8544-1.536 127.5392-42.1888 167.7824z" fill="#F1B957" ></path><path d="M342.4768 626.7904a47.872 47.872 0 0 0-48.2816 47.5136c0 26.2656 21.5552 47.5136 48.2816 47.5136 26.624 0 48.1792-21.248 48.1792-47.5136a47.872 47.872 0 0 0-48.1792-47.5136z" fill="#F1B957" ></path></svg>