<svg xmlns="http://www.w3.org/2000/svg" viewBox="0 0 1024 1024"><path d="M0 0m96 0l832 0q96 0 96 96l0 832q0 96-96 96l-832 0q-96 0-96-96l0-832q0-96 96-96Z" fill="#EEEFFD" ></path><path d="M235.52 460.736H563.2v327.68H235.52v-327.68z" fill="#9254DE" fill-opacity=".2" ></path><path d="M317.44 286.72a51.2 51.2 0 0 1 51.2-51.2h368.64a51.2 51.2 0 0 1 51.2 51.2v368.64a51.2 51.2 0 0 1-51.2 51.2H368.64a51.2 51.2 0 0 1-51.2-51.2V286.72z" fill="#9254DE" fill-opacity=".8" ></path><path d="M527.04 365.632c-8.64 13.824-3.456 32.832 12.096 41.472 13.824 8.64 32.832 3.456 41.472-10.368s3.456-32.832-10.368-41.472c-6.912-3.456-15.552-5.184-22.464-3.456-10.368 1.728-17.28 6.912-20.736 13.824z m138.24 146.88c-10.368-10.368-24.192-12.096-36.288-5.184a28.928 28.928 0 0 0-13.824 32.832c1.728 6.912 6.912 13.824 13.824 19.008 13.824 8.64 32.832 3.456 41.472-10.368 6.912-10.368 5.184-25.92-5.184-36.288z m-32.832-29.376c6.912-1.728 15.552-1.728 22.464 0V419.2l-51.84-24.192c-1.728 6.912-6.912 13.824-12.096 19.008l41.472 17.28v51.84z m-198.72 58.752c1.728 6.912 6.912 13.824 13.824 19.008 6.912 3.456 15.552 5.184 22.464 3.456 6.912-1.728 13.824-6.912 19.008-13.824a29.696 29.696 0 0 0 0-29.376c-5.184-8.64-15.552-15.552-25.92-15.552a28.48 28.48 0 0 0-25.92 15.552c-5.184 5.184-6.912 12.096-3.456 20.736z m39.744-58.752v-50.112l39.744-17.28c-5.184-5.184-8.64-12.096-12.096-19.008l-51.84 24.192v63.936c10.368-3.456 17.28-3.456 24.192-1.728z m79.488 82.944l-39.744-17.28c-1.728 3.456-3.456 8.64-5.184 12.096-1.728 3.456-3.456 5.184-5.184 8.64l51.84 22.464 51.84-22.464c-5.184-5.184-8.64-12.096-12.096-19.008l-41.472 15.552z" fill="#FFFFFF" ></path></svg>