<svg xmlns="http://www.w3.org/2000/svg" viewBox="0 0 1024 1024"><path d="M654.30016 417.28c57.7024 0 89.90208 24.3712 96.59392 73.10848h-54.67136c-2.304-21.17632-16.27648-31.74912-41.92256-31.72864-19.44576 0-35.23584 9.0624-35.23584 24.58112 0 53.61664 138.05056 17.07008 138.05056 116.26496 0 36.90496-23.47008 77.49632-97.59232 77.49632-62.24896 0-97.00864-25.85088-104.27904-77.54752h53.89312c6.64064 24.64256 23.43424 36.9664 50.38592 36.9664 14.48448 0 42.60352-2.92864 42.60352-30.02368 0-59.20256-137.63072-18.66752-137.63072-115.99872 0-35.84 21.4272-73.1136 89.8048-73.1136V417.28z m-412.52352 3.73248c28.38016-0.01536 54.10304 17.03424 65.62304 43.49952 11.52 26.46528 6.67648 57.3696-12.35968 78.84288 24.12032 19.48672 33.51552 52.41344 23.40864 82.06336-10.10176 29.6448-37.48864 49.52064-68.25472 49.536h-126.5152V421.01248H241.8176h-0.04096z m196.70016-12.7488l124.7744 266.67008H509.14816l-70.69696-150.72256-70.144 150.72256H313.58464l124.928-266.67008h-0.03584z m519.63392 12.47744v44.69248h-129.408v164.79744h129.36704v44.69248H776.3456V420.74624h181.75488l0.01024-0.00512z m-519.7312 183.19872c6.46656 0 12.78464 1.95584 18.15552 5.61664a33.22368 33.22368 0 0 1 12.032 14.96576 33.96608 33.96608 0 0 1 1.86368 19.26144 33.53088 33.53088 0 0 1-8.94464 17.06496 32.45568 32.45568 0 0 1-16.72704 9.12384 32.03072 32.03072 0 0 1-18.88256-1.8944 32.84992 32.84992 0 0 1-14.65856-12.27776 33.92 33.92 0 0 1-3.01568-31.2832 33.38752 33.38752 0 0 1 7.0912-10.81856 32.6144 32.6144 0 0 1 10.60864-7.2192 32.06144 32.06144 0 0 1 12.50816-2.52928l-0.0256-0.01024z m-203.22304-36.53632H176.60928v65.38752h57.1904c21.6576-2.45248 32.48128-13.36832 32.48128-32.7424 0-18.98496-10.36288-29.86496-31.09888-32.63488l-0.0256-0.01024z m722.91328-42.66496v44.84096h-116.11648v-44.84096h116.14208-0.0256zM224.96256 461.0048h-48.35328v65.54624h48.35328c21.63712-2.4576 32.4096-13.33248 32.4096-32.79872 0-19.47136-10.74176-30.28992-32.384-32.73728l-0.0256-0.00512zM797.5936 104.36096c46.42304 0 81.58208 24.89344 105.48224 74.67008l-41.45152 16.57344c-16.25088-30.18752-37.59104-45.28128-64.01024-45.28128-46.04928 0-70.83008 47.1552-70.83008 82.0736 0 34.92864 27.28448 81.88416 69.16096 81.88416 27.91424 0 49.81248-16.76288 65.69984-50.28864h-47.93344L803.41504 225.28h110.19264c0 84.5824-53.31968 134.93248-119.08096 134.93248-65.75616 0-112.90624-64.00512-112.90624-127.8464 0-63.83616 46.42304-128.05632 116.03968-128.05632l-0.06656 0.05632z m-619.83744 0.90624v71.45472l146.25792-71.4752V160.7168L177.75616 232.39168l146.30912 70.93248v56.16128l-146.36544-71.4752 0.0512 71.4752H123.63776V261.52448L64 232.41728l59.58656-29.24544 0.0512-97.91488h54.09792l0.02048 0.01536z m236.78976 0v254.24384H360.4736V105.27744l54.07232-0.01024z m103.07584 0l97.536 186.8288V105.27744h49.49504V359.5264H600.7296L500.32128 163.26144v196.25984H451.328V105.27744l66.29376-0.01024z m413.1072-4.26496c16.16384 0 29.27104 13.36832 29.27104 29.86496s-13.1072 29.86496-29.27104 29.86496c-16.16896 0-29.27616-13.36832-29.27616-29.86496a30.45376 30.45376 0 0 1 2.23744-11.43296 29.80864 29.80864 0 0 1 6.35392-9.69216 29.21472 29.21472 0 0 1 9.50272-6.46656 28.75392 28.75392 0 0 1 11.20768-2.26304l-0.0256-0.01024z m0 5.3248c-13.27104 0.0256-24.01792 11.008-24.00768 24.55552 0.00512 13.53728 10.76224 24.51456 24.03328 24.5248 13.27104 0 24.0384-10.9568 24.05888-24.4992 0-3.2256-0.61952-6.42048-1.82272-9.40032a24.6272 24.6272 0 0 0-5.21216-7.97184 24.06912 24.06912 0 0 0-7.808-5.3248 23.6544 23.6544 0 0 0-9.216-1.8688l-0.0256-0.01024z" fill="#CA141E" ></path><path d="M922.68032 147.2v-13.4912h7.18848l7.64416 13.4912h9.6768l-9.6768-13.4912c2.57024-0.55296 4.8128-1.82272 6.31808-3.584 1.50528-1.7664 2.176-3.90144 1.8944-6.03136 0-5.10976-3.5584-8.02304-10.76224-8.89344h-19.77344v32h7.49056z m-0.128-18.04288V118.784h9.9328c0.8704 0.03584 1.72544 0.2048 2.5088 0.50688 0.78848 0.30208 1.49504 0.72704 2.0736 1.24928 0.57856 0.51712 1.024 1.1264 1.31072 1.792a4.352 4.352 0 0 1 0.34304 2.05824c0 3.16928-2.10432 4.75648-6.23616 4.75648l-9.9328 0.01536z" fill="#CA141E" ></path><path d="M210.55488 741.00224a265.55392 265.55392 0 0 1-5.61152 30.11584 207.09376 207.09376 0 0 0 21.4016 49.47968 197.51936 197.51936 0 0 0 32.48128 40.42752l-16.42496 6.78912a190.6688 190.6688 0 0 1-25.31328-32.93696 226.46784 226.46784 0 0 1-19.712-40.46848 179.3024 179.3024 0 0 1-53.43232 73.73824L128 861.47072a193.59232 193.59232 0 0 0 44.43136-52.52096 178.62656 178.62656 0 0 0 21.51424-67.94752h16.60928z m146.87744 1.03424l-4.79744 31.01184h52.70016l-1.92 14.53568h-50.00704a153.23648 153.23648 0 0 0 20.52096 41.84064 197.9904 197.9904 0 0 0 30.55616 33.08544l-16.08704 6.49216a162.49856 162.49856 0 0 1-24.21248-28.04224 156.0064 156.0064 0 0 1-19.77856-37.38624 143.71328 143.71328 0 0 1-23.1424 36.97664 142.44864 142.44864 0 0 1-31.47776 28.19072l-14.464-6.97344a165.6576 165.6576 0 0 0 38.08256-34.75456 109.23008 109.23008 0 0 0 20.66944-39.46496h-48.896l1.47456-14.5408h50.03776l5.0176-31.00672 15.72352 0.03584z m189.1328 110.53056l-1.69472 13.64992H427.06944l1.47968-13.64992h50.04288l3.54304-35.15904h-42.368l1.4336-13.20448h42.4448l1.62304-15.43168h-25.09312l1.3312-11.71968-17.53088 20.62336-17.7152-2.07872 42.2144-49.40288c1.19296-1.62304 2.69824-2.99008 4.43392-4.00896 1.7408-0.83968 3.68128-1.19808 5.6064-1.03424h34.46784c1.8432-0.14848 3.6864 0.23552 5.31456 1.11104 1.74592 1.10592 3.21024 2.60608 4.28032 4.3776l34.54464 47.47264-17.86368 2.07872-13.72672-19.73248-1.29024 12.3136h-24.09984l-1.62304 15.43168h43.36128l-1.47456 13.20448h-43.3664l-3.54304 35.15904h53.0688zM510.7712 754.944h-30.55616l-17.8688 21.0688h62.88896l-14.464-21.0688z m-57.71776 92.1344l-5.76-23.77216h13.83936l6.20032 23.73632-14.2848 0.03584z m54.1696 0.14848l10.33728-23.92064h14.17216l-9.74336 23.92064h-14.76096z m154.70592-104.448a11.50464 11.50464 0 0 1 9.89184 5.93408l32.1792 48.81408-17.53088 2.07872-26.86464-42.73152h-31.62624l-36.45952 41.84064-18.01216-2.07872 41.6256-48.51712c1.20832-1.62816 2.70848-3.01568 4.4288-4.07552a11.25888 11.25888 0 0 1 5.61152-1.26464h36.75648z m3.39456 40.6528a11.63776 11.63776 0 0 1 9.00608 3.70688 12.83584 12.83584 0 0 1 2.76992 10.19904c-0.6912 8.30976-1.92 17.75616-3.69152 28.3392a11.88864 11.88864 0 0 1-3.7632 7.41888 12.09856 12.09856 0 0 1-7.90016 2.37568 24.1664 24.1664 0 0 1-3.10272-0.14848 178.37056 178.37056 0 0 1-28.04224-5.48864l1.77152-12.91264c7.58784 1.9968 15.29344 3.54816 23.06048 4.63872h0.7424a3.1744 3.1744 0 0 0 2.14016-0.59392 3.9168 3.9168 0 0 0 0.9216-2.2272 187.8528 187.8528 0 0 0 2.7648-21.3248h-45.68576l-5.46304 52.33664v0.7424a1.65376 1.65376 0 0 0 0.51712 1.408 4.11648 4.11648 0 0 0 2.14016 0.36864h36.31616c7.552 0.05632 15.08864-0.6144 22.51264-2.00192a70.10304 70.10304 0 0 0 17.52576-5.56032l-2.24768 16.6144a111.85152 111.85152 0 0 1-39.41376 5.34016h-39.67488a14.42816 14.42816 0 0 1-10.14784-3.40992 12.1344 12.1344 0 0 1-3.69152-9.34912 16.6656 16.6656 0 0 1 0.14848-2.52416l6.90176-55.7824a14.2848 14.2848 0 0 1 3.84-8.90368 12.29824 12.29824 0 0 1 9.07776-3.26144h50.66752z" fill="#262626" ></path></svg>