<svg xmlns="http://www.w3.org/2000/svg" viewBox="0 0 1536 1024"><path d="M512 992a480 480 0 1 0 0-960 480 480 0 0 0 0 960z" fill="#FFFFFF" ></path><path d="M960 512A448 448 0 1 0 64 512a448 448 0 0 0 896 0z m64 0A512 512 0 1 1 0 512a512 512 0 0 1 1024 0z" fill="#547EE8" ></path><path d="M1024 992a480 480 0 1 0 0-960 480 480 0 0 0 0 960z" fill="#FFFFFF" ></path><path d="M1472 512A448 448 0 1 0 576 512a448 448 0 0 0 896 0z m64 0A512 512 0 1 1 512 512a512 512 0 0 1 1024 0z" fill="#547EE8" ></path><path d="M762.24 109.568a460.032 460.032 0 0 1 164.096 161.792A467.264 467.264 0 0 1 992 512a479.616 479.616 0 0 1-224 406.08A479.488 479.488 0 0 1 544 512a479.552 479.552 0 0 1 218.24-402.432z" fill="#547EE8" fill-opacity=".45" ></path><path d="M960 512c0-82.048-22.016-158.72-61.12-224.192a427.52 427.52 0 0 0-135.68-139.968A447.232 447.232 0 0 0 576 512a447.04 447.04 0 0 0 192 367.36A447.168 447.168 0 0 0 960 512z m64 0c0 182.4-95.36 342.464-238.848 433.152l-17.088 10.688-17.152-10.688A511.488 511.488 0 0 1 512 512c0-179.84 92.736-337.92 232.832-429.248l16.512-10.752 17.024 9.856a492.032 492.032 0 0 1 175.424 173.056A499.392 499.392 0 0 1 1024 512z" fill="#547EE8" ></path></svg>