<svg xmlns="http://www.w3.org/2000/svg" viewBox="0 0 1024 1024"><path d="M286.39232 298.09664h-10.74688l-183.05536 436.2752a5.8368 5.8368 0 0 0 2.68288 7.35744c0.84992 0.45056 1.79712 0.67584 2.75456 0.67072H199.7824a5.95968 5.95968 0 0 0 5.43744-3.62496L336.2304 423.67488c0.52224-1.3312 0.52224-2.816 0-4.1472l-1.55136-4.00896-48.28672-117.42208z" fill="#FFA800" ></path><path d="M594.50368 323.60448l139.16672 82.72384c1.67424 1.024 3.59936 1.55648 5.56544 1.55136h86.2208c22.656 0 43.88352-10.74688 60.58496-43.3664L938.73152 276.48h-327.3984c-43.37152 1.03424-48.93696 24.34048-16.82944 47.12448zM684.73856 633.3952a5.0688 5.0688 0 0 0-2.71872-0.77824h-121.04704c-8.96-0.06656-17.8176 1.93024-25.89184 5.82656L386.59584 285.28128a11.776 11.776 0 0 0-10.74688-7.1168H283.93472a11.648 11.648 0 0 0-10.74688 16.0512l181.888 441.0624a12.14464 12.14464 0 0 0 7.24992 6.6048h308.11136c31.8464 1.81248 37.41696-28.87168 16.18432-48.80896l-101.88288-59.67872z" fill="#3E75FF" ></path><path d="M885.14048 551.18848l-321.31584-200.3968c-14.76096-9.96864-31.45728-23.82336-32.88064-38.84032l-49.8432 86.60992c-11.52 23.81824-8.15616 52.5568 25.89184 72.36608l321.05472 201.04704c14.88896 9.84064 31.45728 23.69024 32.88576 38.84032l49.83808-86.73792c11.264-24.34048 8.15616-53.20704-25.63072-72.88832z" fill="#3E75FF" ></path></svg>