<svg xmlns="http://www.w3.org/2000/svg" viewBox="0 0 1024 1024"><path d="M512 0c282.752 0 512 229.248 512 512s-229.248 512-512 512S0 794.752 0 512 229.248 0 512 0z m0 42.666667C252.8 42.666667 42.666667 252.8 42.666667 512s210.133333 469.333333 469.333333 469.333333 469.333333-210.133333 469.333333-469.333333S771.2 42.666667 512 42.666667z" fill="#52C41A" ></path><path d="M170.666667 170.666667h682.666666v682.666666H170.666667z" fill="#52C41A" opacity=".01" ></path><path d="M778.666667 297.344h-46.592a21.248 21.248 0 0 0-16.725334 8.106667l-274.901333 348.202666-131.797333-166.997333a21.333333 21.333333 0 0 0-16.725334-8.106667H245.333333a5.333333 5.333333 0 0 0-4.181333 8.576l182.613333 231.338667c8.533333 10.794667 24.917333 10.794667 33.493334 0l325.589333-412.586667a5.290667 5.290667 0 0 0-4.181333-8.533333z" fill="#52C41A" ></path></svg>