<svg xmlns="http://www.w3.org/2000/svg" viewBox="0 0 1024 1024"><path d="M768.685 745.183l10.387 1.398c81.062 11.717 113.02 28.96 125.471 41.61 6.625 6.757 7.457 12.05 7.457 15.878 0 23.567-31.892 41.809-94.778 54.158l-7.99 1.498C746.88 871.076 656.698 876.868 525 878l0.033-145 20.64 0.067c92.514 0.599 165.686 4.56 223.012 12.083v0.033zM263 745.033V871l-3.166-0.5c-50.322-8.785-115.708-25.459-139.902-51.351-5.866-6.223-6.865-10.75-6.932-13.712l0.033-1.464 0.067-0.666c0.4-3.161 2-7.754 6.932-13.079l2.3-2.33c10.43-9.484 27.426-16.64 39.124-20.833 25.061-8.92 58.754-16.141 100.578-21.566L263 745v0.033zM113 331c2.966 1.632 5.932 3.165 8.998 4.564l5.765 2.665c5.133 2.232 10.331 4.33 15.597 6.196 31.826 11.459 67.185 20.753 119.64 26.882v280.718c-52.155 6.063-87.214 13.991-118.84 25.25a316.31 316.31 0 0 0-15.897 6.296l-4.665 2.1-3.933 1.865-3.066 1.532L113 691V331z m799 1v358l-2.93-1.568-3.329-1.634a219.5 219.5 0 0 0-5.859-2.735l-0.998-0.5-7.158-3.002-3.262-1.3-6.891-2.535-4.628-1.634-3.395-1.134-5.127-1.601a333.59 333.59 0 0 0-7.09-2.135l-1.432-0.4a290.797 290.797 0 0 0-8.356-2.268l-3.662-0.934-6.325-1.534-7.357-1.668-8.79-1.834-4.294-0.867-6.058-1.167-11.32-2.001-9.154-1.468a418.89 418.89 0 0 0-8.19-1.234l-3.661-0.567-11.652-1.5-1.165-0.2-6.791-0.835-8.09-0.934-7.856-0.833a1803.697 1803.697 0 0 0-139.82-8.405l-11.385-0.267-20.806-0.4-15.813-0.2-14.382-0.1-19.974-0.067V382.295l20.04-0.1c114.753-0.934 202.273-7.138 266.556-18.844l13.816-2.602 4.261-0.867 0.6-0.133 7.656-1.668 8.722-2 6.059-1.535 6.658-1.801 6.525-1.901 6.525-2.001a271.376 271.376 0 0 0 12.983-4.603l0.2-0.1a179.357 179.357 0 0 0 6.558-2.635l0.166-0.033 3.263-1.434 3.695-1.668 2.963-1.334 3.662-1.8 2.83-1.468 3.262-1.735V332zM349.4 645V379h-0.4c18.533 1.128 47.867 2.355 88 3.65l-0.1 258.634c-32.467 0.763-59.833 1.99-87.5 3.65V645z m467.922-479.018l9.155 1.898C867.391 176.838 912 192.557 912 218.933c0 20.115-36.753 39.397-98.706 51.886l-6.059 1.198C742.153 284.373 648.973 290.6 525 291V146l26.632 0.333c121.71 1.732 207.233 8.126 265.657 19.649h0.033zM263.967 153v126c-44.635-5.6-73.405-13.1-97.784-21.133l-5.023-1.8-5.887-2.2C141.238 248.4 123.178 239.5 116.06 228.2l-0.499-0.767-0.399-0.8a18.366 18.366 0 0 1-2.162-8.166c-0.033-7.234 8.515-16.4 23.382-25.267 17.295-10.267 42.007-19.6 73.537-27.867C229.41 160.4 244.21 156.433 264 153h-0.033z" fill="#FF6A00" ></path></svg>