<svg xmlns="http://www.w3.org/2000/svg" viewBox="0 0 1024 1024"><path d="M93.8496 0h636.8256c10.6496 0 21.2992 4.2496 28.7744 11.2128l205.8752 190.9248c8.5504 7.9872 13.8752 19.2 13.8752 31.488v747.7248a42.8032 42.8032 0 0 1-42.6496 42.6496H93.8496A42.8032 42.8032 0 0 1 51.2 981.3504V42.6496C51.2 19.2 70.4 0 93.8496 0z" fill="#3077F1" ></path><path d="M359.1168 307.2c-20.6336 0-36.352 6.2976-47.104 19.712-9.8304 12.1344-14.7456 28.2624-14.7456 48.896v81.5616c0 12.5952-2.7136 22.016-8.0896 28.2624-6.2976 6.2976-17.5104 10.3424-33.1776 11.6736v38.5536c15.6672 0.8704 26.88 4.9152 33.1776 12.0832 5.376 5.376 8.0896 14.848 8.0896 27.8016v82.0736c0 20.1728 4.9152 36.3008 14.7968 48.384 10.752 13.0048 26.4192 19.7632 47.0528 19.7632h35.4304v-39.0144h-26.4704c-16.128 0-24.2176-9.4208-24.2176-27.3408v-86.528c0-26.9312-13.0048-45.7728-39.0144-56.5248 26.0096-9.4208 39.0144-28.2112 39.0144-56.4736V374.016c0-18.8416 8.0896-27.8016 24.2176-27.8016h26.4704V307.2h-35.4304z m208.896 3.1232l-156.0064 412.4672h44.3904l155.5968-412.4672h-43.9296z m61.44-3.1232v39.0144h26.4704c16.128 0 24.2176 8.96 24.2176 27.8016v86.0672c0 28.2624 13.0048 47.104 39.0144 56.4736-26.0096 10.752-39.0144 29.5936-39.0144 56.5248v86.528c0 17.92-8.0896 27.3408-24.2176 27.3408h-26.4704v39.0144h35.4304c20.1728 0 35.84-6.7584 47.104-19.7632 9.8304-12.0832 14.7456-28.2112 14.7456-48.384v-82.0736c0-13.0048 2.7136-22.4256 8.0896-27.8016 6.2976-7.168 17.0496-11.2128 33.1776-12.0832v-38.5536c-16.128-1.3312-26.88-4.9664-32.768-11.264-5.7856-6.2464-8.4992-16.0768-8.4992-28.672V375.808c0-20.6336-4.9152-36.7616-14.7968-48.896-11.1616-13.4144-26.88-19.712-47.0528-19.712h-35.4304z" fill="#FFFFFF" ></path></svg>