<svg xmlns="http://www.w3.org/2000/svg" viewBox="0 0 1024 1024"><path d="M126.9 86.098h86.102V695.9H126.9V86.098z m172 0h87.998v682.004h-87.992V86.098z m167 0h88.002v682.004H465.9V86.098z m172 0h87.998v682.004h-87.997V86.098z m170 277.002h87.998v131H807.9v-131z" fill="#FFCC01" ></path><path d="M126.9 695.9h86.102v72.202H126.9z" fill="#F70603" ></path><path d="M273.603 932.7c-6.503 3.4-14.705 5.1-24.505 5.1-12.697 0-22.8-3.999-30.3-12.099-7.598-8.002-11.3-18.703-11.3-31.897 0-14.203 4.301-25.703 12.8-34.304 8.5-8.704 19.303-13 32.4-13 8.402 0 15.4 1.198 20.9 3.6v11.898c-6.298-3.497-13.2-5.197-20.798-5.197-9.8 0-17.9 3.298-24.1 9.8-6.2 6.6-9.298 15.4-9.298 26.501 0 10.598 2.898 18.995 8.7 25.196 5.8 6.2 13.296 9.303 22.696 9.303 8.704 0 16.302-1.997 22.8-5.899V932.7z m16.2 3.702v-93.404H301V936.3h-11.198v0.102z m29.695-85.3c0-2.001 0.702-3.604 2.002-5.002a6.86 6.86 0 0 1 5.002-1.996c1.997 0 3.697 0.696 5.1 1.996 1.398 1.301 2.1 3 2.1 4.998 0 2.002-0.702 3.604-2.1 4.905a7.27 7.27 0 0 1-5.1 1.996 6.86 6.86 0 0 1-5.002-1.996 6.63 6.63 0 0 1-1.997-4.905z m1.3 85.3v-63.104h11.203v63.104H320.8z m74.702-2.903c-4.798 2.903-10.599 4.3-17.398 4.3-9.104 0-16.502-2.897-22-8.8-5.602-5.899-8.3-13.4-8.3-22.698 0-10.301 3-18.703 8.995-25 6.001-6.298 14.004-9.503 24.003-9.503 5.801 0 10.7 1.003 14.797 3.102V886a24.151 24.151 0 0 0-14.797-4.9c-6.4 0-11.602 2.202-15.6 6.6-4 4.404-6.001 10.302-6.001 17.7 0 7.301 1.9 12.903 5.703 16.999 3.8 4.1 8.899 6.2 15.299 6.2 5.402 0 10.598-1.797 15.4-5.396v10.296h-0.101z m68.602 2.903h-15.206l-26.998-30.403h-0.2v30.403h-11.197v-93.404H421.7V902.2h0.204l25.6-28.902h14.398l-28.503 30.3 30.704 32.804z m78.9 0h-11.403v-39.803h-44.697v39.803h-11.408v-88.3h11.403v38.4h44.697v-38.4h11.402v88.3z m17.203-30.904c0-10.394 2.893-18.596 8.694-24.7 5.8-6 13.7-9 23.705-9 9.498 0 16.896 2.903 22.298 8.704 5.396 5.796 8.1 13.798 8.1 23.997 0 10-2.903 18.002-8.602 24.1-5.699 6.103-13.399 9.2-23.101 9.2-9.4 0-16.999-3-22.6-8.898-5.699-5.903-8.5-13.701-8.5-23.398z m11.397-0.297c0 7.3 1.797 13 5.499 17.203 3.696 4.198 8.601 6.297 14.797 6.297 6.4 0 11.3-1.996 14.602-6.103 3.302-4.096 5.002-9.897 5.002-17.597 0-7.7-1.7-13.599-5.002-17.7-3.297-4.101-8.202-6.2-14.602-6.2-6.298 0-11.198 2.099-14.9 6.4-3.599 4.3-5.396 10.199-5.396 17.7z m119.096 31.2h-11.197V926.5h-0.205c-4.198 7.598-10.7 11.402-19.395 11.402-14.899 0-22.4-8.904-22.4-26.803V873.4h11.1v36.096c0 12.8 4.9 19.2 14.695 19.2 4.905 0 8.806-1.792 11.802-5.396 3-3.6 4.505-8.1 4.505-13.599v-36.3h11.198l-0.103 63z m16.4-13.603c5.6 4.101 11.704 6.103 18.201 6.103 8.704 0 13.102-2.903 13.102-8.601 0-2.402-0.9-4.404-2.903-6.001-1.894-1.598-5.796-3.4-11.597-5.601-6.999-2.796-11.5-5.597-13.603-8.397-2.1-2.8-3.098-6.103-3.098-10 0-5.6 2.401-10.101 7.101-13.399 4.7-3.404 10.599-5.002 17.5-5.002 5.397 0 10.297 0.901 14.9 2.8v10.804a29.338 29.338 0 0 0-16-4.608c-3.6 0-6.503 0.804-8.704 2.304-2.202 1.603-3.395 3.6-3.395 6.195 0 2.509 0.799 4.506 2.396 5.904 1.603 1.402 5.202 3.2 10.701 5.401 7 2.601 11.802 5.3 14.3 8.202 2.499 2.796 3.702 6.298 3.702 10.394 0 5.806-2.401 10.301-7.101 13.706-4.7 3.298-10.9 4.997-18.402 4.997-6.502 0-12.195-1.198-17.1-3.701v-11.5zM816 907.7h-44.099c0.2 6.702 1.997 11.9 5.5 15.6 3.501 3.703 8.396 5.5 14.699 5.5 7.101 0 13.501-2.3 19.405-6.8v10c-5.607 3.901-12.903 5.903-22.103 5.903-9.104 0-16.2-2.903-21.402-8.704-5.1-5.796-7.7-13.798-7.7-24.1 0-9.697 2.8-17.597 8.396-23.9 5.602-6.298 12.606-9.4 20.905-9.4 8.197 0 14.695 2.703 19.303 8.002 4.597 5.3 6.994 12.698 6.994 22.298l0.102 5.601z m-11.203-8.898c0-5.699-1.397-10.102-3.993-13.2-2.704-3.102-6.4-4.7-11.203-4.7-4.403 0-8.3 1.7-11.5 4.997-3.2 3.303-5.304 7.603-6.102 12.903h32.798z"  ></path></svg>