<svg xmlns="http://www.w3.org/2000/svg" viewBox="0 0 1024 1024"><path d="M0 0m64 0l896 0q64 0 64 64l0 896q0 64-64 64l-896 0q-64 0-64-64l0-896q0-64 64-64Z" fill="#F6F2FF" ></path><path d="M635.328 696.256l140.32-203.616a17.056 17.056 0 0 0-4.992-24.128 18.368 18.368 0 0 0-9.984-2.912h-110.304v-128.192c0-9.6-8.064-17.408-18.016-17.408a18.176 18.176 0 0 0-14.944 7.744l-140.32 203.616a17.056 17.056 0 0 0 4.992 24.128c2.944 1.92 6.4 2.944 9.984 2.944h110.304v128.16c0 9.6 8.064 17.408 17.984 17.408 6.048 0 11.648-2.88 14.976-7.744z" fill="#6C39C8" fill-opacity=".85" ></path><path d="M350.496 349.536H470.4c19.872 0.096 35.904 15.744 35.84 34.944-0.096 19.136-16.064 34.624-35.84 34.688h-119.936c-19.872-0.064-35.936-15.744-35.84-34.944 0.064-19.136 16.064-34.624 35.84-34.688z m0 278.496H470.4c19.872 0 35.968 15.584 35.968 34.816 0 19.2-16.096 34.816-35.968 34.816h-119.936c-19.872 0-36-15.584-36-34.816 0-19.2 16.128-34.816 36-34.816z m47.968-139.232H302.496c-19.744 0.064-35.744 15.552-35.84 34.656-0.064 19.232 16 34.88 35.84 34.976h95.968c19.744-0.096 35.744-15.584 35.84-34.688 0.064-19.2-16-34.88-35.84-34.944z" fill="#6C39C8" fill-opacity=".85" ></path></svg>