<svg xmlns="http://www.w3.org/2000/svg" viewBox="0 0 1024 1024"><path d="M102.4 0h819.2c68.2496 0 102.4 34.1504 102.4 102.4v819.2c0 68.2496-34.1504 102.4-102.4 102.4H102.4c-68.2496 0-102.4-34.1504-102.4-102.4V102.4C0 34.1504 34.1504 0 102.4 0z" fill="#F25D5D" ></path><path d="M216.2688 674.6112c73.728 0 116.3264-44.6464 116.3264-95.4368 0-43.008-22.528-68.4032-60.2112-83.5584l-38.0928-15.1552c-27.0336-10.6496-46.2848-17.2032-46.2848-33.9968 0-16.384 13.9264-25.3952 36.4544-25.3952 23.7568 0 42.5984 8.192 62.6688 23.3472l36.4544-45.8752A141.824 141.824 0 0 0 224.4608 358.4c-64.7168 0-110.592 40.96-110.592 92.16 0 44.2368 29.9008 70.8608 61.8496 83.5584l38.912 16.384c26.2144 11.0592 43.008 16.7936 43.008 34.4064 0 16.384-12.6976 26.624-39.7312 26.624-24.1664 0-52.4288-12.6976-74.1376-31.1296L102.4 630.784a170.5472 170.5472 0 0 0 113.8688 43.8272z m394.4448 80.2816c24.1664 0 43.8272-4.096 55.296-10.24l-12.6976-53.248a105.9328 105.9328 0 0 1-34.4064 5.7344c-24.576 0-52.0192-7.7824-65.9456-28.672 58.5728-17.6128 95.8464-72.4992 95.8464-153.6C648.8064 415.3344 592.2816 358.4 509.1328 358.4s-139.6736 56.5248-139.6736 156.4672c0 86.016 41.7792 142.1312 106.496 156.4672 22.1184 48.7424 68.4032 83.5584 134.7584 83.5584z m-101.5808-140.0832c-40.1408 0-64.7168-36.4544-64.7168-99.9424 0-58.9824 24.576-93.7984 64.7168-93.7984s65.1264 34.816 65.1264 93.7984c0 63.488-24.9856 99.9424-65.1264 99.9424z m387.8912 54.0672v-61.44h-118.3744V364.1344h-73.3184v304.7424h191.6928z" fill="#FFFFFF" ></path></svg>