<svg xmlns="http://www.w3.org/2000/svg" viewBox="0 0 1024 1024"><path d="M637.30688 500.77184a102.9376 102.9376 0 0 1 47.21664-12.66176c58.01472-1.23392 106.01984 45.64992 107.23328 104.70912a108.05248 108.05248 0 0 1-12.02176 51.90656l0.04096 0.01024c-1.03424 1.93536-2.176 3.89632-3.37408 5.85216a107.5968 107.5968 0 0 1-8.73984 12.50304c-40.71936 52.30592-136.05888 106.06592-246.48192 108.40064-136.192 2.89792-250.74688-66.41152-274.42176-133.21216l0.1024-0.04096a102.4512 102.4512 0 0 1-7.08608-35.26144c-0.97792-47.63648 30.5408-88.16128 73.83552-99.9168 0.06144 0.7936 0.11776 1.34656 0.11776 1.34656 0.80384-1.6384 1.69472-3.20512 2.65216-4.74112l0.24064-0.38912c0.98816-1.55136 2.048-3.05152 3.19488-4.48l0.04096-0.04096a50.56 50.56 0 0 1 29.07136-18.00192c25.64096-5.46816 50.7904 9.71264 58.87488 34.42688-0.15872-1.16736-0.3072-2.3296-0.5376-3.49696a51.98848 51.98848 0 0 0-16.1024-28.18048c14.81216-57.39008 67.39456-98.29888 127.86176-94.84288 60.57984 3.46624 108.42112 50.2784 116.6848 109.16864a106.32192 106.32192 0 0 0-17.45408 20.26496c-1.51552 2.304-2.83136 4.6848-4.1472 7.06048a104.87808 104.87808 0 0 1 23.19872-20.38272z m-32.18432-263.69536l-0.512-0.0768a38.68672 38.68672 0 0 0-7.94112-0.68608 38.6816 38.6816 0 0 0-16.33792 4.02944l-6.57408 4.01408a38.656 38.656 0 0 1-37.89312-1.96096c-2.50368-1.57184-4.6336-3.63008-7.04512-5.3248a35.65056 35.65056 0 0 0-7.94112-4.18816 38.85056 38.85056 0 0 0-30.07488 1.13664c-3.77344 1.76128-7.2704 4.096-10.35264 6.92224l-0.70144 0.73728a39.13728 39.13728 0 0 1-23.9104 8.8576 38.81984 38.81984 0 0 1-16.5888-3.38432l-6.55872-3.62496a38.72256 38.72256 0 0 0-16.5888-3.38432 38.49216 38.49216 0 0 0-7.81824 1.00352l-0.6656 0.13824c-169.25184 34.92864-292.49536 147.79392-289.8176 278.94272 3.18464 155.52512 182.2464 277.8624 399.95904 273.24416 217.71264-4.61312 391.61856-134.43584 388.43904-289.96096-2.69312-131.1744-130.48832-238.73024-301.07648-266.43456z" fill="#0091FF" ></path></svg>