<svg xmlns="http://www.w3.org/2000/svg" viewBox="0 0 1024 1024"><path d="M107.52 20.48h611.328c10.24 0 20.48 4.096 27.648 10.752l197.632 183.296c8.192 7.68 13.312 18.432 13.312 30.208V962.56c0 22.528-18.432 40.96-40.96 40.96H107.52c-22.528 0-40.96-18.432-40.96-40.96V61.44c0-22.528 18.432-40.96 40.96-40.96z" fill="#03CDAA" ></path><path d="M788.48 363.52h-148.48V291.84c-1.024-8.192-8.192-14.336-16.896-13.824l-389.12 40.448c-7.68 1.024-13.824 7.168-13.824 15.36v407.552c0 7.68 6.144 14.336 13.824 15.36l389.12 40.448h1.536c8.704 0 15.36-6.656 15.36-15.36V711.68h148.48c8.704 0 15.36-6.656 15.36-15.36V378.88c0-8.704-6.656-15.36-15.36-15.36z m-320 296.96l-22.528-47.616c-6.144-12.8-11.264-25.6-17.92-40.448h-1.536c-6.144 14.848-11.264 27.648-16.896 40.448l-20.48 47.616H326.144l67.072-125.44-62.976-118.272h65.024l19.456 43.52c5.12 11.264 10.752 24.064 17.92 39.936h1.536c5.632-15.872 10.752-28.672 15.872-39.936l17.92-43.52h61.952L466.432 537.6l67.072 122.88H468.48z m304.64 20.48h-133.12v-76.8h81.92v-35.84h-81.92V501.76h81.92v-35.84h-81.92V394.24h133.12v286.72z" fill="#FFFFFF" ></path></svg>