<svg xmlns="http://www.w3.org/2000/svg" viewBox="0 0 1024 1024"><path d="M808.7296 896H279.2704c-12.8 0-23.2704-11.2384-23.2704-24.97536V152.97536C256 139.2384 266.4704 128 279.2704 128h403.78368L832 302.82752v568.19712c0 13.73696-9.89184 24.97536-23.2704 24.97536z" fill="#FFFFFF" ></path><path d="M698.07616 96H260.17792c-19.95776 0-36.17792 16.43008-36.17792 36.64896v726.70208c0 20.21888 16.22016 36.64896 36.17792 36.64896h567.64416c19.95776 0 36.17792-16.43008 36.17792-36.64896V279.8848L698.07616 96z m-6.24128 25.9072l140.35456 155.45344h-126.62784c-7.48544 0-13.72672-6.3232-13.72672-13.90592V121.9072z m135.9872 751.9744H260.17792c-7.48544 0-13.7216-6.31808-13.7216-13.9008V132.64896c0-7.5776 6.23616-13.9008 13.7216-13.9008h409.20064v144.0768c0 20.224 16.22016 36.64896 36.18304 36.64896h136.60672v560.50688c0 6.95296-6.23616 13.9008-14.34624 13.9008z" fill="#C0C0C0" ></path><path d="M549.95968 256.08704l-367.55456 38.74816c-12.71808 1.2288-22.40512 11.68384-22.40512 24.6016v355.4816c0 12.30336 9.08288 23.3728 21.80096 24.6016l367.55456 36.28544c14.53568 1.84832 26.64448-9.83552 26.64448-24.59648V280.68864c0-14.14656-12.1088-25.8304-26.04032-24.6016z m-156.8256 341.34016l-18.17088-38.74816c-4.84352-10.45504-9.08288-20.91008-14.53056-33.20832h-1.21344c-4.84352 12.29824-9.08288 22.75328-13.32224 33.20832l-16.95232 38.74816H278.6816l53.888-102.7072-50.86208-96.5632h52.6848l15.73888 35.67616c4.23936 9.22112 8.47872 19.67616 14.53568 32.59392h1.20832a302.7456 302.7456 0 0 1 12.71808-32.59392l13.9264-35.67616h49.65376l-50.8672 99.0208 53.89312 100.2496h-52.0704z" fill="#22C683" ></path></svg>