<svg xmlns="http://www.w3.org/2000/svg" viewBox="0 0 1024 1024"><path d="M542.39744 148.48c36.9152 0 65.92 29.0048 65.92 65.92 0 13.184-3.95264 25.04704-10.5472 35.59936l93.60896 131.84c5.2736-1.32096 10.5472-1.32096 15.8208-1.32096 36.9152 0 65.92 29.0048 65.92 65.92s-29.0048 65.92-65.92 65.92-65.92-29.0048-65.92-65.92c0-13.184 3.95264-25.04704 10.5472-35.59424l-93.60896-131.84c-1.31584 0-2.6368 0-3.95264 1.31584l-52.736 242.5856c25.05216 14.50496 42.1888 40.86784 42.1888 71.1936 0 46.14656-36.9152 81.7408-81.7408 81.7408-44.8256 0-84.3776-36.9152-84.3776-81.7408 0-21.0944 7.9104-39.552 21.0944-54.05696L322.2272 412.16h-10.5472C274.7648 412.16 245.76 383.1552 245.76 346.24S274.7648 280.32 311.68 280.32 377.6 309.3248 377.6 346.24c0 14.49984-5.2736 29.0048-13.184 39.552l76.4672 127.88736c3.95264-1.32096 7.9104-1.32096 11.86304-1.32096l52.736-242.5856c-17.13664-11.86304-29.0048-31.6416-29.0048-54.05184 0-38.23616 29.00992-67.24096 65.92-67.24096zM444.3136 783.5904H432.64a23.63392 23.63392 0 0 0-3.63008-8.70912 23.85408 23.85408 0 0 0-6.21568-6.30272 26.48576 26.48576 0 0 0-8.04864-3.8912 32.69632 32.69632 0 0 0-9.22624-1.30048c-5.84704 0-11.136 1.45408-15.872 4.35712-4.7104 2.90304-8.46336 7.18336-11.264 12.83584-2.75968 5.65248-4.14208 12.58496-4.14208 20.80768 0 8.21248 1.3824 15.15008 4.1472 20.79744 2.79552 5.6576 6.54848 9.9328 11.25376 12.83584 4.74112 2.90304 10.03008 4.35712 15.872 4.35712 3.20512 0 6.28224-0.43008 9.22624-1.29536a26.97728 26.97728 0 0 0 8.05376-3.85024 24.576 24.576 0 0 0 6.21568-6.34368 24.08448 24.08448 0 0 0 3.62496-8.71424h11.68384a37.85216 37.85216 0 0 1-4.8128 13.02016 35.76832 35.76832 0 0 1-8.6528 9.7792 38.26176 38.26176 0 0 1-11.63776 6.0672 43.92448 43.92448 0 0 1-13.70624 2.08896c-8.2176 0-15.53408-1.97632-21.9392-5.92896-6.41024-3.95776-11.4432-9.57952-15.11936-16.8704-3.67104-7.29088-5.504-15.93856-5.504-25.94304 0-10.0096 1.83296-18.6624 5.504-25.95328 3.67616-7.29088 8.71424-12.91264 15.11936-16.86528 6.4-3.95776 13.7216-5.92896 21.9392-5.92896 4.864 0 9.44128 0.69632 13.70624 2.08384 4.3008 1.39264 8.17664 3.4304 11.63776 6.11328a35.26656 35.26656 0 0 1 8.66304 9.73312c2.31936 3.79904 3.92192 8.1408 4.80256 13.02016z m401.07008 3.33824v-9.2672h-15.44192v-17.0496h-11.12064v17.0496h-10.92096v9.2672h10.92096v44.47744c0 4.14208 0.9728 7.56736 2.92352 10.28608 1.97632 2.71872 4.4544 4.74624 7.43936 6.07232a22.656 22.656 0 0 0 9.23136 1.99168c1.72544 0.03584 3.44576-0.12288 5.13536-0.4608 1.07008-0.2048 2.1248-0.48128 3.15392-0.83456l-2.26304-9.82528-1.88416 0.37376a19.79392 19.79392 0 0 1-3.01568 0.18432 14.60224 14.60224 0 0 1-4.66432-0.7424c-1.43872-0.52736-2.63168-1.54112-3.57376-3.06176-0.91136-1.54112-1.36192-3.85536-1.36192-6.94784v-41.51296h15.44192z m28.22656 58.84928c5.05856 3.0208 11.06944 4.53632 18.04288 4.53632 4.89472 0 9.30304-0.7424 13.22496-2.22208a27.82208 27.82208 0 0 0 9.89184-6.30272 23.3472 23.3472 0 0 0 5.69856-9.45152l-10.73664-2.9696a16.8704 16.8704 0 0 1-3.99872 6.21568c-1.7664 1.65376-3.87072 2.9184-6.17472 3.70176a24.23296 24.23296 0 0 1-7.90528 1.2032c-4.49536 0-8.43264-0.95232-11.8272-2.8672-3.38432-1.9456-6.03648-4.77184-7.95648-8.48384-1.70496-3.38944-2.6368-7.4496-2.80064-12.1856H921.6v-4.6336c0-6.64064-0.896-12.23168-2.68288-16.77312-1.792-4.54144-4.18816-8.18688-7.20896-10.9312a27.63264 27.63264 0 0 0-10.02496-6.02624 34.7648 34.7648 0 0 0-11.1616-1.85344c-6.53312 0-12.24704 1.57184-17.14176 4.72576-4.86912 3.11808-8.66304 7.4752-11.39712 13.06624-2.69824 5.56032-4.04992 11.98592-4.04992 19.2768s1.35168 13.68576 4.04992 19.17952c2.73408 5.46816 6.6048 9.73312 11.62752 12.79488z m-4.51072-38.27712a24.12032 24.12032 0 0 1 2.5344-9.35936 21.49376 21.49376 0 0 1 7.39328-8.34048c3.23584-2.16576 7.0656-3.24608 11.4944-3.24608 4.01408 0 7.5008 0.91136 10.44992 2.73408a18.27328 18.27328 0 0 1 6.87616 7.45984c1.63328 3.15392 2.45248 6.7328 2.45248 10.752h-41.20064z m-86.64064 12.23168v-42.07104h11.1104v71.168h-11.1104v-12.04736h-0.75776c-1.69472 3.61472-4.33152 6.68672-7.9104 9.22112-3.57376 2.50368-8.09984 3.75296-13.55776 3.75296-4.52096 0-8.54528-0.9728-12.0576-2.9184-3.51744-1.97632-6.27712-4.94592-8.28928-8.89856-2.01216-3.98336-3.01056-9.00096-3.01056-15.05792v-45.21984h11.1104v44.48256c0 5.18656 1.47456 9.32864 4.4288 12.416 2.97984 3.08736 6.77888 4.6336 11.39712 4.6336 2.7648 0 5.57056-0.69632 8.42752-2.08384a18.33984 18.33984 0 0 0 7.25504-6.39488c1.97632-2.87232 2.96448-6.53312 2.96448-10.9824z m-126.39232-42.07104V875.52h11.1104v-37.62176h0.94208c0.81408 1.29536 1.97632 2.92864 3.48672 4.91008 1.50528 1.9456 3.65568 3.69152 6.4512 5.23264 2.7904 1.52064 6.51264 2.27328 11.1616 2.27328 6.02112 0 11.34592-1.50016 15.96416-4.49536 4.61312-3.02592 8.22272-7.29088 10.8288-12.78464 2.60608-5.5296 3.90656-12.06784 3.90656-19.59936 0-7.4752-1.30048-13.96736-3.90656-19.46624-2.60608-5.49376-6.23104-9.74848-10.88-12.74368-4.64896-2.9952-10.0096-4.49024-16.10752-4.49024-4.70528 0-8.44288 0.77312-11.20256 2.31424-2.72896 1.51552-4.8384 3.24096-6.31296 5.18656a100.1472 100.1472 0 0 0-3.38944 4.73088h-1.31584v-11.30496h-10.73664z m13.32224 49.80736c-1.59744-4.10624-2.40128-8.84736-2.40128-14.21824 0-5.31968 0.78848-9.96864 2.3552-13.952 1.57184-4.01408 3.8912-7.13216 6.96832-9.35936 3.07712-2.2528 6.88128-3.38432 11.39712-3.38432 4.7104 0 8.61696 1.18784 11.7248 3.56864 3.13856 2.35008 5.4784 5.55008 7.01952 9.59488 1.56672 4.01408 2.3552 8.5248 2.3552 13.53216 0 5.05856-0.80384 9.66656-2.4064 13.80352-1.56672 4.10624-3.92192 7.38304-7.06048 9.82016-3.11296 2.41152-6.98368 3.61472-11.63264 3.61472-4.45952 0-8.22272-1.14176-11.30496-3.4304-3.072-2.31424-5.41184-5.50912-7.0144-9.58976z m-128.58368 21.36064v-71.168h10.73664v11.12064h0.9472a17.88928 17.88928 0 0 1 7.296-8.84736c3.35872-2.13504 7.39328-3.2 12.10368-3.2 4.77184 0 8.74496 1.06496 11.90912 3.2 3.20512 2.09408 5.70368 5.04832 7.49056 8.84736h0.75776a20.77696 20.77696 0 0 1 8.33024-8.7552c3.70688-2.19648 8.15104-3.29216 13.32736-3.29216 6.47168 0 11.75552 1.99168 15.86688 5.97504 4.11648 3.95264 6.17472 10.11712 6.17472 18.48832v47.63136h-11.1104v-47.63136c0-5.248-1.46432-9.00608-4.38272-11.25888-2.9184-2.2528-6.35904-3.38432-10.3168-3.38432-5.08416 0-9.02144 1.51552-11.81696 4.54656-2.7904 2.9952-4.18816 6.79424-4.18816 11.392v46.336h-11.30496v-48.7424c0-4.0448-1.33632-7.30624-4.00384-9.77408-2.66752-2.50368-6.10304-3.75808-10.3168-3.75808-2.88256 0-5.58592 0.75776-8.09984 2.27328a17.27488 17.27488 0 0 0-6.02112 6.2976c-1.5104 2.6624-2.26304 5.7344-2.26304 9.22112v44.48256h-11.11552z m-66.92864-3.10272c4.93056 3.05664 10.66496 4.58752 17.19296 4.58752s12.24192-1.53088 17.13664-4.58752c4.93056-3.06176 8.76032-7.33184 11.4944-12.83584 2.75968-5.49888 4.14208-11.92448 4.14208-19.27168 0-7.41888-1.3824-13.88544-4.14208-19.41504-2.73408-5.5296-6.56384-9.82528-11.4944-12.88704-4.89472-3.05152-10.60864-4.5824-17.13664-4.5824-6.53312 0-12.2624 1.53088-17.18784 4.5824-4.89984 3.06176-8.7296 7.35744-11.48928 12.88704-2.7392 5.5296-4.10112 11.99616-4.10112 19.41504 0 7.3472 1.36192 13.7728 4.096 19.27168 2.7648 5.504 6.59456 9.77408 11.4944 12.83584z m29.43488-8.9856c-3.20512 2.49856-7.28064 3.74784-12.24192 3.74784-4.9664 0-9.04192-1.24928-12.24704-3.74784-3.20512-2.5088-5.57056-5.79584-7.11168-9.87648a37.20704 37.20704 0 0 1-2.304-13.24544c0-4.75648 0.768-9.19552 2.304-13.30176 1.54112-4.10624 3.90656-7.42912 7.1168-9.96352 3.2-2.5344 7.27552-3.79904 12.2368-3.79904 4.9664 0 9.04192 1.26464 12.24704 3.79904 3.20512 2.5344 5.57056 5.85728 7.11168 9.96352 1.536 4.10624 2.304 8.54528 2.304 13.30176 0 4.75648-0.768 9.16992-2.304 13.24544-1.54112 4.08064-3.91168 7.36768-7.11168 9.87648z m-184.10496-29.98272l-17.32608-29.09696h-12.81024l22.97856 35.58912-22.9888 35.57888h12.82048l17.32608-27.61728 17.33632 27.61728h12.81024l-23.36256-35.57888 23.36256-35.58912H336.5376l-17.3312 29.09696h-0.00512z m-79.0528 43.74016c-4.58752 0-8.74496-0.8448-12.48256-2.54976a21.28896 21.28896 0 0 1-8.89344-7.45984c-2.2016-3.27168-3.3024-7.22944-3.3024-11.85792 0-4.08064 0.8192-7.38304 2.44736-9.91744 1.6384-2.56 3.8144-4.57216 6.5536-6.02624a34.88768 34.88768 0 0 1 9.0368-3.24096c3.31264-0.7424 6.656-1.32608 10.03008-1.76128 4.39296-0.55296 7.95136-0.9728 10.69056-1.24928 2.7648-0.3072 4.77184-0.8192 6.02624-1.53088 1.29024-0.70656 1.93536-1.94048 1.93536-3.70688v-0.37376c0-4.56704-1.26976-8.12032-3.8144-10.65472-2.51904-2.5344-6.33344-3.79904-11.44832-3.79904-5.30432 0-9.46688 1.14688-12.47744 3.4304-3.01568 2.28864-5.13536 4.72576-6.35904 7.3216l-10.55232-3.70688c1.8944-4.3264 4.39808-7.69536 7.53664-10.10176a28.4672 28.4672 0 0 1 10.368-5.09952 43.71456 43.71456 0 0 1 11.10528-1.47968c2.32448 0 4.992 0.27648 8.00768 0.83456a25.87136 25.87136 0 0 1 8.8064 3.28704c2.85184 1.66912 5.23264 4.18816 7.11168 7.552 1.87904 3.36896 2.82624 7.87968 2.82624 13.53216v46.88896H262.1952v-9.63584h-0.5632c-0.75264 1.54112-2.00704 3.19488-3.76832 4.95616-1.75616 1.76128-4.096 3.26144-7.0144 4.49536-2.9184 1.23392-6.48704 1.85344-10.69056 1.85344z m1.69472-9.82016c4.39296 0 8.09984-0.84992 11.1104-2.54976 3.0464-1.69984 5.34016-3.89632 6.87616-6.5792 1.536-2.57024 2.35008-5.49888 2.3552-8.48384V813.056c-0.47104 0.5632-1.50528 1.06496-3.10784 1.536-1.56672 0.43008-3.38944 0.81408-5.46304 1.15712-2.048 0.31232-4.03456 0.5888-5.98016 0.82944-1.91488 0.22016-3.46624 0.40448-4.6592 0.55808a43.3408 43.3408 0 0 0-8.10496 1.80736c-2.47808 0.80896-4.48512 2.0224-6.02112 3.6608-1.50528 1.60768-2.26304 3.79904-2.26304 6.5792 0 3.79904 1.4336 6.67648 4.28544 8.62208 2.88768 1.91488 6.54336 2.87232 10.97216 2.87232z m-125.51168-86.74304H102.4v94.89408h10.92608v-72.09472h0.93696l30.14144 72.09472h10.5472l30.14144-72.09472h0.93696v72.09472h10.92608v-94.89408h-13.93664l-32.77312 78.7712h-1.13664l-32.77312-78.7712z" fill="#FF6A00" ></path></svg>