<svg xmlns="http://www.w3.org/2000/svg" viewBox="0 0 1024 1024"><path d="M102.4 0h819.2c68.2496 0 102.4 34.1504 102.4 102.4v819.2c0 68.2496-34.1504 102.4-102.4 102.4H102.4c-68.2496 0-102.4-34.1504-102.4-102.4V102.4C0 34.1504 34.1504 0 102.4 0z" fill="#14CEAA" ></path><path d="M393.3696 620.9536v168.448H238.4896a34.4576 34.4576 0 0 1-33.6896-35.1232v-133.3248h188.5696z m188.6208 0v168.448H420.352v-168.448h161.6384z m-188.6208-168.448v140.3904H204.8V452.5056h188.5696z m188.6208 0v140.3904H420.352V452.5056h161.6384z m215.552 0v64.3072h-188.6208V452.5056H797.5424zM763.8016 256c18.5856 0 33.6384 15.7184 33.6384 35.072V424.448H204.8V291.072c0-19.3536 15.104-35.072 33.6896-35.072h525.312zM812.09344 731.38688l0.3584-0.31744 55.43424-113.50016c1.3824-2.81088 2.06848-5.96992 2.432-8.77568 1.16224-15.17568-10.19904-28.55424-25.80992-30.40256l-131.95264-15.09888h-0.36352c-7.8848-0.7168-15.5392 2.78016-19.968 9.12896a19.79904 19.79904 0 0 0-0.3584 21.62688l11.39712 18.78016c-28.38528 17.23392-51.36896 41.63072-66.46784 70.56384a182.08256 182.08256 0 0 0-20.3264 80.9216c-1.05472 34.82624 6.53312 73.09312 22.72256 113.536l0.3584 0.63488 0.32768 0.62976c2.67776 4.4544 7.76192 7.02464 13.07136 6.6048 5.07392-0.5632 9.30304-4.02944 10.70592-8.7808l0.36352-0.98304v-1.2288c1.71008-99.70176 55.07072-133.2992 101.57056-157.7728l9.65632 16.32768c2.7648 5.9648 9.65632 9.40544 17.2032 9.40544 8.27904 0 15.872-4.38784 19.64544-11.29984z" fill="#FFFFFF" ></path></svg>