<svg xmlns="http://www.w3.org/2000/svg" viewBox="0 0 1024 1024"><path d="M14.8973037 14.8973037h994.2053926v994.2053926H14.8973037V14.8973037z" fill="#FFFFFF" fill-opacity=".01" ></path><path d="M821.34286578 42.54864118c13.04894578 50.95302637 30.03328831 87.71791289 50.95302638 110.19109809 21.74824297 23.61237808 59.23807171 44.53211614 112.05523198 62.65565154 14.91308089 5.17815349 24.85513482 19.26272948 24.75157216 35.10787792 0 15.84514845-9.94205392 30.03328831-24.75157216 35.10787793-52.81716148 18.12353539-90.30699023 38.93971081-112.05523198 62.55209009-20.91973806 22.57674786-37.90408059 59.23807171-50.95302638 110.19109687a36.45419732 36.45419732 0 0 1-35.10787792 27.65133748 36.45419732 36.45419732 0 0 1-35.10787792-27.65133748c-13.04894578-50.84946371-30.03328831-87.61435022-50.95302638-110.19109687-21.74824297-23.61237808-59.23807171-44.53211614-112.05523319-62.55209009a36.97201303 36.97201303 0 0 1-24.75157215-35.21144058c0-15.84514845 9.94205392-30.03328831 24.75157215-35.00431527 52.81716148-18.12353539 90.20342636-39.04327468 112.05523319-62.65565154 20.81617541-22.47318399 37.90408059-59.23807171 50.95302638-110.19109809a36.45419732 36.45419732 0 0 1 35.10787792-27.65133748c16.46652682 0 30.86179199 11.39193719 35.10787792 27.65133748z m-68.35162073 254.76513185a251.24398816 251.24398816 0 0 0-61.41289602-46.8105043c25.165824-14.18813986 45.56774756-29.82616178 61.41289602-46.81050309 13.04894578-14.49882905 24.23375645-30.55110281 33.14017894-47.84613453 10.04561659 18.64135111 21.23042725 34.59006222 33.34730669 47.84613453 15.84514845 16.98434253 36.24707201 32.62236445 61.41289479 46.81050309-22.78387317 12.22044089-43.49648592 27.96202667-61.41289479 46.70694165a230.63493806 230.63493806 0 0 0-33.24374282 47.84613452 228.04586192 228.04586192 0 0 0-33.24374281-47.84613452zM381.92479406 228.23721127c16.57008947 0 30.96535586 11.39193719 35.10787793 27.85846279 24.23375645 95.27801719 56.64899436 164.87239468 96.93502578 208.57600713 41.94304 45.56774756 111.95166932 85.12883675 210.23301571 118.89039406 14.70595436 5.17815349 24.64800829 19.26272948 24.64800829 35.2114418 0 15.74158578-9.94205392 29.92972444-24.75157094 35.00431405-98.17778252 33.76155853-168.18641184 73.3226477-210.12945306 118.89039527-40.38959408 43.70361245-72.70126933 113.29798994-97.03858844 208.67956979a36.45419732 36.45419732 0 0 1-35.10787792 27.75490014 36.45419732 36.45419732 0 0 1-35.10787793-27.75490014c-24.44088298-95.38157985-56.75255823-164.97595733-97.03858843-208.67956979-41.94304-45.46418369-111.95166932-85.02527408-210.23301572-118.89039527a36.97201303 36.97201303 0 0 1-24.54444563-35.00431405c0-15.9487111 9.94205392-30.03328831 24.64800829-35.2114418 98.17778252-33.76155853 168.18641184-73.3226477 210.23301571-118.7868314 40.28603141-43.70361245 72.59770668-113.29798994 97.03858844-208.78313244a36.45419732 36.45419732 0 0 1 35.10787792-27.75490014z" fill="#FF945A" ></path></svg>