<svg xmlns="http://www.w3.org/2000/svg" viewBox="0 0 1024 1024"><path d="M107.52 20.48h611.328c10.24 0 20.48 4.096 27.648 10.752l197.632 183.296c8.192 7.68 13.312 18.432 13.312 30.208V962.56c0 22.528-18.432 40.96-40.96 40.96H107.52c-22.528 0-40.96-18.432-40.96-40.96V61.44c0-22.528 18.432-40.96 40.96-40.96z" fill="#2A92FF" ></path><path d="M788.48 363.52h-148.48V291.84c-1.024-8.192-8.192-14.336-16.896-13.824l-389.12 40.448c-7.68 1.024-13.824 7.168-13.824 15.36v407.552c0 7.68 6.144 14.336 13.824 15.36l389.12 40.448h1.536c8.704 0 15.36-6.656 15.36-15.36V711.68h148.48c8.704 0 15.36-6.656 15.36-15.36V378.88c0-8.704-6.656-15.36-15.36-15.36z m-252.416 294.912H462.336L440.32 552.448c-4.096-18.432-7.168-38.4-9.728-56.832h-1.536c-3.072 18.432-6.144 37.888-9.728 56.832l-21.504 105.984h-71.68L281.6 414.72h59.904l15.36 111.104 9.728 77.312h1.536c4.608-26.112 9.728-52.224 14.336-77.312L407.552 414.72h49.152l25.6 111.104c5.12 25.088 9.216 51.2 14.336 77.312h1.536c3.072-26.112 6.144-52.224 9.216-77.312l15.872-111.104H578.56l-42.496 243.712zM773.12 680.96h-133.12v-76.8h81.92v-35.84h-81.92V501.76h81.92v-35.84h-81.92V394.24h133.12v286.72z" fill="#FFFFFF" ></path></svg>