<svg xmlns="http://www.w3.org/2000/svg" viewBox="0 0 1024 1024"><path d="M102.4 0h819.2c68.266667 0 102.4 34.133333 102.4 102.4v819.2c0 68.266667-34.133333 102.4-102.4 102.4H102.4C34.133333 1024 0 989.866667 0 921.6V102.4C0 34.133333 34.133333 0 102.4 0z" fill="#FAAD14" ></path><path d="M626.816 213.333333c25.386667 0 45.952 20.522667 45.952 45.909334V351.146667h45.994667c50.688 0 91.904 41.130667 91.904 91.946666v275.626667a91.946667 91.946667 0 0 1-91.904 91.904H305.237333A91.861333 91.861333 0 0 1 213.333333 718.72v-275.669333c0-50.773333 41.173333-91.946667 91.904-91.946667h45.952V259.242667C351.189333 233.856 371.754667 213.333333 397.141333 213.333333h229.674667zM554.666667 597.333333v42.666667h-65.706667v-42.666667H259.328v121.386667c0 25.301333 20.608 45.909333 45.909333 45.909333h413.525334l4.693333-0.213333c23.082667-2.346667 41.216-21.930667 41.216-45.653333V597.333333H554.666667zM305.237333 397.141333c-25.301333 0-45.909333 20.522667-45.909333 45.909334v91.904h229.632v-45.909334H554.666667v45.909334h210.005333v-91.904c0-25.386667-20.608-45.909333-45.909333-45.909334H305.237333z m91.904-46.08h229.674667V259.285333H397.141333V351.146667z" fill="#FFFFFF" ></path></svg>