<svg xmlns="http://www.w3.org/2000/svg" viewBox="0 0 1024 1024"><path d="M398.515 107.5c31.038-30.987 81.864-31.504 112.896-0.507l62.316 62.233a79.293 79.293 0 0 1 23.275 56.11 79.279 79.279 0 0 1-23.275 56.105l-45.968 45.906a15.903 15.903 0 0 1-22.482 0l-107.264-107.11c-31.027-30.997-30.515-81.751 0.512-112.743h-0.01z" fill="#4FA7C7" ></path><path d="M323 227.502c0-12.887 15.493-19.359 24.576-10.225L482.79 353.27a14.54 14.54 0 0 1 0 20.47L347.571 509.732c-9.078 9.113-24.576 2.662-24.576-10.24V227.497z" fill="#5568A7" ></path><path d="M401.49 615.506c-30.981-30.976-31.488-81.726-0.507-112.707l200.428-200.427c21.939-21.924 31.62-41.815 34.688-70.37l74.455 74.45c31.262 31.268 31.262 81.956 0 113.224L514.202 616.018c-30.976 30.981-81.72 30.464-112.702-0.512h-0.01z" fill="#75C6A7" ></path><path d="M211.799 894.003c9.523 0 17.956-0.896 25.298-2.688 7.342-1.792 13.604-4.423 18.8-7.895 5.192-3.476 9.97-8.238 14.337-14.285 4.372-6.057 7.951-13.7 10.746-22.937 2.79-9.237 4.189-19.84 4.189-31.795 0-14.04-2.059-26.522-6.18-37.438-4.117-10.92-10.327-19.891-18.637-26.91-6.374-5.443-14.07-9.201-23.091-11.28-6.451-1.505-15.795-2.253-28.042-2.253h-54.247v157.476H211.8z m-2.365-18.585H175.81v-120.32h33.085c12.39 0 21.381 1.075 26.967 3.225 7.731 3.006 14.305 8.93 19.712 17.777 5.407 8.842 8.11 21.504 8.11 37.975 0 11.883-1.382 22-4.137 30.346-2.76 8.346-6.605 14.986-11.55 19.927-3.508 3.507-8.218 6.231-14.122 8.161-5.908 1.936-14.054 2.903-24.442 2.903z m183.378 21.268c13.68 0 26.429-3.24 38.246-9.723s20.946-16.025 27.392-28.626c6.446-12.605 9.666-26.89 9.666-42.864 0-15.755-3.061-29.845-9.185-42.266-6.123-12.426-15.022-22.118-26.695-29.061-11.674-6.948-24.776-10.42-39.312-10.42-22.2 0-40.32 7.394-54.359 22.18-14.034 14.792-21.053 35.257-21.053 61.394 0 13.824 3.01 26.932 9.021 39.317 6.016 12.39 14.863 22.17 26.537 29.327 11.674 7.163 24.92 10.742 39.742 10.742z m-0.103-17.833c-15.4 0-28.2-5.458-38.405-16.384-10.204-10.92-15.309-25.866-15.309-44.846 0-23.706 5.32-40.622 15.954-50.755 10.634-10.137 23.327-15.206 38.078-15.206 10.388 0 19.753 2.637 28.093 7.9 8.346 5.264 14.679 12.677 19.016 22.236 4.331 9.56 6.497 20.752 6.497 33.572 0 20.265-5.069 35.912-15.201 46.94-10.133 11.029-23.04 16.543-38.723 16.543z m133.427 15.145V824.07h24.167c5.376 0 9.241 0.251 11.602 0.753a31.283 31.283 0 0 1 9.507 4.188c3.113 2.007 6.641 5.514 10.584 10.527 3.937 5.017 8.95 12.247 15.037 21.698l20.838 32.768h26.215l-27.392-42.864c-5.448-8.382-11.213-15.36-17.3-20.946-2.863-2.58-7.051-5.192-12.565-7.844 15.104-2.074 26.28-6.948 33.515-14.608 7.23-7.664 10.85-17.08 10.85-28.252 0-8.668-2.187-16.578-6.554-23.741-4.367-7.163-10.204-12.155-17.51-14.986-7.307-2.827-17.972-4.24-32.01-4.24h-69.827v157.476h20.838z m44.795-87.977h-44.8V753.92h49.849c11.673 0 20.213 2.401 25.62 7.199 5.407 4.797 8.11 10.92 8.11 18.37 0 5.084-1.398 9.795-4.193 14.126-2.79 4.332-6.871 7.48-12.242 9.452-5.376 1.971-12.82 2.954-22.344 2.954z m127.304 87.977V736.522h-20.839v157.476h20.839z m106.788 2.688c11.243 0 21.36-2.058 30.346-6.175 8.986-4.121 15.877-9.881 20.68-17.295 4.797-7.414 7.193-15.309 7.193-23.69 0-8.448-2.18-15.913-6.553-22.395-4.368-6.482-11.136-11.832-20.301-16.062-6.298-2.867-17.92-6.21-34.857-10.045-16.937-3.83-27.413-7.572-31.422-11.223-4.08-3.65-6.123-8.31-6.123-13.967 0-6.513 2.882-12.084 8.653-16.702 5.76-4.618 14.945-6.927 27.545-6.927 12.104 0 21.253 2.54 27.449 7.629 6.195 5.079 9.83 12.6 10.905 22.553l19.978-1.5c-0.358-9.242-2.933-17.51-7.73-24.817-4.803-7.306-11.659-12.835-20.573-16.594-8.919-3.763-19.21-5.642-30.884-5.642-10.598 0-20.234 1.792-28.897 5.371-8.668 3.584-15.258 8.827-19.763 15.739-4.516 6.912-6.769 14.336-6.769 22.287 0 7.235 1.843 13.773 5.53 19.61 3.686 5.837 9.293 10.721 16.814 14.659 5.8 3.082 15.933 6.359 30.397 9.83 2.524 0.604 4.895 1.183 7.112 1.736l1.193 0.297c9.8 2.457 16.384 4.341 19.732 5.647 6.59 2.509 11.316 5.606 14.183 9.293s4.295 8.002 4.295 12.943c0 4.87-1.484 9.365-4.454 13.481-2.975 4.117-7.506 7.357-13.594 9.723-6.087 2.365-13.107 3.543-21.053 3.543-8.95 0-17.009-1.557-24.166-4.67-7.168-3.118-12.447-7.198-15.847-12.247-3.405-5.048-5.57-11.514-6.502-19.389l-19.661 1.72c0.292 10.527 3.174 19.958 8.653 28.304 5.478 8.345 13.03 14.592 22.666 18.744 9.626 4.152 21.57 6.231 35.825 6.231z"  ></path></svg>