<svg xmlns="http://www.w3.org/2000/svg" viewBox="0 0 1029 1024"><path d="M107.52 20.48h611.328c10.24 0 20.48 4.096 27.648 10.752l197.632 183.296c8.192 7.68 13.312 18.432 13.312 30.208V962.56c0 22.528-18.432 40.96-40.96 40.96H107.52c-22.528 0-40.96-18.432-40.96-40.96V61.44c0-22.528 18.432-40.96 40.96-40.96z" fill="#30BF7C" ></path><path d="M271.36 343.04m3.072 0l124.14976 0q3.072 0 3.072 3.072l0 108.39552q0 3.072-3.072 3.072l-124.14976 0q-3.072 0-3.072-3.072l0-108.39552q0-3.072 3.072-3.072Z" fill="#FFFFFF" ></path><path d="M464.384 343.04m3.072 0l283.392 0q3.072 0 3.072 3.072l0 108.39552q0 3.072-3.072 3.072l-283.392 0q-3.072 0-3.072-3.072l0-108.39552q0-3.072 3.072-3.072Z" fill="#FFFFFF" ></path><path d="M271.36 562.58048m3.072 0l124.14976 0q3.072 0 3.072 3.072l0 108.39552q0 3.072-3.072 3.072l-124.14976 0q-3.072 0-3.072-3.072l0-108.39552q0-3.072 3.072-3.072Z" fill="#FFFFFF" ></path><path d="M464.384 562.58048m3.072 0l283.392 0q3.072 0 3.072 3.072l0 108.39552q0 3.072-3.072 3.072l-283.392 0q-3.072 0-3.072-3.072l0-108.39552q0-3.072 3.072-3.072Z" fill="#FFFFFF" ></path></svg>