<svg xmlns="http://www.w3.org/2000/svg" viewBox="0 0 1024 1024"><path d="M102.4 0h819.2c68.2496 0 102.4 34.1504 102.4 102.4v819.2c0 68.2496-34.1504 102.4-102.4 102.4H102.4c-68.2496 0-102.4-34.1504-102.4-102.4V102.4C0 34.1504 34.1504 0 102.4 0z" fill="#1677FF" ></path><path d="M706.6112 224.6656a91.9552 91.9552 0 1 1-91.9552 91.9552c0-8.704 1.4336-17.408 4.3008-25.7536a248.32 248.32 0 0 0-107.3152-24.5248 245.248 245.248 0 0 0-245.248 245.248v25.8048l-61.3888 6.3488v-32.1536a306.5856 306.5856 0 0 1 449.792-271.0016 91.9552 91.9552 0 0 1 51.8144-15.9232z m0 61.3376a30.65344 30.65344 0 0 0-29.4656 18.61632 30.62784 30.62784 0 0 0 0 24.05376 30.72512 30.72512 0 0 0 17.35168 16.65536 30.65344 30.65344 0 0 0 32.98816-7.44448 30.68416 30.68416 0 0 0 0-42.47552 30.67904 30.67904 0 0 0-20.87424-9.40544z m-389.9904 328.6528c50.7904 0 92.0064 41.1648 92.0064 91.9552 0 8.7552-1.4336 17.4592-4.3008 25.7536a248.36096 248.36096 0 0 0 107.3152 24.576 245.23264 245.23264 0 0 0 245.248-245.2992V485.888l61.3376-6.4512v32.2048a306.6112 306.6112 0 0 1-148.36736 262.52288 306.57024 306.57024 0 0 1-301.42464 8.47872 91.94496 91.94496 0 0 1-139.59168-48.92672 91.97056 91.97056 0 0 1 46.36672-109.16352 91.97568 91.97568 0 0 1 41.41056-9.89696z m0 61.2864a30.6688 30.6688 0 1 0 0 61.34784 30.6688 30.6688 0 0 0 0-61.34784z m195.0208-286.976a122.61888 122.61888 0 0 1 86.7072 209.3312 122.60864 122.60864 0 0 1-173.4144 0A122.61888 122.61888 0 0 1 511.6416 388.9664z" fill="#FFFFFF" ></path></svg>