<svg xmlns="http://www.w3.org/2000/svg" viewBox="0 0 1024 1024"><path d="M593.92 66.56m92.16 0l225.28 0q92.16 0 92.16 92.16l0 225.28q0 92.16-92.16 92.16l-225.28 0q-92.16 0-92.16-92.16l0-225.28q0-92.16 92.16-92.16Z" fill="#3E75FF" ></path><path d="M593.92 593.92m92.16 0l225.28 0q92.16 0 92.16 92.16l0 225.28q0 92.16-92.16 92.16l-225.28 0q-92.16 0-92.16-92.16l0-225.28q0-92.16 92.16-92.16Z" fill="#3E75FF" fill-opacity=".5" ></path><path d="M66.56 593.92m92.16 0l225.28 0q92.16 0 92.16 92.16l0 225.28q0 92.16-92.16 92.16l-225.28 0q-92.16 0-92.16-92.16l0-225.28q0-92.16 92.16-92.16Z" fill="#3E75FF" ></path><path d="M271.36-18.270938m65.166961 65.166961l159.297016 159.297016q65.166961 65.166961 0 130.333922l-159.297016 159.297016q-65.166961 65.166961-130.333922 0l-159.297016-159.297016q-65.166961-65.166961 0-130.333922l159.297016-159.297016q65.166961-65.166961 130.333922 0Z" fill="#F5890D" ></path></svg>