<svg xmlns="http://www.w3.org/2000/svg" viewBox="0 0 1024 1024"><path d="M102.4 0h819.2c68.2496 0 102.4 34.1504 102.4 102.4v819.2c0 68.2496-34.1504 102.4-102.4 102.4H102.4c-68.2496 0-102.4-34.1504-102.4-102.4V102.4C0 34.1504 34.1504 0 102.4 0z" fill="#14CEAA" ></path><path d="M393.3696 620.9536v168.448H238.4896A34.4576 34.4576 0 0 1 204.8 754.2784v-133.3248h188.5696z m188.6208 0v168.448H420.352v-168.448h161.6384z m-188.6208-168.448v140.3904H204.8V452.5056h188.5696z m188.6208 0v140.3904H420.352V452.5056h161.6384z m215.552 0v64.3072h-188.6208V452.5056h188.5696zM763.8016 256c18.5856 0 33.6384 15.7184 33.6384 35.072V424.448H204.8V291.072C204.8 271.7184 219.904 256 238.4896 256h525.312z m-6.144 298.752c48.896 0 92.3648 11.3152 119.6544 28.8256 18.7904 12.0832 29.9008 27.0848 29.9008 43.264v163.5328c0 39.8336-66.9696 72.1408-149.6064 72.1408s-149.6064-32.3072-149.6064-72.1408v-163.584c0-16.2304 11.1616-31.1808 29.9008-43.2128 27.3408-17.5104 70.7584-28.8256 119.7056-28.8256z m119.6544 223.9488c-27.2896 17.5104-70.7584 28.8256-119.7056 28.8256-48.9472 0-92.3648-11.3152-119.7056-28.8256v11.6736c0 3.9936 7.2704 13.824 26.624 23.1424 11.3664 5.4784 25.4464 9.984 40.6528 13.1072 16.5376 3.3792 34.2016 5.12 52.4288 5.12s35.84-1.7408 52.4288-5.12c15.2576-3.072 29.2864-7.68 40.6528-13.1072 19.3536-9.3184 26.624-19.1488 26.624-23.1424v-11.6736z m0-54.9888c-27.2896 17.5104-70.7584 28.8768-119.7056 28.8768-48.9472 0-92.3648-11.3664-119.7056-28.8768v11.6736c0 3.9936 7.2704 13.824 26.624 23.1424 11.3664 5.4784 25.4464 10.0352 40.6528 13.1584 16.5376 3.328 34.2016 5.12 52.4288 5.12s35.84-1.792 52.4288-5.12c15.2576-3.072 29.2864-7.68 40.6528-13.1584 19.3536-9.3184 26.624-19.1488 26.624-23.1424v-11.6736z m0-53.504c-27.2896 17.5104-70.7584 28.8256-119.7056 28.8256-48.9472 0-92.3648-11.3152-119.7056-28.8256v10.24c0 4.0448 7.2704 13.824 26.624 23.1936 11.3664 5.4784 25.4464 9.984 40.6528 13.1072 16.5376 3.3792 34.2016 5.12 52.4288 5.12s35.84-1.7408 52.4288-5.12c15.2576-3.072 29.2864-7.68 40.6528-13.1072 19.3536-9.3696 26.624-19.1488 26.624-23.1424v-10.2912z" fill="#FFFFFF" ></path></svg>