<svg xmlns="http://www.w3.org/2000/svg" viewBox="0 0 1024 1024"><path d="M255.82592 297.63584h-10.79296l-183.05536 436.5568a5.7856 5.7856 0 0 0 5.77536 8.18176H169.3184c2.49856 0.1024 4.78208-1.42336 5.64736-3.77856l130.70336-314.78784c0.5632-1.3312 0.5632-2.83136 0-4.15744l-1.6384-4.6592-48.20992-117.3504z" fill="#FFA800" ></path><path d="M355.77344 284.91776a11.6736 11.6736 0 0 0-10.8032-7.17824h-91.648c-8.2944-0.03072-13.92128 8.45824-10.6752 16.11776l181.42208 440.70912c1.41824 3.1232 4.04992 5.53472 7.28576 6.67136h98.432c9.43104 0.35328 15.86688-9.46176 11.8016-18.00704L355.77344 284.91776zM962.56 276.48h-416.4608a24.1408 24.1408 0 0 0-24.22784 24.30464L500.2752 387.03616h377.78432a54.50752 54.50752 0 0 0 45.70112-33.9968L962.56 276.48zM868.52096 446.84288h-344.76544a23.51104 23.51104 0 0 0-23.48032 23.552v83.10272h286.1312a46.10048 46.10048 0 0 0 44.07296-32.86528l38.0416-73.78944z" fill="#3E75FF" ></path><path d="M500.2752 465.3568L432.8448 740.98176h94.5408a17.08032 17.08032 0 0 0 16.44544-12.5952l65.54112-263.04h-109.1072z" fill="#3E75FF" ></path></svg>