<svg xmlns="http://www.w3.org/2000/svg" viewBox="0 0 1024 1024"><path d="M510.541 155.388V98h-10.837a70.276 70.276 0 0 0-36.364 10.142L281.086 218.344a16.804 16.804 0 0 0-8.11 14.38v47.88a16.817 16.817 0 0 0 8.045 14.35l190.505 116.291a76.39 76.39 0 0 0 79.607 0l190.504-116.291c5-3.053 8.05-8.487 8.05-14.345v-41.176a16.81 16.81 0 0 0-8.72-14.735l-142.934-78.451-117.922 71.211v60.975l9.787 16.49a48.673 48.673 0 0 1 24.4-42.187l83.73-48.171 107.1 58.803-155.236 90.614a76.39 76.39 0 0 1-77.1-0.045L309.6 258.425l153.75-92.91a70.281 70.281 0 0 1 36.344-10.127h10.847z" fill="#1E81C4" ></path><path d="M272.97 326.795l198.726 120.624a76.395 76.395 0 0 0 79.277 0l198.72-120.62v60.84L549.862 504.332a76.39 76.39 0 0 1-77.05 0L272.98 387.64v-60.85l-0.01 0.005z" fill="#1E81C4" ></path><path d="M272.97 416.173l198.72 120.62a76.395 76.395 0 0 0 79.278 0l198.72-120.62v60.84L549.857 593.709a76.39 76.39 0 0 1-77.05 0L272.976 477.013v-60.84h-0.005z" fill="#1E81C4" ></path><path d="M63.249 829.869c15.495 0 28.008-5.364 37.54-15.69 9.135-9.932 13.708-22.845 13.708-38.335 0-15.69-4.768-28.6-13.909-38.73-9.331-10.328-21.844-15.496-37.34-15.496-15.49 0-28.003 5.168-37.339 15.495C16.573 747.245 12 760.153 12 775.843c0 15.49 4.568 28.404 13.709 38.336 9.531 10.326 22.044 15.69 37.535 15.69h0.005z m0-17.281c-9.732 0-17.282-3.973-22.64-11.518-4.768-6.554-6.955-14.9-6.955-25.226 0-10.327 2.187-18.868 6.955-25.422 5.358-7.75 12.908-11.523 22.64-11.523 9.73 0 17.28 3.773 22.84 11.523 4.768 6.554 7.154 15.095 7.154 25.422 0 10.131-2.386 18.472-7.155 25.226-5.558 7.545-13.108 11.518-22.84 11.518z m92.36 53.825v-54.42c8.34 11.917 18.667 17.876 31.38 17.876 14.7 0 26.418-5.364 34.758-16.09 7.745-9.932 11.718-22.445 11.718-37.54 0-15.886-3.973-28.599-11.913-38.53-8.74-10.727-20.463-16.091-35.553-16.091-13.91 0-24.631 4.968-31.78 15.1V724.4h-19.664v142.013h21.054z m26.617-53.625c-7.95 0-14.304-3.177-19.072-9.336-5.559-6.755-8.14-15.69-8.14-26.618v-1.786c0-10.527 2.181-19.062 6.554-25.422 4.963-7.35 12.113-10.927 21.249-10.927 10.332 0 17.876 3.578 22.845 11.127 3.972 6.355 6.154 15.095 6.154 26.418 0 11.317-2.382 20.058-6.755 26.417-4.963 6.75-12.508 10.127-22.84 10.127h0.005z m115.396 17.08c13.709 0 25.026-3.972 33.962-11.717 7.155-6.354 11.718-14.5 14.104-24.036h-21.053c-2.782 5.96-5.76 10.527-9.337 13.31-4.568 3.376-10.526 5.163-17.876 5.163-8.34 0-14.895-2.782-19.663-7.946-4.768-5.363-7.35-13.108-8.145-23.04h77.86c-0.2-18.272-4.367-32.571-12.313-42.903-8.74-11.517-21.649-17.081-38.335-17.081-15.095 0-27.212 5.168-35.948 15.695-9.136 10.327-13.509 23.04-13.509 38.33 0 16.886 4.768 30.19 14.304 40.127 8.736 9.33 20.854 14.099 35.949 14.099z m27.808-64.156h-55.416c1.19-8.736 4.173-15.29 8.54-19.863 4.769-4.763 10.923-6.95 18.868-6.95 16.686 0 26.017 8.941 28.008 26.818v-0.005z m60.975 61.375v-61.77c0.795-8.34 3.772-14.895 8.54-19.663 4.368-4.368 9.732-6.354 15.69-6.354 15.891 0 24.037 8.735 24.037 26.217v61.57h21.053v-63.361c0-28.204-12.908-42.108-38.335-42.108-6.354 0-12.118 1.196-17.281 3.973-5.163 2.581-9.731 6.354-13.704 11.522v-12.708h-21.054v102.682h21.054z m158.894 2.782c10.727 0 21.054-1.591 31.385-4.768 9.732-3.177 17.677-7.35 23.836-12.313V757.17h-60.58v7.155h52.835v44.69c-5.369 3.972-12.318 7.149-20.664 9.73-8.735 2.582-17.476 3.973-26.217 3.973-19.863 0-35.353-6.554-46.28-19.262-10.322-11.923-15.29-27.418-15.29-46.48 0-19.268 4.968-34.959 14.895-47.272 10.527-13.308 24.831-19.863 42.708-19.863 14.694 0 26.617 3.973 35.748 11.918 8.346 7.15 13.71 17.276 16.09 29.99h7.946c-2.582-15.095-8.74-27.013-18.472-35.554-10.527-9.136-24.231-13.709-41.312-13.709-20.464 0-36.75 7.555-48.662 22.65-11.127 13.704-16.686 30.98-16.686 51.834 0 20.859 5.559 37.94 17.081 51.249 12.313 14.299 29.394 21.649 51.639 21.649z m111.228 0c10.131 0 19.663-2.782 28.603-8.34 7.15-4.769 12.709-10.132 17.082-16.486v22.044h7.35v-66.338c0-11.523-2.983-20.659-8.741-27.213-6.955-7.945-17.477-11.918-31.38-11.918-11.123 0-20.464 2.387-27.809 7.55-7.945 5.163-12.708 12.708-14.7 22.645l7.355 0.79c1.586-7.945 5.754-14.099 12.308-18.272 5.96-3.972 13.51-5.758 22.645-5.758 21.85 0 32.771 10.922 32.771 32.971v6.955l-27.608 0.195c-15.89 0-28.003 2.381-36.348 7.545-9.927 5.563-14.895 14.104-14.895 26.017 0 8.545 3.177 15.3 9.731 20.263 5.96 4.768 13.91 7.35 23.636 7.35z m1.39-6.755c-8.14 0-14.694-1.986-19.662-5.558-4.963-3.778-7.35-8.74-7.35-15.095 0-17.877 14.5-27.018 43.699-27.218l27.407-0.195v12.908c0 7.95-4.568 15.696-13.508 23.24-9.331 7.946-19.463 11.918-30.585 11.918z m114.806 6.755c15.49 0 27.208-7.35 34.958-21.85v19.068h7.545V724.4h-7.545v62.17c-0.4 10.723-3.778 19.463-10.132 26.218-6.354 6.754-14.3 10.126-23.435 10.126-10.928 0-18.873-3.177-24.036-9.33-4.963-5.96-7.35-14.7-7.35-26.218V724.4h-7.745v63.161c0 28.204 12.513 42.308 37.74 42.308z m103.878 0c26.617 0 39.926-10.327 39.926-30.59 0-8.736-4.173-15.49-12.518-20.258-4.964-2.977-13.904-6.154-26.813-9.337-10.727-2.776-18.077-5.358-22.05-7.544-6.554-3.578-9.73-8.34-9.73-14.3 0-5.563 2.781-10.131 8.345-13.709 5.163-3.772 11.913-5.558 20.258-5.558 9.932 0 17.476 2.186 23.04 6.754 4.768 3.973 7.745 9.731 9.136 17.476h7.545c-3.177-20.853-16.286-31.185-39.726-31.185-9.926 0-18.467 2.387-25.417 7.155-7.154 4.763-10.727 11.317-10.727 19.262 0 8.146 3.773 14.5 11.323 19.068 4.763 2.982 13.108 5.959 25.021 9.136a371.53 371.53 0 0 1 8.185 2.206l0.916 0.265c7.225 2.072 12.138 3.833 14.735 5.279 7.154 3.572 10.727 8.736 10.727 15.49 0 15.495-10.727 23.435-32.176 23.435-10.527 0-18.472-2.181-23.636-6.154-5.959-4.373-9.336-11.522-10.527-21.454h-7.745c2.382 23.04 16.486 34.563 41.908 34.563z m95.337 0c26.618 0 39.926-10.327 39.926-30.59 0-8.736-4.173-15.49-12.518-20.258-4.963-2.977-13.904-6.154-26.813-9.337-10.727-2.776-18.071-5.358-22.044-7.544-6.554-3.578-9.736-8.34-9.736-14.3 0-5.563 2.781-10.131 8.345-13.709 5.164-3.772 11.918-5.558 20.258-5.558 9.932 0 17.477 2.186 23.04 6.754 4.769 3.973 7.746 9.731 9.136 17.476h7.545c-3.177-20.853-16.285-31.185-39.726-31.185-9.926 0-18.467 2.387-25.416 7.155-7.155 4.763-10.727 11.317-10.727 19.262 0 8.146 3.772 14.5 11.322 19.068 4.763 2.982 13.109 5.959 25.027 9.136 2.736 0.705 5.463 1.44 8.185 2.206l0.91 0.265c7.225 2.072 12.138 3.833 14.735 5.279 7.155 3.572 10.727 8.736 10.727 15.49 0 15.495-10.727 23.435-32.176 23.435-10.527 0-18.472-2.181-23.635-6.154-5.96-4.373-9.336-11.522-10.527-21.454h-7.745c2.381 23.04 16.485 34.563 41.907 34.563z" fill="#333333" ></path></svg>