<svg xmlns="http://www.w3.org/2000/svg" viewBox="0 0 1024 1024"><path d="M884.82702222 767.54185482l-274.45505897 226.3370714a121.94550518 121.94550518 0 0 1-77.74996858 27.96202667H211.48588563a122.17852208 122.17852208 0 0 1-122.02317748-122.17852207V213.73838222a122.17852208 122.17852208 0 0 1 122.02317748-122.41153897h595.591168a122.17852208 122.17852208 0 0 1 122.10084978 122.41153897v459.81999408a122.13968592 122.13968592 0 0 1-44.35088119 93.98347852z" fill="#4BE2AC" ></path><path d="M363.80125867 6.27567882h0.0776723c36.54481541 0 54.83664118 18.25298963 54.83664118 54.83664118v83.76957155c0 36.58365155-18.25298963 54.87547733-54.83664118 54.87547734h-0.0776723c-36.58365155 0-54.87547733-18.29182578-54.87547734-54.87547734V61.11232c0-36.58365155 18.29182578-54.83664118 54.87547734-54.83664118z" fill="#4BE2AC" ></path><path d="M308.92578133 91.32684325v53.59388445a54.95314963 54.95314963 0 0 0 109.78979082 0v-53.59388445h-109.78979082z" fill="#06CC76" ></path><path d="M664.31537303 6.27567882h0.03883615c36.58365155 0 54.87547733 18.25298963 54.87547734 54.83664118v83.76957155c0 36.58365155-18.25298963 54.87547733-54.87547734 54.87547734h-0.03883615c-36.58365155 0-54.87547733-18.29182578-54.87547733-54.87547734V61.11232c0-36.58365155 18.25298963-54.83664118 54.87547733-54.83664118z" fill="#4BE2AC" ></path><path d="M664.35420918 199.75736889a54.87547733 54.87547733 0 0 0 54.87547734-54.87547734V91.32684325h-109.78979082v53.59388445a54.87547733 54.87547733 0 0 0 54.91431348 54.83664119zM565.59388445 774.10516385v243.1142874a121.5571437 121.5571437 0 0 0 44.81691496-23.34052503l274.45505896-226.37590755a121.7124883 121.7124883 0 0 0 40.19541333-62.87572385h-290.18369895a69.32252445 69.32252445 0 0 0-69.2836883 69.47786903z" fill="#06CC76" ></path><path d="M689.01516325 462.28973037h-360.86548858a49.71026963 49.71026963 0 0 1 0-99.42053926h360.86548858a49.71026963 49.71026963 0 1 1 0 99.42053926z m-1.35926517 149.51917038h-354.18567111a49.71026963 49.71026963 0 0 1 0-99.42053927h354.18567111a49.71026963 49.71026963 0 1 1 0 99.42053927z" fill="#FFFFFF" ></path></svg>