<svg xmlns="http://www.w3.org/2000/svg" viewBox="0 0 1024 1024"><path d="M928 392c-16 0-32 14.4-32 32C896 683.2 683.2 896 424 896c-16 0-32 14.4-32 32 0 16 14.4 32 32 32C720 958.4 960 718.4 960 424c0-17.6-12.8-32-32-32z" fill="#01A2E0" ></path><path d="M737.6 595.2c30.4-49.6 60.8-115.2 54.4-208-12.8-192-185.6-337.6-348.8-323.2-65.6 4.8-131.2 59.2-126.4 152 3.2 40 22.4 64 54.4 83.2 30.4 17.6 70.4 28.8 115.2 41.6 54.4 16 116.8 32 166.4 68.8 57.6 43.2 97.6 92.8 84.8 185.6z" fill="#B9D9EB" ></path><path d="M118.4 259.2c-30.4 49.6-60.8 115.2-54.4 208 12.8 192 185.6 337.6 350.4 321.6 64-4.8 129.6-59.2 124.8-152-3.2-40-22.4-64-54.4-83.2-30.4-17.6-70.4-28.8-115.2-41.6-54.4-16-116.8-32-166.4-68.8C145.6 401.6 105.6 352 118.4 259.2z" fill="#01A2E0" ></path></svg>