<svg xmlns="http://www.w3.org/2000/svg" viewBox="0 0 1024 1024"><path d="M0 0m170.666667 0l682.666666 0q170.666667 0 170.666667 170.666667l0 682.666666q0 170.666667-170.666667 170.666667l-682.666666 0q-170.666667 0-170.666667-170.666667l0-682.666666q0-170.666667 170.666667-170.666667Z" fill="#E6F2FE" ></path><path d="M235.52 368.64a51.2 51.2 0 0 1 51.2-51.2h368.64a51.2 51.2 0 0 1 51.2 51.2v368.64a51.2 51.2 0 0 1-51.2 51.2H286.72a51.2 51.2 0 0 1-51.2-51.2V368.64z" fill="#55ADF9" fill-opacity=".2" ></path><path d="M317.44 286.72a51.2 51.2 0 0 1 51.2-51.2h368.64a51.2 51.2 0 0 1 51.2 51.2v368.64a51.2 51.2 0 0 1-51.2 51.2H368.64a51.2 51.2 0 0 1-51.2-51.2V286.72z" fill="#55ADF9" ></path><path d="M662.528 372.992l-11.477333-11.434667a2.218667 2.218667 0 0 0-3.072 0l-20.522667 20.522667a53.845333 53.845333 0 0 0-68.48 6.570667l-27.52 27.52a2.133333 2.133333 0 0 0 0 3.029333l73.386667 73.386667a2.133333 2.133333 0 0 0 1.493333 0.597333 2.261333 2.261333 0 0 0 1.536-0.597333l27.52-27.52a54.058667 54.058667 0 0 0 6.570667-68.437334l20.565333-20.565333a2.218667 2.218667 0 0 0 0-3.072z m-40.106667 79.061333l-16.085333 16.042667L555.946667 417.706667l16.042666-16.042667a35.413333 35.413333 0 0 1 25.216-10.453333 35.413333 35.413333 0 0 1 25.216 10.453333 35.498667 35.498667 0 0 1 0 50.432z m-51.370666 28.373334a2.133333 2.133333 0 0 0-3.072 0l-17.962667 17.962666-24.405333-24.362666 18.005333-18.005334a2.133333 2.133333 0 0 0 0-3.072l-9.813333-9.813333a2.133333 2.133333 0 0 0-3.029334 0l-18.048 18.005333-11.605333-11.605333a2.133333 2.133333 0 0 0-1.536-0.64 2.261333 2.261333 0 0 0-1.536 0.64l-27.477333 27.52a54.058667 54.058667 0 0 0-6.570667 68.437333l-20.522667 20.565334a2.133333 2.133333 0 0 0 0 3.029333l11.434667 11.434667a2.218667 2.218667 0 0 0 3.072 0l20.565333-20.522667a53.845333 53.845333 0 0 0 68.48-6.570667l27.477334-27.52a2.133333 2.133333 0 0 0 0-3.029333l-11.605334-11.648 18.005334-18.005333a2.133333 2.133333 0 0 0 0-3.029334l-9.856-9.813333z m-37.077334 60.032a35.413333 35.413333 0 0 1-25.173333 10.453333 35.413333 35.413333 0 0 1-25.258667-10.453333 35.456 35.456 0 0 1 0-50.432l16.042667-16.042667 50.432 50.432-16.042667 16.042667z" fill="#FFFFFF" ></path></svg>