<svg xmlns="http://www.w3.org/2000/svg" viewBox="0 0 1024 1024"><path d="M554.22976 880.80384l-3.84 1.5104a95.6928 95.6928 0 0 1-38.4 7.94112 101.90848 101.90848 0 0 1-44.14976-9.45152L286.4128 776.81152H209.62816l239.2064 136.13568 4.41344 2.26816a141.3632 141.3632 0 0 0 61.40928 12.75904 141.30176 141.30176 0 0 0 60.88192-15.0272l239.2064-136.13568h-76.79488l-183.72096 103.99232zM895.9488 360.0896a130.944 130.944 0 0 0-18.4832-58.112 133.29408 133.29408 0 0 0-42.94656-43.8016l-259.1744-147.0976-5.76-2.83648a141.01504 141.01504 0 0 0-60.8-12.20096c-20.9408 0.49152-41.50272 5.632-60.14464 15.03744l-259.1744 147.0976-3.84 2.4576a133.0688 133.0688 0 0 0-41.22624 45.2096 130.82624 130.82624 0 0 0-16.36352 58.59328v223.29856h38.39488V360.84736a98.11968 98.11968 0 0 1 14.34624-39.71584 99.7888 99.7888 0 0 1 29.80864-30.24384l259.1744-147.4816 3.84-1.69984a92.39552 92.39552 0 0 1 38.39488-7.75168c15.2576-0.2048 30.3616 3.02592 44.15488 9.45152l259.16928 147.4816 3.072 1.69984a99.51744 99.51744 0 0 1 28.52864 31.60064 97.93536 97.93536 0 0 1 12.55424 40.43776l-1.92 223.10912h38.39488V360.0896zM225.75104 759.22944a116.9408 116.9408 0 0 1-27.06944 3.21024c-13.43488 0.40448-26.7264-2.8672-38.39488-9.45152a62.7456 62.7456 0 0 1-24.18688-26.65984 93.31712 93.31712 0 0 1-8.064-39.13728 86.6304 86.6304 0 0 1 9.6-42.1632 63.37024 63.37024 0 0 1 26.49088-27.4176 77.72672 77.72672 0 0 1 38.4-9.07776 83.456 83.456 0 0 1 24.57088 3.02592c7.47008 1.86368 14.68416 4.59264 21.504 8.13056l-5.376 10.96704a99.09248 99.09248 0 0 0-19.2-7.56224 72.60672 72.60672 0 0 0-21.12-2.64704 60.82048 60.82048 0 0 0-31.86688 7.75168 53.46304 53.46304 0 0 0-21.69344 22.87616 74.68032 74.68032 0 0 0-7.86944 36.11648 81.84832 81.84832 0 0 0 5.76 32.896 52.01408 52.01408 0 0 0 19.2 22.88128 60.2368 60.2368 0 0 0 32.82432 8.32 129.7664 129.7664 0 0 0 19.2-1.8944 160.128 160.128 0 0 0 19.2-5.67296v-38.94784H197.5296v-11.53536h54.13888v56.72448a114.39616 114.39616 0 0 1-25.91744 9.2672z m92.7232-63.33952a58.24 58.24 0 0 0-38.38976 9.64096 32.2048 32.2048 0 0 0-8.82688 11.43808 31.73376 31.73376 0 0 0-2.88256 14.08512 34.18624 34.18624 0 0 0 4.21888 17.20832 26.38336 26.38336 0 0 0 11.71456 10.58816 43.2896 43.2896 0 0 0 17.46944 3.59424 53.32992 53.32992 0 0 0 23.04-5.10976 57.46176 57.46176 0 0 0 17.27488-12.85632v8.32a18.62144 18.62144 0 0 0 0 7.75168h11.136v-65.98656c0.4608-9.4976-1.1776-18.97984-4.80256-27.79648a29.46048 29.46048 0 0 0-13.43488-14.55616 45.1072 45.1072 0 0 0-21.12-4.352 74.28096 74.28096 0 0 0-21.30944 2.64704c-5.56032 1.1264-10.9312 3.03616-15.93344 5.67296l2.688 10.02496c4.8896-2.44736 10.04032-4.352 15.36-5.67296a60.73344 60.73344 0 0 1 17.46944-2.4576 27.32544 27.32544 0 0 1 21.11488 7.75168 38.6816 38.6816 0 0 1 7.10656 27.41248v4.352a153.4976 153.4976 0 0 0-21.888-1.70496v0.00512z m22.85056 37.8112A45.53216 45.53216 0 0 1 331.91936 742.4c-4.21888 2.69312-8.72448 4.91008-13.44 6.61504a56.32 56.32 0 0 1-14.78144 2.46272 25.82016 25.82016 0 0 1-16.512-5.29408 21.18656 21.18656 0 0 1-5.56544-15.1296c-0.2304-3.584 0.41984-7.17312 1.88928-10.46528a22.55872 22.55872 0 0 1 6.5536-8.44288 47.60064 47.60064 0 0 1 29.952-7.3728 136.64256 136.64256 0 0 1 21.504 1.32608l-0.19456 27.60192z m49.14688-83.56864v69.76512a38.30784 38.30784 0 0 0 6.33344 24.39168c2.176 2.54464 4.92032 4.54656 8.02304 5.8624 3.0976 1.31072 6.46656 1.8944 9.8304 1.69984A40.7552 40.7552 0 0 0 435.2 746.18368a70.92736 70.92736 0 0 0 17.664-13.99296v-82.05824h12.288v82.432c0 7.7568 0 17.01888 0.95744 27.98592H454.4c0-2.83648-1.152-8.50944-2.10944-17.01888a92.96896 92.96896 0 0 1-19.2 13.80352 49.1264 49.1264 0 0 1-22.07744 5.10464 31.08864 31.08864 0 0 1-14.02368-2.21184 30.69952 30.69952 0 0 1-11.50976-8.18688 50.0736 50.0736 0 0 1-7.86944-31.57504v-70.33344h12.86144z m142.83264 96.23552a18.74432 18.74432 0 0 0 7.296-15.31392 16.46592 16.46592 0 0 0-3.26656-10.01984 21.67296 21.67296 0 0 0-8.63744-6.8096 126.96576 126.96576 0 0 0-16.31744-7.3728c-5.78048-2.4064-11.4176-5.12-16.896-8.13056a36.16256 36.16256 0 0 1-9.78944-9.64096 24.46336 24.46336 0 0 1-3.26656-13.04576 26.90048 26.90048 0 0 1 4.03456-14.93504 24.84736 24.84736 0 0 1 11.904-9.83552 44.7232 44.7232 0 0 1 19.19488-3.39968 71.68 71.68 0 0 1 31.29344 7.3728l-2.87744 9.64096a59.27424 59.27424 0 0 0-27.83744-6.80448 27.37664 27.37664 0 0 0-17.46944 4.53632 14.7968 14.7968 0 0 0-4.6592 5.48352c-1.07008 2.176-1.58208 4.57728-1.4848 6.99392-0.0512 3.2256 1.03936 6.36416 3.072 8.88832 2.28352 2.53952 5.0176 4.64896 8.064 6.24128l15.54944 6.99392c5.84704 2.2528 11.4944 4.97152 16.89088 8.13056a29.0048 29.0048 0 0 1 10.368 9.45152c2.8672 4.4544 4.2752 9.67168 4.02944 14.94016a29.13792 29.13792 0 0 1-4.90496 17.408 29.87008 29.87008 0 0 1-14.28992 11.33056 55.0912 55.0912 0 0 1-22.07744 3.968 83.93728 83.93728 0 0 1-16.896-1.69984 97.34656 97.34656 0 0 1-14.208-4.72576l3.456-10.39872c4.22912 2.048 8.67328 3.63008 13.25056 4.72576 5.00224 0.95232 10.07104 1.52064 15.16544 1.69984a33.9968 33.9968 0 0 0 21.30944-5.66784v-0.00512z m76.78976 0c2.33984-1.8176 4.21888-4.1472 5.48352-6.80448 1.26464-2.6624 1.88928-5.57056 1.81248-8.50944a16.8192 16.8192 0 0 0-3.072-10.01984 22.20032 22.20032 0 0 0-8.832-6.8096 126.96576 126.96576 0 0 0-16.31744-7.3728c-5.77536-2.4064-11.4176-5.12-16.896-8.13056a36.24448 36.24448 0 0 1-9.78944-9.64096 26.32704 26.32704 0 0 1-3.26144-13.04576 26.91584 26.91584 0 0 1 4.02944-14.93504 24.85248 24.85248 0 0 1 11.904-9.83552 44.7232 44.7232 0 0 1 19.2-3.39968c10.86464 0.06144 21.57056 2.58048 31.28832 7.3728l-2.87744 9.64096a59.25888 59.25888 0 0 0-27.83744-6.80448 27.37152 27.37152 0 0 0-17.46944 4.53632c-1.98656 1.42336-3.584 3.30752-4.65408 5.48352a14.58176 14.58176 0 0 0-1.48992 6.99392c-0.04608 3.2256 1.03936 6.36416 3.072 8.88832 2.28864 2.53952 5.0176 4.64896 8.064 6.24128l15.54944 6.99392c5.90848 2.24768 11.6224 4.9664 17.08544 8.13056a28.43136 28.43136 0 0 1 10.17344 9.45152c2.8672 4.4544 4.2752 9.67168 4.03456 14.94016a29.1328 29.1328 0 0 1-4.90496 17.408 29.88544 29.88544 0 0 1-14.29504 11.33056 55.08608 55.08608 0 0 1-22.07744 3.968 83.9936 83.9936 0 0 1-16.896-1.69984 97.4592 97.4592 0 0 1-14.20288-4.72576l3.456-10.39872c4.224 2.048 8.66816 3.63008 13.24544 4.72576 5.00224 0.95232 10.07104 1.52064 15.16544 1.69984a33.95584 33.95584 0 0 0 21.30944-5.67296z m36.28544 14.1824h47.61088a84.85376 84.85376 0 0 0 41.85088-10.58816 70.63552 70.63552 0 0 0 27.83744-28.17024 84.03968 84.03968 0 0 0 9.6-41.22112 74.74688 74.74688 0 0 0-9.216-37.81632 56.20224 56.20224 0 0 0-26.68544-23.44448 100.39296 100.39296 0 0 0-42.04544-8.13056h-48.95232v149.37088z m26.10688-129.32608h21.504a55.25504 55.25504 0 0 1 39.73632 12.66688 50.35008 50.35008 0 0 1 10.69568 17.536 49.77664 49.77664 0 0 1 2.74432 20.28032 69.03296 69.03296 0 0 1-6.33344 30.24896 46.60224 46.60224 0 0 1-19.2 20.608 58.30656 58.30656 0 0 1-30.14144 7.56736h-19.19488l0.18944-108.90752z m205.22496 55.3984a42.8544 42.8544 0 0 0-19.19488-6.43072 41.09312 41.09312 0 0 0 19.19488-12.66688 32.36352 32.36352 0 0 0 7.68-22.30784 29.62432 29.62432 0 0 0-2.83136-14.00832 30.11072 30.11072 0 0 0-9.07264-11.14112 58.24512 58.24512 0 0 0-35.12832-9.26208h-46.65344v149.74464h49.34144a73.30816 73.30816 0 0 0 29.17888-5.10464 42.34752 42.34752 0 0 0 19.2-14.75072 37.38624 37.38624 0 0 0 6.52288-23.0656 35.87072 35.87072 0 0 0-4.60288-18.90816 33.6384 33.6384 0 0 0-13.63456-12.09856z m-60.47232-56.72448h17.28a33.98144 33.98144 0 0 1 19.19488 4.54144 15.36 15.36 0 0 1 5.18656 5.92896c1.1776 2.38592 1.71008 5.03296 1.536 7.68a22.05184 22.05184 0 0 1-2.88256 12.86144 25.74336 25.74336 0 0 1-9.40544 8.69376 33.9968 33.9968 0 0 1-14.39744 3.21536h-16.512v-42.92096z m43.77088 104.75008a38.81472 38.81472 0 0 1-24.18688 6.4256h-19.2v-49.91488h17.46944a40.4224 40.4224 0 0 1 25.53344 6.43072c2.82112 2.304 5.08928 5.1968 6.64576 8.46336a24.28416 24.28416 0 0 1 0 20.88448 24.60672 24.60672 0 0 1-6.64576 8.46848l0.384-0.75776z m-291.42528-436.38784L507.38688 336.0768a14.93504 14.93504 0 0 0-3.84 3.0208 21.21216 21.21216 0 0 0-6.60992 8.6016 20.88448 20.88448 0 0 0-1.45408 10.68544 17.68448 17.68448 0 0 1-4.79744-5.10464V330.5984a32.0512 32.0512 0 0 1 8.63744-8.13056l70.26176-41.97376 80.44032 48.5888c3.44576 2.2016 6.49216 4.95104 9.02656 8.13056v22.31296a26.94144 26.94144 0 0 1-9.02656 8.32l-125.16864 75.62752a53.63712 53.63712 0 0 1-25.63072 6.51264c-8.96 0-17.78176-2.24256-25.6256-6.51264L348.2368 367.84128a26.5216 26.5216 0 0 1-8.64256-7.94112v-22.68672a28.81536 28.81536 0 0 1 8.64256-7.94112L473.6 253.63968a49.7408 49.7408 0 0 1 25.53344-6.43072v14.94016a37.30944 37.30944 0 0 0-17.47456 4.34688L356.3008 342.12864c-3.26656 2.07872-5.18656 4.34688-5.18656 6.4256 0 2.08384 1.92 4.54144 5.18656 6.62016L481.65888 430.7968a38.88128 38.88128 0 0 0 34.944 0l125.16864-75.62752c3.456-2.08384 5.18144-4.352 5.18144-6.62016 0-2.26816-1.72544-4.352-5.18144-6.4256l-72.18176-43.86816m-230.37952 123.0848a26.5216 26.5216 0 0 0 8.64256 7.94624L473.6 503.97696a47.98976 47.98976 0 0 0 25.53344 6.4256 48.75264 48.75264 0 0 0 25.14432-6.4256l125.17376-75.63264a23.10144 23.10144 0 0 0 8.832-8.32v-20.22912a12.9024 12.9024 0 0 1-2.36032 6.41536c-1.34656 1.8944-3.18464 3.39968-5.31968 4.36224l-8.63744 5.4784-80.63488 48.4096-20.34688 12.47744-23.99744 13.80352a38.89152 38.89152 0 0 1-34.944 0l-24.37632-14.7456-110.19776-66.18112a13.58848 13.58848 0 0 1-4.84864-4.04992 13.31712 13.31712 0 0 1-2.44736-5.78048l-0.96256 21.36576z m0 60.12928a27.0848 27.0848 0 0 0 8.64256 8.13056L473.6 566.3744a54.99904 54.99904 0 0 0 25.53344 6.43072 54.4 54.4 0 0 0 25.14432-6.43072l125.17376-75.62752a28.25728 28.25728 0 0 0 8.832-8.32v-22.31296a13.7216 13.7216 0 0 1-2.45248 6.3488 13.96224 13.96224 0 0 1-5.22752 4.4288l-8.63744 5.29408-80.63488 48.59392-20.34688 12.288-23.99744 14.56128a38.92736 38.92736 0 0 1-34.944 0l-24.37632-14.75072-110.19776-65.03936a14.336 14.336 0 0 1-4.8128-4.18816 14.06976 14.06976 0 0 1-2.4832-5.8368l-0.96256 19.66592z" fill="#C6020B" ></path></svg>