<svg xmlns="http://www.w3.org/2000/svg" viewBox="0 0 1024 1024"><path d="M978.901333 921.6H45.098667C20.138667 921.6 0 903.594667 0 881.365333v-657.066666c0-22.186667 20.138667-40.192 45.098667-40.192h933.802666c24.96 0 45.098667 17.962667 45.098667 40.234666v657.024c0 22.186667-20.266667 40.234667-45.098667 40.234667z" fill="#FFE9B4" ></path><path d="M512.554667 378.538667H0v-230.826667C0 122.666667 20.181333 102.4 45.141333 102.4H395.946667c19.968 0 37.504 13.056 43.221333 32.256l73.386667 243.882667z" fill="#FFB02C" ></path><path d="M978.901333 921.6H45.098667A45.141333 45.141333 0 0 1 0 876.373333V291.413333c0-25.002667 20.138667-45.226667 45.098667-45.226666h933.802666c24.96 0 45.098667 20.224 45.098667 45.226666V876.373333c0 24.917333-20.266667 45.269333-45.098667 45.269334z" fill="#FFCA28" ></path></svg>