<svg xmlns="http://www.w3.org/2000/svg" viewBox="0 0 1024 1024"><path d="M102.4 0h819.2c68.2496 0 102.4 34.1504 102.4 102.4v819.2c0 68.2496-34.1504 102.4-102.4 102.4H102.4c-68.2496 0-102.4-34.1504-102.4-102.4V102.4C0 34.1504 34.1504 0 102.4 0z" fill="#FF822F" ></path><path d="M479.2832 724.8896l-30.6176 29.696a144.8448 144.8448 0 0 1-100.9664 40.3456 144.7424 144.7424 0 0 1-100.9664-40.3456 135.4752 135.4752 0 0 1 0-196.1472l112.7424-109.056c70.0928-67.7888 150.528-77.5168 205.0048-24.832 14.6944 14.1824 14.7456 37.376 0.1536 51.712a38.144 38.144 0 0 1-52.992 0.1536c-32.0512-30.976-75.9808 2.304-99.328 24.8832L299.52 610.304a63.744 63.744 0 0 0 0 92.3136c26.5216 25.7024 69.6832 25.6 96.256 0l30.6176-29.696a38.1952 38.1952 0 0 1 53.0432 0.2048 35.8912 35.8912 0 0 1-0.2048 51.712z" fill="#FFFFFF" ></path><path d="M768.0512 445.5424l-120.2176 116.3264c-37.1712 35.9424-76.2368 54.1184-113.2032 54.1184-30.208 0-59.0848-12.1344-84.2752-36.5568a35.84 35.84 0 0 1-0.2048-51.712 38.144 38.144 0 0 1 53.0432-0.2048c10.9568 10.6496 36.8128 35.6352 91.7504-17.5616l120.32-116.3264a63.8976 63.8976 0 0 0-0.0512-92.3648c-23.9616-23.1424-60.672-34.4064-88.7296-7.2192l-38.144 36.9152a38.1952 38.1952 0 0 1-53.0432-0.2048 35.8912 35.8912 0 0 1 0.2048-51.712l38.1952-36.9152c54.1184-52.3776 135.8848-49.3056 194.3552 7.2704a135.5776 135.5776 0 0 1 0 196.096z" fill="#FFFFFF" ></path></svg>