<svg xmlns="http://www.w3.org/2000/svg" viewBox="0 0 1024 1024"><path d="M693.914 391.526c-6.887-5.913-15.75-6.896-24.592-3.942a81.971 81.971 0 0 1-21.642 2.954c19.692-32.455 34.442-67.88 44.268-105.257 4.925-16.737 7.88-34.421 7.88-53.13a56.294 56.294 0 0 0-10.835-41.313 126.27 126.27 0 0 0-102.297-48.205h-2.955c-16.742 0-33.438 2.954-49.193 6.891h-0.983a160.036 160.036 0 0 0-30.484-2.954c-18.709-0.983-38.38 3.943-55.101 13.783-23.609-8.857-50.176-12.8-75.756-11.812a91.766 91.766 0 0 0-63.939 26.563c-17.705 18.688-26.567 47.222-25.584 87.552 1.971 17.725 4.925 35.405 8.863 52.147 5.908 25.58 12.8 50.156 21.657 74.752a167.322 167.322 0 0 0 34.427 61.988c7.875 7.88 18.688 12.78 30.484 13.768 8.858 0 16.743-3.943 23.63-9.846 5.887 6.891 13.767 10.829 22.61 12.8 11.811 2.954 23.628 3.937 35.424 1.966 5.909-0.983 10.83-2.954 15.734-4.92 0 5.908 0 11.812 0.983 17.72-0.983 17.685 1.971 34.422 6.892 51.144 1.971 9.845 6.896 18.708 13.767 26.562 13.784 12.8 32.451 17.705 50.176 13.788 18.688-2.954 36.393-12.8 47.222-27.57 12.78-17.706 18.688-44.268 19.671-86.57 0-1.966 0.988-3.937 0.988-5.908h2.95c16.721 0.988 33.438-1.966 48.189-7.875 11.817-4.905 22.646-12.78 30.525-23.593 1.946-3.937 3.917-7.874 4.9-11.812 0.988-7.88-1.966-14.75-7.874-19.676z m-5.904 22.641c-6.891 8.842-14.745 14.75-25.559 18.668-11.817 4.925-24.617 6.896-37.396 6.896-5.909 0-11.817-0.988-17.705-1.971-2.954 24.617-4.92 49.193-9.846 73.79-0.983 11.811-6.892 23.608-14.746 33.433-9.85 8.863-21.647 14.771-34.426 15.754-14.767 3.943-29.517 0.988-41.334-7.874-6.892-5.909-11.797-14.771-15.734-23.614-1.971-5.908-2.954-10.829-3.942-16.737-0.983-8.842-1.966-17.684-1.966-25.559-0.984-15.754-0.984-30.505-0.984-45.256-7.88 6.892-17.704 11.817-27.53 13.788-9.846 1.967-20.68 0.983-30.505-1.97-2.954-0.984-5.908-1.972-8.857-3.943-3.943-0.983-5.909-3.937-7.88-6.887-0.983-1.97-1.971-4.925-0.983-6.896 0.983-1.966 1.966-4.92 3.937-5.904 4.92-2.954 9.846-4.925 15.754-5.908a81.674 81.674 0 0 0 20.675-5.888c3.922-2.954 6.876-6.892 9.83-10.834v-0.983c-8.862 0-16.742-2.954-24.617-5.908-2.954 2.954-15.733 16.742-33.433 37.416-5.914 7.855-13.788 12.78-23.614 13.763-8.862 0-16.721-3.937-22.63-9.846-14.766-16.737-24.596-36.388-31.467-57.047-7.875-25.6-14.767-50.176-19.692-74.772-3.942-16.743-6.892-32.471-8.858-49.193-1.955-37.376 6.887-61.968 21.658-77.706 14.771-14.767 34.422-22.646 56.064-23.63 26.583-0.982 53.13 3.943 77.722 13.784 15.759-9.846 33.459-14.766 52.147-14.766 9.846 0 20.659 1.966 30.484 3.937 3.943-1.971 8.863-2.954 13.788-3.942 12.8-2.95 24.592-3.933 37.376-4.916 37.376-0.988 72.802 14.766 96.41 44.288 5.909 9.841 8.863 22.62 7.88 34.417-0.988 16.742-3.943 33.46-7.88 50.176a402.627 402.627 0 0 1-52.142 117.074c0.983 0.983 1.966 0.983 2.954 1.966 13.783 2.954 27.546 2.954 41.313-0.983 4.92-1.971 10.83-0.983 15.755 0.983 1.966 1.971 3.937 4.925 3.937 7.88-2.954 0-2.954 2.954-3.942 4.92h-0.016z"  ></path><path d="M584.724 166.246h-2.954c-9.846 0-20.659 0.983-30.484 3.933 19.67 8.862 37.376 23.613 51.143 40.33 7.875 10.834 14.767 21.663 20.675 34.442 1.971 4.925 3.942 8.863 4.925 11.817 0 1.971 0.983 2.954 0.983 4.905v2.954c0.963 15.754-3.942 25.58-3.942 41.313 0 10.83 2.96 23.609 2.96 37.376 1.945 14.767-1.972 29.543-9.851 41.334 0.988 0.983 1.97 1.971 1.97 2.954 20.66-33.48 37.377-69.847 47.207-108.231 3.937-15.754 6.887-31.468 6.887-47.222 0.988-8.858-0.983-17.7-4.92-26.563-19.672-26.547-51.144-40.33-84.599-39.347z" fill="#306092" ></path><path d="M500.122 170.179a67.057 67.057 0 0 0-47.217 15.754c-11.817 9.83-19.692 23.593-25.58 37.376-4.925 13.788-7.88 28.518-8.862 43.284 7.874-3.937 15.754-6.891 24.612-8.857 8.842-1.972 18.672-1.972 27.53 0.983 9.846 3.937 16.742 12.8 18.708 23.629 12.78 58.035-3.937 79.677-9.845 97.382-2.955 5.903-4.92 11.812-5.909 17.7 0.988 0 1.971 0 2.954-0.983 2.955 0 6.892 0.983 9.846 1.966 5.909 2.954 10.813 7.88 12.78 14.771 0.988 1.971 0.988 3.942 0.988 4.925v2.934a781.471 781.471 0 0 0 0 67.876c0 8.863 0.983 16.742 1.966 25.58 0 4.925 0.988 8.862 2.954 13.788 1.971 6.87 5.909 12.78 11.797 17.684 5.908 4.92 14.77 7.875 30.504 4.92 9.846-0.983 19.672-5.908 27.53-12.8 5.91-7.854 9.846-16.696 10.83-26.542 3.942-18.708 9.845-73.789 10.833-83.614 0-5.909 0.983-12.8 3.938-17.726 1.966-3.937 5.908-6.891 9.825-8.857 1.971-0.988 2.954-0.988 4.925-1.972-1.97-1.945-2.954-3.921-4.925-5.888-4.925-5.908-8.858-12.8-11.817-19.67-1.966-2.955-2.954-5.909-4.92-8.863-2.955-4.926-4.926-9.846-8.843-15.734a191.293 191.293 0 0 1-16.742-41.318c-3.917-14.767-4.9-28.534 4.926-39.343 7.88-8.857 22.645-13.783 44.288-10.833-0.984-1.967-0.984-3.938-1.967-5.904-3.942-11.796-10.833-22.63-18.708-31.472-21.642-29.517-56.064-46.234-92.457-47.222l-3.942-2.954z" fill="#306092" ></path><path d="M380.099 171.162h-6.892c-17.7 0-35.405 6.896-47.222 19.696-12.78 12.78-21.642 34.422-19.67 70.81 1.97 15.76 4.92 31.488 7.874 47.227 4.925 24.596 11.817 48.205 20.68 71.818 5.887 19.671 15.718 37.376 28.518 53.11 2.949 3.937 7.874 5.908 13.778 5.908 5.888-0.988 10.813-3.942 14.75-8.863 10.834-12.779 21.643-25.559 32.456-36.392a59.668 59.668 0 0 1-20.659-57.048c0.983-11.816 1.971-23.633 1.971-36.413 0-9.846-0.988-15.734-0.988-19.671v-0.983c0-20.66 3.942-41.318 10.834-60.99a100.388 100.388 0 0 1 23.588-37.375c-16.717-5.909-34.422-8.858-52.122-9.846-2.954-0.983-4.925-0.983-6.896-0.983z m232.176 133.795c0.983-15.754 3.937-25.584 3.937-36.393-4.925-0.983-8.857-0.983-13.783-0.983-7.88-0.988-15.738 1.967-22.63 6.892-4.92 4.92-4.92 15.734-2.954 28.513 3.942 13.783 8.863 26.563 15.754 38.36 2.954 5.908 5.909 10.833 7.88 15.754 1.966 2.954 3.937 6.891 4.92 9.845 0.988 1.971 1.95 4.926 3.922 5.909 3.937-9.846 5.908-19.692 4.92-29.543 0.988-11.811-1.966-25.554-1.966-38.354z m-6.896-29.521c0 0.983 0 1.97-0.983 2.954-0.984 0.983-0.984 1.971-1.967 2.954-1.97 1.971-4.925 2.954-6.896 3.942-2.954 0-4.92 0-6.892-1.97-0.983-0.989-1.945-0.989-2.933-1.972-0.984 0-0.984-0.983-0.984-1.971 0-0.983 0-1.966 0.984-2.954l1.97-1.967c2.955-1.97 6.892-2.954 9.846-2.954h4.92c0.989 0 1.972 0.983 2.955 0.983v2.955h-0.02z" fill="#306092" ></path><path d="M476.518 284.298a19.533 19.533 0 0 0-11.817-15.754c-2.954-0.983-5.908-0.983-8.862-0.983-3.943 0-6.876 0.983-10.814 0.983a177.229 177.229 0 0 0-20.654 7.875c-1.971 0.988-3.942 2.954-5.908 4.925 0 2.954 0.983 8.858 0.983 17.725 0 12.78 0 25.56-1.971 37.376-4.92 26.563 12.8 51.139 39.367 56.064 1.971 0 2.954 0 4.92 0.983 1.972-5.908 4.926-12.8 5.909-19.67 5.888-17.726 20.639-32.456 8.842-89.524z m-6.896 0.983l-2.954 2.955c-1.967 1.97-4.92 2.954-7.875 1.97-2.954-0.987-4.925-1.97-6.892-4.925-0.967-0.983-1.95-1.966-1.95-2.954-1.971-1.966-1.971-2.954-1.971-3.937 0-1.971 1.97-2.954 3.942-3.943 1.966-0.978 3.937-0.978 4.915-0.978h2.96c2.954 0 4.92 0.983 6.891 2.95 0.983 0.988 1.971 0.988 2.954 1.97 0.983 0.984 0.983 1.972 0.983 3.943-0.983 0.983-0.983 1.966-0.983 2.95h-0.02z m150.507 121.995c-1.966 0.983-3.937 0.983-5.908 0.983-1.966 0.988-2.954 1.97-4.9 3.942-0.988 3.937-1.971 7.854-1.971 11.796 0.983 0.983 1.971 0.983 2.954 0.983 3.942 0.984 8.858 1.967 13.783 1.967 11.797 0 22.61-1.967 33.439-5.904 5.908-2.954 11.817-5.908 16.742-10.834-25.6 4.926-38.4 3.943-47.247 0a48 48 0 0 1-6.892-2.954v0.02z m-144.599 1.97c-0.983 0-2.954 0-4.925 3.938-5.904 6.871-7.875 11.796-13.783 15.734-7.86 4.925-15.734 7.88-25.56 8.857-2.954 0-5.908 0.989-7.879 2.96l0.988 0.983c1.966 0.967 4.92 1.945 5.904 2.934 7.88 1.97 16.742 2.954 25.584 1.97 11.812-1.97 22.625-8.862 28.534-18.708 1.966-2.954 1.966-5.908 0-8.842-0.988-2.954-3.942-5.908-5.909-6.892 0-2.954-1.97-2.954-2.954-2.954v0.02z" fill="#306092" ></path><path d="M16.66 658.867v124.749h19.047v-48.579h32.328c29.875 0 44.902-12.743 44.902-38.266 0-25.324-14.848-37.904-44.565-37.904H16.66z m19.047 16.246h31.109c9.257 0 16.067 1.751 20.439 5.238 4.352 3.149 6.636 8.74 6.636 16.42 0 7.68-2.284 13.276-6.477 16.778-4.352 3.487-11.162 5.238-20.598 5.238H35.702v-43.674z m679.68-18.688c-13.276 0-24.284 2.954-33.024 8.899-9.262 6.297-13.788 14.848-13.788 25.856 0 10.833 4.705 19.22 14.315 24.985 3.84 2.094 13.271 5.422 28.652 10.302 13.783 4.198 22.016 6.993 24.811 8.391 7.86 4.02 11.879 9.452 11.879 16.425 0 5.591-2.801 9.964-8.392 13.113-5.591 3.153-13.097 4.884-22.528 4.884-10.496 0-18.176-1.91-23.235-5.77-5.596-4.173-9.098-11.341-10.496-21.13h-18.867c1.045 15.718 6.636 27.253 16.937 34.6 8.566 5.93 20.46 9.078 35.64 9.078 15.755 0 27.966-3.149 36.71-9.451 8.72-6.441 13.093-15.186 13.093-26.368 0-11.52-5.417-20.444-16.067-26.9-4.905-2.97-15.892-6.99-32.691-12.232-11.7-3.503-18.842-6.103-21.658-7.68-6.287-3.344-9.257-7.696-9.257-13.292 0-6.298 2.617-10.829 8.034-13.624 4.372-2.443 10.67-3.666 18.882-3.666 9.436 0 16.425 1.735 21.31 5.417 4.9 3.481 8.033 9.43 9.784 17.47h18.867c-1.223-13.63-6.103-23.594-14.848-30.055-8.212-6.298-19.574-9.252-34.068-9.252z m124.57 0c-19.047 0-34.069 6.103-44.903 18.688-10.496 11.873-15.554 27.254-15.554 46.295 0 18.867 5.063 34.263 15.56 46.141 10.828 12.207 25.855 18.51 44.896 18.51 12.939 0 23.947-2.796 33.199-8.392a708.792 708.792 0 0 1 13.788 19.4l12.247-10.83c-4.531-6.64-9.257-12.938-13.804-19.046 10.122-11.894 15.207-27.075 15.207-45.783 0-19.22-5.243-34.755-15.74-46.474-11.007-12.406-26.034-18.509-44.902-18.509z m0 16.758c13.27 0 23.592 4.193 30.76 12.938 6.969 8.566 10.63 20.28 10.63 35.287 0 12.759-2.596 23.06-7.834 31.114a585.738 585.738 0 0 0-18.888-21.145l-11.008 10.828a351.288 351.288 0 0 1 18.709 21.484c-6.103 3.681-13.625 5.591-22.375 5.591-13.266 0-23.587-4.531-30.914-13.271-6.989-8.566-10.496-20.086-10.496-34.601 0-14.669 3.507-26.189 10.496-34.755 7.327-9.098 17.648-13.47 30.92-13.47z m79.851-14.316v124.749h87.532V767.37h-68.665V658.867h-18.867z m-751.242 31.96c-13.625 0-24.617 4.546-32.845 13.644-8.213 8.904-12.232 20.265-12.232 34.069 0 13.629 4.02 24.97 12.053 33.715 8.391 9.077 19.4 13.803 33.024 13.803 13.63 0 24.637-4.726 33.024-13.783 8.038-8.765 12.052-20.106 12.052-33.735 0-13.804-4.198-25.165-12.211-34.069-8.228-9.098-19.236-13.645-32.865-13.645z m0 15.206c8.566 0 15.206 3.328 20.086 10.137 4.198 5.77 6.297 13.271 6.297 22.375 0 8.898-2.1 16.24-6.297 22.17a23.69 23.69 0 0 1-20.086 10.137c-8.566 0-15.207-3.482-19.907-10.138-4.198-5.75-6.108-13.097-6.108-22.17 0-9.103 1.91-16.604 6.108-22.374 4.726-6.81 11.341-10.137 19.907-10.137z m96.455-15.207c-10.833 0-19.753 2.284-26.567 6.989-6.81 4.552-10.122 11.029-10.122 19.22 0 7.68 3.481 13.804 10.475 18.177 4.198 2.795 11.7 5.416 22.374 7.88 9.252 2.083 15.36 3.84 18.156 5.237 5.238 2.442 8.033 5.924 8.033 10.296 0 8.039-7.321 12.232-21.657 12.232-6.994 0-11.879-1.224-15.028-3.487-3.153-2.457-5.417-6.81-6.461-12.938h-18.176c2.11 20.972 15.38 31.626 40.172 31.626 26.741 0 40.212-9.61 40.212-28.651 0-8.039-3.686-14.336-10.829-18.867-4.905-3.15-12.605-6.104-22.902-8.566-9.082-2.263-15.027-4.02-18.176-5.417-4.884-2.263-7.326-4.9-7.326-8.033 0-3.503 1.572-6.298 4.884-8.039 2.796-1.766 6.989-2.457 12.58-2.457 6.303 0 11.187 1.064 14.336 3.153 2.954 1.926 5.064 5.238 6.461 10.138h17.997c-2.104-19.041-15.022-28.493-38.436-28.493z m84.557-26.726l-18.509 7.68v21.504h-16.778v15.36h16.778v52.429c0 7.168 1.572 12.595 5.059 16.42 3.482 4.014 9.257 6.103 16.937 6.103h14.868v-15.36h-11.898a6.615 6.615 0 0 1-4.88-1.752c-1.044-1.223-1.577-2.954-1.577-5.416v-52.419h20.618v-15.36h-20.618v-29.184z m73.017 26.726c-12.207 0-22.17 4.199-29.696 12.76-7.68 8.391-11.341 19.22-11.341 32.85 0 13.624 3.66 24.457 11.34 32.685 7.527 8.192 17.49 12.406 29.717 12.406 11.878 0 20.956-5.079 27.612-15.043v13.978c0 16.937-7.88 25.503-23.593 25.503-7.347 0-12.759-1.219-16.071-3.308-3.503-2.263-5.591-6.103-6.656-11.361h-18.51c1.752 9.964 5.771 17.306 12.407 22.195 6.635 4.726 16.245 7.168 28.825 7.168 27.966 0 42.107-14.336 42.107-42.992v-84.378h-18.509v12.052c-6.656-9.789-15.734-14.515-27.612-14.515h-0.02z m2.816 15.043c7.859 0 13.982 2.621 18.513 8.212 4.199 5.417 6.457 12.918 6.457 22.354 0 9.252-2.263 16.6-6.457 22.016-4.53 5.238-10.65 7.875-18.513 7.875-9.094 0-15.555-3.149-19.574-9.098-3.482-5.059-5.238-12.053-5.238-20.793 0-9.61 2.089-17.136 6.636-22.354 4.198-5.59 10.301-8.212 18.176-8.212z m106.224-15.043c-5.596 0-10.48 1.577-14.674 5.08-3.502 2.442-6.456 6.107-8.74 11.007V693.29h-18.513v90.327h18.513v-47.872c0-7.875 2.284-14.336 6.99-19.22 4.372-4.527 9.45-6.81 15.026-6.81 4.194 0 8.566 0.512 13.113 1.905v-18.51a26.409 26.409 0 0 0-11.715-2.283z m61.322 0c-13.276 0-23.93 4.547-31.61 13.804-8.054 9.098-11.894 20.285-11.894 33.735 0 14.848 4.198 26.543 12.585 35.287 7.68 8.213 18.355 12.406 31.626 12.406 12.052 0 22.016-3.481 29.875-10.301a40.765 40.765 0 0 0 12.406-21.146h-18.514c-2.458 5.238-5.079 9.252-8.212 11.694-4.015 2.975-9.252 4.552-15.734 4.552-7.342 0-13.092-2.442-17.29-6.994-4.194-4.726-6.477-11.52-7.168-20.26h68.49c-0.174-16.071-3.84-28.656-10.829-37.734-7.68-10.138-19.046-15.043-33.73-15.043z m0.528 15.207c14.674 0 22.886 7.874 24.637 23.587H569.38c1.05-7.68 3.666-13.45 7.506-17.469 4.198-4.193 9.61-6.103 16.599-6.103v-0.02z" fill="#42668D" ></path></svg>