<svg xmlns="http://www.w3.org/2000/svg" viewBox="0 0 1024 1024"><path d="M107.52 20.48h611.328a41.472 41.472 0 0 1 27.648 10.752l197.632 183.296a41.4208 41.4208 0 0 1 13.312 30.208V962.56a40.96 40.96 0 0 1-40.96 40.96H107.52a40.96 40.96 0 0 1-40.96-40.96V61.44a40.96 40.96 0 0 1 40.96-40.96z" fill="#FF764B" ></path><path d="M788.48 363.52h-148.48V291.84a15.872 15.872 0 0 0-16.896-13.824l-389.12 40.448a15.9232 15.9232 0 0 0-13.824 15.36v407.552a15.9232 15.9232 0 0 0 13.824 15.36l389.12 40.448h1.536a15.36 15.36 0 0 0 15.36-15.36V711.68h148.48a15.36 15.36 0 0 0 15.36-15.36V378.88a15.36 15.36 0 0 0-15.36-15.36z m-354.304 216.064h-28.672V660.48H347.136V416.768h85.504c53.76 0 97.792 18.944 97.792 79.36 0 57.856-45.056 83.456-96.256 83.456zM773.12 680.96h-133.12v-76.8h81.92v-35.84h-81.92V501.76h81.92v-35.84h-81.92V394.24h133.12z" fill="#FFFFFF" ></path><path d="M430.08 462.848h-24.064v70.656h25.6c28.672 0 42.496-13.312 42.496-37.376s-15.872-33.28-44.032-33.28z" fill="#FFFFFF" ></path></svg>