<svg xmlns="http://www.w3.org/2000/svg" viewBox="0 0 1024 1024"><path d="M129.869 733.481c-10.158-4.393-16.461-7.9-19.062-10.598a11.735 11.735 0 0 1-3.876-8.546c0-3.876 1.808-6.932 5.591-9.175 3.763-2.345 8.704-3.43 15.104-3.43a49.623 49.623 0 0 1 28.217 8.192v-23.92c-7.895-3.057-17.798-4.593-29.476-4.593-14.044 0-25.19 3.072-33.736 9.18-8.525 6.103-12.58 14.766-12.58 25.892 0 15.206 9.354 26.705 28.058 34.621 11.878 4.94 19.24 8.822 22.036 11.776 2.78 2.893 4.137 6.026 4.137 9.175a10.557 10.557 0 0 1-5.222 9.18c-3.502 2.422-8.72 3.6-15.652 3.6-12.211 0-23.194-3.958-32.809-11.971v25.641c8.704 4.388 19.948 6.656 33.715 6.656 15.002 0 26.604-3.072 34.698-9.001 8.09-6.103 12.227-14.828 12.227-26.348 0-7.818-2.243-14.571-6.733-20.224-4.587-5.77-12.759-11.069-24.637-16.107z m144.327 54.308c10.87-11.674 16.267-26.778 16.267-45.486 0-17.9-5.223-32.476-15.637-43.879-10.44-11.417-24.202-17.09-41.354-17.09-17.997 0-32.492 5.929-43.443 17.725-10.967 11.776-16.364 27.054-16.364 45.84 0 17.802 5.3 32.2 16.092 43.443 10.691 11.223 24.633 16.896 41.805 16.896 6.2 0 11.97-0.707 17.27-2.243l15.913 16.185h37.867l-30.484-29.4c0.63-0.63 1.434-1.259 2.068-1.97v-0.021z m-18.805-15.36c-5.479 7.091-13.312 10.598-23.378 10.598-9.708 0-17.444-3.686-23.097-11.146-5.59-7.368-8.468-16.896-8.468-28.498 0-11.796 2.877-21.402 8.643-28.79 5.652-7.46 13.588-11.146 23.633-11.146 9.903 0 17.45 3.605 22.938 10.89 5.478 7.286 8.08 17.075 8.08 29.579 0 11.878-2.858 21.309-8.351 28.497v0.016z m80.834-89.124h-25.538v119.588h70.318v-20.675H336.23v-98.913z m152.064 50.176c-10.158-4.393-16.46-7.9-19.061-10.598a11.735 11.735 0 0 1-3.881-8.546c0-3.876 1.812-6.932 5.575-9.175 3.779-2.345 8.725-3.43 15.125-3.43a49.623 49.623 0 0 1 28.216 8.192v-23.92c-7.895-3.057-17.802-4.593-29.476-4.593-14.044 0-25.19 3.072-33.735 9.18-8.448 6.2-12.683 14.848-12.683 25.994 0 15.201 9.355 26.7 28.063 34.616 11.878 4.946 19.241 8.807 22.036 11.776 2.776 2.878 4.137 6.027 4.137 9.18a10.557 10.557 0 0 1-5.222 9.175c-3.502 2.422-8.724 3.584-15.636 3.584-12.227 0-23.215-3.942-32.825-11.955v25.62c8.725 4.414 19.968 6.657 33.715 6.657 15.023 0 26.624-3.052 34.714-8.98 8.074-6.124 12.211-14.849 12.211-26.348 0-7.834-2.227-14.572-6.733-20.245-4.393-5.847-12.487-11.146-24.54-16.184z m86.236-17.981c-12.154 0-22.313 4.234-30.33 12.759-7.972 8.55-12.032 19.614-12.032 33.382 0 13.742 3.783 24.356 11.325 32.097 7.562 7.64 18.176 11.5 31.744 11.5 12.605 0 22.845-2.243 30.659-6.554V780.33c-7.184 4.587-15.555 7.01-24.91 7.01-15.103 0-23.096-6.636-23.91-19.866h56.208V756.95c0-12.759-3.43-22.922-10.24-30.305-7.03-7.465-16.466-11.146-28.519-11.146zM556.8 751.657c0.809-5.77 2.877-10.44 6.205-13.942a15.206 15.206 0 0 1 11.341-5.222c10.435 0 15.555 6.384 15.555 19.164H556.8z m97.833-18.079h-0.256v-16.087h-24.914v85.504h24.914v-41.18c0-7.562 1.613-13.486 4.92-17.9a16.205 16.205 0 0 1 13.512-6.553c4.311 0 7.992 0.88 11.044 2.693v-23.117a18.391 18.391 0 0 0-6.733-0.983c-10.89 0-18.355 6.026-22.487 17.623z m86.328 38.124c-1.536 5.396-2.616 10.24-3.051 14.295h-0.374c-0.18-3.937-1.178-8.899-2.877-14.746l-15.632-53.862h-26.803l30.566 85.504h28.237l32.097-85.504h-26.152l-16.01 54.313z m89.206-56.202c-12.15 0-22.308 4.234-30.326 12.759-7.992 8.55-12.032 19.614-12.032 33.382 0 13.742 3.784 24.356 11.326 32.097 7.562 7.64 18.155 11.5 31.744 11.5 12.6 0 22.84-2.243 30.658-6.554V780.33c-7.188 4.587-15.554 7.01-24.909 7.01-15.104 0-23.101-6.636-23.91-19.866h56.187V756.95c0-12.759-3.41-22.922-10.24-30.305-6.835-7.465-16.364-11.146-28.518-11.146h0.02z m-17.72 36.157c0.804-5.77 2.872-10.44 6.2-13.942a15.206 15.206 0 0 1 11.325-5.222c10.435 0 15.555 6.384 15.555 19.164h-33.08z m120.32-35.702c-10.89 0-18.453 5.924-22.492 17.526h-0.272v-16.092H885.09v85.504h24.914v-41.155c0-7.562 1.613-13.511 4.941-17.92a16.205 16.205 0 0 1 13.491-6.553c4.332 0 8.013 0.9 11.065 2.693V716.86a23.337 23.337 0 0 0-6.733-0.906zM338.903 478.05c31.176-20.577 61.834-42.69 95.37-59.074 34.878-15.166 69.279-27.612 105.237-40.412 35.092-12.898 70.835-23.414 107.126-32.646a1012.265 1012.265 0 0 1 110.336-21.565l-5.632 11.52a153.795 153.795 0 0 0-32.492-37.12c-12.723-10.711-26.921-19.692-41.79-27.469a347.254 347.254 0 0 0-34.539-15.56 505.559 505.559 0 0 0-60.708-18.984 510.761 510.761 0 0 0-50.16-9.708 231.918 231.918 0 0 0-6.221-0.788l-6.503-0.707a904.78 904.78 0 0 1-38.963-5.222c-17.275-2.714-34.509-5.904-51.538-10.256a341.545 341.545 0 0 1-12.682-3.543 188.058 188.058 0 0 1-12.544-4.214 118.815 118.815 0 0 1-12.211-5.299 61.051 61.051 0 0 1-5.77-3.405 28.083 28.083 0 0 1-2.694-2.089 15.974 15.974 0 0 1-2.109-2.365l-0.138-0.195-0.154-0.337a0.937 0.937 0 0 1 1.71-0.748c0-0.036 0 0 0.041 0.041l0.097 0.118a4.884 4.884 0 0 0 0.789 0.711c0.374 0.313 0.788 0.61 1.198 0.886a32.31 32.31 0 0 0 2.719 1.516c1.869 0.921 3.84 1.69 5.847 2.401 3.999 1.418 8.115 2.56 12.272 3.543 8.326 1.971 16.794 3.528 25.303 4.746 17.035 2.524 34.187 4.214 51.395 5.576 8.586 0.727 17.213 1.28 25.82 1.848l12.938 0.748 6.457 0.358a403.103 403.103 0 0 1 33.085 3.64c8.76 1.301 17.444 2.934 26.112 4.726 17.306 3.666 34.458 8.31 51.216 14.219a365.282 365.282 0 0 1 36.966 15.56 299.343 299.343 0 0 1 11.894 6.281 245.033 245.033 0 0 1 22.84 14.316 219.884 219.884 0 0 1 21.192 16.875 175.913 175.913 0 0 1 34.478 42.061l5.929 10.22-11.54 1.3c-36.706 4.096-73.196 10.44-109.272 18.688-36.075 8.192-71.798 18.944-106.931 30.761-35.17 11.776-69.806 24.474-103.716 39.64a1052.058 1052.058 0 0 0-74.91 37.022c-8.136 4.49-16.23 9.078-24.105 13.962h-0.021a0.947 0.947 0 0 1-1.003-1.577h-0.021z m-3.384 3.467c11.93-9.452 23.552-19.339 34.56-29.799a396.477 396.477 0 0 0 31.309-33.024 312.765 312.765 0 0 0 13.926-17.874 201.037 201.037 0 0 0 12.165-18.964 78.753 78.753 0 0 0 2.56-4.926l0.317-0.589 0.313-0.711 0.594-1.296 1.06-2.58a178.456 178.456 0 0 0 3.998-10.476 159.558 159.558 0 0 0 5.909-21.386 130.917 130.917 0 0 0 2.56-32.594 119.414 119.414 0 0 0-14.828-51.353 138.69 138.69 0 0 0-30.443-37.617l-0.988-0.845-0.902-0.711-0.317-0.256-0.077-0.057-0.118-0.118-0.276-0.235-0.553-0.492-1.085-1.024-2.146-2.048a166.424 166.424 0 0 1-2.068-2.17c-1.377-1.434-2.657-2.99-3.937-4.567a48.937 48.937 0 0 1-6.503-10.573 21.463 21.463 0 0 1-1.73-6.323 9.492 9.492 0 0 1 0.24-3.446 5.19 5.19 0 0 1 0.748-1.577 2.637 2.637 0 0 1 1.26-1.024 3.19 3.19 0 0 0 0.102 2.6 9.418 9.418 0 0 0 1.33 2.151c1.066 1.316 2.366 2.52 3.708 3.661 2.698 2.304 5.632 4.429 8.601 6.538 1.46 1.08 2.975 2.084 4.455 3.17l2.263 1.576 2.247 1.593 2.028 1.418 0.727 0.532 0.63 0.492 1.223 0.963a138.004 138.004 0 0 1 21.008 21.488 137.733 137.733 0 0 1 13.158 20.086 127.14 127.14 0 0 1 9.334 22.21c2.401 7.68 3.978 15.637 4.803 23.634 1.576 16.026-0.195 32.215-4.665 47.34a144.957 144.957 0 0 1-11.049 27.172 182.631 182.631 0 0 1-2.795 5.12l-1.46 2.524-0.727 1.239-0.317 0.589-0.333 0.67c-0.921 1.752-1.91 3.43-2.918 5.1a202.854 202.854 0 0 1-13.169 19.026 282.235 282.235 0 0 1-14.791 17.623c-20.619 22.707-44.11 42.516-68.92 60.14h-0.021zM612.94 357.59c-6.477-5.786-13.783-11.438-20.516-16.932a337.92 337.92 0 0 0-20.874-15.795 294.22 294.22 0 0 0-22.252-13.978 369.229 369.229 0 0 0-47.677-22.61 414.72 414.72 0 0 0-50.535-16.384c-17.203-4.47-15.59-13.783 2.33-10.516a425.155 425.155 0 0 1 53.048 13.389 385.239 385.239 0 0 1 63.212 27.218 358.663 358.663 0 0 1 12.114 6.733 331.622 331.622 0 0 1 23.47 14.868 239.36 239.36 0 0 1 32.04 26.803M505.309 211.891a166.021 166.021 0 0 1 9.41 36.173 165.424 165.424 0 0 1 0 47.165 123.546 123.546 0 0 1-16.091 44.816 182.154 182.154 0 0 1-10.553 15.815 295.23 295.23 0 0 1-11.755 14.695 441.231 441.231 0 0 1-12.37 14.054 329.953 329.953 0 0 1-26.88 26.133 376.3 376.3 0 0 1-29.476 23.02 411.668 411.668 0 0 1-23.378 15.339c-2.657 1.597-5.315 3.19-8.013 4.726l7.21-5.888a591.451 591.451 0 0 0 7.183-5.888 1163.315 1163.315 0 0 0 14.218-11.874 617.318 617.318 0 0 0 27.433-24.714 448.82 448.82 0 0 0 31.508-33.434c2.007-2.324 4.02-4.669 5.99-7.014a327.04 327.04 0 0 0 11.398-14.315 172.861 172.861 0 0 0 10.122-15.023 118.902 118.902 0 0 0 15.754-41.789 197.59 197.59 0 0 0 2.954-45.373c-0.593-12.207-2.263-24.418-4.669-36.624z m86.405 16.046c0.297 1.183 0.512 2.386 0.732 3.584 0.195 1.203 0.354 2.422 0.512 3.625 0.292 2.422 0.43 4.864 0.492 7.306a92.201 92.201 0 0 1-1.46 18.294l-0.332 1.813-0.082 0.45-0.02 0.103-0.036 0.133-0.041 0.2-0.195 0.885a181.504 181.504 0 0 1-6.4 21.013 162.934 162.934 0 0 1-12.8 26.388 210.314 210.314 0 0 1-16.778 23.885 333.625 333.625 0 0 1-9.334 11.085l-4.726 5.36-4.73 5.356c-3.15 3.563-6.242 7.188-9.488 10.752l-4.884 5.315a187.213 187.213 0 0 1-27.136 24.023 220.79 220.79 0 0 1-18.059 11.898 196.454 196.454 0 0 1-6.246 3.584l5.499-4.649a458.947 458.947 0 0 0 16.128-14.12 262.323 262.323 0 0 0 19.789-20.204c6.205-7.091 12.073-14.515 18.155-21.914 1.5-1.853 3.052-3.686 4.608-5.519 1.536-1.848 3.113-3.681 4.65-5.473a405.765 405.765 0 0 0 9.062-10.87c5.826-7.363 11.315-14.966 16.143-22.922a162.243 162.243 0 0 0 17.014-38.144c0.691-2.243 1.32-4.49 1.91-6.759l0.235-0.86 0.061-0.2 0.057-0.194 0.118-0.435 0.512-1.674 0.947-3.349a259.884 259.884 0 0 0 5.453-24.182l0.67-3.584z m97.439 30.09a136.94 136.94 0 0 1-11.028 32.436 155.827 155.827 0 0 1-18.51 29.143c-7.188 9-15.124 17.305-23.377 25.165a229.484 229.484 0 0 1-12.8 11.09 126.863 126.863 0 0 1-6.871 5.14c-2.36 1.654-4.787 3.226-7.383 4.608a141.527 141.527 0 0 1 9.825-14.162 154.9 154.9 0 0 1 11.305-12.8c7.956-7.875 15.713-15.872 22.958-24.3a226.918 226.918 0 0 0 19.87-26.664c2.97-4.726 5.786-9.57 8.408-14.49a388.864 388.864 0 0 0 7.603-15.165zM413.993 406.63a461.527 461.527 0 0 1 62.147-50.411 561.766 561.766 0 0 1 69.32-40.371 560.785 560.785 0 0 1 74.336-30.167 480 480 0 0 1 77.865-18.51c-25.405 8.075-50.493 16.58-75.13 26.19a926.956 926.956 0 0 0-141.999 69.714 1097.41 1097.41 0 0 0-66.56 43.555h0.021z m27.546-59.724a224.89 224.89 0 0 1 8.391-9.908 336.604 336.604 0 0 1 8.858-9.492 366.551 366.551 0 0 1 18.79-17.92 452.925 452.925 0 0 1 40.704-32.236 482.662 482.662 0 0 1 43.955-27.53 441.027 441.027 0 0 1 34.852-17.27 232.418 232.418 0 0 1 12.012-4.92 572.292 572.292 0 0 1-10.634 7.445l-10.63 7.285-21.33 14.413a2912.225 2912.225 0 0 0-42.26 29.082 1916.298 1916.298 0 0 0-62.09 45.455l-10.276 7.798a958.09 958.09 0 0 1-10.342 7.798z m0.553-72.469a72.566 72.566 0 0 1 3.389-5.002 169.078 169.078 0 0 1 11.418-13.783 210.115 210.115 0 0 1 46.1-37.223 127.21 127.21 0 0 1 5.279-2.851c1.771-0.922 3.584-1.813 5.453-2.601-1.24 1.618-2.56 3.133-3.876 4.628a271.258 271.258 0 0 1-12.37 12.82 411.238 411.238 0 0 1-35.702 30.582 286.618 286.618 0 0 1-14.551 10.281c-1.674 1.08-3.348 2.166-5.14 3.15z m-9.984-69.396c4.234 6.005 7.541 12.523 10.496 19.2A156.672 156.672 0 0 1 447.529 237l0.865 2.621a77.683 77.683 0 0 1 3.687 27.53 71.936 71.936 0 0 1-1.444 11.029 54.078 54.078 0 0 1-3.308 10.593c-0.589-3.686-0.962-7.286-1.377-10.829a863.078 863.078 0 0 0-1.203-10.557 319.017 319.017 0 0 0-3.149-20.598l-1.024-5.1a110.925 110.925 0 0 0-0.532-2.58l-0.59-2.6c-0.808-3.447-1.617-6.933-2.462-10.394-1.613-6.953-3.369-13.906-4.884-21.074z m13.312 127.093c2.007 0.118 3.957 0.456 5.908 0.907 1.93 0.435 3.84 1.003 5.734 1.674 3.758 1.341 7.383 3.149 10.83 5.3a58.378 58.378 0 0 1 17.366 17.013 61.225 61.225 0 0 1 9.984 40.269c-0.235 1.97-0.553 3.942-1.044 5.867-0.789-1.848-1.475-3.681-2.166-5.473l-2.028-5.315a227.251 227.251 0 0 0-4.213-10.24 124.908 124.908 0 0 0-10.123-18.708 109.235 109.235 0 0 0-13.393-16.348 148.122 148.122 0 0 0-8.034-7.48 226.466 226.466 0 0 0-4.331-3.687c-1.475-1.24-2.97-2.458-4.49-3.779zM337.843 479.785s-58.823 39.915-30.428 81.802c0 0 20.48 36.132 93.302 55.726 0 0 83.24 19.241 126.92 17.096 0 0 5.222-1.085-9.355-3.958 0 0-42.045-6.246-84.48-14.93-29.696-6.062-57.897-17.997-70.656-26.05 0 0-74.598-41.001-39.72-86.119 0 0 12.052-18.488 30.033-31.703m169.59 162.443s28.18-62.424 43.284-145.132c0 0 10.2-60.099 0-111.084l11.5-4.075s11.52 47.928-1.772 132.782c0 0-11.996 68.982-47.58 127.411m-0.845 2.263s-0.788 0.492-2.15 0.492c-2.145 0-2.16-3.702-2.16-3.702M309.76 527.063s130.166-36.311 168.253-52.142c0 0 73.708-28.396 95.642-50.688v7.542s-63.012 48.184-128.235 64.727c0 0-75.971 22.999-135.68 34.15v-3.584h0.02z m34.15 52.854s74.47-96.727 95.11-153.892l14.55-6.835s-17.151 63.293-64 109.67c0 0-33.433 41.703-42.787 55l-2.878-3.943z m159.642-181.934s8.387 52.142-33.73 124.769c0 0-36.747 70.103-59.04 93.481h6.83s36.67-31.293 76.586-118.293c0 0 25.8-64.727 19.005-102.835l-9.651 2.878z m-81.981 218.25s113.351-33.183 124.4-37.75v3.584s-86.292 34.52-124.4 34.166z m128.358-39.562s-78.73-10.44-122.25-51.047c0 0-48.17-36.31-28.949-82.703l-15.99 3.604s-11.857 44.227 22.646 74.788c0 0 50.33 56.796 144.538 55.358z m-96.358-158.92s16.542 66.524 115.046 83.773l5.038-2.165s-111.083-37.023-111.083-86.39l-9.001 4.782zM350.029 583.859s115.318-38.108 141.296-49.96c0 0 47.458-15.463 82.33-38.124l-2.872 5.75s-32.359 22.292-87.004 43.52c0 0-57.892 24.084-136.623 42.06l2.873-3.246z m164.316-187.315s57.165 34.519 64 34.877v-2.524s-55.654-33.433-60.774-37.017l-3.226 4.664z m16.875-179.395s-31.979-45.69-40.601-87.04c0 0-119.025 39.578-112.19 60.79l14.864 7.225 2.386-1.127s-11.5-10.788 28.057-32.348c0 0 38.108-20.874 64.712-29.481 0 0 8.98 62.54 30.566 80.169l12.206 1.792v0.02z m-120.043-48.937l29.143 38.83 14.377 1.44-43.52-44.227v3.957z m92.395 15.832s-92.395-6.477-88.458-19.79h4.685S498.688 179.81 503.572 179v5.044z m-25.64 25.523s27.786-21.899 28.871-22.272l-1.792-3.251s-35.43 20.085-41.984 21.719c-6.559 1.638 14.905 3.804 14.905 3.804zM338.903 478.049c31.155-20.577 61.834-42.69 95.35-59.074 34.877-15.166 69.279-27.612 105.236-40.412 35.093-12.898 70.835-23.414 107.126-32.646a1012.265 1012.265 0 0 1 110.336-21.565l-5.632 11.52a153.795 153.795 0 0 0-32.491-37.12c-12.719-10.711-26.921-19.692-41.785-27.469a347.254 347.254 0 0 0-34.544-15.56 505.559 505.559 0 0 0-60.708-18.984 510.761 510.761 0 0 0-50.156-9.708 232.293 232.293 0 0 0-6.226-0.788l-6.497-0.707a904.78 904.78 0 0 1-38.973-5.222c-17.27-2.714-34.499-5.904-51.533-10.256a341.54 341.54 0 0 1-12.682-3.543 188.058 188.058 0 0 1-12.544-4.214 118.731 118.731 0 0 1-12.207-5.299 59.785 59.785 0 0 1-5.77-3.405 28.083 28.083 0 0 1-2.698-2.089 15.974 15.974 0 0 1-2.11-2.365l-0.138-0.195-0.153-0.337a0.937 0.937 0 1 1 1.71-0.748c0-0.036 0 0 0.04 0.041l0.098 0.118a4.884 4.884 0 0 0 0.788 0.711c0.374 0.313 0.789 0.61 1.199 0.886 0.87 0.548 1.776 1.04 2.718 1.516 1.874 0.921 3.84 1.69 5.852 2.401 3.994 1.418 8.11 2.56 12.268 3.543 8.33 1.971 16.794 3.528 25.303 4.746 17.034 2.524 34.186 4.214 51.395 5.576 8.586 0.727 17.213 1.28 25.82 1.848l12.938 0.748 6.456 0.358a402.857 402.857 0 0 1 33.086 3.64c8.76 1.301 17.444 2.934 26.112 4.726 17.305 3.666 34.457 8.31 51.22 14.219a364.704 364.704 0 0 1 36.961 15.56 295.834 295.834 0 0 1 11.894 6.281 245.033 245.033 0 0 1 22.84 14.316 219.884 219.884 0 0 1 21.192 16.875 175.913 175.913 0 0 1 34.483 42.061l5.924 10.22-11.54 1.3c-36.705 4.096-73.196 10.44-109.271 18.688-36.076 8.192-71.798 18.944-106.931 30.761-35.17 11.776-69.807 24.474-103.716 39.64a1052.058 1052.058 0 0 0-74.911 37.022c-8.13 4.49-16.23 9.078-24.105 13.962h-0.02a0.947 0.947 0 0 1-1.004-1.577z m-3.405 3.467c23.747-19.083 46.121-39.896 65.475-63.15a303.33 303.33 0 0 0 13.824-17.92 198.124 198.124 0 0 0 12.052-18.945c0.886-1.597 1.736-3.23 2.54-4.884l0.594-1.321 0.568-1.321 1.045-2.58a173.523 173.523 0 0 0 3.819-10.496 163.584 163.584 0 0 0 5.596-21.325 123.974 123.974 0 0 0 1.613-10.752c0.82-7.132 1.024-14.32 0.614-21.484a119.142 119.142 0 0 0-14.848-50.55 139.07 139.07 0 0 0-29.977-37.14l-0.983-0.83-0.845-0.665-0.358-0.297-0.077-0.061-0.138-0.118-0.256-0.236-0.553-0.512-1.08-1.06-2.126-2.109-2.032-2.227c-1.377-1.495-2.617-3.108-3.876-4.726a47.734 47.734 0 0 1-6.246-11.085 21.955 21.955 0 0 1-1.495-6.656 9.964 9.964 0 0 1 0.435-3.604 5.397 5.397 0 0 1 0.865-1.613 2.755 2.755 0 0 1 1.398-0.988c-0.333 1.008 0 1.874 0.374 2.6 0.42 0.718 0.926 1.383 1.515 1.972 1.183 1.219 2.524 2.304 3.942 3.348 2.832 2.105 5.827 4.076 8.858 6.042 1.48 1.024 3.036 1.971 4.531 2.995l2.284 1.495 2.247 1.557 1.987 1.32 0.768 0.549 0.65 0.496 1.24 0.983a137.846 137.846 0 0 1 21.309 21.72 137.958 137.958 0 0 1 13.312 20.341 121.738 121.738 0 0 1 14.197 46.495 124.375 124.375 0 0 1-5.063 47.851 141.722 141.722 0 0 1-11.438 27.239c-0.942 1.705-1.905 3.4-2.898 5.079l-1.495 2.54-0.748 1.218-0.65 1.244a92.918 92.918 0 0 1-2.954 5.12c-4.076 6.692-8.566 12.954-13.292 19.041a283.653 283.653 0 0 1-14.91 17.603 379.06 379.06 0 0 1-33.08 31.846 462.377 462.377 0 0 1-36.234 27.96zM612.925 357.59c-6.481-5.786-13.788-11.438-20.52-16.932a337.92 337.92 0 0 0-20.875-15.795 294.22 294.22 0 0 0-22.251-13.978 369.229 369.229 0 0 0-47.678-22.61 414.72 414.72 0 0 0-50.529-16.384c-17.213-4.47-15.596-13.783 2.324-10.516a425.155 425.155 0 0 1 53.049 13.389 385.239 385.239 0 0 1 63.216 27.218 363.499 363.499 0 0 1 12.11 6.733 331.622 331.622 0 0 1 23.474 14.868 239.36 239.36 0 0 1 32.036 26.803M505.303 211.891a162.54 162.54 0 0 1 10.358 83.492 118.374 118.374 0 0 1-1.772 9.452 119.373 119.373 0 0 1-5.806 18.452 134.543 134.543 0 0 1-8.55 17.31 185.85 185.85 0 0 1-10.614 15.893 278.543 278.543 0 0 1-11.812 14.746 378.522 378.522 0 0 1-12.39 14.064 313.293 313.293 0 0 1-27.054 26.092 348.923 348.923 0 0 1-29.737 22.804 381.517 381.517 0 0 1-23.593 15.043c-2.698 1.557-5.392 3.113-8.13 4.588l14.197-12.012a1693.98 1693.98 0 0 0 14.08-12.088 666.025 666.025 0 0 0 27.177-24.894 479.985 479.985 0 0 0 25.283-26.542 538.932 538.932 0 0 0 6.026-6.953 755.817 755.817 0 0 0 5.965-6.989c3.921-4.669 7.68-9.415 11.345-14.28a172.462 172.462 0 0 0 10.087-14.924c3.072-5.12 5.806-10.378 8.11-15.836a118.845 118.845 0 0 0 7.619-25.56 202.927 202.927 0 0 0 3.307-45.158c-0.45-12.206-1.946-24.432-4.096-36.7z m86.41 16.046c1.383 4.747 2.048 9.651 2.284 14.572a86.292 86.292 0 0 1-1.101 18.432l-0.317 1.833-0.077 0.455-0.02 0.118-0.021 0.138-0.057 0.195-0.2 0.886a179.302 179.302 0 0 1-6.379 21.13 163.092 163.092 0 0 1-12.82 26.583 208.794 208.794 0 0 1-16.876 23.987 358.963 358.963 0 0 1-9.354 11.146l-4.762 5.315-4.71 5.34c-6.298 7.107-12.641 14.372-19.61 21.187a181.565 181.565 0 0 1-22.353 18.667 215.45 215.45 0 0 1-24.617 15.068c7.168-6.4 14.377-12.646 21.268-19.184a263.823 263.823 0 0 0 19.497-20.362c6.124-7.107 11.955-14.572 18.022-21.996 1.495-1.869 3.047-3.702 4.583-5.55l4.649-5.478c3.072-3.564 6.103-7.168 9-10.83 5.827-7.362 11.3-14.904 16.088-22.824a166.953 166.953 0 0 0 18.903-44.58l0.24-0.85 0.057-0.215v-0.061l0.02-0.036 0.041-0.103 0.118-0.41 0.532-1.653 0.983-3.349c1.301-4.454 2.56-8.939 3.687-13.527 1.137-4.572 2.16-9.236 3.302-14.044z m97.439 30.09a129.203 129.203 0 0 1-10.42 32.769 150.646 150.646 0 0 1-18.35 29.44c-7.167 9.098-15.124 17.428-23.434 25.287a164.772 164.772 0 0 1-12.979 10.87 107.06 107.06 0 0 1-7.065 4.94 61.647 61.647 0 0 1-7.721 4.276 79.089 79.089 0 0 1 4.372-7.624 127.078 127.078 0 0 1 16.01-20.065c7.936-7.875 15.673-15.872 22.918-24.218a239.939 239.939 0 0 0 20.05-26.352c6.103-9.293 11.402-19.16 16.619-29.338v0.016zM413.993 406.63a309.663 309.663 0 0 1 14.413-13.9c4.94-4.506 10.025-8.858 15.165-13.138a485.453 485.453 0 0 1 32.016-24.218 538.035 538.035 0 0 1 69.32-40.683 538.581 538.581 0 0 1 74.552-29.952 491.955 491.955 0 0 1 38.737-10.537 423.526 423.526 0 0 1 19.651-3.994 338.673 338.673 0 0 1 19.814-3.02l-18.908 6.502c-6.261 2.165-12.544 4.352-18.765 6.615-12.467 4.49-24.852 9.113-37.099 14.023a1005.097 1005.097 0 0 0-141.804 69.591 1029.059 1029.059 0 0 0-33.776 20.793c-11.182 7.111-22.21 14.494-33.316 21.918z m27.546-59.724c5.201-6.994 10.93-13.527 16.84-19.866a352.118 352.118 0 0 1 18.549-18.237 415.508 415.508 0 0 1 40.602-32.497 443.223 443.223 0 0 1 44.175-27.351c7.639-4.096 15.36-7.977 23.255-11.561a290.56 290.56 0 0 1 11.93-5.156 232.9 232.9 0 0 1 12.21-4.608c-6.89 5.315-13.961 10.296-20.97 15.278-7.03 4.967-14.08 9.846-21.11 14.73-14.06 9.749-28.079 19.456-42.04 29.266a3629.558 3629.558 0 0 0-41.632 29.732l-20.776 15.14-10.435 7.578a623.594 623.594 0 0 1-10.598 7.546z m0.553-72.469a68.123 68.123 0 0 1 3.174-5.238 146.55 146.55 0 0 1 11.044-14.218 180.9 180.9 0 0 1 17.014-16.64 176.051 176.051 0 0 1 19.025-14.26A144.167 144.167 0 0 1 502.666 218a110.774 110.774 0 0 1 5.417-2.677 72.26 72.26 0 0 1 5.648-2.366c-1.178 1.736-2.422 3.328-3.682 4.885-1.26 1.577-2.56 3.092-3.876 4.608a210.1 210.1 0 0 1-8.115 8.663 286.008 286.008 0 0 1-17.254 15.974 287.923 287.923 0 0 1-18.432 14.572c-3.185 2.304-6.436 4.567-9.78 6.712-1.689 1.085-3.399 2.135-5.12 3.154a76.954 76.954 0 0 1-5.375 2.913z m-9.984-69.396c4.551 5.867 8.074 12.329 11.187 18.964a142.234 142.234 0 0 1 5.12 12.739c0.333 0.926 0.63 1.674 0.921 2.621a71.936 71.936 0 0 1 3.625 27.75 66.042 66.042 0 0 1-1.73 11.085 48.108 48.108 0 0 1-3.902 10.573c-0.865-3.737-1.377-7.321-1.945-10.87l-1.536-10.475c-0.988-6.892-2.048-13.63-3.292-20.403l-0.922-5.08c-0.154-0.86-0.323-1.72-0.497-2.58l-0.568-2.6-2.268-10.415c-1.454-6.994-3.01-13.983-4.193-21.31z m13.312 127.093c2.068-0.02 4.075 0.2 6.087 0.553 1.987 0.333 3.937 0.825 5.904 1.419a52.699 52.699 0 0 1 11.146 5.017 56.182 56.182 0 0 1 17.884 17.116 58.803 58.803 0 0 1 9.825 34.996 53.782 53.782 0 0 1-0.63 6.005 38.554 38.554 0 0 1-1.433 5.904c-0.952-1.808-1.756-3.62-2.56-5.412l-2.33-5.258a508.416 508.416 0 0 0-4.608-10.025 148.915 148.915 0 0 0-10.22-18.233 128.041 128.041 0 0 0-12.917-16.245 198.38 198.38 0 0 0-7.68-7.783l-4.137-3.937c-1.418-1.321-2.872-2.663-4.331-4.137v0.02zM337.843 479.785s-58.823 39.915-30.428 81.802c0 0 20.48 36.132 93.302 55.726 0 0 83.24 19.241 126.92 17.096 0 0 5.222-1.085-9.355-3.958 0 0-42.045-6.246-84.48-14.93-29.696-6.062-57.897-17.997-70.656-26.05 0 0-74.598-41.001-39.72-86.119 0 0 12.052-18.488 30.033-31.703m169.59 162.443s28.18-62.424 43.284-145.132c0 0 10.2-60.099 0-111.084l11.5-4.075s11.52 47.928-1.772 132.782c0 0-11.996 68.982-47.58 127.411m-0.845 2.263s-0.788 0.492-2.15 0.492c-2.145 0-2.16-3.702-2.16-3.702M309.76 527.063s130.166-36.311 168.253-52.142c0 0 73.708-28.396 95.642-50.688v7.542s-63.012 48.184-128.235 64.727c0 0-75.971 22.999-135.68 34.15v-3.584h0.02z m34.15 52.854s74.47-96.727 95.11-153.892l14.55-6.835s-17.151 63.293-64 109.67c0 0-33.433 41.703-42.787 55l-2.878-3.943z m159.642-181.934s8.387 52.142-33.73 124.769c0 0-36.747 70.103-59.04 93.481h6.83s36.67-31.293 76.586-118.293c0 0 25.8-64.727 19.005-102.835l-9.651 2.878z m-81.981 218.25s113.351-33.183 124.4-37.75v3.584s-86.292 34.52-124.4 34.166z m128.358-39.562s-78.73-10.44-122.25-51.047c0 0-48.17-36.31-28.949-82.703l-15.99 3.604s-11.857 44.227 22.646 74.788c0 0 50.33 56.796 144.538 55.358z m-96.358-158.92s16.542 66.524 115.046 83.773l5.038-2.165s-111.083-37.023-111.083-86.39l-9.001 4.782zM350.029 583.859s115.318-38.108 141.296-49.96c0 0 47.458-15.463 82.33-38.124l-2.872 5.75s-32.359 22.292-87.004 43.52c0 0-57.892 24.084-136.623 42.06l2.873-3.246z m164.316-187.315s57.165 34.519 64 34.877v-2.524s-55.654-33.433-60.774-37.017l-3.226 4.664z m16.875-179.395s-31.979-45.69-40.601-87.04c0 0-119.025 39.578-112.19 60.79l14.864 7.225 2.386-1.127s-11.5-10.788 28.057-32.348c0 0 38.108-20.874 64.712-29.481 0 0 8.98 62.54 30.566 80.169l12.206 1.792v0.02z m-120.043-48.937l29.143 38.83 14.377 1.44-43.52-44.227v3.957z m92.395 15.832s-92.395-6.477-88.458-19.79h4.685S498.688 179.81 503.572 179v5.044z m-25.64 25.523s27.786-21.899 28.871-22.272l-1.792-3.251s-35.43 20.085-41.984 21.719c-6.559 1.638 14.905 3.804 14.905 3.804z"  ></path></svg>