<svg xmlns="http://www.w3.org/2000/svg" viewBox="0 0 1024 1024"><path d="M288.9728 297.28768c-5.23264 0-5.64224 0-10.86976-0.04608l-185.48224 442.112A5.89312 5.89312 0 0 0 98.048 747.52h103.18336c2.37568 0 4.51584-1.42848 5.44256-3.63008l132.74624-319.30368c0.5632-1.36192 0.60416-2.87744 0.1024-4.28032l-1.57184-4.32128-48.97792-118.69696z" fill="#FFA800" ></path><path d="M712.064 746.86976h169.02144c4.77184 0 7.51616-5.46304 4.64384-9.28768l-66.19648-88.27904a17.41312 17.41312 0 0 0-13.93664-6.97856h-168.2432c-4.77184 0-7.49568 5.42208-4.66432 9.2672l65.39776 88.21248a17.42336 17.42336 0 0 0 14.0032 7.04512l-0.0256 0.02048z" fill="#3E75FF" ></path><path d="M792.5248 276.48c-0.49664 0-0.9728 0.02048-1.44896 0.04096V276.48l-513.408 0.65024c-4.18816 0-7.04 4.2496-5.44256 8.1408l189.21984 458.5984c0.90624 2.2016 3.072 3.65056 5.44256 3.65056h109.06624c4.21376 0 7.0656-4.28032 5.42208-8.1664L430.98112 380.8768c0.36864 0.04096 0.7168 0.128 1.08032 0.128h356.10112v0.06656c0.47616 0 0.9728-0.06656 1.44384-0.06656a39.18848 39.18848 0 0 1 39.1936 39.1936 39.18848 39.18848 0 0 1-39.1936 39.1936c-0.49664 0-0.96768-0.06656-1.44384-0.06656v0.06656h-274.88768c-9.5488 0-15.01184 10.86464-9.33376 18.5344l60.25728 81.30048a11.59168 11.59168 0 0 0 9.33376 4.68992h217.5232v-0.04096c0.47616 0 0.9728 0.04096 1.44896 0.04096 79.37536 0 143.7184-64.33792 143.7184-143.7184 0-79.37536-64.31744-143.7184-143.69792-143.7184z" fill="#3E75FF" ></path></svg>