<svg xmlns="http://www.w3.org/2000/svg" viewBox="0 0 1024 1024"><path d="M93.8496 0h636.8256c10.6496 0 21.2992 4.2496 28.7744 11.2128l205.8752 190.9248c8.5504 7.9872 13.8752 19.2 13.8752 31.488v747.7248a42.8032 42.8032 0 0 1-42.6496 42.6496H93.8496A42.8032 42.8032 0 0 1 51.2 981.3504V42.6496C51.2 19.2 70.4 0 93.8496 0z" fill="#FFBA31" ></path><path d="M762.7776 308.2752l0.1024-3.072a40.0384 40.0384 0 0 0-11.264-27.4432 72.704 72.704 0 0 0-15.9744-12.8512c-13.2096-8.1408-31.5392-15.3088-54.5792-21.3504-45.3632-11.776-105.472-18.2784-169.0624-18.2784-63.6416 0-123.6992 6.5024-169.0624 18.2784-23.04 6.0416-41.3696 13.2096-54.5792 21.3504a128.512 128.512 0 0 0-4.1984 2.7136c-11.1616 7.7824-18.3296 16.5888-21.3504 26.368a36.2496 36.2496 0 0 0-1.6384 9.6256H261.12v415.488c0 15.5648 9.1648 29.0816 27.2384 40.192 13.2096 8.0896 31.5392 15.2064 54.5792 21.1968 45.3632 11.776 105.472 18.2272 169.0624 18.2272 63.6416 0 123.6992-6.4512 169.0624-18.2272 23.04-5.9904 41.3696-13.1072 54.5792-21.1968 18.0736-11.1104 27.2384-24.6272 27.2384-40.192v-282.624h-0.1024V308.2752z m-35.1744 268.544c-0.2048 0.256-0.4096 0.6656-0.9216 1.1776l-0.3584 0.3584a33.5872 33.5872 0 0 1-3.328 3.0208l-0.4608 0.4096a48.0256 48.0256 0 0 1-8.0384 5.0176l-0.4096 0.256-0.4096 0.256-0.9216 0.4608a120.576 120.576 0 0 1-4.608 2.2528l-1.1264 0.512v0.0512c-0.3584 0.1024-0.7168 0.3072-1.024 0.4608a180.0704 180.0704 0 0 1-8.2432 3.328l-1.4336 0.512c-2.56 0.8704-5.2736 1.8432-8.192 2.7136l-0.6144 0.2048-1.3824 0.4608-1.024 0.3072-0.6144 0.2048-0.9216 0.256c-1.1776 0.4096-2.4576 0.7168-3.7376 1.0752l-1.9968 0.5632c-4.1472 1.1776-8.704 2.3552-13.568 3.4816-41.6768 9.728-95.744 15.104-152.32 15.104s-110.6944-5.376-152.3712-15.104a365.4144 365.4144 0 0 1-13.568-3.4816l-1.9456-0.512c-1.28-0.4096-2.56-0.7168-3.7376-1.1264l-0.9216-0.256-0.6144-0.2048-1.024-0.3072-1.3824-0.4608-0.6144-0.2048a338.432 338.432 0 0 1-8.192-2.7136c-0.512-0.2048-0.9728-0.4096-1.4336-0.512a180.0704 180.0704 0 0 1-8.192-3.328c-0.4096-0.1536-0.6656-0.3584-1.024-0.4608l-0.1024-0.0512-1.024-0.512a120.576 120.576 0 0 1-4.7104-2.2528c-0.256-0.2048-0.5632-0.3072-0.8704-0.4608-0.2048-0.0512-0.3072-0.2048-0.4096-0.256-0.1536-0.0512-0.3072-0.1024-0.4608-0.256a90.9312 90.9312 0 0 1-7.9872-5.0176l-0.512-0.4096a27.136 27.136 0 0 1-3.328-3.0208l-0.3584-0.3584a21.9136 21.9136 0 0 1-0.8704-1.1776V481.1264c1.1776 0.6656 2.4576 1.2288 3.7376 1.8944a7.168 7.168 0 0 0 1.024 0.4608l1.2288 0.512 1.4336 0.6656c0.4096 0.2048 0.768 0.4096 1.1776 0.512a10.496 10.496 0 0 0 1.28 0.512l6.7584 2.7648 1.3312 0.512c2.816 1.0752 5.8368 2.0992 8.9088 3.1232l3.072 1.024 2.2016 0.7168 1.9456 0.5632 2.6112 0.768 3.0208 0.9216 2.816 0.768 1.8944 0.512 2.1504 0.5632c45.3632 11.776 105.472 18.2272 169.0624 18.2272h6.2976l5.5808-0.0512h1.1264l4.2496-0.0512 9.3184-0.256 5.2224-0.2048 5.6832-0.2048 2.8672-0.1024 11.264-0.6144c0.7168 0 1.4336 0 2.1504-0.1024l6.144-0.4096a486.4 486.4 0 0 0 16.384-1.28c0.9728 0 1.8432-0.1536 2.7648-0.256 2.304-0.1536 4.608-0.4096 6.8608-0.6144l2.6624-0.256c7.5264-0.768 14.9504-1.6896 22.2208-2.7136l2.1504-0.3072 5.1712-0.768 2.304-0.3072 9.8304-1.5872 4.4544-0.768c7.3216-1.28 14.336-2.7136 21.0944-4.2496l2.2016-0.512 4.1472-0.9728 2.2016-0.512 2.048-0.512c3.2256-0.8192 6.2976-1.536 9.3184-2.4576l1.6896-0.4608 1.6384-0.512 3.2768-0.9728a212.48 212.48 0 0 0 33.0752-12.9536v95.6416h0.256z m-431.3088-226.816c0.5632 0.3072 1.1776 0.6656 1.792 0.9216 11.9808 5.9392 27.0336 11.264 44.8512 15.9232 45.3632 11.8272 105.472 18.2784 169.0624 18.2784 63.6416 0 123.6992-6.5024 169.0624-18.2784 18.688-4.864 34.2528-10.496 46.4896-16.7936v85.504a22.528 22.528 0 0 1-5.4272 5.12l-0.512 0.4096-1.8432 1.2288a32.2048 32.2048 0 0 1-2.0992 1.3312L716.8 444.1088l-0.768 0.4096a5.376 5.376 0 0 1-0.8704 0.512l-0.4096 0.2048-0.4096 0.256-0.512 0.256c-0.1536 0.0512-0.256 0.2048-0.4608 0.256l-0.6656 0.4096-0.768 0.3584a5.376 5.376 0 0 0-0.8704 0.4608l-1.2288 0.5632-0.5632 0.256-3.1744 1.4848-0.9216 0.3584c-1.024 0.512-2.0992 0.9216-3.2768 1.3824l-0.6656 0.256-2.2528 0.8704-0.5632 0.2048-4.0448 1.4848a59.904 59.904 0 0 1-1.7408 0.5632l-4.0448 1.3312-1.536 0.512c-4.352 1.3312-9.216 2.7648-14.4896 4.1472l-1.1776 0.3584c-0.3584 0.1024-0.768 0.1536-1.1264 0.3072l-5.9904 1.4848c-41.6768 9.728-95.744 15.104-152.32 15.104s-110.6432-5.376-152.32-15.104l-2.2016-0.512-1.024-0.256a1.6896 1.6896 0 0 0-0.6656-0.1536l-1.2288-0.3072-1.3312-0.3072-2.048-0.512a198.912 198.912 0 0 1-10.752-3.0208l-1.3312-0.4096-2.56-0.8192-1.6384-0.512-2.3552-0.768-2.2016-0.768-0.768-0.256-1.4336-0.512-1.536-0.5632-1.9456-0.7168-4.5056-1.792-1.3824-0.5632-0.1536-0.0512-1.1264-0.512-0.512-0.256-0.512-0.256-0.5632-0.256-2.5088-1.1776c-0.3072-0.1024-0.6144-0.3072-0.8704-0.4608l-0.9216-0.4096a128.3584 128.3584 0 0 1-6.144-3.4304 46.08 46.08 0 0 1-3.2768-2.2016L302.08 440.832a52.2752 52.2752 0 0 1-2.7136-2.1504l-0.3072-0.256a1.4336 1.4336 0 0 1-0.4096-0.4608l-0.3584-0.3584a3.072 3.072 0 0 0-0.512-0.512L297.472 436.736l-0.512-0.5632a3.3792 3.3792 0 0 1-0.5632-0.9216V350.0032h-0.0512z m6.656-49.7664c7.68-5.4784 23.808-13.6704 56.7296-21.4016 41.6768-9.7792 95.744-15.1552 152.32-15.1552s110.6432 5.376 152.32 15.1552c32.8704 7.7312 49.0496 15.9232 56.7808 21.4016a28.8768 28.8768 0 0 1 5.7856 5.0176c-3.2256 3.84-16.384 15.5648-62.5664 26.4704-41.6768 9.7792-95.744 15.1552-152.32 15.1552s-110.6432-5.376-152.32-15.1552c-46.2336-10.8544-59.392-22.6304-62.5664-26.4704a28.6208 28.6208 0 0 1 5.7856-5.0176z m-4.864 135.2192c0.512 1.28 1.024 2.8672 1.024 5.12h-1.024v-5.12z m429.5168 282.624c-1.4336 2.2528-12.0832 15.3088-63.1808 27.2384-41.6768 9.728-95.7952 15.104-152.3712 15.104s-110.6432-5.376-152.32-15.104c-51.2-11.8784-61.7984-24.9856-63.3344-27.2384v-95.6928c1.2288 0.6656 2.4576 1.2288 3.7376 1.8432a7.168 7.168 0 0 0 1.024 0.512l1.28 0.512 1.3824 0.6656 1.1776 0.512a10.496 10.496 0 0 0 1.28 0.512l6.7584 2.7648 1.3312 0.512 6.5536 2.3552 1.8944 0.6144 1.8432 0.6656 8.192 2.5088 3.2768 0.9216 1.6896 0.512 1.6896 0.4096 3.4304 0.8704c45.3632 11.776 105.472 18.2784 169.0624 18.2784 63.6416 0 123.6992-6.5024 169.0624-18.2784l3.4304-0.8704 1.6896-0.4608 1.6896-0.4608a237.056 237.056 0 0 0 13.312-4.096l1.8944-0.6144c2.2016-0.768 4.4544-1.536 6.5536-2.3552l1.3312-0.512c2.3552-0.9216 4.608-1.792 6.7584-2.7648 0.4096-0.2048 0.8192-0.4096 1.2288-0.512l1.2288-0.512a13.4144 13.4144 0 0 0 1.3824-0.6656l1.28-0.512 1.024-0.512c1.28-0.512 2.56-1.1776 3.7376-1.8432v95.6928z" fill="#FFFFFF" ></path></svg>