<svg xmlns="http://www.w3.org/2000/svg" viewBox="0 0 1024 1024"><path d="M85.738667 0h644.138666c10.794667 0 21.589333 4.266667 29.141334 11.221333l208.213333 190.890667c8.661333 8.021333 14.037333 19.2 14.037333 31.488V981.333333c0 23.466667-19.413333 42.666667-43.178666 42.666667H85.738667C62.016 1024 42.602667 1004.8 42.602667 981.333333V42.666667c0-23.466667 19.413333-42.666667 43.136-42.666667z" fill="#8B5CF6" ></path><path d="M639.936 298.666667a128 128 0 0 1 128 128v256a128 128 0 0 1-128 128H383.936a128 128 0 0 1-128-128v-97.536L282.986667 554.666667l85.632 96.512a15.061333 15.061333 0 0 0 12.202666 5.845333 17.834667 17.834667 0 0 0 12.245334-5.845333l99.584-112.298667v21.717333c0 11.818667 6.954667 19.712 17.450666 19.712 10.496 0 17.493333-9.898667 17.493334-19.712v-70.912c0-11.776-6.997333-19.669333-17.493334-19.669333H447.210667c-10.453333 0-17.493333 7.893333-17.493334 19.669333 0 11.818667 7.04 19.669333 17.493334 19.669334h22.698666l-89.088 100.437333L295.189333 513.28a15.616 15.616 0 0 0-24.448 0L255.936 530.005333V426.666667a128 128 0 0 1 128-128h256z" fill="#FFFFFF" ></path></svg>