<svg xmlns="http://www.w3.org/2000/svg" viewBox="0 0 1024 1024"><path d="M584.96 0c37.5808 11.6224 75.6224 22.016 112.64 35.1232 106.1376 37.7856 184.9856 110.4384 245.9136 202.3936 59.4432 89.7536 85.9136 190.7712 79.5648 297.984-7.0144 119.296-49.8688 225.792-129.9456 315.8016-67.8912 76.3904-152.2176 125.6448-250.368 153.4976-107.52 30.5152-212.736 23.9104-315.8528-15.9744-130.304-50.3808-223.5392-142.0288-282.7776-267.264-19.4048-40.96-29.696-86.272-44.1344-129.5872V424.8064c11.1616-11.7248 10.5472-27.136 14.3872-41.472 25.4976-95.0272 72.704-178.944 144.896-245.248C234.496 69.12 322.2016 20.8384 425.728 7.168 429.568 6.656 431.2064 3.6352 431.7696 0h153.1904z m280.7296 653.1584c-15.616-8.5504-29.1328-14.7968-33.28-37.888-5.888-32.5632-42.7008-50.3808-77.056-44.1856-8.0896 1.536-19.6608 5.2736-22.3232 11.264-5.7856 13.056 11.1104 13.5168 16.384 15.616 33.28 13.1584 34.816 39.5264 28.8768 67.2256-5.3248 24.576-43.52 40.2944-69.12 31.3856-26.9824-9.3696-41.9328-43.2128-29.0304-70.3488 18.5344-39.1168 39.7312-77.312 43.9808-121.344 12.2368-128-71.5776-248.1152-196.7616-280.1152-101.632-25.9584-187.9552 6.7584-255.1808 79.6672-82.944 90.0096-85.8624 210.3296-32.1024 312.2176 68.864 130.5088 180.2752 197.5808 333.1072 184.576 71.68-6.144 134.7584-31.744 185.6-81.6128 23.7568-23.296 50.5856-28.2624 77.312-22.1696 23.1424 5.2736 28.16 31.5904 29.3376 55.4496 44.2368-27.8528 43.2128-76.1856 0.256-99.7376z" fill="#A2324B" ></path></svg>