<svg xmlns="http://www.w3.org/2000/svg" viewBox="0 0 1024 1024"><path d="M958.464 673.792h-81.92V573.44c0-50.688-38.912-92.16-86.528-92.16h-240.64V351.744h77.312c28.16 0 51.2-23.04 51.2-51.2v-235.52c0-28.16-23.04-51.2-51.2-51.2h-235.52c-28.16 0-51.2 23.04-51.2 51.2v235.52c0 28.16 23.04 51.2 51.2 51.2h76.288V481.28H233.984c-47.616 0-86.528 41.472-86.528 92.16v100.352h-81.92c-28.16 0-51.2 23.04-51.2 51.2v235.52c0 28.16 23.04 51.2 51.2 51.2h235.52c28.16 0 51.2-23.04 51.2-51.2v-235.52c0-28.16-23.04-51.2-51.2-51.2h-71.68V573.44c0-6.656 4.096-10.24 4.608-10.24h556.032c1.024 0 4.608 3.584 4.608 10.24v100.352h-71.68c-28.16 0-51.2 23.04-51.2 51.2v235.52c0 28.16 23.04 51.2 51.2 51.2h235.52c28.16 0 51.2-23.04 51.2-51.2v-235.52c0-28.16-23.04-51.2-51.2-51.2z"  ></path></svg>