<svg xmlns="http://www.w3.org/2000/svg" viewBox="0 0 1024 1024"><path d="M42.66666667 76.8h443.73333333c11.09333333 0 22.18666667 5.97333333 28.16 15.36l117.76 234.66666667H8.53333333V110.93333333c0-18.77333333 15.36-34.13333333 34.13333334-34.13333333z" fill="#89CBFF" ></path><path d="M979.62666667 906.24H42.66666667c-18.77333333 0-34.13333333-15.36-34.13333334-34.13333333v-648.53333334c0-23.04 17.92-40.96 40.96-40.96h930.13333334c18.77333333 0 34.13333333 15.36 34.13333333 34.13333334v655.36c0 18.77333333-15.36 34.13333333-34.13333333 34.13333333z" fill="#DCEEFE" ></path><path d="M979.62666667 948.90666667H42.66666667c-18.77333333 0-34.13333333-15.36-34.13333334-34.13333334V296.96c0-18.77333333 15.36-34.13333333 34.13333334-34.13333333h936.96c18.77333333 0 34.13333333 15.36 34.13333333 34.13333333v617.81333333c0 18.77333333-15.36 34.13333333-34.13333333 34.13333334z" fill="#89CBFF" ></path></svg>