<svg xmlns="http://www.w3.org/2000/svg" viewBox="0 0 1024 1024"><path d="M882.45801718 85.57909333C935.27517867 85.57909333 978.03377778 126.47355733 978.03377778 176.92171378V938.42090667c0 50.48699259-42.83627141 91.38145659-95.5757606 91.38145658H141.50314667C88.72482133 1029.80236325 45.96622222 988.90789925 45.96622222 938.42090667V176.96054992c0-50.4093203 42.83627141-91.34262045 95.5757606-91.34262044h106.7994074v60.817408c0 91.226112 75.96350578 163.88854518 168.08284919 163.88854519h191.15152118c92.1970157 0 168.08284918-72.66243318 168.08284919-163.88854519V85.57909333h106.7994074z" fill="#1FB2FF" ></path><path d="M607.57576059-5.80236325c52.81716148 0 95.61459675 40.894464 95.61459674 91.38145658v60.85624415c0 50.48699259-42.79743525 91.38145659-95.61459674 91.3814566H416.46307555c-52.81716148 0-95.61459675-40.894464-95.61459673-91.3814566V85.57909333c0-50.48699259 42.79743525-91.38145659 95.61459673-91.38145658h191.1515212z" fill="#1FB2FF" ></path><path d="M575.69128297 664.27653689h-286.72728179v-91.38145659h286.84379023v91.38145659h-0.11650844z m159.383552-182.80174934H288.92516503v-91.26494814h446.14966994v91.38145659-0.11650845z" fill="#FFFFFF" ></path></svg>