<svg xmlns="http://www.w3.org/2000/svg" viewBox="0 0 1024 1024"><path d="M102.4 0h819.2c68.2496 0 102.4 34.1504 102.4 102.4v819.2c0 68.2496-34.1504 102.4-102.4 102.4H102.4c-68.2496 0-102.4-34.1504-102.4-102.4V102.4C0 34.1504 34.1504 0 102.4 0z" fill="#FFBA30" ></path><path d="M413.5424 452.7616c0-13.7216 0-20.5824 2.6624-25.856a24.5248 24.5248 0 0 1 10.752-10.752c5.1712-2.6112 12.0832-2.6112 25.8048-2.6112h117.76c13.7216 0 20.5824 0 25.8048 2.6624 4.608 2.3552 8.3968 6.0928 10.752 10.752 2.6624 5.1712 2.6624 12.0832 2.6624 25.8048v117.76c0 13.7216 0 20.5824-2.6624 25.8048a24.5248 24.5248 0 0 1-10.752 10.752c-5.2224 2.6624-12.0832 2.6624-25.856 2.6624H452.7616c-13.7216 0-20.5824 0-25.856-2.6624a24.5248 24.5248 0 0 1-10.752-10.752c-2.6112-5.2224-2.6112-12.0832-2.6112-25.856V452.7616z" fill="#FFFFFF" ></path><path d="M451.9936 388.9664h119.296c6.144 0 12.2368 0 17.3056 0.4608a49.152 49.152 0 0 1 18.8928 4.9152c9.216 4.7104 16.7424 12.1856 21.4528 21.4528 3.3792 6.656 4.4544 13.312 4.9152 18.8416 0.4096 5.12 0.4096 11.1616 0.4096 17.3568v119.296c0 6.144 0 12.2368-0.4096 17.3056a49.152 49.152 0 0 1-4.9152 18.8928 49.0496 49.0496 0 0 1-21.504 21.4528 49.152 49.152 0 0 1-18.8416 4.9152c-5.12 0.4096-11.1616 0.4096-17.3568 0.4096H451.9936c-6.144 0-12.288 0-17.3568-0.4096a49.5616 49.5616 0 0 1-18.8416-4.9152 49.0496 49.0496 0 0 1-21.504-21.504 49.6128 49.6128 0 0 1-4.864-18.8416c-0.4608-5.12-0.4608-11.1616-0.4608-17.3568V451.9936c0-6.144 0-12.2368 0.4608-17.3568a49.3568 49.3568 0 0 1 4.9152-18.8416 49.0496 49.0496 0 0 1 21.4528-21.504 49.3568 49.3568 0 0 1 18.8416-4.864c5.12-0.4608 11.1616-0.4608 17.3568-0.4608z m-13.6704 49.408v0.3072a200.6016 200.6016 0 0 0-0.256 14.08v117.76c-0.1024 4.7616 0 9.5744 0.3072 14.336l0.3072 0.1024c2.816 0.2048 6.8096 0.256 14.08 0.256h117.76c7.2192 0 11.264 0 14.08-0.256h0.3072l0.0512-0.3584c0.2048-2.8672 0.256-6.8608 0.256-14.1312V452.7616c0-7.2704 0-11.264-0.256-14.08v-0.3072l-0.3584-0.1024a200.6528 200.6528 0 0 0-14.1312-0.2048H452.7616c-4.8128-0.1024-9.6256 0-14.3872 0.3072H438.272z" fill="#FFFFFF" ></path><path d="M419.6352 695.6032v30.6176c0 33.8944 27.4432 61.3376 61.3376 61.3376h245.248c33.8944 0 61.3376-27.4432 61.3376-61.3376v-245.248c0-33.8944-27.4432-61.3376-61.3376-61.3376h-30.6176v181.4528c0 9.2672 0 18.3296-0.6144 26.0096-0.6144 9.8304-3.072 19.456-7.424 28.3136-7.0656 13.824-18.3296 25.088-32.1536 32.1536-9.984 5.0688-19.968 6.7072-28.3136 7.424-7.68 0.6144-16.7424 0.6144-26.0096 0.6144H419.6352z" fill="#FFFFFF" ></path><path d="M664.9344 388.9664h61.2864c50.7904 0 92.0064 41.216 92.0064 92.0064v245.248c0 50.7904-41.216 92.0064-92.0064 92.0064h-245.248a91.9552 91.9552 0 0 1-92.0064-92.0064v-61.2864h212.1216c9.6768 0 17.3568 0 23.5008-0.512a44.1344 44.1344 0 0 0 16.896-4.1984 42.9056 42.9056 0 0 0 18.7392-18.7392 44.1344 44.1344 0 0 0 4.1984-16.896c0.512-6.144 0.512-13.824 0.512-23.5008V388.9664z m61.2864 61.3376v151.5008c0 8.7552 0 18.8416-0.7168 27.7504-0.8704 13.824-4.5056 27.3408-10.6496 39.7824a104.2432 104.2432 0 0 1-45.568 45.568 104.448 104.448 0 0 1-39.7312 10.5984c-8.8576 0.7168-18.9952 0.7168-27.7504 0.7168H450.304c0 16.9472 13.7216 30.72 30.6688 30.72h245.248c16.9472 0 30.72-13.7728 30.72-30.72v-245.248a30.6688 30.6688 0 0 0-30.72-30.6688zM297.0112 235.6736c-33.8432 0-61.3376 27.4944-61.3376 61.3376v245.248c0 33.8944 27.4944 61.3376 61.3376 61.3376H327.68V422.144c0-9.2672 0-18.3296 0.6144-25.9584 0.7168-8.3968 2.304-18.3296 7.424-28.3648 7.0656-13.824 18.2784-25.088 32.1024-32.1024 10.0352-5.12 19.968-6.7584 28.3648-7.424 7.68-0.6144 16.6912-0.6144 25.9584-0.6144h181.4528V296.96c0-33.8432-27.4432-61.3376-61.2864-61.3376h-245.248z" fill="#FFFFFF" ></path><path d="M297.0112 266.3424a30.6688 30.6688 0 0 0-30.6688 30.72v245.248c0 16.896 13.7216 30.6176 30.72 30.6176V421.4784c0-8.8064 0-18.8928 0.6656-27.8016 0.9216-13.824 4.5056-27.3408 10.6496-39.7824 9.984-19.5584 25.9584-35.5328 45.568-45.5168a104.448 104.448 0 0 1 39.7312-10.6496c8.9088-0.7168 18.9952-0.7168 27.8016-0.7168h151.4496a30.6688 30.6688 0 0 0-30.6176-30.6688h-245.248z m-91.9552 30.72c0-50.8416 41.1648-92.0064 91.9552-92.0064h245.248c50.8416 0 92.0064 41.1648 92.0064 91.9552V358.4H422.144c-9.6256 0-17.3568 0-23.4496 0.512a44.1344 44.1344 0 0 0-16.896 4.1472 42.9056 42.9056 0 0 0-18.7904 18.7392 44.1344 44.1344 0 0 0-4.1472 16.896c-0.512 6.144-0.512 13.824-0.512 23.552v212.0704H296.96a91.9552 91.9552 0 0 1-91.9552-91.9552v-245.248z" fill="#FFFFFF" ></path></svg>