<svg xmlns="http://www.w3.org/2000/svg" viewBox="0 0 1024 1024"><path d="M269.681179 1023.999269a112.63992 112.63992 0 0 1-69.778236-23.917698 125.147339 125.147339 0 0 1-47.323395-121.051342l29.403408-179.492443a71.826234 71.826234 0 0 0-19.748557-62.537098L36.06306 509.366493A126.829624 126.829624 0 0 1 6.001367 382.317441c14.043419-45.202253 51.199963-77.750802 96.548503-84.406797l173.42159-25.965695a67.657095 67.657095 0 0 0 51.199964-38.546259L404.629654 69.851379C425.109639 26.623981 466.06961 0 512.149577 0s87.039938 26.623981 106.788495 69.119951l78.116516 163.620454c10.239993 20.626271 29.403408 35.254832 51.199963 38.546258l173.348448 25.965696c45.421682 6.582852 82.578227 39.204543 96.621645 84.406797a126.829624 126.829624 0 0 1-29.98855 127.049052L862.723041 635.610975a72.411377 72.411377 0 0 0-19.8217 62.463955L872.377891 877.713659a124.63534 124.63534 0 0 1-47.396537 121.051342 114.834204 114.834204 0 0 1-125.366768 9.289136l-155.501603-83.090226a66.852524 66.852524 0 0 0-63.341669 0l-155.428461 85.065082c-17.919987 9.289136-37.156545 13.970276-55.661674 13.970276z" fill="#F2CB51" ></path></svg>