<svg width="24" height="24" viewBox="0 0 24 24" fill="none" xmlns="http://www.w3.org/2000/svg">
<path d="M16.6222 15.9062H19.2982C17.6338 18.233 16.033 20.4698 14.4322 22.7066C14.3938 22.6934 14.3554 22.679 14.317 22.6658C14.6662 21.197 15.0154 19.727 15.379 18.1958H13.2874C13.525 17.111 13.7482 16.0922 13.9918 14.9786C13.3966 15.1574 12.8782 15.2618 12.4042 15.4682C11.3794 15.9146 10.4566 15.7238 9.62501 15.0638C9.07421 14.627 8.53661 14.1506 8.08781 13.613C7.61981 13.0514 7.76621 12.731 8.47901 12.611C9.98621 12.3566 11.4982 12.1334 13.0126 11.8526C12.6958 11.8526 12.379 11.855 12.0622 11.8526C10.759 11.8394 9.45581 11.819 8.15141 11.8142C7.35101 11.8118 6.78821 11.3966 6.30461 10.817C5.68061 10.0682 5.26901 9.21379 5.03621 8.27299C4.88861 7.67659 5.05181 7.51219 5.66741 7.65499C7.22501 8.01739 8.77781 8.39179 10.3354 8.75659C11.131 8.94259 11.929 9.11539 12.7486 9.21859C11.8042 8.90659 10.8502 8.62099 9.91781 8.27539C8.49701 7.74859 7.09301 7.17499 5.67701 6.63379C5.24741 6.46939 4.96301 6.18379 4.78301 5.77099C4.22981 4.50859 3.81701 3.21139 3.80621 1.81819C3.80261 1.31059 3.97181 1.18579 4.40861 1.39699C8.85341 3.54499 13.4398 5.35459 18.0442 7.12219C18.4858 7.29139 18.9058 7.54099 19.303 7.80379C20.0674 8.31259 20.317 8.95459 19.921 9.75979C19.1074 11.4134 18.2134 13.0286 17.3458 14.6558C17.131 15.0578 16.8898 15.4454 16.6222 15.9062Z" fill="#2595E8"/>
<path d="M17.8969 7.06432C13.3417 5.31592 8.80687 3.52072 4.41007 1.39552C3.97447 1.18432 3.80407 1.30912 3.80767 1.81672C3.81847 3.20992 4.23127 4.50712 4.78447 5.76952C4.96567 6.18232 5.24887 6.46792 5.67847 6.63232C7.09447 7.17352 8.49847 7.74712 9.91927 8.27392C10.8517 8.61952 11.8057 8.90512 12.7501 9.21712C11.9305 9.11392 11.1325 8.94112 10.3369 8.75512C8.78047 8.39152 7.22647 8.01592 5.66887 7.65352C5.05327 7.51072 4.89007 7.67512 5.03767 8.27152C5.27047 9.21352 5.68207 10.0667 6.30607 10.8155C6.78847 11.3951 7.35247 11.8091 8.15287 11.8127C9.45607 11.8175 10.7593 11.8391 12.0637 11.8511C12.3805 11.8547 12.6973 11.8511 13.0141 11.8511C11.4997 12.1319 9.98767 12.3563 8.48047 12.6095C7.76767 12.7295 7.62247 13.0499 8.08927 13.6115C8.53687 14.1491 9.07567 14.6255 9.62647 15.0623C10.4581 15.7223 11.3797 15.9131 12.4057 15.4667C12.8797 15.2603 13.3993 15.1571 13.9933 14.9771C13.8721 15.5303 13.7557 16.0607 13.6405 16.5875C16.2037 14.2055 17.8273 10.8263 17.8969 7.06432Z" fill="#3A9CED"/>
<path d="M5.67821 6.63135C7.09421 7.17255 8.49821 7.74615 9.91901 8.27295C10.6954 8.56095 11.4874 8.80815 12.2758 9.06255C12.9538 7.96095 13.477 6.75495 13.813 5.47215C10.6378 4.20975 7.48901 2.88495 4.40861 1.39455C3.97301 1.18335 3.80261 1.30815 3.80621 1.81575C3.81701 3.20895 4.22981 4.50615 4.78301 5.76855C4.96541 6.18134 5.24981 6.46815 5.67821 6.63135ZM10.3366 8.75415C8.78021 8.39055 7.22621 8.01495 5.66861 7.65255C5.05301 7.50975 4.88981 7.67415 5.03741 8.27055C5.27021 9.21254 5.68181 10.0657 6.30581 10.8145C6.78821 11.3941 7.35221 11.8081 8.15261 11.8117C8.77181 11.8141 9.39221 11.8201 10.0114 11.8273C10.861 11.0329 11.6074 10.1305 12.2266 9.13935C11.5894 9.03735 10.9618 8.90055 10.3366 8.75415ZM8.47901 12.6109C7.85501 12.7165 7.66661 12.9745 7.94261 13.4149C8.39981 13.1305 8.83781 12.8185 9.25661 12.4825C8.99741 12.5245 8.73821 12.5665 8.47901 12.6109Z" fill="#59ADF8"/>
<path d="M5.67821 6.63135C6.02741 6.76455 6.37661 6.90015 6.72461 7.03694C7.76501 6.05174 8.64701 4.90215 9.32741 3.62655C7.67261 2.91735 6.03101 2.17935 4.40861 1.39455C3.97301 1.18335 3.80261 1.30815 3.80621 1.81575C3.81701 3.20895 4.22981 4.50615 4.78301 5.76855C4.96541 6.18134 5.24981 6.46815 5.67821 6.63135ZM5.66861 7.65374C5.05301 7.51094 4.88981 7.67535 5.03741 8.27175C5.04581 8.30774 5.05781 8.34255 5.06741 8.37854C5.37101 8.17095 5.66501 7.95134 5.95061 7.71975C5.85581 7.69815 5.76221 7.67534 5.66861 7.65374Z" fill="#6BC2FC"/>
</svg>
