<svg width="24" height="20" viewBox="0 0 24 20" fill="none" xmlns="http://www.w3.org/2000/svg">
<path d="M3.22266 0H14.6862C14.6862 0 17.9091 2.97085 17.9091 7.05434L12.5363 10.7657C12.5363 10.7657 9.67187 4.08361 3.22266 0Z" fill="#00DAB8"/>
<path d="M24.0002 6.31219C24.0002 6.31219 20.059 4.82587 17.5527 5.94019C15.0447 7.05452 13.9698 8.53904 12.895 9.65336C11.4637 11.1379 8.95572 13.7366 6.80578 12.2522C4.65608 10.7659 15.403 17.4499 15.403 17.4499C15.403 17.4499 19.8842 14.9317 21.4922 10.7659C22.9254 7.05452 24.0002 6.31219 24.0002 6.31219Z" fill="#0C3AA0"/>
<path d="M0 5.56982V16.7059C0 16.7059 3.94803 21.5625 13.2533 18.9345C17.1945 17.8202 20.419 12.6225 20.419 12.6225C20.419 12.6225 15.7597 20.419 0 5.57162V5.56982Z" fill="#296DFF"/>
</svg>
