<?xml version="1.0" standalone="no"?><!DOCTYPE svg PUBLIC "-//W3C//DTD SVG 1.1//EN" "http://www.w3.org/Graphics/SVG/1.1/DTD/svg11.dtd"><svg t="1775122445923" class="icon" viewBox="0 0 1024 1024" version="1.1" xmlns="http://www.w3.org/2000/svg" p-id="14192" xmlns:xlink="http://www.w3.org/1999/xlink" width="16" height="16" fill="currentColor"><path d="M977.49504 277.30432c-0.75776-30.42304-12.59008-59.32032-32.45568-79.19104l-117.93408-118.00064c-19.36896-19.3536-45.9776-30.17728-74.92096-30.17728-30.43328 0-59.83232 11.68896-80.71168 32.55296L440.53504 312.92928c-136.0896-39.39328-284.34944-2.24256-385.72544 99.1744a28.3904 28.3904 0 0 0 0.256 40.48896c67.584 65.82272 152.59136 150.55872 235.52 233.78432L65.75616 908.032a28.45184 28.45184 0 0 0 39.94624 40.50432l225.024-221.85472a113095.68 113095.68 0 0 1 121.984 122.8544c46.66368 47.07328 86.92736 87.63904 115.48672 116.19328a28.47744 28.47744 0 0 0 40.22272 0c99.39456-99.3536 137.31328-241.0496 102.15424-375.43424L947.2 357.87264c20.00896-20.00896 31.06304-49.39264 30.29504-80.56832z m-389.9904 627.23072c-31.50336-31.6672-62.976-63.36512-94.42304-95.09376-112.46592-113.36192-263.936-266.06592-376.832-376.6016a335.04768 335.04768 0 0 1 309.91872-64.88064l225.664 224.13824c33.08032 109.4144 8.86272 225.92-64.32768 312.43776zM906.96704 317.696l-226.71872 226.688-189.952-190.464a28.40576 28.40576 0 0 0-0.22528-8.99072l221.63968-221.63456c10.29632-10.27072 25.04192-16.17408 40.48896-16.17408 13.7216 0 26.05568 4.75136 34.67264 13.36832l117.92896 117.93408c9.51808 9.51296 15.43168 24.58624 15.80544 40.32 0.384 15.68256-4.5824 29.89568-13.63968 38.95296z" p-id="14193"></path></svg>
