<?xml version="1.0" standalone="no"?><!DOCTYPE svg PUBLIC "-//W3C//DTD SVG 1.1//EN" "http://www.w3.org/Graphics/SVG/1.1/DTD/svg11.dtd"><svg t="1761890969629" class="icon" viewBox="0 0 1024 1024" version="1.1" xmlns="http://www.w3.org/2000/svg" p-id="8361" xmlns:xlink="http://www.w3.org/1999/xlink" width="200" height="200"><path d="M869.952 62.08H153.792A104.704 104.704 0 0 0 49.152 166.912v512a104.96 104.96 0 0 0 104.96 104.96h323.072v108.224H234.112a34.88 34.88 0 1 0 0 69.76h557.184a34.88 34.88 0 0 0 0-69.76H546.88v-107.968h323.072a104.96 104.96 0 0 0 104.96-104.96v-512a104.96 104.96 0 0 0-104.96-104.96z m35.136 616.96a35.136 35.136 0 0 1-35.2 35.2H154.112a35.136 35.136 0 0 1-35.136-35.2v-512a34.88 34.88 0 0 1 34.944-34.88h716.096a34.88 34.88 0 0 1 35.136 34.944v512z" p-id="8362"></path><path d="M546.88 434.752V268.096a34.88 34.88 0 0 0-69.76 0v166.4a62.848 62.848 0 0 0 0 104.704v48.64a34.88 34.88 0 0 0 69.76 0v-49.088a62.08 62.08 0 0 0 27.712-51.84 62.848 62.848 0 0 0-27.712-52.16zM327.936 316.736v-48.64a34.88 34.88 0 0 0-69.824 0v49.088a62.592 62.592 0 0 0 0 104.064v166.592a34.88 34.88 0 0 0 69.76 0V421.76a63.104 63.104 0 0 0 0-104.96z m444.288 0v-48.64a34.88 34.88 0 0 0-69.824 0v49.088a62.592 62.592 0 0 0 0 104.064v166.592a34.88 34.88 0 1 0 69.76 0V421.76a63.04 63.04 0 0 0 0-104.96z" p-id="8363"></path></svg>