<?xml version="1.0" standalone="no"?><!DOCTYPE svg PUBLIC "-//W3C//DTD SVG 1.1//EN" "http://www.w3.org/Graphics/SVG/1.1/DTD/svg11.dtd"><svg t="1761890999205" class="icon" viewBox="0 0 1024 1024" version="1.1" xmlns="http://www.w3.org/2000/svg" p-id="8507" xmlns:xlink="http://www.w3.org/1999/xlink" width="200" height="200"><path d="M1007.165493 731.264915H595.134781a17.087947 17.087947 0 0 1-16.895948-16.767948v-39.551876a17.023947 17.023947 0 0 1 17.023947-16.639948h411.838713c9.343971 0 16.895947 7.423977 17.023947 16.639948v39.615876a16.831947 16.831947 0 0 1-16.959947 16.639948z m0 146.303543H595.134781a17.087947 17.087947 0 0 1-16.895948-16.703948v-39.679876a17.023947 17.023947 0 0 1 17.023947-16.639948h411.838713c9.343971 0 16.895947 7.423977 17.023947 16.767947v39.423877a17.023947 17.023947 0 0 1-16.959947 16.831948z m0 146.303542H595.134781a17.087947 17.087947 0 0 1-16.895948-16.703947v-39.679876a17.023947 17.023947 0 0 1 17.023947-16.639948h411.838713c9.343971 0 16.895947 7.423977 17.023947 16.767947v39.423877a17.023947 17.023947 0 0 1-16.959947 16.831947zM503.807066 651.649164v74.239768c-119.999625 0-217.72732-96.0637-217.72732-214.207331 0-118.079631 97.727695-214.207331 217.79132-214.207331 119.935625 0 217.66332 96.1277 217.66332 214.271331 0 25.087922-4.351986 49.791844-13.119959 73.215771H624.766688a136.319574 136.319574 0 0 0 21.183934-73.151771c0-77.119759-63.8718-139.775563-142.271556-139.775564-78.271755 0-142.143556 62.719804-142.143555 139.775564 0.191999 77.119759 63.9998 139.903563 142.335555 139.903562h-0.128z m-17.919944 297.59907c4.735985 0 9.343971 1.919994 12.79996 5.119984 3.19999 3.26399 5.247984 7.999975 5.247984 12.60796v39.039878a17.919944 17.919944 0 0 1-17.919944 17.663945H415.103343a63.167803 63.167803 0 0 1-63.679801-59.647814l-10.367967-75.135765a420.862685 420.862685 0 0 1-87.551727-49.535845l-71.039778 28.543911a64.511798 64.511798 0 0 1-84.543736-24.319924L8.768613 692.161037a62.079806 62.079806 0 0 1 20.671935-84.287737l60.99181-46.399855a373.054834 373.054834 0 0 1 0-99.391689l-60.79981-46.335855a62.079806 62.079806 0 0 1-20.863935-83.839738l89.023722-151.679526c17.279946-29.055909 54.143831-39.743876 84.351736-24.511924l71.231778 28.543911c26.943916-20.031937 56.319824-36.671885 87.423726-49.471845L351.231543 59.779013A63.103803 63.103803 0 0 1 414.847344 0.0032h177.855444c34.111893 0 62.143806 26.239918 63.551802 59.711813l10.431967 75.135766c31.167903 12.92796 60.67181 29.503908 87.679726 49.471845l71.167778-28.351911a64.639798 64.639798 0 0 1 84.351736 24.319924l88.767723 151.487526A62.015806 62.015806 0 0 1 978.045584 416.0019l-60.79981 46.335855a384.510798 384.510798 0 0 1 0 99.39169l30.847904 23.423926h-111.103653l2.559992-14.079956a313.023022 313.023022 0 0 0 0-118.33563l-4.095987-22.015931 92.863709-70.591779-79.295752-135.487577-107.711663 45.375858-17.407946-14.847953a338.558942 338.558942 0 0 0-104.255674-58.879816l-21.375933-7.679976-15.99995-114.175644H425.215312L409.535361 188.80261l-21.375934 7.679976a342.654929 342.654929 0 0 0-104.319674 59.135815l-17.407945 14.591955-108.543661-43.775864L79.488392 360.002075l92.79971 70.591779-4.031987 22.143931a330.430967 330.430967 0 0 0-5.631983 59.071816c0 19.839938 1.919994 39.679876 5.439983 59.071815l3.903988 22.207931-92.67171 70.719779 79.679751 135.359577 107.391664-45.311859 17.663945 14.591955a338.302943 338.302943 0 0 0 104.191674 58.943815l21.375933 7.679976 15.871951 114.431643h60.543811v-0.128H485.887122l-0.064-0.064z" p-id="8508"></path></svg>