<?xml version="1.0" standalone="no"?><!DOCTYPE svg PUBLIC "-//W3C//DTD SVG 1.1//EN" "http://www.w3.org/Graphics/SVG/1.1/DTD/svg11.dtd"><svg t="1752201724126" class="icon" viewBox="0 0 1170 1024" version="1.1" xmlns="http://www.w3.org/2000/svg" p-id="2046" xmlns:xlink="http://www.w3.org/1999/xlink" width="228.515625" height="200"><path d="M540.23314299 44.98285701C540.23314299 20.11428601 560.27428601 0 585.14285699 0h540.08685703a44.98285699 44.98285699 0 1 1-3e-8 89.96571399H585.14285699a44.98285699 44.98285699 0 0 1-44.98285699-44.98285698z m0 300.03199998c0-24.86857101 20.11428601-44.98285699 44.98285701-44.98285699h540.08685699a44.98285699 44.98285699 0 1 1 0 89.96571399H585.14285699a44.98285699 44.98285699 0 0 1-44.98285699-44.98285698zM0.14628598 645.12c0-24.86857101 20.18742899-44.98285699 45.05600003-44.98285699h1080.10057098a44.98285699 44.98285699 0 1 1 0 89.96571398H45.20228601a44.98285699 44.98285699 0 0 1-45.056-44.98285699z m3e-8 300.032c0-24.86857101 20.18742899-44.98285699 45.056-44.98285699h1080.10057098a44.98285699 44.98285699 0 1 1 0 89.96571398H45.20228601a44.98285699 44.98285699 0 0 1-45.056-44.98285699zM195.29142901 0c17.04228601 0 32.62171399 9.65485701 40.22857099 24.86857101L385.46285699 324.90057101a44.98285699 44.98285699 0 1 1-80.45714297 40.22857198l-17.55428501-35.108572H103.05828598l-17.55428598 35.108572a44.98285699 44.98285699 0 1 1-80.60342901-40.228572L154.91657099 24.86857099a44.98285699 44.98285699 0 0 1 40.22857202-24.86857099z m-47.177143 240.05485699h94.354285l-47.177142-94.354286-47.177143 94.354286z" p-id="2047"></path></svg>