<?xml version="1.0" encoding="UTF-8"?>
<svg width="24px" height="18px" viewBox="0 0 24 18" version="1.1" xmlns="http://www.w3.org/2000/svg" xmlns:xlink="http://www.w3.org/1999/xlink">
    <title>形状结合</title>
    <g id="大模型接入-增加其它协议" stroke="none" stroke-width="1" fill="none" fill-rule="evenodd">
        <g id="OpenAI" transform="translate(-1134.000000, -825.000000)" fill="#020E36">
            <g id="编组" transform="translate(640.000000, 754.000000)">
                <g id="编组-10" transform="translate(16.000000, 58.000000)">
                    <g id="编组-5备份-8" transform="translate(468.000000, 0.000000)">
                        <path d="M26.9222816,13.32 C27.1533419,13.32 26.9222816,14.2790004 27.6852494,14.7569199 C28.4482173,15.2348394 29.0825865,15.0769407 29.6147287,16.526088 C30.0455622,16.1407962 30.4736948,15.9198399 30.8991264,15.8632192 C31.5372739,15.7782881 32.0542686,15.8398181 32.5087023,15.6842625 C32.963136,15.5287069 33.3420258,14.7569199 33.7426695,14.7569199 C34.1433132,14.7569199 34.1938334,16.6107066 33.0228672,18.0020163 C32.2422231,18.9295561 31.2913599,19.3482124 30.1702777,19.2579852 C29.9458215,21.7543794 29.5832578,23.4238582 29.0825865,24.2664216 C28.3315795,25.5302667 27.1469195,26.8708855 26.7887114,27.2835595 C27.1503656,27.51439 27.5941163,27.713315 28.1199634,27.8803344 C28.9087342,28.1308635 29.0825865,28.3886395 29.0825865,28.6692852 C29.0825865,28.949931 28.2707594,29.4345261 26.7887114,29.2954107 C25.8006793,29.2026671 25.1888058,29.0601726 24.9530907,28.8679274 C24.0317745,30.0760926 21.9560273,30.6801752 18.7258493,30.6801752 C13.8805822,30.6801752 9.66348374,25.5655301 10.0212227,20.7997857 C10.3789616,16.0340413 13.8523571,14.5748748 15.6813421,14.416983 C16.9006654,14.3117218 17.9844588,14.3743053 18.9327221,14.6047335 C19.5747045,14.2458655 20.2300778,14.0097551 20.8988421,13.8964024 C21.9019885,13.7263732 22.7998436,13.6986078 22.7998436,14.0022072 C22.7998436,14.3058065 21.8935721,14.5637423 21.9662223,15.2153039 C22.0388725,15.8668655 22.2080696,15.8437342 23.1330805,16.526088 C24.0580913,17.2084419 26.4475414,20.1145479 27.6852494,20.1145479 C27.8908965,19.7493314 27.9937201,19.3033366 27.9937201,18.7765636 C26.7024932,17.9409756 26.0568797,16.8326497 26.0568797,15.451586 C26.0568797,13.3799904 26.6912212,13.32 26.9222816,13.32 Z M12.8102521,19.5393204 C11.8080861,19.5393204 11.6232573,19.7262502 11.6232573,20.6035128 C11.6232573,23.4046046 13.9287665,27.0658944 16.6843614,28.1400338 C18.4662069,28.6247007 18.4662069,27.7167492 17.8877206,27.0469229 C17.59888,26.6203997 17.6309049,26.3645447 17.7526915,26.1209715 C18.0012489,25.8398291 18.4265017,25.9626799 18.9767474,26.274269 C19.5247871,26.5482889 20.4058605,27.208884 20.9843469,27.6655838 C22.0499797,28.4876433 22.3048556,28.7324061 23.9091048,28.801341 C25.3567939,28.801341 24.1831246,28.4968745 23.1479385,27.3703484 C22.4172189,26.5482889 21.1689062,24.9955097 20.3772933,23.8689836 C18.3069211,20.9461052 15.7026839,19.5393204 12.8102521,19.5393204 Z M23.0722522,20.227789 C22.5495278,20.2439759 21.9498249,21.0433231 23.1286444,21.0433231 C23.4905113,21.0433231 23.7448497,21.1577781 23.7448497,21.9748118 C23.7448497,22.3019683 23.6942089,22.7103599 24.084049,23.1081617 C24.3862221,23.4165061 24.748432,23.52107 25.1675218,23.52107 C25.4142196,23.52107 26.0131534,23.5110544 26.0131534,23.0607679 C26.0131534,22.6104813 24.8147687,20.7947744 24.084049,20.398968 C23.7795825,20.2162881 23.4436554,20.2162881 23.0722522,20.227789 Z M22.9468727,21.4385901 C22.7698817,21.4385901 22.6264021,21.5820697 22.6264021,21.7590608 C22.6264021,21.9360518 22.7698817,22.0795314 22.9468727,22.0795314 C23.1238638,22.0795314 23.2673434,21.9360518 23.2673434,21.7590608 C23.2673434,21.5820697 23.1238638,21.4385901 22.9468727,21.4385901 Z" id="形状结合"></path>
                    </g>
                </g>
            </g>
        </g>
    </g>
</svg>