<svg width="168" height="32" viewBox="0 0 168 32" fill="none" xmlns="http://www.w3.org/2000/svg">
<g clip-path="url(#clip0_1309_3485)">
<path d="M4.12543 5.72852C7.17457 6.90095 9.6396 9.22547 10.9877 12.1996C11.396 13.1492 11.7459 14.1229 12.0353 15.1152C12.2192 15.8624 12.3513 16.6214 12.4306 17.3868C12.4306 17.4421 12.2962 17.5685 12.2053 17.5843C11.9531 17.6306 11.6983 17.661 11.4423 17.6752L8.17324 17.8846C8.07441 17.3868 7.97956 16.9325 7.89655 16.4742C7.68607 15.374 7.28474 14.3191 6.71067 13.3572C5.82962 11.7939 4.45065 10.5701 2.79329 9.88062C2.74482 9.86597 2.70042 9.8403 2.66353 9.80564C2.62665 9.77097 2.59829 9.72825 2.58068 9.68081C2.56307 9.63336 2.55667 9.58249 2.56201 9.53217C2.56735 9.48184 2.58429 9.43344 2.61147 9.39075C3.0542 8.25692 3.49693 7.12308 3.94757 5.98926C3.99694 5.89598 4.05659 5.80853 4.12543 5.72852Z" fill="#0074FF"/>
<path d="M20.2536 32.1538C16.4548 27.413 17.1467 21.4318 19.0362 17.7656L22.827 19.5671C22.5621 20.4757 22.3013 21.3172 22.0681 22.1627C21.8226 23.0505 21.7448 23.9763 21.8388 24.8925C21.9416 26.233 22.3704 27.5282 23.0879 28.6654C23.2263 28.8748 23.3567 29.0921 23.4832 29.2935C23.6097 29.495 23.6018 29.5266 23.4397 29.653C22.4594 30.4432 21.491 31.2333 20.5185 31.9958C20.4347 32.0556 20.3461 32.1085 20.2536 32.1538Z" fill="#0074FF"/>
<path d="M13.8615 12.8116C13.5136 11.8081 13.1974 10.8876 12.8733 9.9711C12.7665 9.66295 12.644 9.35875 12.5254 9.05455C12.4503 8.86492 12.4701 8.7385 12.6875 8.65949C14.4221 8.03934 15.9533 6.95579 17.1147 5.52666C17.809 4.70424 18.3089 3.73606 18.5773 2.69406C18.6722 2.299 18.7592 1.90393 18.8383 1.50887C18.8818 1.29949 18.9845 1.22838 19.194 1.27579C19.3777 1.3179 19.5638 1.34825 19.7513 1.36666C20.7435 1.46937 21.7278 1.56023 22.724 1.66689C22.8686 1.69749 23.0102 1.74113 23.1469 1.79727C22.8735 4.39442 21.7766 6.8362 20.0162 8.76615C18.3408 10.614 16.2229 12.0061 13.8615 12.8116Z" fill="#0000FF"/>
<path d="M31.1361 13.1105L31.5314 14.0231C31.9267 14.9002 32.322 15.7812 32.6975 16.6542C32.8319 16.9584 32.7925 17.0493 32.4802 17.1836C31.3663 17.6071 30.2047 17.8924 29.0213 18.033C27.9845 18.1533 26.9358 18.1267 25.9064 17.954C23.8947 17.6481 21.9746 16.905 20.2814 15.7772C19.7951 15.4533 19.3287 15.0898 18.8543 14.7461C18.6408 14.596 18.6488 14.4577 18.8227 14.2641C19.6133 13.3673 20.3683 12.4587 21.1352 11.554C21.2893 11.3723 21.4079 11.2893 21.6451 11.4789C22.4158 12.1357 23.2909 12.6591 24.2343 13.0276C24.9314 13.2942 25.6493 13.5029 26.3807 13.6518C27.0751 13.7696 27.7803 13.8107 28.4837 13.7742C29.4009 13.7161 30.2997 13.4912 31.1361 13.1105Z" fill="#F7931E"/>
<path d="M2.07068 25.1182C3.14151 23.6466 4.52699 22.432 6.1264 21.5627C6.93391 21.1233 7.78767 20.7748 8.67207 20.5237C9.7899 20.1764 10.9525 19.9941 12.123 19.9824C12.9808 19.9824 13.8426 19.9824 14.7004 20.0259C15.0059 20.0621 15.3083 20.1202 15.6055 20.1997C15.5423 20.5948 15.4869 21.0214 15.4079 21.4323C15.3486 21.7602 15.2538 22.0802 15.1945 22.4081C15.0917 22.9849 15.0126 23.5696 14.898 24.1464C14.8703 24.197 14.8305 24.2401 14.7823 24.2718C14.734 24.3035 14.6787 24.3228 14.6212 24.3281C14.2259 24.3083 13.8307 24.2293 13.4354 24.2096C12.4965 24.1727 11.5565 24.251 10.6367 24.4427C9.46071 24.6512 8.34797 25.1255 7.38341 25.8293C6.78463 26.3288 6.21701 26.8645 5.68367 27.4333C5.51765 27.5953 5.41879 27.6506 5.19742 27.4807C4.22895 26.738 3.2447 26.0229 2.26437 25.2921C2.19681 25.2375 2.13216 25.1795 2.07068 25.1182Z" fill="#0000FF"/>
<path d="M5.33551 15.3026C5.46595 16.7762 4.05475 18.068 2.61984 18.0246C1.91597 17.9978 1.24984 17.6995 0.761346 17.1923C0.272856 16.6851 0 16.0085 0 15.3046C0 14.6006 0.272856 13.924 0.761346 13.4169C1.24984 12.9097 1.91597 12.6114 2.61984 12.5846C2.97887 12.577 3.33571 12.6422 3.66887 12.7761C4.00203 12.9101 4.30458 13.1101 4.55833 13.3641C4.81208 13.6181 5.01177 13.9207 5.14534 14.2539C5.2789 14.5871 5.34359 14.9438 5.33551 15.3026Z" fill="#0074FF"/>
<path d="M28.8553 23.9762C28.9699 25.3154 27.6259 26.71 26.1119 26.6705C25.4021 26.6473 24.7283 26.3521 24.2301 25.8462C23.732 25.3402 23.4476 24.6622 23.4358 23.9525C23.4379 23.2316 23.7256 22.5409 24.236 22.0315C24.7465 21.5221 25.4381 21.2355 26.1594 21.2345C26.5182 21.2317 26.8739 21.3011 27.2054 21.4385C27.5368 21.5759 27.8372 21.7785 28.0887 22.0343C28.3402 22.2901 28.5377 22.5938 28.6694 22.9274C28.8011 23.261 28.8643 23.6177 28.8553 23.9762Z" fill="#0074FF"/>
<path d="M11.49 31.6487C10.9565 31.6463 10.4357 31.4867 9.99255 31.1898C9.54944 30.893 9.20377 30.4721 8.99881 29.9799C8.79385 29.4877 8.73869 28.946 8.84025 28.4227C8.94181 27.8993 9.19559 27.4175 9.5698 27.0375C9.944 26.6576 10.422 26.3964 10.944 26.2866C11.466 26.1768 12.0088 26.2233 12.5045 26.4204C13.0002 26.6174 13.4267 26.9561 13.7307 27.3942C14.0347 27.8323 14.2026 28.3503 14.2135 28.8833C14.2203 29.2447 14.155 29.6038 14.0211 29.9396C13.8871 30.2753 13.6875 30.581 13.4338 30.8386C13.1801 31.0962 12.8774 31.3005 12.5436 31.4396C12.2098 31.5788 11.8516 31.6499 11.49 31.6487Z" fill="#0000FF"/>
<path d="M29.5316 9.48354C29.6265 10.9334 28.2826 12.2134 26.8318 12.2016C26.4668 12.2155 26.1026 12.1557 25.7612 12.0256C25.4198 11.8956 25.1082 11.6981 24.8449 11.4449C24.5817 11.1916 24.3724 10.888 24.2293 10.552C24.0863 10.216 24.0126 9.85461 24.0126 9.48947C24.0126 9.12434 24.0863 8.76295 24.2293 8.42696C24.3724 8.09097 24.5817 7.78728 24.8449 7.53407C25.1082 7.28085 25.4198 7.08332 25.7612 6.9533C26.1026 6.82328 26.4668 6.76344 26.8318 6.77737C27.1879 6.77419 27.541 6.84207 27.8706 6.97704C28.2001 7.11201 28.4994 7.31136 28.7508 7.56339C29.0022 7.81542 29.2009 8.11508 29.335 8.44479C29.469 8.77451 29.5359 9.12766 29.5316 9.48354Z" fill="#F7931E"/>
<path d="M16.2733 2.70547C16.3761 4.1909 15.0123 5.4314 13.6248 5.42745C13.2601 5.43574 12.8974 5.37049 12.5585 5.23561C12.2195 5.10073 11.9113 4.89899 11.6521 4.64242C11.3929 4.38585 11.188 4.07972 11.0498 3.74229C10.9116 3.40487 10.8429 3.04307 10.8476 2.6785C10.8524 2.31393 10.9307 1.95405 11.0777 1.62037C11.2247 1.28668 11.4374 0.986014 11.7033 0.736323C11.9691 0.486632 12.2826 0.293034 12.625 0.167084C12.9673 0.0411327 13.3315 -0.0145873 13.6959 0.00325005C14.3936 0.0279652 15.0538 0.324545 15.5355 0.829543C16.0171 1.33454 16.282 2.00786 16.2733 2.70547Z" fill="#0000FF"/>
<path d="M62.7959 8.3197C61.6654 7.17402 59.8905 7.50193 59.1355 9.31527L55.8229 17.2916L54.1468 8.86489C54.1185 8.62552 54.0178 8.40048 53.8582 8.21978C53.6986 8.03908 53.4876 7.91132 53.2535 7.85353C53.2339 7.84949 53.2138 7.84949 53.1942 7.85353H48.3637C48.3461 7.85335 48.3285 7.85676 48.3122 7.86355C48.2959 7.87034 48.2812 7.88038 48.2689 7.89304L44.4385 11.4486L45.1737 8.15774C45.2251 7.91675 45.1105 7.71921 44.9168 7.71921H42.1497C42.0373 7.735 41.9328 7.78591 41.8511 7.86469C41.7695 7.94346 41.7148 8.04605 41.6951 8.15774L38.3311 23.2333C38.2797 23.4743 38.3944 23.6718 38.5881 23.6718H41.3552C41.4676 23.656 41.572 23.6051 41.6537 23.5263C41.7353 23.4476 41.79 23.345 41.8097 23.2333L42.8454 18.5874L46.6758 23.3281C46.7615 23.4086 46.8745 23.4537 46.9921 23.4545H51.2375C51.3956 23.4545 51.4589 23.1977 51.3324 23.0792L45.565 15.9207C45.5242 15.8751 45.5016 15.816 45.5016 15.7548C45.5016 15.6935 45.5242 15.6345 45.565 15.5888L50.7157 10.6703L53.1626 21.7321C53.7397 24.3118 56.4475 24.695 57.4436 22.3325L60.3174 15.5098L62.9106 9.03476C62.9609 8.9169 62.9768 8.78723 62.9565 8.6607C62.9362 8.53418 62.8805 8.41596 62.7959 8.3197Z" fill="#4D4D4D"/>
<path d="M71.6385 8.01172H69.3576C69.1466 8.01115 68.9419 8.08365 68.7783 8.2169C68.6147 8.35014 68.5024 8.5359 68.4604 8.74259L66.7013 17.3865L63.7999 10.2241C63.781 10.176 63.748 10.1348 63.7054 10.1058C63.6627 10.0767 63.6123 10.0612 63.5607 10.0612C63.5091 10.0612 63.4586 10.0767 63.416 10.1058C63.3733 10.1348 63.3404 10.176 63.3216 10.2241L61.8589 13.8863C61.7087 14.2534 61.7087 14.6648 61.8589 15.032L64.9264 22.3446C65.9186 24.7149 68.6264 24.3396 69.2154 21.7638L72.1999 8.72678C72.2201 8.6418 72.2208 8.55336 72.2021 8.46804C72.1834 8.38272 72.1456 8.30272 72.0917 8.23399C72.0377 8.16527 71.969 8.10959 71.8906 8.07111C71.8121 8.03263 71.7259 8.01232 71.6385 8.01172Z" fill="#4D4D4D"/>
<path d="M78.1606 12.585C77.4197 12.5646 76.6828 12.6989 75.9967 12.9791C75.3107 13.2594 74.6906 13.6795 74.1761 14.2126C73.6517 14.7542 73.2415 15.3956 72.9699 16.0986C72.6983 16.8017 72.5707 17.5522 72.5949 18.3055C72.5721 19.0455 72.7004 19.7825 72.9723 20.4713C73.2442 21.1601 73.6538 21.7862 74.1761 22.3114C74.7209 22.8418 75.3682 23.2555 76.0785 23.5272C76.7888 23.799 77.547 23.923 78.3069 23.8916C79.2793 23.916 80.2445 23.7187 81.1293 23.3148C81.7606 23.002 82.3216 22.5638 82.7777 22.0269C82.827 21.9701 82.8623 21.9026 82.8811 21.8298C82.8998 21.757 82.9013 21.6809 82.8856 21.6073C82.8699 21.5338 82.8374 21.465 82.7906 21.4061C82.7437 21.3473 82.6838 21.3002 82.6156 21.2684L81.2875 20.6442C81.1723 20.5911 81.0444 20.5715 80.9186 20.5875C80.7928 20.6036 80.674 20.6548 80.5759 20.7351C79.9278 21.2558 79.1187 21.5351 78.2871 21.5252C77.5336 21.5562 76.7941 21.315 76.2039 20.8457C75.652 20.3842 75.2924 19.7333 75.1959 19.0205H83.3667C83.5044 19.0216 83.637 18.9682 83.7355 18.872C83.8339 18.7758 83.8903 18.6446 83.8924 18.5069C83.8924 16.7265 83.3653 15.2925 82.3112 14.2047C81.7695 13.662 81.1208 13.2378 80.4062 12.9589C79.6917 12.6801 78.927 12.5527 78.1606 12.585ZM75.3185 16.899C75.5307 16.3604 75.8713 15.8817 76.3107 15.5045C76.8821 15.0825 77.5767 14.8603 78.2871 14.8724C78.9422 14.8586 79.5842 15.0568 80.1174 15.4373C80.6257 15.7909 80.9991 16.3061 81.1768 16.899H75.3185Z" fill="#4D4D4D"/>
<path d="M96.115 12.8629H94.4152C94.2698 12.8639 94.1307 12.9221 94.0278 13.0248C93.925 13.1276 93.8668 13.2667 93.8657 13.412V14.052C93.4158 13.5858 92.8786 13.2126 92.2845 12.9537C91.7103 12.7072 91.0912 12.5821 90.4662 12.5863C89.7908 12.5778 89.1215 12.7145 88.5036 12.9871C87.8857 13.2598 87.3336 13.662 86.8849 14.1666C85.8798 15.2859 85.3509 16.7527 85.4104 18.2555C85.3681 19.7452 85.915 21.1915 86.9323 22.2811C87.3853 22.7914 87.9417 23.1993 88.5647 23.478C89.1876 23.7566 89.8628 23.8994 90.5453 23.8969C91.1374 23.9022 91.7247 23.7893 92.2728 23.5651C92.8615 23.3037 93.3974 22.9369 93.8539 22.4826V23.1108C93.8539 23.2459 93.9076 23.3755 94.0032 23.4711C94.0989 23.5667 94.2285 23.6204 94.3638 23.6204H96.0241C96.0943 23.6209 96.1639 23.6075 96.2289 23.5809C96.2939 23.5542 96.3529 23.515 96.4026 23.4654C96.4523 23.4157 96.4915 23.3567 96.5181 23.2918C96.5448 23.2268 96.5582 23.1572 96.5577 23.087V13.3211C96.5578 13.2023 96.5117 13.088 96.429 13.0025C96.3464 12.917 96.2339 12.8669 96.115 12.8629ZM93.1463 20.5468C92.8771 20.8351 92.5497 21.063 92.1858 21.2155C91.822 21.3681 91.4299 21.4418 91.0354 21.4317C90.6478 21.4391 90.2629 21.364 89.9065 21.2114C89.5501 21.0589 89.2302 20.8323 88.9681 20.5468C88.4315 19.9067 88.1374 19.0984 88.1374 18.2633C88.1374 17.4283 88.4315 16.6199 88.9681 15.9799C89.2315 15.6914 89.5538 15.4628 89.9132 15.3095C90.2725 15.1561 90.6606 15.0816 91.0513 15.091C91.4466 15.0795 91.8399 15.1514 92.2056 15.3018C92.5713 15.4522 92.9012 15.6779 93.174 15.9641C93.4577 16.2688 93.678 16.627 93.8219 17.0177C93.9658 17.4083 94.0304 17.8237 94.012 18.2396C94.0388 19.0926 93.7277 19.9217 93.1463 20.5468Z" fill="#4D4D4D"/>
<path d="M108.594 12.8633H106.558C106.495 12.8632 106.433 12.8819 106.38 12.917C106.327 12.9522 106.286 13.0022 106.262 13.0608L103.779 18.8682C103.767 18.8981 103.746 18.9237 103.72 18.9417C103.693 18.9598 103.661 18.9694 103.629 18.9694C103.597 18.9694 103.565 18.9598 103.538 18.9417C103.512 18.9237 103.491 18.8981 103.479 18.8682L100.988 13.0608C100.964 13.0025 100.923 12.9528 100.87 12.9177C100.817 12.8826 100.755 12.8637 100.692 12.8633H98.6444C98.5906 12.8637 98.5376 12.8773 98.4903 12.9029C98.443 12.9286 98.4027 12.9655 98.373 13.0104C98.3433 13.0553 98.3251 13.1068 98.3201 13.1604C98.315 13.214 98.3232 13.268 98.344 13.3176L102.661 23.4351C102.686 23.4937 102.728 23.5436 102.781 23.5787C102.835 23.6138 102.897 23.6325 102.961 23.6327H104.285C104.349 23.6328 104.411 23.6141 104.464 23.5789C104.516 23.5438 104.557 23.4937 104.582 23.4351L108.89 13.3176C108.912 13.2683 108.921 13.2144 108.917 13.1607C108.912 13.1071 108.895 13.0554 108.865 13.0103C108.836 12.9652 108.796 12.9281 108.748 12.9025C108.701 12.8768 108.648 12.8633 108.594 12.8633Z" fill="#4D4D4D"/>
<path d="M115.085 12.5851C114.344 12.5669 113.607 12.7032 112.922 12.9855C112.236 13.2678 111.617 13.6898 111.104 14.2246C110.58 14.7662 110.17 15.4076 109.898 16.1107C109.627 16.8137 109.499 17.5642 109.523 18.3175C109.5 19.0576 109.629 19.7945 109.901 20.4833C110.173 21.1721 110.582 21.7982 111.104 22.3234C111.649 22.8538 112.297 23.2675 113.007 23.5393C113.717 23.811 114.475 23.935 115.235 23.9036C116.208 23.9276 117.173 23.7303 118.058 23.3269C118.688 23.013 119.249 22.5749 119.706 22.039C119.755 21.9821 119.791 21.9147 119.809 21.8418C119.828 21.769 119.83 21.6929 119.814 21.6194C119.798 21.5458 119.766 21.477 119.719 21.4182C119.672 21.3594 119.612 21.3122 119.544 21.2804L118.113 20.6088C118.029 20.5683 117.935 20.5531 117.842 20.565C117.749 20.577 117.662 20.6155 117.591 20.676C116.93 21.2386 116.087 21.5419 115.219 21.5293C114.465 21.5591 113.724 21.3181 113.132 20.8498C112.583 20.3867 112.225 19.7363 112.128 19.0246H120.825V18.5111C120.825 16.7306 120.298 15.2966 119.244 14.2088C118.701 13.6644 118.051 13.2388 117.335 12.9593C116.619 12.6797 115.853 12.5523 115.085 12.5851ZM112.243 16.8992C112.455 16.3606 112.796 15.8818 113.235 15.5046C113.806 15.0826 114.501 14.8605 115.212 14.8725C115.867 14.8588 116.509 15.057 117.042 15.4375C117.55 15.7901 117.923 16.3059 118.097 16.8992H112.243Z" fill="#4D4D4D"/>
<path d="M128.193 12.7444C127.934 12.6426 127.658 12.589 127.379 12.5863C126.894 12.5775 126.417 12.7151 126.011 12.9814C125.572 13.2866 125.225 13.7078 125.011 14.1982V13.1592C125.011 13.0754 124.978 12.995 124.919 12.9357C124.859 12.8764 124.779 12.8431 124.695 12.8431H123.007C122.923 12.8431 122.843 12.8764 122.784 12.9357C122.724 12.995 122.691 13.0754 122.691 13.1592V23.3123C122.691 23.3961 122.724 23.4765 122.784 23.5357C122.843 23.595 122.923 23.6283 123.007 23.6283H125.063C125.104 23.6283 125.145 23.6201 125.183 23.6042C125.221 23.5883 125.256 23.5649 125.285 23.5355C125.314 23.5061 125.337 23.4712 125.352 23.4329C125.368 23.3946 125.376 23.3536 125.375 23.3123V19.2787V18.7533C125.375 17.2481 125.517 16.2407 125.806 15.7231C125.889 15.5054 126.033 15.3156 126.219 15.1758C126.406 15.036 126.629 14.9518 126.861 14.933C127.03 14.9394 127.196 14.9755 127.351 15.0397C127.429 15.0655 127.513 15.0606 127.586 15.026C127.66 14.9914 127.717 14.9298 127.747 14.854L128.371 13.1236C128.394 13.0496 128.388 12.9698 128.355 12.8997C128.323 12.8297 128.265 12.7743 128.193 12.7444Z" fill="#4D4D4D"/>
<path d="M135.882 9.725C135.881 9.62921 135.9 9.53427 135.936 9.44562C135.972 9.35697 136.026 9.27636 136.093 9.20844C136.161 9.14052 136.241 9.08662 136.33 9.04984C136.418 9.01307 136.513 8.99414 136.609 8.99414H141.353C142.306 8.96263 143.259 9.05829 144.187 9.27859C145.043 9.52679 145.817 10.0002 146.428 10.6495C147.075 11.3329 147.566 12.1483 147.867 13.0396C148.222 14.1769 148.387 15.3647 148.357 16.5556C148.379 17.6271 148.224 18.6949 147.899 19.7161C147.587 20.7046 147.045 21.6051 146.317 22.3433C145.714 22.8954 144.992 23.301 144.207 23.5285C143.34 23.7645 142.444 23.871 141.546 23.8445H136.625C136.529 23.8445 136.434 23.8256 136.346 23.7888C136.257 23.752 136.177 23.6981 136.109 23.6302C136.041 23.5623 135.988 23.4817 135.952 23.393C135.915 23.3044 135.897 23.2094 135.897 23.1136L135.882 9.725ZM138.882 12.2416V20.6287C138.882 20.8225 138.959 21.0084 139.096 21.1455C139.233 21.2826 139.419 21.3596 139.613 21.3596H141.147C141.755 21.38 142.364 21.3323 142.961 21.2174C143.411 21.115 143.828 20.9017 144.175 20.5971C144.56 20.1968 144.833 19.7022 144.965 19.163C145.195 18.2732 145.297 17.3555 145.27 16.4371C145.301 15.5446 145.199 14.6524 144.965 13.7902C144.806 13.2468 144.513 12.7522 144.112 12.3522C143.723 11.9955 143.242 11.7534 142.724 11.6529C141.908 11.5308 141.082 11.4832 140.258 11.5107H139.637C139.538 11.5075 139.44 11.5243 139.348 11.5601C139.256 11.5959 139.172 11.6499 139.102 11.7189C139.031 11.788 138.975 11.8705 138.937 11.9617C138.9 12.0529 138.881 12.1508 138.882 12.2494V12.2416Z" fill="#4D4D4D"/>
<path d="M150.808 23.1334V9.725C150.808 9.62902 150.827 9.53399 150.864 9.44531C150.9 9.35664 150.954 9.27607 151.022 9.2082C151.09 9.14033 151.171 9.0865 151.259 9.04977C151.348 9.01304 151.443 8.99414 151.539 8.99414H153.081C153.177 8.99414 153.272 9.01304 153.361 9.04977C153.449 9.0865 153.53 9.14033 153.598 9.2082C153.666 9.27607 153.72 9.35664 153.756 9.44531C153.793 9.53399 153.812 9.62902 153.812 9.725V23.1334C153.812 23.3272 153.735 23.5131 153.598 23.6502C153.461 23.7873 153.275 23.8643 153.081 23.8643H151.539C151.345 23.8643 151.159 23.7873 151.022 23.6502C150.885 23.5131 150.808 23.3272 150.808 23.1334Z" fill="#4D4D4D"/>
<path d="M156.674 23.1334V9.725C156.674 9.53116 156.751 9.34526 156.888 9.2082C157.025 9.07114 157.211 8.99414 157.405 8.99414H161.493C163.319 8.99414 164.513 9.06919 165.05 9.21932C165.909 9.44572 166.665 9.95866 167.193 10.6732C167.796 11.5147 168.1 12.5345 168.054 13.569C168.08 14.3659 167.909 15.157 167.556 15.8722C167.259 16.4551 166.825 16.9578 166.291 17.3378C165.825 17.6738 165.295 17.9129 164.734 18.0411C163.704 18.2069 162.662 18.2784 161.619 18.2544H160.394C160.298 18.2544 160.202 18.2733 160.114 18.31C160.025 18.3467 159.944 18.4006 159.877 18.4684C159.809 18.5363 159.755 18.6169 159.718 18.7056C159.681 18.7942 159.662 18.8893 159.662 18.9852V23.1334C159.662 23.3272 159.585 23.5131 159.448 23.6502C159.311 23.7873 159.125 23.8643 158.931 23.8643H157.389C157.198 23.8601 157.016 23.7813 156.883 23.6447C156.749 23.5081 156.674 23.3245 156.674 23.1334ZM159.678 12.2415V15.007C159.678 15.2008 159.755 15.3867 159.892 15.5238C160.03 15.6608 160.216 15.7378 160.409 15.7378H161.307C162.105 15.782 162.905 15.7034 163.679 15.5048C164.06 15.3637 164.388 15.1084 164.619 14.7739C164.848 14.4318 164.967 14.0278 164.959 13.6164C164.978 13.1251 164.807 12.6455 164.481 12.2771C164.165 11.9274 163.74 11.6949 163.275 11.6173C162.558 11.5311 161.835 11.4981 161.113 11.5186H160.394C160.202 11.5227 160.021 11.6015 159.887 11.7381C159.753 11.8748 159.678 12.0583 159.678 12.2494V12.2415Z" fill="#4D4D4D"/>
</g>
<defs>
<clipPath id="clip0_1309_3485">
<rect width="168" height="32" fill="white"/>
</clipPath>
</defs>
</svg>
