<svg width="16" height="16" viewBox="0 0 16 16" fill="none" xmlns="http://www.w3.org/2000/svg">
<g clip-path="url(#clip0_153_1434)">
<path d="M7.97913 0.125C3.64138 0.125 0.125 3.64138 0.125 7.97913C0.125 12.3169 3.64138 15.8334 7.97913 15.8334C12.3169 15.8334 15.8334 12.3167 15.8334 7.97913C15.8334 3.64138 12.3169 0.125 7.97913 0.125ZM7.97725 10.3024C7.86216 10.3038 7.74795 10.2823 7.64122 10.2392C7.5345 10.1961 7.43739 10.1323 7.35551 10.0514C7.27364 9.97047 7.20864 9.87413 7.16428 9.76793C7.11992 9.66173 7.09707 9.54778 7.09707 9.43269C7.09707 9.31759 7.11992 9.20364 7.16428 9.09744C7.20864 8.99124 7.27364 8.8949 7.35551 8.81401C7.43739 8.73311 7.5345 8.66927 7.64122 8.62618C7.74795 8.5831 7.86216 8.56162 7.97725 8.563C8.2061 8.56574 8.42464 8.65858 8.5855 8.82138C8.74636 8.98418 8.83657 9.20382 8.83657 9.43269C8.83657 9.66155 8.74636 9.8812 8.5855 10.044C8.42464 10.2068 8.2061 10.2996 7.97725 10.3024ZM13.1337 10.705C13.0002 10.7825 12.8485 10.8232 12.6941 10.8231C12.4689 10.8231 12.2492 10.7414 12.1065 10.5821L8.48137 6.5775C8.366 6.4545 8.19588 6.38175 8.009 6.38175C7.82225 6.38175 7.6465 6.45462 7.53662 6.5775L3.9115 10.5821C3.66975 10.8504 3.20837 10.9051 2.88425 10.7049C2.56025 10.5045 2.49425 10.1223 2.73587 9.85375L6.361 5.84925C6.751 5.41687 7.35525 5.16663 8.00887 5.16663C8.66263 5.16663 9.26125 5.41687 9.65675 5.84925L13.2819 9.85375C13.5236 10.1224 13.4578 10.5046 13.1337 10.705Z" fill="black"/>
</g>
<defs>
<clipPath id="clip0_153_1434">
<rect width="16" height="16" fill="white"/>
</clipPath>
</defs>
</svg>
