<svg width="16" height="16" viewBox="0 0 16 16" fill="none" xmlns="http://www.w3.org/2000/svg">
<g clip-path="url(#clip0_12_158)">
<path d="M8.05398 0.529266C8.0919 0.547778 8.12956 0.566823 8.16699 0.586309C8.1877 0.596654 8.20841 0.607 8.22975 0.617658C8.29819 0.652173 8.36614 0.687517 8.43401 0.723144C8.47015 0.742081 8.47015 0.742081 8.50702 0.761401C8.68187 0.853472 8.85568 0.947401 9.02918 1.04198C9.04998 1.05331 9.07078 1.06463 9.09221 1.0763C9.16877 1.11799 9.2453 1.15971 9.32177 1.20155C9.4736 1.28461 9.62598 1.36663 9.77846 1.44851C9.9492 1.54024 10.1194 1.63284 10.2885 1.72747C10.4185 1.80005 10.5495 1.87076 10.6805 1.94138C10.8707 2.04397 11.0593 2.1492 11.2471 2.25608C11.4161 2.352 11.5867 2.44484 11.7578 2.53704C11.8832 2.60466 12.0082 2.67297 12.1326 2.74246C12.2852 2.82767 12.4386 2.91152 12.5922 2.99488C12.6244 3.01235 12.6244 3.01235 12.6571 3.03017C12.7718 3.09226 12.887 3.15256 13.0041 3.2101C12.9909 3.2854 12.971 3.3524 12.9425 3.42328C12.9342 3.44417 12.9258 3.46506 12.9172 3.48659C12.9081 3.50911 12.899 3.53164 12.8896 3.55484C12.8802 3.57847 12.8707 3.60211 12.8609 3.62645C12.8353 3.69047 12.8095 3.75446 12.7837 3.81843C12.7565 3.88578 12.7295 3.95318 12.7024 4.02057C12.5788 4.32851 12.4544 4.6362 12.3295 4.94363C12.1871 5.29397 12.0459 5.64478 11.9046 5.99556C11.8845 6.04545 11.8644 6.09533 11.8443 6.14521C11.6803 6.5523 11.5168 6.95958 11.354 7.36715C11.3085 7.48099 11.2629 7.59482 11.2174 7.70865C11.2004 7.75112 11.1834 7.7936 11.1664 7.83608C11.1538 7.86758 11.1538 7.86758 11.141 7.8997C11.1137 7.96781 11.0865 8.03591 11.0592 8.10401C10.9802 8.30169 10.9011 8.49936 10.8219 8.69697C10.6202 9.20026 10.4205 9.70438 10.221 10.2086C10.213 10.2287 10.2051 10.2489 10.1968 10.2697C10.1899 10.2872 10.183 10.3048 10.1758 10.3228C10.155 10.3751 10.1341 10.4274 10.1132 10.4796C9.74848 10.4796 9.38373 10.4796 9.00793 10.4796C8.78659 10.0124 8.78659 10.0124 8.68909 9.79148C8.67939 9.76967 8.66969 9.74786 8.65969 9.72539C8.56113 9.50295 8.46611 9.27917 8.37025 9.0555C7.41628 9.0555 6.46231 9.0555 5.47943 9.0555C5.39526 9.2519 5.31108 9.44831 5.22436 9.65066C5.19608 9.71664 5.1678 9.78262 5.13867 9.8506C5.12643 9.87917 5.11419 9.90773 5.10158 9.93716C5.07577 9.99737 5.04996 10.0576 5.02415 10.1178C4.96364 10.259 4.90315 10.4001 4.84275 10.5413C4.82797 10.5759 4.82797 10.5759 4.8129 10.6111C4.79315 10.6572 4.77342 10.7034 4.7537 10.7495C4.69467 10.8875 4.6351 11.0251 4.57503 11.1626C4.53838 11.2466 4.50184 11.3305 4.4653 11.4145C4.44725 11.4559 4.42915 11.4972 4.411 11.5386C4.31528 11.7565 4.22281 11.9708 4.16156 12.2014C4.18474 12.2101 4.18474 12.2101 4.20838 12.2191C4.26526 12.2428 4.3159 12.2698 4.36889 12.3012C4.3983 12.3185 4.3983 12.3185 4.4283 12.3361C4.44944 12.3487 4.47058 12.3612 4.49236 12.3741C4.67356 12.4807 4.8553 12.5861 5.03798 12.6901C5.35874 12.8727 5.67778 13.0582 5.99591 13.2454C6.30629 13.428 6.61771 13.6083 6.93166 13.7848C7.00637 13.8268 7.08094 13.8692 7.15543 13.9117C7.19186 13.9324 7.22833 13.9532 7.26484 13.9738C7.36718 14.032 7.46803 14.092 7.56808 14.154C7.60187 14.1746 7.60187 14.1746 7.63634 14.1957C7.67979 14.2222 7.72299 14.2492 7.7659 14.2767C7.90559 14.3614 8.01555 14.3963 8.17894 14.3695C8.25844 14.3449 8.25844 14.3449 8.33039 14.3031C8.34423 14.2957 8.35808 14.2883 8.37234 14.2807C8.42156 14.2541 8.47028 14.2268 8.51904 14.1994C8.56096 14.1763 8.60289 14.1532 8.64483 14.1301C8.86586 14.0077 9.08525 13.8825 9.30357 13.7554C9.43244 13.6804 9.56216 13.607 9.6921 13.5339C9.86001 13.4394 10.0268 13.3432 10.1929 13.2456C10.3771 13.1375 10.5627 13.0326 10.7496 12.9294C10.9204 12.835 11.0904 12.7397 11.2581 12.6399C11.4301 12.5378 11.604 12.4392 11.7778 12.3402C11.8713 12.287 11.9647 12.2335 12.0582 12.1801C12.0954 12.1589 12.1326 12.1376 12.1698 12.1164C12.1882 12.1058 12.2066 12.0953 12.2256 12.0845C12.3929 11.9888 12.3929 11.9888 12.4488 11.9569C12.4859 11.9357 12.5231 11.9145 12.5602 11.8932C12.6539 11.8396 12.7476 11.7862 12.8416 11.733C13.0249 11.629 13.2075 11.5239 13.388 11.4149C13.4038 11.4055 13.4196 11.396 13.4359 11.3863C13.5549 11.3136 13.6382 11.2537 13.6842 11.1173C13.6905 11.0628 13.6905 11.0628 13.6895 11.0052C13.6896 10.9829 13.6897 10.9605 13.6898 10.9376C13.6897 10.9132 13.6896 10.8888 13.6895 10.8637C13.6896 10.8247 13.6896 10.8247 13.6897 10.7849C13.6898 10.7128 13.6897 10.6407 13.6895 10.5686C13.6894 10.4908 13.6895 10.4131 13.6895 10.3353C13.6896 10.1829 13.6895 10.0306 13.6893 9.87827C13.6891 9.70096 13.6891 9.52364 13.6891 9.34633C13.6891 9.03003 13.6889 8.71373 13.6886 8.39743C13.6883 8.09033 13.6882 7.78324 13.6882 7.47614C13.6882 7.44776 13.6882 7.44776 13.6882 7.4188C13.6882 7.39992 13.6882 7.38103 13.6882 7.36157C13.6882 7.01216 13.6881 6.66275 13.6879 6.31334C13.6878 6.18966 13.6878 6.06598 13.6878 5.9423C13.6878 5.79167 13.6877 5.64103 13.6875 5.4904C13.6874 5.41351 13.6873 5.33661 13.6874 5.25972C13.6874 5.17648 13.6872 5.09325 13.6871 5.01002C13.6871 4.98555 13.6872 4.96108 13.6872 4.93586C13.6871 4.90256 13.6871 4.90256 13.687 4.86859C13.687 4.84937 13.6869 4.83014 13.6869 4.81033C13.6862 4.75829 13.6862 4.75829 13.663 4.69802C13.6249 4.67567 13.6249 4.67567 13.578 4.6555C13.5409 4.63282 13.504 4.60969 13.4674 4.58626C13.4465 4.57297 13.4257 4.55968 13.4043 4.54599C13.3827 4.53215 13.3611 4.51831 13.3388 4.50405C13.3169 4.49005 13.295 4.47605 13.2724 4.46163C13.2184 4.42709 13.1643 4.39252 13.1103 4.35792C13.1776 4.15722 13.2557 3.96197 13.3375 3.76674C13.3479 3.74175 13.3582 3.71677 13.3689 3.69102C13.3788 3.66765 13.3887 3.64427 13.3989 3.62019C13.4122 3.58847 13.4122 3.58847 13.4258 3.5561C13.4504 3.50768 13.4504 3.50768 13.4929 3.48642C13.5352 3.50338 13.5352 3.50338 13.5876 3.53118C13.6071 3.54145 13.6267 3.55172 13.6468 3.56231C13.6679 3.57365 13.6891 3.585 13.7108 3.59669C13.7325 3.60819 13.7541 3.61968 13.7764 3.63153C13.822 3.65577 13.8675 3.68009 13.9129 3.70451C13.9798 3.7404 14.0468 3.776 14.1138 3.81157C14.1553 3.8338 14.1968 3.85605 14.2382 3.87833C14.2575 3.8886 14.2768 3.89886 14.2967 3.90944C14.5551 4.04956 14.5551 4.04956 14.6012 4.16174C14.6199 4.23176 14.6249 4.28976 14.625 4.36206C14.6251 4.38819 14.6253 4.41431 14.6254 4.44123C14.6253 4.47004 14.6253 4.49886 14.6252 4.52768C14.6253 4.55842 14.6254 4.58917 14.6255 4.61992C14.6257 4.70433 14.6257 4.78874 14.6257 4.87314C14.6257 4.96421 14.6259 5.05528 14.6261 5.14635C14.6265 5.32474 14.6266 5.50312 14.6266 5.68151C14.6266 5.82652 14.6267 5.97152 14.6269 6.11653C14.6272 6.52767 14.6274 6.93881 14.6274 7.34996C14.6274 7.3832 14.6274 7.3832 14.6274 7.41712C14.6274 7.43931 14.6274 7.4615 14.6274 7.48436C14.6274 7.84401 14.6278 8.20365 14.6284 8.56329C14.629 8.9326 14.6293 9.3019 14.6292 9.67121C14.6292 9.87854 14.6293 10.0859 14.6298 10.2932C14.6302 10.4697 14.6303 10.6462 14.63 10.8227C14.6298 10.9128 14.6298 11.0028 14.6302 11.0929C14.6305 11.1754 14.6305 11.2578 14.6301 11.3403C14.6301 11.3701 14.6301 11.3999 14.6304 11.4297C14.6318 11.6257 14.6218 11.7897 14.4828 11.9376C14.3721 12.0187 14.2488 12.0826 14.1293 12.1496C14.1024 12.1648 14.0755 12.18 14.0486 12.1952C13.9947 12.2257 13.9408 12.2562 13.8869 12.2866C13.7863 12.3432 13.6861 12.4005 13.5859 12.4578C13.5684 12.4678 13.5508 12.4778 13.5327 12.4882C13.3854 12.5723 13.2386 12.6572 13.0917 12.7421C12.8969 12.8547 12.7014 12.9659 12.5054 13.0762C12.3599 13.1583 12.2155 13.2421 12.0714 13.3266C11.8745 13.4421 11.676 13.5546 11.4767 13.6658C11.1489 13.8485 10.824 14.0362 10.4991 14.2238C10.087 14.4617 9.67353 14.6971 9.2591 14.9309C9.19726 14.9658 9.13547 15.0007 9.07369 15.0357C8.97179 15.0934 8.86983 15.151 8.76782 15.2085C8.71202 15.24 8.6563 15.2717 8.60057 15.3033C8.56676 15.3224 8.53294 15.3415 8.49911 15.3606C8.4767 15.3734 8.4767 15.3734 8.45383 15.3864C8.30132 15.472 8.14632 15.5524 7.9675 15.5067C7.83435 15.4641 7.71615 15.4035 7.5944 15.3353C7.5738 15.3239 7.5532 15.3125 7.53197 15.3008C7.39854 15.2267 7.26636 15.1506 7.1352 15.0725C6.98821 14.9851 6.83962 14.9005 6.69102 14.8159C6.53018 14.7242 6.36942 14.6325 6.21011 14.5382C5.85614 14.3288 5.49869 14.1252 5.14141 13.9215C4.97012 13.8238 4.79938 13.7252 4.62919 13.6255C4.44734 13.5191 4.26486 13.4138 4.08185 13.3094C4.0695 13.3023 4.05715 13.2953 4.04443 13.288C3.95596 13.2375 3.86746 13.1871 3.77895 13.1366C3.67487 13.0773 3.5708 13.018 3.46675 12.9586C3.45431 12.9515 3.44186 12.9444 3.42904 12.9371C3.22583 12.8211 3.02359 12.7035 2.82243 12.584C2.83525 12.5099 2.85453 12.4454 2.88421 12.3763C2.89713 12.346 2.89713 12.346 2.9103 12.3151C2.91989 12.2929 2.92947 12.2707 2.93934 12.2479C2.96068 12.198 2.98202 12.148 3.00336 12.0981C3.01527 12.0703 3.02718 12.0425 3.03909 12.0148C3.08058 11.918 3.12178 11.8211 3.16294 11.7241C3.17033 11.7067 3.17773 11.6893 3.18534 11.6714C3.20056 11.6355 3.21578 11.5997 3.23099 11.5639C3.27003 11.4719 3.30911 11.38 3.34819 11.2881C3.37841 11.217 3.40863 11.1459 3.43886 11.0748C3.44556 11.059 3.45227 11.0433 3.45918 11.027C3.50247 10.9251 3.54574 10.8233 3.58898 10.7214C3.59493 10.7074 3.60089 10.6934 3.60703 10.6789C3.69967 10.4606 3.79169 10.2421 3.88357 10.0235C4.03305 9.66792 4.18418 9.31306 4.33652 8.95867C4.38178 8.85337 4.42693 8.74803 4.47201 8.64266C4.61942 8.29819 4.76751 7.95403 4.91615 7.61009C5.06729 7.26034 5.21784 6.91035 5.36772 6.56007C5.43183 6.41029 5.49611 6.26058 5.56039 6.11088C5.78347 5.59118 6.00587 5.07128 6.22339 4.54922C6.67232 4.54922 7.12124 4.54922 7.58377 4.54922C7.67645 4.74782 7.76732 4.94577 7.85346 5.14705C8.11368 5.75173 8.38392 6.35211 8.65447 6.95222C8.76637 7.20042 8.87758 7.44891 8.988 7.69777C9.11069 7.97428 9.2338 8.25061 9.35732 8.52675C9.3693 8.55354 9.3693 8.55354 9.38152 8.58087C9.40397 8.63109 9.42643 8.6813 9.4489 8.73151C9.45562 8.74652 9.46233 8.76154 9.46925 8.77701C9.50322 8.85299 9.50322 8.85299 9.53933 8.92796C9.54582 8.91007 9.55231 8.89217 9.559 8.87374C9.6497 8.62668 9.74938 8.38344 9.84914 8.13993C9.91941 7.96835 9.9891 7.79653 10.0588 7.6247C10.0656 7.60792 10.0724 7.59115 10.0794 7.57386C10.1698 7.35107 10.2594 7.128 10.3484 6.90465C10.4517 6.64526 10.5575 6.38692 10.6644 6.12896C10.7288 5.97337 10.7923 5.81744 10.8546 5.66101C10.9362 5.4565 11.0193 5.25267 11.1028 5.04897C11.1276 4.98862 11.1523 4.92825 11.177 4.86787C11.2475 4.69525 11.3182 4.52263 11.3895 4.35029C11.4152 4.28801 11.4408 4.22567 11.4664 4.16333C11.4781 4.13493 11.4899 4.10655 11.5017 4.0782C11.5628 3.93151 11.6154 3.79185 11.6437 3.63522C11.5033 3.53809 11.3585 3.45223 11.2093 3.36952C11.1862 3.35668 11.1632 3.34385 11.1395 3.33062C10.9514 3.22612 10.762 3.12418 10.5722 3.02265C10.4216 2.94184 10.2724 2.85898 10.1239 2.77435C9.92591 2.66153 9.72598 2.55281 9.52515 2.4452C9.36584 2.35979 9.20744 2.27294 9.04961 2.18483C8.80956 2.05082 8.56871 1.91827 8.32773 1.78594C8.30901 1.77566 8.29028 1.76537 8.27098 1.75477C8.22665 1.73048 8.18223 1.70635 8.13776 1.68232C8.10393 1.66399 8.10393 1.66399 8.06942 1.64529C7.95359 1.58904 7.88078 1.56547 7.75382 1.59464C7.69391 1.62113 7.69391 1.62113 7.63451 1.656C7.61176 1.66878 7.58901 1.68157 7.56558 1.69474C7.54133 1.70862 7.51709 1.72249 7.49211 1.73679C7.46648 1.75128 7.44084 1.76575 7.4152 1.78021C7.36245 1.80997 7.30976 1.83982 7.25711 1.86974C7.18559 1.91034 7.1138 1.95043 7.04191 1.99037C6.80398 2.1226 6.56792 2.2576 6.3332 2.39547C6.1484 2.50364 5.96146 2.60771 5.77405 2.71128C5.61016 2.80189 5.44719 2.89396 5.28482 2.98726C5.14261 3.06885 4.99958 3.14889 4.85636 3.22869C4.68116 3.3264 4.50722 3.42597 4.33426 3.52761C4.1287 3.64836 3.92105 3.76493 3.7124 3.88026C3.51088 3.99171 3.31076 4.10545 3.11111 4.22022C3.05291 4.25355 2.99456 4.28662 2.93618 4.31964C2.91626 4.33094 2.89634 4.34224 2.87581 4.35388C2.83812 4.37524 2.80041 4.39655 2.76266 4.4178C2.64493 4.48468 2.5266 4.55234 2.41857 4.63425C2.39129 4.65398 2.39129 4.65398 2.36345 4.6741C2.28651 4.77399 2.29763 4.86426 2.29893 4.98713C2.29878 5.01238 2.29863 5.03762 2.29848 5.06363C2.29817 5.13364 2.29834 5.20362 2.29871 5.27362C2.29899 5.34914 2.29866 5.42466 2.29841 5.50018C2.29802 5.64811 2.2982 5.79604 2.29858 5.94397C2.29888 6.06421 2.29897 6.18445 2.29889 6.30469C2.29888 6.33035 2.29888 6.33035 2.29886 6.35654C2.29884 6.39129 2.29882 6.42605 2.2988 6.46081C2.29861 6.76824 2.29897 7.07567 2.2996 7.3831C2.30021 7.68137 2.30036 7.97964 2.30004 8.27791C2.29968 8.60269 2.29959 8.92746 2.29997 9.25224C2.3 9.28689 2.30004 9.32153 2.30008 9.35617C2.30011 9.38174 2.30011 9.38174 2.30014 9.40783C2.30026 9.52789 2.30019 9.64795 2.30005 9.76801C2.29989 9.91438 2.30003 10.0607 2.30056 10.2071C2.30083 10.2818 2.30096 10.3564 2.30072 10.4311C2.30047 10.5121 2.30088 10.593 2.30135 10.674C2.30117 10.6976 2.301 10.7211 2.30082 10.7454C2.30228 10.8812 2.3165 10.9644 2.39731 11.0748C2.44258 11.1162 2.44258 11.1162 2.49396 11.1451C2.51191 11.1562 2.52985 11.1672 2.54835 11.1786C2.5669 11.1895 2.58545 11.2004 2.60456 11.2116C2.62344 11.2231 2.64232 11.2346 2.66177 11.2465C2.70806 11.2746 2.75451 11.3024 2.80118 11.3299C2.78735 11.4152 2.76072 11.4878 2.72653 11.567C2.71567 11.5923 2.7048 11.6175 2.69361 11.6436C2.68791 11.6567 2.68221 11.6698 2.67634 11.6833C2.65935 11.7224 2.64252 11.7615 2.62569 11.8007C2.55218 11.9709 2.47582 12.1396 2.39731 12.3077C2.31052 12.2885 2.24 12.2493 2.1635 12.2054C2.14891 12.197 2.13432 12.1887 2.11929 12.1801C2.07016 12.152 2.02117 12.1235 1.97219 12.0951C1.95391 12.0846 1.93563 12.074 1.91679 12.0632C1.85983 12.0302 1.80307 11.9969 1.74635 11.9636C1.71955 11.9481 1.71955 11.9481 1.69221 11.9323C1.54109 11.8424 1.42462 11.7624 1.37702 11.585C1.3716 11.5217 1.3716 11.5217 1.37144 11.4538C1.37127 11.4278 1.37111 11.4018 1.37094 11.375C1.37098 11.3463 1.37101 11.3177 1.37105 11.289C1.37094 11.2584 1.37082 11.2278 1.37067 11.1972C1.37033 11.1132 1.37025 11.0292 1.37022 10.9452C1.37014 10.8545 1.36982 10.7639 1.36953 10.6733C1.36896 10.4752 1.3687 10.2771 1.36851 10.0789C1.3684 9.95526 1.36822 9.83157 1.36803 9.70788C1.36751 9.36542 1.36707 9.02296 1.36692 8.6805C1.36692 8.65859 1.36691 8.63668 1.3669 8.61411C1.36688 8.58117 1.36688 8.58116 1.36687 8.54756C1.36685 8.50306 1.36683 8.45855 1.36681 8.41405C1.3668 8.39198 1.36679 8.3699 1.36678 8.34716C1.36661 7.98927 1.36587 7.63139 1.36488 7.2735C1.36388 6.90607 1.36335 6.53864 1.3633 6.17121C1.36326 5.9649 1.36301 5.7586 1.36224 5.5523C1.36159 5.37668 1.36137 5.20107 1.36172 5.02545C1.36189 4.93584 1.36184 4.84624 1.36125 4.75663C1.36071 4.67459 1.36076 4.59257 1.36127 4.51052C1.36136 4.48086 1.36123 4.45119 1.36086 4.42152C1.35795 4.1725 1.35795 4.1725 1.43818 4.07616C1.49367 4.02268 1.55335 3.98089 1.62072 3.94326C1.65373 3.92454 1.65373 3.92454 1.68741 3.90544C1.7108 3.89255 1.7342 3.87966 1.7583 3.86637C1.78306 3.85245 1.8078 3.83851 1.83252 3.82453C1.88297 3.79608 1.9335 3.76779 1.98412 3.73966C2.07121 3.69119 2.15801 3.64221 2.24477 3.59316C2.28456 3.57066 2.32437 3.54821 2.36419 3.52579C2.51293 3.44194 2.66051 3.35622 2.80782 3.26988C2.96997 3.17485 3.13285 3.08156 3.29744 2.99083C3.57612 2.83709 3.85141 2.67727 4.12668 2.51752C4.28926 2.42328 4.45248 2.33014 4.61571 2.23703C4.79902 2.13244 4.98192 2.02718 5.16458 1.92145C5.36398 1.80612 5.56445 1.69284 5.76561 1.5806C5.93331 1.48694 6.10045 1.39234 6.26723 1.29706C6.27972 1.28992 6.29222 1.28279 6.30509 1.27543C6.45754 1.18831 6.60943 1.10027 6.76082 1.01129C7.01559 0.86156 7.27282 0.716737 7.53456 0.579469C7.57296 0.558893 7.6104 0.536519 7.64738 0.51349C7.78451 0.461666 7.92012 0.472288 8.05398 0.529266Z" fill="#1C1C1C"/>
<path d="M6.88233 5.80334C6.89636 5.80334 6.91039 5.80334 6.92484 5.80334C7.20493 6.40477 7.48429 7.00652 7.75382 7.61276C7.76125 7.62945 7.76868 7.64614 7.77633 7.66334C7.79721 7.71029 7.81804 7.75725 7.83885 7.80423C7.84503 7.81814 7.85121 7.83205 7.85758 7.84639C7.88206 7.90183 7.90469 7.95642 7.92387 8.01397C7.26451 8.01397 6.60515 8.01397 5.92581 8.01397C5.97363 7.87049 5.97363 7.87049 6.00456 7.80039C6.01147 7.78464 6.01838 7.7689 6.0255 7.75268C6.03291 7.73596 6.04032 7.71924 6.04795 7.70202C6.05575 7.6843 6.06354 7.66657 6.07158 7.64831C6.09689 7.59083 6.12228 7.53338 6.14767 7.47593C6.16521 7.43613 6.18275 7.39632 6.20028 7.35652C6.23486 7.27802 6.26947 7.19953 6.30411 7.12106C6.34258 7.03389 6.38096 6.94667 6.41926 6.85942C6.49716 6.68198 6.57528 6.50465 6.65407 6.3276C6.65994 6.31443 6.6658 6.30126 6.67184 6.28768C6.7003 6.22374 6.72879 6.15982 6.75731 6.09592C6.76747 6.07313 6.77762 6.05034 6.78809 6.02686C6.80155 5.99671 6.80155 5.99671 6.81529 5.96594C6.83872 5.91213 6.86084 5.85796 6.88233 5.80334Z" fill="#F5F5F5"/>
</g>
<defs>
<clipPath id="clip0_12_158">
<rect width="16" height="16" fill="white"/>
</clipPath>
</defs>
</svg>
