<svg width="16" height="16" viewBox="0 0 16 16" fill="none" xmlns="http://www.w3.org/2000/svg">
<g clip-path="url(#clip0_144_920)">
<path d="M5.71427 8.57143H2.2857C1.83104 8.57143 1.395 8.75204 1.07351 9.07353C0.752023 9.39502 0.571411 9.83106 0.571411 10.2857V13.7143C0.571411 14.1689 0.752023 14.605 1.07351 14.9265C1.395 15.248 1.83104 15.4286 2.2857 15.4286H5.71427C6.16893 15.4286 6.60496 15.248 6.92645 14.9265C7.24794 14.605 7.42855 14.1689 7.42855 13.7143V10.2857C7.42855 9.83106 7.24794 9.39502 6.92645 9.07353C6.60496 8.75204 6.16893 8.57143 5.71427 8.57143ZM2.2857 9.71429H5.71427C5.86582 9.71429 6.01117 9.77449 6.11833 9.88165C6.22549 9.98882 6.2857 10.1342 6.2857 10.2857V13.7143C6.2857 13.8658 6.22549 14.0112 6.11833 14.1183C6.01117 14.2255 5.86582 14.2857 5.71427 14.2857H2.2857C2.13414 14.2857 1.9888 14.2255 1.88164 14.1183C1.77447 14.0112 1.71427 13.8658 1.71427 13.7143V10.2857C1.71427 10.1342 1.77447 9.98882 1.88164 9.88165C1.9888 9.77449 2.13414 9.71429 2.2857 9.71429ZM5.71427 0.571428H2.2857C1.83104 0.571428 1.395 0.75204 1.07351 1.07353C0.752023 1.39502 0.571411 1.83106 0.571411 2.28571V5.71429C0.571411 6.16894 0.752023 6.60498 1.07351 6.92647C1.395 7.24796 1.83104 7.42857 2.2857 7.42857H5.71427C6.16893 7.42857 6.60496 7.24796 6.92645 6.92647C7.24794 6.60498 7.42855 6.16894 7.42855 5.71429V2.28571C7.42855 1.83106 7.24794 1.39502 6.92645 1.07353C6.60496 0.75204 6.16893 0.571428 5.71427 0.571428ZM2.2857 1.71429H5.71427C5.86582 1.71429 6.01117 1.77449 6.11833 1.88165C6.22549 1.98882 6.2857 2.13416 6.2857 2.28571V5.71429C6.2857 5.86584 6.22549 6.01118 6.11833 6.11835C6.01117 6.22551 5.86582 6.28571 5.71427 6.28571H2.2857C2.13414 6.28571 1.9888 6.22551 1.88164 6.11835C1.77447 6.01118 1.71427 5.86584 1.71427 5.71429V2.28571C1.71427 2.13416 1.77447 1.98882 1.88164 1.88165C1.9888 1.77449 2.13414 1.71429 2.2857 1.71429ZM13.3337 8.57143H9.90513C9.45047 8.57143 9.01443 8.75204 8.69294 9.07353C8.37145 9.39502 8.19084 9.83106 8.19084 10.2857V13.7143C8.19084 14.1689 8.37145 14.605 8.69294 14.9265C9.01443 15.248 9.45047 15.4286 9.90513 15.4286H13.3337C13.7884 15.4286 14.2244 15.248 14.5459 14.9265C14.8674 14.605 15.048 14.1689 15.048 13.7143V10.2857C15.048 9.83106 14.8674 9.39502 14.5459 9.07353C14.2244 8.75204 13.7884 8.57143 13.3337 8.57143ZM9.90513 9.71429H13.3337C13.4852 9.71429 13.6306 9.77449 13.7378 9.88165C13.8449 9.98882 13.9051 10.1342 13.9051 10.2857V13.7143C13.9051 13.8658 13.8449 14.0112 13.7378 14.1183C13.6306 14.2255 13.4852 14.2857 13.3337 14.2857H9.90513C9.75357 14.2857 9.60823 14.2255 9.50106 14.1183C9.3939 14.0112 9.3337 13.8658 9.3337 13.7143V10.2857C9.3337 10.1342 9.3939 9.98882 9.50106 9.88165C9.60823 9.77449 9.75357 9.71429 9.90513 9.71429ZM14.448 2.78857L12.8308 1.17143C12.5094 0.850049 12.0734 0.669509 11.6188 0.669509C11.1643 0.669509 10.7283 0.850049 10.4068 1.17143L8.79084 2.78857C8.63154 2.94777 8.50517 3.1368 8.41895 3.34486C8.33273 3.55292 8.28835 3.77593 8.28835 4.00114C8.28835 4.22636 8.33273 4.44937 8.41895 4.65742C8.50517 4.86548 8.63154 5.05451 8.79084 5.21371L10.4068 6.82971C10.7283 7.15109 11.1643 7.33163 11.6188 7.33163C12.0734 7.33163 12.5094 7.15109 12.8308 6.82971L14.448 5.21371C14.6073 5.05451 14.7337 4.86548 14.8199 4.65742C14.9061 4.44937 14.9505 4.22636 14.9505 4.00114C14.9505 3.77593 14.9061 3.55292 14.8199 3.34486C14.7337 3.1368 14.6073 2.94777 14.448 2.78857ZM12.0228 1.97943L13.6388 3.59543C13.6921 3.64851 13.7343 3.71157 13.7631 3.78099C13.7919 3.85041 13.8067 3.92484 13.8067 4C13.8067 4.07516 13.7919 4.14959 13.7631 4.21901C13.7343 4.28843 13.6921 4.35149 13.6388 4.40457L12.0228 6.02057C11.9157 6.1277 11.7704 6.18788 11.6188 6.18788C11.4673 6.18788 11.322 6.1277 11.2148 6.02057L9.59998 4.40457C9.54677 4.35149 9.50455 4.28843 9.47574 4.21901C9.44693 4.14959 9.4321 4.07516 9.4321 4C9.4321 3.92484 9.44693 3.85041 9.47574 3.78099C9.50455 3.71157 9.54677 3.64851 9.59998 3.59543L11.216 1.97943C11.3231 1.8723 11.4685 1.81212 11.62 1.81212C11.7715 1.81212 11.9168 1.8723 12.024 1.97943H12.0228Z" fill="black"/>
</g>
<defs>
<clipPath id="clip0_144_920">
<rect width="16" height="16" fill="white"/>
</clipPath>
</defs>
</svg>
