<svg width="16" height="16" viewBox="0 0 16 16" fill="none" xmlns="http://www.w3.org/2000/svg">
<path d="M13.656 3.43203H11.2559C11.0239 1.55203 9.65595 0.608032 8.00795 0.608032C6.35995 0.608032 4.99995 1.55203 4.75995 3.43203H2.35995L1.42395 15.672H14.6L13.656 3.43203ZM8.00795 1.55203C9.13595 1.55203 10.08 2.02403 10.312 3.43203H5.70395C5.94395 2.02403 6.87995 1.55203 8.00795 1.55203ZM2.45595 14.728L3.25595 4.37603H12.76L13.56 14.728H2.45595ZM7.76795 11.376C7.76795 12.184 7.11195 12.832 6.31195 12.832C5.51195 12.832 4.85595 12.176 4.85595 11.376C4.85595 10.568 5.51195 9.92003 6.31195 9.92003H7.76795V11.376ZM8.25595 11.376C8.25595 12.184 8.91195 12.832 9.71195 12.832C10.512 12.832 11.168 12.176 11.168 11.376C11.168 10.568 10.512 9.92003 9.71195 9.92003H8.24795V11.376H8.25595ZM7.76795 7.97603C7.76795 7.16803 7.11195 6.52003 6.31195 6.52003C5.51195 6.52003 4.85595 7.17603 4.85595 7.97603C4.85595 8.77603 5.51195 9.43203 6.31195 9.43203H7.76795V7.97603ZM8.25595 7.97603C8.25595 7.16803 8.91195 6.52003 9.71195 6.52003C10.512 6.52003 11.168 7.17603 11.168 7.97603C11.168 8.77603 10.512 9.43203 9.71195 9.43203H8.24795V7.97603H8.25595Z" fill="#333333"/>
</svg>
