<svg width="20" height="20" viewBox="0 0 20 20" fill="none" xmlns="http://www.w3.org/2000/svg">
<path d="M5.19941 18.7998C5.10442 18.8003 5.01074 18.7777 4.9264 18.7339C4.82855 18.6836 4.74646 18.6072 4.68915 18.5132C4.63184 18.4192 4.60154 18.3111 4.60158 18.2009V15.8823H3.92205C3.20035 15.8815 2.50843 15.5939 1.99811 15.0827C1.48779 14.5715 1.20074 13.8784 1.19995 13.1554V4.52667C1.20048 3.80362 1.48744 3.11034 1.99782 2.59907C2.5082 2.0878 3.20027 1.80033 3.92205 1.7998H16.0778C16.7996 1.8006 17.4915 2.08815 18.0018 2.59936C18.5121 3.11058 18.7992 3.8037 18.8 4.52667V13.1554C18.7989 13.8783 18.5118 14.5713 18.0015 15.0824C17.4912 15.5936 16.7995 15.8812 16.0778 15.8823H9.45294L5.55212 18.684C5.44979 18.7591 5.32626 18.7997 5.19941 18.7998ZM3.92205 2.99755C3.51729 2.99781 3.12919 3.159 2.84298 3.44571C2.55677 3.73242 2.39587 4.1212 2.3956 4.52667V13.1554C2.39587 13.5609 2.55677 13.9497 2.84298 14.2364C3.12919 14.5231 3.51729 14.6843 3.92205 14.6845H5.19941C5.35796 14.6845 5.51002 14.7476 5.62213 14.86C5.73425 14.9723 5.79723 15.1246 5.79723 15.2834V17.0341L8.90792 14.7973C9.00933 14.7237 9.13143 14.6842 9.25665 14.6845H16.0749C16.4796 14.6843 16.8677 14.5231 17.1539 14.2364C17.4401 13.9497 17.601 13.5609 17.6013 13.1554V4.52667C17.601 4.1212 17.4401 3.73242 17.1539 3.44571C16.8677 3.159 16.4796 2.99781 16.0749 2.99755H3.92205Z" fill="currentColor"/>
<path d="M10 5.7998C10.295 5.79981 10.5341 6.03896 10.5342 6.33398V8.14258H12.4922C12.7724 8.14258 12.9998 8.36929 13 8.64941C13 8.92972 12.7725 9.15723 12.4922 9.15723H10.5342V10.9658C10.534 11.2608 10.295 11.5 10 11.5C9.70503 11.5 9.46596 11.2608 9.46582 10.9658V9.15723H7.50781C7.22751 9.15723 7 8.92972 7 8.64941C7.00021 8.36929 7.22764 8.14258 7.50781 8.14258H9.46582V6.33398C9.46586 6.03896 9.70497 5.7998 10 5.7998Z" fill="currentColor"/>
</svg>
