<svg width="16" height="16" viewBox="0 0 16 16" fill="none" xmlns="http://www.w3.org/2000/svg">
<path d="M7.84 2.48C7.11861 2.48 6.42677 2.76657 5.91667 3.27667C5.40657 3.78677 5.12 4.47861 5.12 5.2C5.12 5.92139 5.40657 6.61323 5.91667 7.12333C6.42677 7.63343 7.11861 7.92 7.84 7.92C8.56139 7.92 9.25323 7.63343 9.76333 7.12333C10.2734 6.61323 10.56 5.92139 10.56 5.2C10.56 4.47861 10.2734 3.78677 9.76333 3.27667C9.25323 2.76657 8.56139 2.48 7.84 2.48ZM4.16 5.2C4.16 4.71673 4.25519 4.2382 4.44012 3.79172C4.62506 3.34524 4.89613 2.93956 5.23785 2.59784C5.57957 2.25612 5.98525 1.98506 6.43173 1.80012C6.8782 1.61518 7.35674 1.52 7.84 1.52C8.32326 1.52 8.8018 1.61518 9.24827 1.80012C9.69475 1.98506 10.1004 2.25612 10.4422 2.59784C10.7839 2.93956 11.0549 3.34524 11.2399 3.79172C11.4248 4.2382 11.52 4.71673 11.52 5.2C11.52 6.17599 11.1323 7.11202 10.4422 7.80215C9.75202 8.49228 8.816 8.88 7.84 8.88C6.864 8.88 5.92798 8.49228 5.23785 7.80215C4.54771 7.11202 4.16 6.17599 4.16 5.2Z" fill="black"/>
<path d="M10.0938 12.0622L10.5426 11.8772C10.9085 11.7269 11.241 11.5055 11.5208 11.2259C11.8007 10.9464 12.0223 10.6142 12.173 10.2485L12.3618 9.79096C12.3733 9.76397 12.3925 9.74094 12.4169 9.72472C12.4413 9.70851 12.47 9.69981 12.4993 9.69971C12.5289 9.69956 12.5578 9.70815 12.5825 9.72438C12.6072 9.74061 12.6266 9.76378 12.6381 9.79096L12.8257 10.246C12.9761 10.6116 13.1975 10.9438 13.4771 11.2234C13.7568 11.503 14.0891 11.7243 14.4548 11.8747L14.9099 12.0622C14.9367 12.0739 14.9595 12.0931 14.9755 12.1175C14.9915 12.142 15 12.1705 15 12.1997C15 12.2289 14.9915 12.2575 14.9755 12.2819C14.9595 12.3063 14.9367 12.3255 14.9099 12.3372L14.4511 12.526C14.0855 12.6767 13.7534 12.8983 13.474 13.1781C13.1946 13.4579 12.9734 13.7902 12.8232 14.156L12.6394 14.606C12.6282 14.6336 12.609 14.6573 12.5843 14.674C12.5596 14.6907 12.5304 14.6996 12.5006 14.6997C12.4708 14.6996 12.4416 14.6907 12.4169 14.674C12.3922 14.6573 12.373 14.6336 12.3618 14.606L12.1743 14.1497C12.0236 13.7842 11.8019 13.4521 11.5221 13.1728C11.2422 12.8934 10.9097 12.6723 10.5439 12.5222L10.0938 12.3372C10.066 12.3262 10.0422 12.307 10.0255 12.2823C10.0088 12.2575 9.99989 12.2283 10 12.1985C10.0002 12.169 10.0091 12.1402 10.0255 12.1158C10.042 12.0913 10.0653 12.0723 10.0925 12.061L10.0938 12.0622Z" fill="black"/>
<path d="M3.7296 10.6816C4.7992 9.9712 6.1504 9.52 7.28 9.52H8.4C8.5273 9.52 8.64939 9.57058 8.73941 9.66059C8.82943 9.75061 8.88 9.8727 8.88 10C8.88 10.1273 8.82943 10.2494 8.73941 10.3394C8.64939 10.4294 8.5273 10.48 8.4 10.48H7.28C6.3704 10.48 5.2016 10.856 4.2608 11.4816C3.376 12.0696 2.808 12.7968 2.7296 13.52H9.84C9.9673 13.52 10.0894 13.5706 10.1794 13.6606C10.2694 13.7506 10.32 13.8727 10.32 14C10.32 14.1273 10.2694 14.2494 10.1794 14.3394C10.0894 14.4294 9.9673 14.48 9.84 14.48H2.548C2.33915 14.48 2.13884 14.3971 1.99108 14.2495C1.84333 14.1019 1.76021 13.9017 1.76 13.6928C1.76 12.4328 2.6744 11.3832 3.7296 10.6816Z" fill="black"/>
</svg>
