<svg width="16" height="16" viewBox="0 0 16 16" fill="currentColor" xmlns="http://www.w3.org/2000/svg">
<path d="M6.46982 1.15031e-07H6.51127C6.65583 0.00521871 6.79272 0.0663117 6.89313 0.170421C6.99355 0.27453 7.04967 0.413536 7.04967 0.558182C7.04967 0.702828 6.99355 0.841834 6.89313 0.945943C6.79272 1.05005 6.65583 1.11115 6.51127 1.11636C5.09236 1.11636 4.08436 1.11782 3.31855 1.21964C2.57091 1.32146 2.13818 1.50909 1.824 1.82473C1.50909 2.13964 1.32073 2.57091 1.22036 3.31927C1.11709 4.08436 1.11564 5.09236 1.11564 6.51127C1.10833 6.65429 1.04637 6.78904 0.942564 6.88768C0.838753 6.98632 0.701021 7.04132 0.557818 7.04132C0.414616 7.04132 0.276883 6.98632 0.173073 6.88768C0.0692626 6.78904 0.00730541 6.65429 0 6.51127V6.46909C0 5.10182 -7.58605e-08 4.01818 0.113454 3.17018C0.231273 2.29818 0.478546 1.59273 1.03491 1.03491C1.59127 0.478546 2.29818 0.231273 3.17018 0.113455C4.01891 -0.000727072 5.10182 1.15031e-07 6.46982 1.15031e-07ZM12.68 1.22036C11.9164 1.11782 10.9069 1.11564 9.48727 1.11564C9.34426 1.10833 9.20951 1.04637 9.11087 0.942564C9.01222 0.838754 8.95722 0.701021 8.95722 0.557818C8.95722 0.414616 9.01222 0.276883 9.11087 0.173073C9.20951 0.0692627 9.34426 0.00730547 9.48727 1.15031e-07H9.52946C10.8982 1.15031e-07 11.9804 1.93866e-07 12.8291 0.113455C13.7011 0.231273 14.4065 0.478546 14.9644 1.03491C15.5207 1.592 15.768 2.29818 15.8858 3.17018C16 4.01891 16 5.10182 16 6.46909V6.51127C16 6.65931 15.9412 6.80129 15.8365 6.90597C15.7318 7.01065 15.5899 7.06946 15.4418 7.06946C15.2938 7.06946 15.1518 7.01065 15.0471 6.90597C14.9424 6.80129 14.8836 6.65931 14.8836 6.51127C14.8836 5.09236 14.8822 4.08436 14.7804 3.31855C14.6785 2.57091 14.4909 2.13818 14.1753 1.824C13.8604 1.50909 13.4284 1.32073 12.68 1.22036ZM0.557818 8.93018C0.865455 8.93018 1.11636 9.17964 1.11636 9.488C1.11636 10.9069 1.11709 11.9164 1.21964 12.6807C1.32073 13.4284 1.50909 13.8611 1.82473 14.1745C2.13964 14.4902 2.57091 14.6785 3.31927 14.7796C4.08436 14.8815 5.09236 14.8829 6.51127 14.8829C6.65448 14.8902 6.78941 14.9523 6.88818 15.0562C6.98696 15.1601 7.04203 15.2981 7.04203 15.4415C7.04203 15.5848 6.98696 15.7228 6.88818 15.8267C6.78941 15.9307 6.65448 15.9927 6.51127 16H6.46982C5.10255 16 4.01891 16 3.17018 15.8858C2.29745 15.768 1.592 15.5207 1.03491 14.9644C0.478546 14.4073 0.231273 13.7011 0.113454 12.8291C-7.58605e-08 11.9796 0 10.8967 0 9.52946V9.48727C0 9.18036 0.248727 8.92873 0.557818 8.92873V8.93018ZM15.4415 8.93018C15.7491 8.93018 16 9.17964 16 9.488V9.53018C16 10.8982 16 11.9811 15.8858 12.8291C15.768 13.7011 15.5207 14.4065 14.9644 14.9644C14.4073 15.5207 13.7011 15.768 12.8291 15.8858C11.9804 15.9993 10.8967 15.9993 9.52946 15.9993H9.488C9.33996 15.9993 9.19799 15.9405 9.09331 15.8358C8.98863 15.7311 8.92982 15.5891 8.92982 15.4411C8.92982 15.2931 8.98863 15.1511 9.09331 15.0464C9.19799 14.9417 9.33996 14.8829 9.488 14.8829C10.9062 14.8829 11.9156 14.8815 12.68 14.7796C13.4284 14.6778 13.8604 14.4902 14.1745 14.1745C14.4902 13.8596 14.6785 13.4284 14.7796 12.68C14.8815 11.9164 14.8829 10.9069 14.8829 9.488C14.8829 9.18109 15.1331 8.93018 15.4415 8.93018ZM8.08146 3.24145C8.13353 3.10811 8.22462 2.99359 8.34283 2.91285C8.46103 2.83211 8.60085 2.78891 8.744 2.78891C8.88715 2.78891 9.02697 2.83211 9.14517 2.91285C9.26338 2.99359 9.35447 3.10811 9.40654 3.24145L10.24 5.35855C10.3135 5.54109 10.4582 5.68582 10.6429 5.75927L12.7593 6.59273C12.892 6.64537 13.0059 6.73667 13.0862 6.85481C13.1664 6.97295 13.2093 7.11246 13.2093 7.25527C13.2093 7.39808 13.1664 7.5376 13.0862 7.65574C13.0059 7.77387 12.892 7.86518 12.7593 7.91782L10.6407 8.752C10.5501 8.7882 10.4679 8.84256 10.3991 8.91172C10.3303 8.98089 10.2764 9.0634 10.2407 9.15418L9.40654 11.2705C9.35435 11.4037 9.26325 11.5179 9.14513 11.5985C9.027 11.6791 8.88734 11.7222 8.74436 11.7222C8.60139 11.7222 8.46173 11.6791 8.3436 11.5985C8.22548 11.5179 8.13438 11.4037 8.08218 11.2705L7.24873 9.15273C7.21248 9.06205 7.15803 8.97977 7.08873 8.91097C7.01943 8.84217 6.93676 8.78831 6.84582 8.75273L4.72945 7.91855C4.59634 7.86635 4.48205 7.77525 4.40149 7.65712C4.32093 7.539 4.27784 7.39934 4.27784 7.25636C4.27784 7.11339 4.32093 6.97373 4.40149 6.8556C4.48205 6.73748 4.59634 6.64638 4.72945 6.59418L6.84655 5.75927C6.93724 5.72331 7.01959 5.66913 7.08852 5.60008C7.15745 5.53103 7.21148 5.44858 7.24727 5.35782L8.08146 3.24145Z"/>
<path d="M4.45814 10.3643C4.47955 10.3103 4.51672 10.2638 4.56484 10.2311C4.61295 10.1984 4.66978 10.181 4.72796 10.181C4.78613 10.181 4.84297 10.1984 4.89108 10.2311C4.93919 10.2638 4.97637 10.3103 4.99778 10.3643L5.33741 11.2254C5.35209 11.2627 5.37434 11.2964 5.40276 11.3246C5.43118 11.3528 5.46515 11.3747 5.5025 11.3891L6.36359 11.7287C6.41717 11.7505 6.46304 11.7878 6.49532 11.8358C6.52761 11.8838 6.54486 11.9403 6.54486 11.9982C6.54486 12.056 6.52761 12.1125 6.49532 12.1605C6.46304 12.2085 6.41717 12.2458 6.36359 12.2676L5.50032 12.6073C5.46343 12.6222 5.43 12.6446 5.40211 12.673C5.37421 12.7014 5.35244 12.7352 5.33814 12.7723L4.9985 13.6327C4.97694 13.6867 4.93966 13.7331 4.8915 13.7657C4.84334 13.7983 4.7865 13.8158 4.72832 13.8158C4.67014 13.8158 4.6133 13.7983 4.56514 13.7657C4.51698 13.7331 4.47971 13.6867 4.45814 13.6327L4.1185 12.7702C4.10379 12.7333 4.08168 12.6998 4.05354 12.6718C4.0254 12.6438 3.99182 12.6218 3.95487 12.6073L3.09232 12.2676C3.03817 12.2464 2.99167 12.2093 2.9589 12.1612C2.92612 12.1132 2.90859 12.0563 2.90859 11.9982C2.90859 11.94 2.92612 11.8832 2.9589 11.8351C2.99167 11.787 3.03817 11.75 3.09232 11.7287L3.95559 11.3891C3.99262 11.3742 4.02619 11.3519 4.05421 11.3235C4.08224 11.2951 4.10412 11.2612 4.1185 11.224L4.45814 10.3636V10.3643Z"/>
</svg>
