<svg width="14" height="14" viewBox="0 0 14 14" fill="none" xmlns="http://www.w3.org/2000/svg">
<g clip-path="url(#clip0_363_114)">
<path d="M0.5565 4.3124L0.553506 4.31695L6.78902 7.91708C6.8515 7.95326 6.92252 7.97237 6.99438 7.97237C7.06848 7.97237 7.14127 7.95234 7.20416 7.91487L13.3919 4.34245C13.5877 4.22904 13.6548 3.97738 13.5413 3.78148C13.5044 3.71781 13.4511 3.6652 13.3879 3.62977L7.22384 0.0553301C7.16137 0.019127 7.09033 0 7.01846 0C6.93756 0 6.85923 0.0234883 6.7918 0.0679492L0.609055 3.63755C0.413137 3.75007 0.345311 4.00106 0.457858 4.19706C0.483383 4.24148 0.51692 4.28061 0.5565 4.3124ZM7.01698 0.884406L12.3664 3.9865L6.99472 7.08784L1.63357 3.99246L7.01698 0.884406Z" fill="#231815"/>
<path d="M13.3879 6.64357L12.2278 5.97079L11.4076 6.44428L12.3664 7.00033L6.99472 10.1016L1.63357 7.00629L2.59443 6.45154L1.77475 5.97829L0.609041 6.65135C0.413123 6.76391 0.345297 7.0149 0.457858 7.21085C0.483821 7.25606 0.518096 7.29576 0.558565 7.32785L0.555967 7.33224L6.78903 10.9309C6.85151 10.9671 6.92252 10.9862 6.99438 10.9862C7.06848 10.9862 7.14126 10.9662 7.20416 10.9287L13.3919 7.35633C13.5877 7.24285 13.6548 6.9912 13.5413 6.79535C13.5044 6.73162 13.4511 6.679 13.3879 6.64357Z" fill="#231815"/>
<path d="M13.3879 9.65739L12.2325 8.98736L11.4124 9.46084L12.3664 10.0141L6.99474 13.1155L1.63357 10.0201L2.58964 9.46809L1.77 8.99486L0.609054 9.6652C0.413122 9.77776 0.34531 10.0287 0.45787 10.2247C0.483532 10.2694 0.517357 10.3087 0.557278 10.3406L0.554435 10.3451L6.78901 13.9447C6.85151 13.9809 6.92253 14 6.99441 14C7.06848 14 7.14126 13.98 7.20416 13.9426L13.3919 10.3701C13.5877 10.2566 13.6548 10.005 13.5413 9.80912C13.5045 9.74548 13.4512 9.69285 13.3879 9.65739Z" fill="#231815"/>
</g>
<defs>
<clipPath id="clip0_363_114">
<rect width="14" height="14" fill="white"/>
</clipPath>
</defs>
</svg>
