<svg width="16" height="16" viewBox="0 0 16 16" fill="none" xmlns="http://www.w3.org/2000/svg">
<path d="M3.39705 14.267V13.435H11.135V14.267H3.39705ZM9.09705 11.953L7.10005 8.42901L9.09605 4.90601H13.087L15.083 8.42901L13.087 11.952H9.09705V11.953ZM9.55705 8.42901C9.53905 9.32401 10.218 10.063 11.071 10.075C11.923 10.088 12.622 9.36901 12.628 8.47501C12.634 7.58001 11.945 6.85101 11.093 6.85101C10.254 6.84301 9.56705 7.54801 9.55705 8.42901ZM8.18805 11.866H0.998047V1.47601H13.204V4.00301H8.71405L6.12805 8.35501L8.18705 11.865V11.866H8.18805Z" fill="black"/>
</svg>
