<svg width="16" height="16" viewBox="0 0 16 16" fill="none" xmlns="http://www.w3.org/2000/svg">
<path d="M5.15073 10.0928C2.4158 8.592 1.87073 4.70614 3.8494 2.5088C6.15233 -0.0511974 10.8659 0.110936 12.6281 3.17014C13.4089 4.52587 13.587 6.06294 12.9374 7.5008C12.6665 8.09814 12.2462 8.6208 11.7961 9.11147C11.7257 9.18614 11.6467 9.26614 11.5657 9.34827C11.235 9.68107 10.8542 10.0629 10.8243 10.4981C10.755 11.504 10.211 11.6288 9.3886 11.8165C9.28193 11.8411 9.16993 11.8667 9.05366 11.8955C8.5182 12.0267 7.98273 12.16 7.44833 12.2933C6.98006 12.4107 6.51393 12.5259 6.04566 12.6411C5.37793 12.8064 5.091 11.8453 5.75766 11.6811L9.69366 10.7104C9.71713 10.6219 9.73846 10.5344 9.75873 10.4469C9.85153 10.0555 9.94006 9.67787 10.2281 9.3248C10.3998 9.11147 10.5875 8.9088 10.7753 8.70614C11.0739 8.38187 11.3747 8.05654 11.6137 7.6928C12.7838 5.90827 12.3006 3.35894 10.2697 2.26347C8.003 1.04 4.78486 1.88694 3.95606 4.32214C3.38646 5.9936 3.94433 8.2848 5.68406 9.23947C6.2782 9.5648 5.747 10.4192 5.15073 10.0928ZM7.1422 3.16694C6.56256 3.29706 6.0328 3.59174 5.61654 4.01557C5.20027 4.4394 4.91519 4.97438 4.79553 5.55627C4.77155 5.65952 4.78954 5.76807 4.84554 5.85807C4.90154 5.94807 4.99097 6.01216 5.0942 6.03627C5.1102 6.03627 5.12406 6.0416 5.13686 6.04694C5.15073 6.05227 5.16353 6.0576 5.17953 6.0576C5.37153 6.0576 5.53153 5.9296 5.56353 5.7376C5.65194 5.30633 5.86307 4.90978 6.17152 4.59565C6.47997 4.28152 6.87261 4.0632 7.3022 3.96694C7.40542 3.94283 7.49485 3.87874 7.55086 3.78874C7.60686 3.69874 7.62484 3.59019 7.60086 3.48694C7.55286 3.26294 7.3662 3.11894 7.1422 3.16694ZM6.03713 14.144C5.36726 14.304 5.091 13.344 5.7598 13.184C6.4478 13.0197 7.1358 12.8576 7.8238 12.6955C8.547 12.5248 9.27126 12.3541 9.99446 12.1813C10.6643 12.0213 10.9406 12.9813 10.2718 13.1413C9.57206 13.3088 8.87233 13.4731 8.1726 13.6384C7.46006 13.8059 6.7486 13.9744 6.03713 14.144ZM7.96993 14.6827C7.72642 14.6732 7.48931 14.602 7.28086 14.4757L7.27766 14.4736C7.18166 14.4181 7.0782 14.3573 7.20193 14.448C6.6654 14.0555 5.90166 14.7552 6.4446 15.152C7.32353 15.7952 8.4638 15.8187 9.3886 15.2267C9.95393 14.8651 9.41526 13.9979 8.8446 14.3627C8.58646 14.528 8.28673 14.6656 7.96993 14.6827Z" fill="currentColor"/>
</svg>
