<svg width="12" height="12" viewBox="0 0 12 12" fill="none" xmlns="http://www.w3.org/2000/svg">
<g opacity="0.45" clip-path="url(#clip0_254_677)">
<path fill-rule="evenodd" clip-rule="evenodd" d="M3.78599 0.683899C5.20768 0.0933232 6.77439 0.0924956 8.19614 0.677063C9.61784 1.26158 10.7259 2.37123 11.3163 3.78741C11.9066 5.20959 11.9065 6.77058 11.3221 8.19269C10.7377 9.61465 9.62929 10.7233 8.21372 11.3138C7.49702 11.609 6.74386 11.7601 5.99692 11.7601C5.25605 11.76 4.50931 11.6149 3.80454 11.3196C2.38284 10.7351 1.27385 9.62645 0.683448 8.21027C0.0930971 6.79412 0.0932049 5.22713 0.677589 3.80499C1.26195 2.38292 2.37043 1.2745 3.78599 0.683899ZM6.97446 4.92609C6.72847 4.6681 6.27277 4.48791 4.58091 6.02374C4.44291 6.14974 4.46059 6.37156 4.80259 6.23956C5.14457 6.09555 6.05608 5.49603 6.10435 5.90363C6.10435 5.90363 5.25926 8.73903 5.31235 9.08331C5.35435 9.43131 5.59481 9.65366 5.87681 9.48566C6.54878 9.08367 7.40654 8.56771 7.26255 8.35773C7.11844 8.14797 6.45871 8.76538 6.29673 8.57941C6.13556 8.39163 7.22012 5.18453 6.97446 4.92609ZM6.92271 2.46027C6.55588 2.46038 6.20711 2.75697 6.20689 3.11945C6.20689 3.48214 6.44345 3.7796 6.8104 3.7796C7.17742 3.7796 7.52622 3.48215 7.52622 3.11945C7.52607 2.7569 7.28955 2.46027 6.92271 2.46027Z" fill="#505050"/>
</g>
<defs>
<clipPath id="clip0_254_677">
<rect width="12" height="12" fill="white"/>
</clipPath>
</defs>
</svg>
