<svg width="42" height="42" viewBox="0 0 42 42" fill="none" xmlns="http://www.w3.org/2000/svg">
<path d="M20.9579 2.58936C10.8061 2.58936 2.57642 10.8191 2.57642 20.9709C2.57642 31.1228 10.8061 39.3525 20.9579 39.3525C31.1098 39.3525 39.3395 31.1228 39.3395 20.9709C39.3395 10.8191 31.1098 2.58936 20.9579 2.58936ZM20.9581 31.9336L10.6328 24.8647L11.8442 23.6076L20.9581 29.6168L30.0557 23.5808L31.2832 24.8647L20.9581 31.9336ZM20.9581 28.0397L10.6328 20.9709L11.8442 19.7137L20.9581 25.723L30.0557 19.6869L31.2832 20.9709L20.9581 28.0397ZM20.9581 24.1456L10.6328 17.077L20.9581 10.0082L31.2832 17.077L20.9581 24.1456Z" fill="#99B1D8"/>
</svg>
