<svg width="48" height="48" viewBox="0 0 48 48" fill="none" xmlns="http://www.w3.org/2000/svg">
<rect opacity="0.01" width="48" height="48" fill="black"/>
<path fill-rule="evenodd" clip-rule="evenodd" d="M39 3H9C8.17031 3 7.5 3.67031 7.5 4.5V43.5C7.5 44.3297 8.17031 45 9 45H39C39.8297 45 40.5 44.3297 40.5 43.5V4.5C40.5 3.67031 39.8297 3 39 3ZM37.125 41.625H10.875V32.2031H15.4641C16.0078 33.7406 16.9641 35.1234 18.2344 36.1734C19.8516 37.5094 21.9 38.25 24 38.25C26.1 38.25 28.1484 37.5141 29.7656 36.1734C31.0359 35.1234 31.9922 33.7406 32.5359 32.2031H37.125V29.25H30.1688L29.925 30.4078C29.3625 33.2109 26.8687 35.25 24 35.25C21.1313 35.25 18.6375 33.2109 18.0703 30.4078L17.8266 29.25H10.875V6.375H37.125V41.625ZM15 15.9844H33C33.2062 15.9844 33.375 15.8156 33.375 15.6094V13.3594C33.375 13.1531 33.2062 12.9844 33 12.9844H15C14.7937 12.9844 14.625 13.1531 14.625 13.3594V15.6094C14.625 15.8156 14.7937 15.9844 15 15.9844ZM15 23.4844H33C33.2062 23.4844 33.375 23.3156 33.375 23.1094V20.8594C33.375 20.6531 33.2062 20.4844 33 20.4844H15C14.7937 20.4844 14.625 20.6531 14.625 20.8594V23.1094C14.625 23.3156 14.7937 23.4844 15 23.4844Z" fill="black"/>
</svg>
